%TF.GenerationSoftware,KiCad,Pcbnew,(5.1.10-1-10_14)*%
%TF.CreationDate,2021-10-18T16:54:11-04:00*%
%TF.ProjectId,ISAAC,49534141-432e-46b6-9963-61645f706362,rev?*%
%TF.SameCoordinates,Original*%
%TF.FileFunction,Copper,L2,Bot*%
%TF.FilePolarity,Positive*%
%FSLAX46Y46*%
G04 Gerber Fmt 4.6, Leading zero omitted, Abs format (unit mm)*
G04 Created by KiCad (PCBNEW (5.1.10-1-10_14)) date 2021-10-18 16:54:11*
%MOMM*%
%LPD*%
G01*
G04 APERTURE LIST*
%TA.AperFunction,ComponentPad*%
%ADD10C,1.200000*%
%TD*%
%TA.AperFunction,ComponentPad*%
%ADD11R,1.200000X1.200000*%
%TD*%
%TA.AperFunction,ComponentPad*%
%ADD12O,1.700000X1.700000*%
%TD*%
%TA.AperFunction,ComponentPad*%
%ADD13R,1.700000X1.700000*%
%TD*%
%TA.AperFunction,ComponentPad*%
%ADD14C,1.524000*%
%TD*%
%TA.AperFunction,ComponentPad*%
%ADD15O,1.200000X2.400000*%
%TD*%
%TA.AperFunction,ComponentPad*%
%ADD16C,3.716000*%
%TD*%
%TA.AperFunction,ComponentPad*%
%ADD17R,3.716000X3.716000*%
%TD*%
%TA.AperFunction,ComponentPad*%
%ADD18C,1.650000*%
%TD*%
%TA.AperFunction,ComponentPad*%
%ADD19R,1.650000X1.650000*%
%TD*%
%TA.AperFunction,ComponentPad*%
%ADD20O,2.700000X3.700000*%
%TD*%
%TA.AperFunction,ViaPad*%
%ADD21C,0.800000*%
%TD*%
%TA.AperFunction,Conductor*%
%ADD22C,0.250000*%
%TD*%
G04 APERTURE END LIST*
D10*
%TO.P,C2,2*%
%TO.N,GND*%
X155194000Y-58190000D03*
D11*
%TO.P,C2,1*%
%TO.N,VCC*%
X155194000Y-59690000D03*
%TD*%
D10*
%TO.P,C1,2*%
%TO.N,GND*%
X155194000Y-65508000D03*
D11*
%TO.P,C1,1*%
%TO.N,+3.3VA*%
X155194000Y-64008000D03*
%TD*%
D12*
%TO.P,e1,43*%
%TO.N,Net-(e1-Pad43)*%
X105132000Y-113538000D03*
D13*
%TO.P,e1,42*%
%TO.N,Net-(e1-Pad42)*%
X105132000Y-110998000D03*
D12*
%TO.P,e1,41*%
%TO.N,Net-(e1-Pad41)*%
X105132000Y-108458000D03*
%TO.P,e1,40*%
%TO.N,Net-(e1-Pad40)*%
X153162000Y-119888000D03*
%TO.P,e1,39*%
%TO.N,+3.3VA*%
X150622000Y-119888000D03*
D13*
%TO.P,e1,38*%
%TO.N,GND*%
X148082000Y-119888000D03*
D12*
%TO.P,e1,37*%
%TO.N,Net-(e1-Pad37)*%
X145542000Y-119888000D03*
%TO.P,e1,36*%
%TO.N,+3V3*%
X143002000Y-119888000D03*
%TO.P,e1,35*%
%TO.N,Net-(e1-Pad35)*%
X140462000Y-119888000D03*
%TO.P,e1,34*%
%TO.N,Net-(e1-Pad34)*%
X137922000Y-119888000D03*
D13*
%TO.P,e1,33*%
%TO.N,Net-(e1-Pad33)*%
X135382000Y-119888000D03*
D12*
%TO.P,e1,32*%
%TO.N,Net-(e1-Pad32)*%
X132842000Y-119888000D03*
%TO.P,e1,31*%
%TO.N,Net-(e1-Pad31)*%
X130302000Y-119888000D03*
%TO.P,e1,30*%
%TO.N,Net-(e1-Pad30)*%
X127762000Y-119888000D03*
%TO.P,e1,29*%
%TO.N,Net-(e1-Pad29)*%
X125222000Y-119888000D03*
D13*
%TO.P,e1,28*%
%TO.N,Net-(e1-Pad28)*%
X122682000Y-119888000D03*
D12*
%TO.P,e1,27*%
%TO.N,Net-(e1-Pad27)*%
X120142000Y-119888000D03*
%TO.P,e1,26*%
%TO.N,Net-(e1-Pad26)*%
X117602000Y-119888000D03*
%TO.P,e1,25*%
%TO.N,Net-(e1-Pad25)*%
X115062000Y-119888000D03*
%TO.P,e1,24*%
%TO.N,Net-(e1-Pad24)*%
X112522000Y-119888000D03*
D13*
%TO.P,e1,23*%
%TO.N,Net-(e1-Pad23)*%
X109982000Y-119888000D03*
D12*
%TO.P,e1,22*%
%TO.N,MPU_SCL*%
X107442000Y-119888000D03*
%TO.P,e1,21*%
%TO.N,MPU_SDA*%
X104902000Y-119888000D03*
%TO.P,e1,20*%
%TO.N,GATE16*%
X104902000Y-102108000D03*
%TO.P,e1,19*%
%TO.N,GATE15*%
X107442000Y-102108000D03*
D13*
%TO.P,e1,18*%
%TO.N,Net-(e1-Pad18)*%
X109982000Y-102108000D03*
D12*
%TO.P,e1,17*%
%TO.N,GATE14*%
X112522000Y-102108000D03*
%TO.P,e1,16*%
%TO.N,GATE13*%
X115062000Y-102108000D03*
%TO.P,e1,15*%
%TO.N,GATE12*%
X117602000Y-102108000D03*
%TO.P,e1,14*%
%TO.N,GATE11*%
X120142000Y-102108000D03*
D13*
%TO.P,e1,13*%
%TO.N,Net-(e1-Pad13)*%
X122682000Y-102108000D03*
D12*
%TO.P,e1,12*%
%TO.N,GATE10*%
X125222000Y-102108000D03*
%TO.P,e1,11*%
%TO.N,GATE9*%
X127762000Y-102108000D03*
%TO.P,e1,10*%
%TO.N,GATE8*%
X130302000Y-102108000D03*
%TO.P,e1,9*%
%TO.N,GATE7*%
X132842000Y-102108000D03*
D13*
%TO.P,e1,8*%
%TO.N,Net-(e1-Pad8)*%
X135382000Y-102108000D03*
D12*
%TO.P,e1,7*%
%TO.N,GATE6*%
X137922000Y-102108000D03*
%TO.P,e1,6*%
%TO.N,GATE5*%
X140462000Y-102108000D03*
%TO.P,e1,5*%
%TO.N,GATE4*%
X143002000Y-102108000D03*
%TO.P,e1,4*%
%TO.N,GATE3*%
X145542000Y-102108000D03*
D13*
%TO.P,e1,3*%
%TO.N,Net-(e1-Pad3)*%
X148082000Y-102108000D03*
D12*
%TO.P,e1,2*%
%TO.N,GATE2*%
X150622000Y-102108000D03*
%TO.P,e1,1*%
%TO.N,GATE1*%
X153162000Y-102108000D03*
%TD*%
D14*
%TO.P,U6,8*%
%TO.N,Net-(U6-Pad8)*%
X121412000Y-74422000D03*
%TO.P,U6,7*%
%TO.N,Net-(U6-Pad7)*%
X121412000Y-76962000D03*
%TO.P,U6,6*%
%TO.N,Net-(U6-Pad6)*%
X121412000Y-79502000D03*
%TO.P,U6,5*%
%TO.N,Net-(U6-Pad5)*%
X121412000Y-82042000D03*
%TO.P,U6,4*%
%TO.N,MPU_SDA*%
X121412000Y-84582000D03*
%TO.P,U6,3*%
%TO.N,MPU_SCL*%
X121412000Y-87122000D03*
%TO.P,U6,2*%
%TO.N,GND*%
X121412000Y-89662000D03*
%TO.P,U6,1*%
%TO.N,+3V3*%
X121412000Y-92202000D03*
%TD*%
D15*
%TO.P,J4,S2*%
%TO.N,N/C*%
X92043200Y-55981600D03*
%TO.P,J4,S1*%
X78543200Y-55981600D03*
D16*
%TO.P,J4,2*%
%TO.N,GND*%
X88893200Y-61981600D03*
D17*
%TO.P,J4,1*%
%TO.N,VCC*%
X81693200Y-61981600D03*
%TD*%
D18*
%TO.P,J3,2*%
%TO.N,VCC*%
X149606000Y-49530000D03*
D19*
%TO.P,J3,1*%
X144526000Y-49530000D03*
%TD*%
D20*
%TO.P,J2,8*%
%TO.N,SOL8*%
X135746600Y-65139200D03*
%TO.P,J2,7*%
%TO.N,SOL7*%
X131546600Y-65139200D03*
%TO.P,J2,6*%
%TO.N,SOL6*%
X127346600Y-65139200D03*
%TO.P,J2,5*%
%TO.N,SOL5*%
X123146600Y-65139200D03*
%TO.P,J2,4*%
%TO.N,SOL4*%
X135746600Y-59639200D03*
%TO.P,J2,3*%
%TO.N,SOL3*%
X131546600Y-59639200D03*
%TO.P,J2,2*%
%TO.N,SOL2*%
X127346600Y-59639200D03*
%TO.P,J2,1*%
%TO.N,SOL1*%
%TA.AperFunction,ComponentPad*%
G36*
G01*
X121796600Y-61239199D02*
X121796600Y-58039201D01*
G75*
G02*
X122046601Y-57789200I250001J0D01*
G01*
X124246599Y-57789200D01*
G75*
G02*
X124496600Y-58039201I0J-250001D01*
G01*
X124496600Y-61239199D01*
G75*
G02*
X124246599Y-61489200I-250001J0D01*
G01*
X122046601Y-61489200D01*
G75*
G02*
X121796600Y-61239199I0J250001D01*
G01*
G37*
%TD.AperFunction*%
%TD*%
%TO.P,J1,8*%
%TO.N,SOL16*%
X112378600Y-65012200D03*
%TO.P,J1,7*%
%TO.N,SOL15*%
X108178600Y-65012200D03*
%TO.P,J1,6*%
%TO.N,SOL14*%
X103978600Y-65012200D03*
%TO.P,J1,5*%
%TO.N,SOL13*%
X99778600Y-65012200D03*
%TO.P,J1,4*%
%TO.N,SOL12*%
X112378600Y-59512200D03*
%TO.P,J1,3*%
%TO.N,SOL11*%
X108178600Y-59512200D03*
%TO.P,J1,2*%
%TO.N,SOL10*%
X103978600Y-59512200D03*
%TO.P,J1,1*%
%TO.N,SOL9*%
%TA.AperFunction,ComponentPad*%
G36*
G01*
X98428600Y-61112199D02*
X98428600Y-57912201D01*
G75*
G02*
X98678601Y-57662200I250001J0D01*
G01*
X100878599Y-57662200D01*
G75*
G02*
X101128600Y-57912201I0J-250001D01*
G01*
X101128600Y-61112199D01*
G75*
G02*
X100878599Y-61362200I-250001J0D01*
G01*
X98678601Y-61362200D01*
G75*
G02*
X98428600Y-61112199I0J250001D01*
G01*
G37*
%TD.AperFunction*%
%TD*%
D21*
%TO.N,SOL16*%
X80518000Y-90678000D03*
%TO.N,SOL15*%
X77978000Y-86868000D03*
%TO.N,SOL14*%
X90678000Y-90678000D03*
%TO.N,SOL13*%
X87630000Y-90678000D03*
%TO.N,SOL12*%
X100584000Y-90678000D03*
%TO.N,SOL11*%
X98044000Y-90424000D03*
%TO.N,SOL10*%
X83820000Y-120650000D03*
%TO.N,SOL9*%
X81280000Y-116840000D03*
%TO.N,SOL8*%
X93980000Y-120650000D03*
%TO.N,SOL7*%
X91440000Y-116586000D03*
%TO.N,SOL6*%
X130302000Y-90678000D03*
%TO.N,SOL5*%
X127762000Y-91186000D03*
%TO.N,SOL4*%
X140462000Y-90678000D03*
%TO.N,SOL3*%
X137668000Y-90678000D03*
%TO.N,SOL1*%
X147828000Y-90424000D03*
%TO.N,GND*%
X152000000Y-96266000D03*
X148000000Y-96266000D03*
X142000000Y-96280000D03*
X138000000Y-96344000D03*
X133350000Y-96266000D03*
X129286000Y-96266000D03*
X98000000Y-96476000D03*
X102000000Y-96266000D03*
X92710000Y-96520000D03*
X82000000Y-96478000D03*
X78000000Y-96498000D03*
X95330000Y-126492000D03*
X91330000Y-126492000D03*
X85330000Y-126478000D03*
X81330000Y-126492000D03*
X88000000Y-96302990D03*
%TO.N,GATE8*%
X130048000Y-106680000D03*
%TO.N,GATE10*%
X124714000Y-106426000D03*
%TO.N,SOL2*%
X150368000Y-90678000D03*
%TD*%
D22*
%TO.N,SOL16*%
X112378600Y-65012200D02*
X109342400Y-61976000D01*
X109342400Y-61976000D02*
X94996000Y-61976000D01*
X94996000Y-61976000D02*
X76708000Y-80264000D01*
X76708000Y-80264000D02*
X76708000Y-89662000D01*
X76708000Y-89662000D02*
X77724000Y-90678000D01*
X77724000Y-90678000D02*
X80518000Y-90678000D01*
X80518000Y-90678000D02*
X80518000Y-90678000D01*
%TO.N,SOL15*%
X77978000Y-86868000D02*
X77978000Y-87122000D01*
X77978000Y-81026000D02*
X77978000Y-86868000D01*
X108004400Y-62738000D02*
X96266000Y-62738000D01*
X96266000Y-62738000D02*
X77978000Y-81026000D01*
X108178600Y-62912200D02*
X108004400Y-62738000D01*
X108178600Y-65012200D02*
X108178600Y-62912200D01*
%TO.N,SOL14*%
X93726000Y-87630000D02*
X90678000Y-90678000D01*
X93726000Y-74930000D02*
X93726000Y-87630000D01*
X103643800Y-65012200D02*
X93726000Y-74930000D01*
X103978600Y-65012200D02*
X103643800Y-65012200D01*
X90678000Y-90678000D02*
X90678000Y-90678000D01*
%TO.N,SOL13*%
X97293800Y-65012200D02*
X86614000Y-75692000D01*
X99778600Y-65012200D02*
X97293800Y-65012200D01*
X86614000Y-75692000D02*
X86614000Y-89662000D01*
X86614000Y-89662000D02*
X87630000Y-90678000D01*
X87630000Y-90678000D02*
X87630000Y-90678000D01*
%TO.N,SOL12*%
X100584000Y-90678000D02*
X100584000Y-90678000D01*
X114554000Y-76708000D02*
X100584000Y-90678000D01*
X113106200Y-59512200D02*
X114554000Y-60960000D01*
X114554000Y-60960000D02*
X114554000Y-76708000D01*
X112378600Y-59512200D02*
X113106200Y-59512200D01*
%TO.N,SOL11*%
X98552000Y-89916000D02*
X98044000Y-90424000D01*
X98552000Y-89154000D02*
X98552000Y-89916000D01*
X114103990Y-73602010D02*
X98552000Y-89154000D01*
X114103990Y-63868769D02*
X114103990Y-73602010D01*
X112465221Y-62230000D02*
X114103990Y-63868769D01*
X110896400Y-62230000D02*
X112465221Y-62230000D01*
X108178600Y-59512200D02*
X110896400Y-62230000D01*
X98044000Y-90424000D02*
X98044000Y-90424000D01*
%TO.N,SOL10*%
X103978600Y-59512200D02*
X103978600Y-59343400D01*
X81026000Y-120650000D02*
X83820000Y-120650000D01*
X79756000Y-119380000D02*
X81026000Y-120650000D01*
X79756000Y-101854000D02*
X79756000Y-119380000D01*
X74676000Y-77978000D02*
X74676000Y-96774000D01*
X92710000Y-58928000D02*
X86106000Y-58928000D01*
X95758000Y-55880000D02*
X92710000Y-58928000D01*
X85344000Y-67310000D02*
X74676000Y-77978000D01*
X86106000Y-58928000D02*
X85344000Y-59690000D01*
X85344000Y-59690000D02*
X85344000Y-67310000D01*
X74676000Y-96774000D02*
X79756000Y-101854000D01*
X100346400Y-55880000D02*
X95758000Y-55880000D01*
X103978600Y-59512200D02*
X100346400Y-55880000D01*
X83820000Y-120650000D02*
X83820000Y-120650000D01*
%TO.N,SOL9*%
X94593442Y-59512200D02*
X75438000Y-78667642D01*
X99778600Y-59512200D02*
X94593442Y-59512200D01*
X75438000Y-78667642D02*
X75438000Y-95758000D01*
X75438000Y-95758000D02*
X81280000Y-101600000D01*
X81280000Y-101600000D02*
X81280000Y-116840000D01*
X81280000Y-116840000D02*
X81280000Y-116840000D01*
%TO.N,SOL8*%
X131477001Y-69408799D02*
X131477001Y-123284999D01*
X135746600Y-65139200D02*
X131477001Y-69408799D01*
X131477001Y-123284999D02*
X131318000Y-123444000D01*
X131318000Y-123444000D02*
X99314000Y-123444000D01*
X99314000Y-123444000D02*
X96520000Y-120650000D01*
X96520000Y-120650000D02*
X93980000Y-120650000D01*
X93980000Y-120650000D02*
X93980000Y-120650000D01*
%TO.N,SOL7*%
X131546600Y-65139200D02*
X129145400Y-62738000D01*
X122678979Y-62738000D02*
X116586000Y-68830979D01*
X129145400Y-62738000D02*
X122678979Y-62738000D01*
X116586000Y-82753002D02*
X91440000Y-107899002D01*
X116586000Y-68830979D02*
X116586000Y-82753002D01*
X91440000Y-107899002D02*
X91440000Y-116586000D01*
X91440000Y-116586000D02*
X91440000Y-116586000D01*
%TO.N,SOL6*%
X127346600Y-65139200D02*
X127346600Y-65624600D01*
X127346600Y-65624600D02*
X130302000Y-68580000D01*
X130302000Y-68580000D02*
X130302000Y-90678000D01*
X130302000Y-90678000D02*
X130302000Y-90678000D01*
%TO.N,SOL5*%
X124968000Y-88646000D02*
X127508000Y-91186000D01*
X124968000Y-68072000D02*
X124968000Y-88646000D01*
X123146600Y-66250600D02*
X124968000Y-68072000D01*
X127508000Y-91186000D02*
X127762000Y-91186000D01*
X123146600Y-65139200D02*
X123146600Y-66250600D01*
X127762000Y-91186000D02*
X127762000Y-91186000D01*
%TO.N,SOL4*%
X135746600Y-59639200D02*
X136093200Y-59639200D01*
X136093200Y-59639200D02*
X140462000Y-64008000D01*
X140462000Y-64008000D02*
X140462000Y-90678000D01*
X140462000Y-90678000D02*
X140462000Y-90678000D01*
%TO.N,SOL3*%
X137668000Y-90678000D02*
X137668000Y-90678000D01*
X137668000Y-72644000D02*
X137668000Y-90678000D01*
X137668000Y-63754000D02*
X137668000Y-72644000D01*
X136144000Y-62230000D02*
X137668000Y-63754000D01*
X134137400Y-62230000D02*
X136144000Y-62230000D01*
X131546600Y-59639200D02*
X134137400Y-62230000D01*
%TO.N,SOL1*%
X147828000Y-90424000D02*
X147828000Y-90424000D01*
X147828000Y-66294000D02*
X147828000Y-90424000D01*
X126238000Y-56134000D02*
X137668000Y-56134000D01*
X137668000Y-56134000D02*
X147828000Y-66294000D01*
X123146600Y-59225400D02*
X126238000Y-56134000D01*
X123146600Y-59639200D02*
X123146600Y-59225400D01*
%TO.N,GND*%
X81980000Y-96498000D02*
X82000000Y-96478000D01*
X78000000Y-96498000D02*
X81980000Y-96498000D01*
X97956000Y-96520000D02*
X98000000Y-96476000D01*
X92710000Y-96520000D02*
X97956000Y-96520000D01*
X101790000Y-96476000D02*
X102000000Y-96266000D01*
X98000000Y-96476000D02*
X101790000Y-96476000D01*
X137922000Y-96266000D02*
X138000000Y-96344000D01*
X133350000Y-96266000D02*
X137922000Y-96266000D01*
X141936000Y-96344000D02*
X142000000Y-96280000D01*
X138000000Y-96344000D02*
X141936000Y-96344000D01*
X147986000Y-96280000D02*
X148000000Y-96266000D01*
X142000000Y-96280000D02*
X147986000Y-96280000D01*
X148000000Y-96266000D02*
X152000000Y-96266000D01*
X92710000Y-96520000D02*
X88217010Y-96520000D01*
X82000000Y-96478000D02*
X87824990Y-96478000D01*
X87824990Y-96478000D02*
X88000000Y-96302990D01*
X88217010Y-96520000D02*
X88000000Y-96302990D01*
%TO.N,GATE8*%
X130302000Y-106426000D02*
X130048000Y-106680000D01*
X130302000Y-102108000D02*
X130302000Y-106426000D01*
%TO.N,GATE10*%
X125222000Y-105918000D02*
X124714000Y-106426000D01*
X125222000Y-102108000D02*
X125222000Y-105918000D01*
%TO.N,MPU_SDA*%
X120324999Y-85669001D02*
X120324999Y-96702999D01*
X121412000Y-84582000D02*
X120324999Y-85669001D01*
X120324999Y-96702999D02*
X121412000Y-97790000D01*
X104902000Y-119087002D02*
X104902000Y-119888000D01*
X121412000Y-102577002D02*
X104902000Y-119087002D01*
X121412000Y-97790000D02*
X121412000Y-102577002D01*
%TO.N,MPU_SCL*%
X123952000Y-103378000D02*
X122936000Y-104394000D01*
X123952000Y-89662000D02*
X123952000Y-103378000D01*
X122936000Y-104394000D02*
X107442000Y-119888000D01*
X121412000Y-87122000D02*
X123952000Y-89662000D01*
%TO.N,SOL2*%
X150368000Y-90678000D02*
X150368000Y-90678000D01*
X149606000Y-91440000D02*
X150368000Y-90678000D01*
X147291499Y-91440000D02*
X149606000Y-91440000D01*
X146558000Y-90706501D02*
X147291499Y-91440000D01*
X136126221Y-57150000D02*
X146558000Y-67581779D01*
X128016000Y-57150000D02*
X136126221Y-57150000D01*
X127346600Y-57819400D02*
X128016000Y-57150000D01*
X146558000Y-67581779D02*
X146558000Y-90706501D01*
X127346600Y-59639200D02*
X127346600Y-57819400D01*
%TD*%
M02*
