M48
INCH,TZ
T1C0.0157
T2C0.0236
T3C0.0300
T4C0.0402
T5C0.0433
T6C0.0709
T7C0.1063
T8C0.0591
T9C0.0709
T10C0.1181
T11C0.1260
%
G90
G05
T1
X30700Y-34200
X30709Y-37991
X31700Y-35700
X32000Y-46000
X32020Y-49800
X32283Y-37983
X33000Y-47500
X33594Y-49794
X34500Y-35700
X34646Y-37915
X35700Y-35700
X35957Y-49800
X36000Y-45900
X36500Y-38000
X37000Y-47500
X37531Y-49800
X38583Y-37983
X38600Y-35600
X39600Y-35700
X40157Y-37900
X49100Y-41900
X50300Y-35900
X50900Y-37900
X51200Y-42000
X51300Y-35700
X52500Y-37900
X54200Y-35700
X54331Y-37931
X55300Y-35700
X55906Y-37906
X58200Y-35600
X58268Y-37900
X59200Y-35700
X59843Y-37900
T2
X61100Y-22909
X61100Y-23500
X61100Y-25200
X61100Y-25791
T3
X47800Y-29300
X47800Y-30300
X47800Y-31300
X47800Y-32300
X47800Y-33300
X47800Y-34300
X47800Y-35300
X47800Y-36300
T4
X41300Y-40200
X41300Y-47200
X41391Y-42700
X41391Y-43700
X41391Y-44700
X42300Y-40200
X42300Y-47200
X43300Y-40200
X43300Y-47200
X44300Y-40200
X44300Y-47200
X45300Y-40200
X45300Y-47200
X46300Y-40200
X46300Y-47200
X47300Y-40200
X47300Y-47200
X48300Y-40200
X48300Y-47200
X49300Y-40200
X49300Y-47200
X50300Y-40200
X50300Y-47200
X51300Y-40200
X51300Y-47200
X52300Y-40200
X52300Y-47200
X53300Y-40200
X53300Y-47200
X54300Y-40200
X54300Y-47200
X55300Y-40200
X55300Y-47200
X56300Y-40200
X56300Y-47200
X57300Y-40200
X57300Y-47200
X58300Y-40200
X58300Y-47200
X59300Y-40200
X59300Y-47200
X60300Y-40200
X60300Y-47200
T5
X56900Y-19500
X58900Y-19500
T6
X39283Y-23430
X39283Y-25595
X40936Y-23430
X40936Y-25595
X42590Y-23430
X42590Y-25595
X44244Y-23430
X44244Y-25595
X48483Y-23480
X48483Y-25645
X50136Y-23480
X50136Y-25645
X51790Y-23480
X51790Y-25645
X53444Y-23480
X53444Y-25645
T7
X32163Y-24402
X34997Y-24402
T8
X59056Y-42745
X59056Y-44655
T9
X60249Y-42627
X60249Y-44773
T10
X39283Y-20556
X44244Y-20556
X48483Y-20606
X53444Y-20606
T11
X28700Y-19000
X28700Y-48700
X62800Y-19000
X62800Y-48700
T2
G00X30923Y-21823
M15
G01X30923Y-22257
M16
G05
G00X36237Y-21823
M15
G01X36237Y-22257
M16
G05
T0
M30
