%TF.GenerationSoftware,KiCad,Pcbnew,(5.1.10-1-10_14)*%
%TF.CreationDate,2021-10-18T16:54:11-04:00*%
%TF.ProjectId,ISAAC,49534141-432e-46b6-9963-61645f706362,rev?*%
%TF.SameCoordinates,Original*%
%TF.FileFunction,Soldermask,Bot*%
%TF.FilePolarity,Negative*%
%FSLAX46Y46*%
G04 Gerber Fmt 4.6, Leading zero omitted, Abs format (unit mm)*
G04 Created by KiCad (PCBNEW (5.1.10-1-10_14)) date 2021-10-18 16:54:11*
%MOMM*%
%LPD*%
G01*
G04 APERTURE LIST*
%ADD10C,3.200000*%
%ADD11C,1.200000*%
%ADD12R,1.200000X1.200000*%
%ADD13O,1.700000X1.700000*%
%ADD14R,1.700000X1.700000*%
%ADD15O,1.500000X1.500000*%
%ADD16O,1.800000X1.800000*%
%ADD17C,1.524000*%
%ADD18O,1.200000X2.400000*%
%ADD19C,3.716000*%
%ADD20R,3.716000X3.716000*%
%ADD21C,1.650000*%
%ADD22R,1.650000X1.650000*%
%ADD23C,3.000000*%
%ADD24O,2.700000X3.700000*%
G04 APERTURE END LIST*
D10*
%TO.C,H4*%
X159512000Y-123698000D03*
%TD*%
%TO.C,H3*%
X72898000Y-48260000D03*
%TD*%
%TO.C,H2*%
X159512000Y-48260000D03*
%TD*%
%TO.C,H1*%
X72898000Y-123698000D03*
%TD*%
D11*
%TO.C,C2*%
X155194000Y-58190000D03*
D12*
X155194000Y-59690000D03*
%TD*%
D11*
%TO.C,C1*%
X155194000Y-65508000D03*
D12*
X155194000Y-64008000D03*
%TD*%
D13*
%TO.C,e1*%
X105132000Y-113538000D03*
D14*
X105132000Y-110998000D03*
D13*
X105132000Y-108458000D03*
D15*
X150002000Y-113423000D03*
X150002000Y-108573000D03*
D16*
X153032000Y-113723000D03*
X153032000Y-108273000D03*
D13*
X153162000Y-119888000D03*
X150622000Y-119888000D03*
D14*
X148082000Y-119888000D03*
D13*
X145542000Y-119888000D03*
X143002000Y-119888000D03*
X140462000Y-119888000D03*
X137922000Y-119888000D03*
D14*
X135382000Y-119888000D03*
D13*
X132842000Y-119888000D03*
X130302000Y-119888000D03*
X127762000Y-119888000D03*
X125222000Y-119888000D03*
D14*
X122682000Y-119888000D03*
D13*
X120142000Y-119888000D03*
X117602000Y-119888000D03*
X115062000Y-119888000D03*
X112522000Y-119888000D03*
D14*
X109982000Y-119888000D03*
D13*
X107442000Y-119888000D03*
X104902000Y-119888000D03*
X104902000Y-102108000D03*
X107442000Y-102108000D03*
D14*
X109982000Y-102108000D03*
D13*
X112522000Y-102108000D03*
X115062000Y-102108000D03*
X117602000Y-102108000D03*
X120142000Y-102108000D03*
D14*
X122682000Y-102108000D03*
D13*
X125222000Y-102108000D03*
X127762000Y-102108000D03*
X130302000Y-102108000D03*
X132842000Y-102108000D03*
D14*
X135382000Y-102108000D03*
D13*
X137922000Y-102108000D03*
X140462000Y-102108000D03*
X143002000Y-102108000D03*
X145542000Y-102108000D03*
D14*
X148082000Y-102108000D03*
D13*
X150622000Y-102108000D03*
X153162000Y-102108000D03*
%TD*%
D17*
%TO.C,U6*%
X121412000Y-74422000D03*
X121412000Y-76962000D03*
X121412000Y-79502000D03*
X121412000Y-82042000D03*
X121412000Y-84582000D03*
X121412000Y-87122000D03*
X121412000Y-89662000D03*
X121412000Y-92202000D03*
%TD*%
D18*
%TO.C,J4*%
X92043200Y-55981600D03*
X78543200Y-55981600D03*
D19*
X88893200Y-61981600D03*
D20*
X81693200Y-61981600D03*
%TD*%
D21*
%TO.C,J3*%
X149606000Y-49530000D03*
D22*
X144526000Y-49530000D03*
%TD*%
D23*
%TO.C,J2*%
X135746600Y-52339200D03*
X123146600Y-52339200D03*
D24*
X135746600Y-65139200D03*
X131546600Y-65139200D03*
X127346600Y-65139200D03*
X123146600Y-65139200D03*
X135746600Y-59639200D03*
X131546600Y-59639200D03*
X127346600Y-59639200D03*
G36*
G01*
X121796600Y-61239199D02*
X121796600Y-58039201D01*
G75*
G02*
X122046601Y-57789200I250001J0D01*
G01*
X124246599Y-57789200D01*
G75*
G02*
X124496600Y-58039201I0J-250001D01*
G01*
X124496600Y-61239199D01*
G75*
G02*
X124246599Y-61489200I-250001J0D01*
G01*
X122046601Y-61489200D01*
G75*
G02*
X121796600Y-61239199I0J250001D01*
G01*
G37*
%TD*%
D23*
%TO.C,J1*%
X112378600Y-52212200D03*
X99778600Y-52212200D03*
D24*
X112378600Y-65012200D03*
X108178600Y-65012200D03*
X103978600Y-65012200D03*
X99778600Y-65012200D03*
X112378600Y-59512200D03*
X108178600Y-59512200D03*
X103978600Y-59512200D03*
G36*
G01*
X98428600Y-61112199D02*
X98428600Y-57912201D01*
G75*
G02*
X98678601Y-57662200I250001J0D01*
G01*
X100878599Y-57662200D01*
G75*
G02*
X101128600Y-57912201I0J-250001D01*
G01*
X101128600Y-61112199D01*
G75*
G02*
X100878599Y-61362200I-250001J0D01*
G01*
X98678601Y-61362200D01*
G75*
G02*
X98428600Y-61112199I0J250001D01*
G01*
G37*
%TD*%
M02*
