%TF.GenerationSoftware,KiCad,Pcbnew,(5.1.10-1-10_14)*%
%TF.CreationDate,2021-10-18T16:54:11-04:00*%
%TF.ProjectId,ISAAC,49534141-432e-46b6-9963-61645f706362,rev?*%
%TF.SameCoordinates,Original*%
%TF.FileFunction,Legend,Top*%
%TF.FilePolarity,Positive*%
%FSLAX46Y46*%
G04 Gerber Fmt 4.6, Leading zero omitted, Abs format (unit mm)*
G04 Created by KiCad (PCBNEW (5.1.10-1-10_14)) date 2021-10-18 16:54:11*
%MOMM*%
%LPD*%
G01*
G04 APERTURE LIST*
%ADD10C,0.300000*%
%ADD11C,0.750000*%
%ADD12C,0.120000*%
%ADD13C,0.152400*%
%ADD14C,0.200000*%
%ADD15C,0.127000*%
%ADD16C,0.150000*%
G04 APERTURE END LIST*
D10*
X159936571Y-116860857D02*
X158436571Y-116860857D01*
X158436571Y-116503714D01*
X158508000Y-116289428D01*
X158650857Y-116146571D01*
X158793714Y-116075142D01*
X159079428Y-116003714D01*
X159293714Y-116003714D01*
X159579428Y-116075142D01*
X159722285Y-116146571D01*
X159865142Y-116289428D01*
X159936571Y-116503714D01*
X159936571Y-116860857D01*
X159865142Y-114789428D02*
X159936571Y-114932285D01*
X159936571Y-115218000D01*
X159865142Y-115360857D01*
X159722285Y-115432285D01*
X159150857Y-115432285D01*
X159008000Y-115360857D01*
X158936571Y-115218000D01*
X158936571Y-114932285D01*
X159008000Y-114789428D01*
X159150857Y-114718000D01*
X159293714Y-114718000D01*
X159436571Y-115432285D01*
X159865142Y-114146571D02*
X159936571Y-114003714D01*
X159936571Y-113718000D01*
X159865142Y-113575142D01*
X159722285Y-113503714D01*
X159650857Y-113503714D01*
X159508000Y-113575142D01*
X159436571Y-113718000D01*
X159436571Y-113932285D01*
X159365142Y-114075142D01*
X159222285Y-114146571D01*
X159150857Y-114146571D01*
X159008000Y-114075142D01*
X158936571Y-113932285D01*
X158936571Y-113718000D01*
X159008000Y-113575142D01*
X159936571Y-112860857D02*
X158936571Y-112860857D01*
X158436571Y-112860857D02*
X158508000Y-112932285D01*
X158579428Y-112860857D01*
X158508000Y-112789428D01*
X158436571Y-112860857D01*
X158579428Y-112860857D01*
X158936571Y-111503714D02*
X160150857Y-111503714D01*
X160293714Y-111575142D01*
X160365142Y-111646571D01*
X160436571Y-111789428D01*
X160436571Y-112003714D01*
X160365142Y-112146571D01*
X159865142Y-111503714D02*
X159936571Y-111646571D01*
X159936571Y-111932285D01*
X159865142Y-112075142D01*
X159793714Y-112146571D01*
X159650857Y-112218000D01*
X159222285Y-112218000D01*
X159079428Y-112146571D01*
X159008000Y-112075142D01*
X158936571Y-111932285D01*
X158936571Y-111646571D01*
X159008000Y-111503714D01*
X158936571Y-110789428D02*
X159936571Y-110789428D01*
X159079428Y-110789428D02*
X159008000Y-110718000D01*
X158936571Y-110575142D01*
X158936571Y-110360857D01*
X159008000Y-110218000D01*
X159150857Y-110146571D01*
X159936571Y-110146571D01*
X159865142Y-108860857D02*
X159936571Y-109003714D01*
X159936571Y-109289428D01*
X159865142Y-109432285D01*
X159722285Y-109503714D01*
X159150857Y-109503714D01*
X159008000Y-109432285D01*
X158936571Y-109289428D01*
X158936571Y-109003714D01*
X159008000Y-108860857D01*
X159150857Y-108789428D01*
X159293714Y-108789428D01*
X159436571Y-109503714D01*
X159936571Y-107503714D02*
X158436571Y-107503714D01*
X159865142Y-107503714D02*
X159936571Y-107646571D01*
X159936571Y-107932285D01*
X159865142Y-108075142D01*
X159793714Y-108146571D01*
X159650857Y-108218000D01*
X159222285Y-108218000D01*
X159079428Y-108146571D01*
X159008000Y-108075142D01*
X158936571Y-107932285D01*
X158936571Y-107646571D01*
X159008000Y-107503714D01*
X159150857Y-105146571D02*
X159222285Y-104932285D01*
X159293714Y-104860857D01*
X159436571Y-104789428D01*
X159650857Y-104789428D01*
X159793714Y-104860857D01*
X159865142Y-104932285D01*
X159936571Y-105075142D01*
X159936571Y-105646571D01*
X158436571Y-105646571D01*
X158436571Y-105146571D01*
X158508000Y-105003714D01*
X158579428Y-104932285D01*
X158722285Y-104860857D01*
X158865142Y-104860857D01*
X159008000Y-104932285D01*
X159079428Y-105003714D01*
X159150857Y-105146571D01*
X159150857Y-105646571D01*
X158936571Y-104289428D02*
X159936571Y-103932285D01*
X158936571Y-103575142D02*
X159936571Y-103932285D01*
X160293714Y-104075142D01*
X160365142Y-104146571D01*
X160436571Y-104289428D01*
X159793714Y-103003714D02*
X159865142Y-102932285D01*
X159936571Y-103003714D01*
X159865142Y-103075142D01*
X159793714Y-103003714D01*
X159936571Y-103003714D01*
X159008000Y-103003714D02*
X159079428Y-102932285D01*
X159150857Y-103003714D01*
X159079428Y-103075142D01*
X159008000Y-103003714D01*
X159150857Y-103003714D01*
X159936571Y-101146571D02*
X158436571Y-101146571D01*
X158436571Y-100789428D01*
X158508000Y-100575142D01*
X158650857Y-100432285D01*
X158793714Y-100360857D01*
X159079428Y-100289428D01*
X159293714Y-100289428D01*
X159579428Y-100360857D01*
X159722285Y-100432285D01*
X159865142Y-100575142D01*
X159936571Y-100789428D01*
X159936571Y-101146571D01*
X158936571Y-99789428D02*
X159936571Y-99432285D01*
X158936571Y-99075142D02*
X159936571Y-99432285D01*
X160293714Y-99575142D01*
X160365142Y-99646571D01*
X160436571Y-99789428D01*
X159936571Y-98289428D02*
X159865142Y-98432285D01*
X159722285Y-98503714D01*
X158436571Y-98503714D01*
X159936571Y-97075142D02*
X159150857Y-97075142D01*
X159008000Y-97146571D01*
X158936571Y-97289428D01*
X158936571Y-97575142D01*
X159008000Y-97718000D01*
X159865142Y-97075142D02*
X159936571Y-97218000D01*
X159936571Y-97575142D01*
X159865142Y-97718000D01*
X159722285Y-97789428D01*
X159579428Y-97789428D01*
X159436571Y-97718000D01*
X159365142Y-97575142D01*
X159365142Y-97218000D01*
X159293714Y-97075142D01*
X158936571Y-96360857D02*
X159936571Y-96360857D01*
X159079428Y-96360857D02*
X159008000Y-96289428D01*
X158936571Y-96146571D01*
X158936571Y-95932285D01*
X159008000Y-95789428D01*
X159150857Y-95718000D01*
X159936571Y-95718000D01*
X159150857Y-93360857D02*
X159222285Y-93146571D01*
X159293714Y-93075142D01*
X159436571Y-93003714D01*
X159650857Y-93003714D01*
X159793714Y-93075142D01*
X159865142Y-93146571D01*
X159936571Y-93289428D01*
X159936571Y-93860857D01*
X158436571Y-93860857D01*
X158436571Y-93360857D01*
X158508000Y-93218000D01*
X158579428Y-93146571D01*
X158722285Y-93075142D01*
X158865142Y-93075142D01*
X159008000Y-93146571D01*
X159079428Y-93218000D01*
X159150857Y-93360857D01*
X159150857Y-93860857D01*
X159936571Y-91718000D02*
X159150857Y-91718000D01*
X159008000Y-91789428D01*
X158936571Y-91932285D01*
X158936571Y-92218000D01*
X159008000Y-92360857D01*
X159865142Y-91718000D02*
X159936571Y-91860857D01*
X159936571Y-92218000D01*
X159865142Y-92360857D01*
X159722285Y-92432285D01*
X159579428Y-92432285D01*
X159436571Y-92360857D01*
X159365142Y-92218000D01*
X159365142Y-91860857D01*
X159293714Y-91718000D01*
X159936571Y-90789428D02*
X159865142Y-90932285D01*
X159722285Y-91003714D01*
X158436571Y-91003714D01*
X159936571Y-90003714D02*
X159865142Y-90146571D01*
X159722285Y-90218000D01*
X158436571Y-90218000D01*
X159936571Y-89432285D02*
X158436571Y-89432285D01*
X159008000Y-89432285D02*
X158936571Y-89289428D01*
X158936571Y-89003714D01*
X159008000Y-88860857D01*
X159079428Y-88789428D01*
X159222285Y-88718000D01*
X159650857Y-88718000D01*
X159793714Y-88789428D01*
X159865142Y-88860857D01*
X159936571Y-89003714D01*
X159936571Y-89289428D01*
X159865142Y-89432285D01*
X159936571Y-87432285D02*
X159150857Y-87432285D01*
X159008000Y-87503714D01*
X158936571Y-87646571D01*
X158936571Y-87932285D01*
X159008000Y-88075142D01*
X159865142Y-87432285D02*
X159936571Y-87575142D01*
X159936571Y-87932285D01*
X159865142Y-88075142D01*
X159722285Y-88146571D01*
X159579428Y-88146571D01*
X159436571Y-88075142D01*
X159365142Y-87932285D01*
X159365142Y-87575142D01*
X159293714Y-87432285D01*
X159865142Y-86075142D02*
X159936571Y-86218000D01*
X159936571Y-86503714D01*
X159865142Y-86646571D01*
X159793714Y-86718000D01*
X159650857Y-86789428D01*
X159222285Y-86789428D01*
X159079428Y-86718000D01*
X159008000Y-86646571D01*
X158936571Y-86503714D01*
X158936571Y-86218000D01*
X159008000Y-86075142D01*
X159936571Y-85432285D02*
X158436571Y-85432285D01*
X159365142Y-85289428D02*
X159936571Y-84860857D01*
X158936571Y-84860857D02*
X159508000Y-85432285D01*
X159865142Y-84146571D02*
X159936571Y-84146571D01*
X160079428Y-84218000D01*
X160150857Y-84289428D01*
X159865142Y-82432285D02*
X159936571Y-82218000D01*
X159936571Y-81860857D01*
X159865142Y-81718000D01*
X159793714Y-81646571D01*
X159650857Y-81575142D01*
X159508000Y-81575142D01*
X159365142Y-81646571D01*
X159293714Y-81718000D01*
X159222285Y-81860857D01*
X159150857Y-82146571D01*
X159079428Y-82289428D01*
X159008000Y-82360857D01*
X158865142Y-82432285D01*
X158722285Y-82432285D01*
X158579428Y-82360857D01*
X158508000Y-82289428D01*
X158436571Y-82146571D01*
X158436571Y-81789428D01*
X158508000Y-81575142D01*
X159865142Y-80360857D02*
X159936571Y-80503714D01*
X159936571Y-80789428D01*
X159865142Y-80932285D01*
X159722285Y-81003714D01*
X159150857Y-81003714D01*
X159008000Y-80932285D01*
X158936571Y-80789428D01*
X158936571Y-80503714D01*
X159008000Y-80360857D01*
X159150857Y-80289428D01*
X159293714Y-80289428D01*
X159436571Y-81003714D01*
X159936571Y-79646571D02*
X158936571Y-79646571D01*
X159222285Y-79646571D02*
X159079428Y-79575142D01*
X159008000Y-79503714D01*
X158936571Y-79360857D01*
X158936571Y-79218000D01*
X158936571Y-78075142D02*
X160150857Y-78075142D01*
X160293714Y-78146571D01*
X160365142Y-78218000D01*
X160436571Y-78360857D01*
X160436571Y-78575142D01*
X160365142Y-78718000D01*
X159865142Y-78075142D02*
X159936571Y-78218000D01*
X159936571Y-78503714D01*
X159865142Y-78646571D01*
X159793714Y-78718000D01*
X159650857Y-78789428D01*
X159222285Y-78789428D01*
X159079428Y-78718000D01*
X159008000Y-78646571D01*
X158936571Y-78503714D01*
X158936571Y-78218000D01*
X159008000Y-78075142D01*
X159936571Y-77360857D02*
X158936571Y-77360857D01*
X158436571Y-77360857D02*
X158508000Y-77432285D01*
X158579428Y-77360857D01*
X158508000Y-77289428D01*
X158436571Y-77360857D01*
X158579428Y-77360857D01*
X159936571Y-76432285D02*
X159865142Y-76575142D01*
X159793714Y-76646571D01*
X159650857Y-76718000D01*
X159222285Y-76718000D01*
X159079428Y-76646571D01*
X159008000Y-76575142D01*
X158936571Y-76432285D01*
X158936571Y-76218000D01*
X159008000Y-76075142D01*
X159079428Y-76003714D01*
X159222285Y-75932285D01*
X159650857Y-75932285D01*
X159793714Y-76003714D01*
X159865142Y-76075142D01*
X159936571Y-76218000D01*
X159936571Y-76432285D01*
X159793714Y-73289428D02*
X159865142Y-73360857D01*
X159936571Y-73575142D01*
X159936571Y-73718000D01*
X159865142Y-73932285D01*
X159722285Y-74075142D01*
X159579428Y-74146571D01*
X159293714Y-74218000D01*
X159079428Y-74218000D01*
X158793714Y-74146571D01*
X158650857Y-74075142D01*
X158508000Y-73932285D01*
X158436571Y-73718000D01*
X158436571Y-73575142D01*
X158508000Y-73360857D01*
X158579428Y-73289428D01*
X159936571Y-72003714D02*
X159150857Y-72003714D01*
X159008000Y-72075142D01*
X158936571Y-72218000D01*
X158936571Y-72503714D01*
X159008000Y-72646571D01*
X159865142Y-72003714D02*
X159936571Y-72146571D01*
X159936571Y-72503714D01*
X159865142Y-72646571D01*
X159722285Y-72718000D01*
X159579428Y-72718000D01*
X159436571Y-72646571D01*
X159365142Y-72503714D01*
X159365142Y-72146571D01*
X159293714Y-72003714D01*
X159936571Y-71289428D02*
X158936571Y-71289428D01*
X159222285Y-71289428D02*
X159079428Y-71218000D01*
X159008000Y-71146571D01*
X158936571Y-71003714D01*
X158936571Y-70860857D01*
X159936571Y-70146571D02*
X159865142Y-70289428D01*
X159722285Y-70360857D01*
X158436571Y-70360857D01*
X159936571Y-69575142D02*
X158936571Y-69575142D01*
X158436571Y-69575142D02*
X158508000Y-69646571D01*
X158579428Y-69575142D01*
X158508000Y-69503714D01*
X158436571Y-69575142D01*
X158579428Y-69575142D01*
D11*
X74707523Y-119756000D02*
X70707523Y-119756000D01*
X74517047Y-117827428D02*
X74707523Y-117184571D01*
X74707523Y-116113142D01*
X74517047Y-115684571D01*
X74326571Y-115470285D01*
X73945619Y-115256000D01*
X73564666Y-115256000D01*
X73183714Y-115470285D01*
X72993238Y-115684571D01*
X72802761Y-116113142D01*
X72612285Y-116970285D01*
X72421809Y-117398857D01*
X72231333Y-117613142D01*
X71850380Y-117827428D01*
X71469428Y-117827428D01*
X71088476Y-117613142D01*
X70898000Y-117398857D01*
X70707523Y-116970285D01*
X70707523Y-115898857D01*
X70898000Y-115256000D01*
X73564666Y-113541714D02*
X73564666Y-111398857D01*
X74707523Y-113970285D02*
X70707523Y-112470285D01*
X74707523Y-110970285D01*
X73564666Y-109684571D02*
X73564666Y-107541714D01*
X74707523Y-110113142D02*
X70707523Y-108613142D01*
X74707523Y-107113142D01*
X74326571Y-103041714D02*
X74517047Y-103256000D01*
X74707523Y-103898857D01*
X74707523Y-104327428D01*
X74517047Y-104970285D01*
X74136095Y-105398857D01*
X73755142Y-105613142D01*
X72993238Y-105827428D01*
X72421809Y-105827428D01*
X71659904Y-105613142D01*
X71278952Y-105398857D01*
X70898000Y-104970285D01*
X70707523Y-104327428D01*
X70707523Y-103898857D01*
X70898000Y-103256000D01*
X71088476Y-103041714D01*
D10*
X73322571Y-101590571D02*
X71822571Y-101590571D01*
X72322571Y-101019142D02*
X73322571Y-101019142D01*
X72465428Y-101019142D02*
X72394000Y-100962000D01*
X72322571Y-100847714D01*
X72322571Y-100676285D01*
X72394000Y-100562000D01*
X72536857Y-100504857D01*
X73322571Y-100504857D01*
X72322571Y-100104857D02*
X72322571Y-99647714D01*
X71822571Y-99933428D02*
X73108285Y-99933428D01*
X73251142Y-99876285D01*
X73322571Y-99762000D01*
X73322571Y-99647714D01*
X73251142Y-98790571D02*
X73322571Y-98904857D01*
X73322571Y-99133428D01*
X73251142Y-99247714D01*
X73108285Y-99304857D01*
X72536857Y-99304857D01*
X72394000Y-99247714D01*
X72322571Y-99133428D01*
X72322571Y-98904857D01*
X72394000Y-98790571D01*
X72536857Y-98733428D01*
X72679714Y-98733428D01*
X72822571Y-99304857D01*
X72322571Y-97704857D02*
X73536857Y-97704857D01*
X73679714Y-97762000D01*
X73751142Y-97819142D01*
X73822571Y-97933428D01*
X73822571Y-98104857D01*
X73751142Y-98219142D01*
X73251142Y-97704857D02*
X73322571Y-97819142D01*
X73322571Y-98047714D01*
X73251142Y-98162000D01*
X73179714Y-98219142D01*
X73036857Y-98276285D01*
X72608285Y-98276285D01*
X72465428Y-98219142D01*
X72394000Y-98162000D01*
X72322571Y-98047714D01*
X72322571Y-97819142D01*
X72394000Y-97704857D01*
X73322571Y-97133428D02*
X72322571Y-97133428D01*
X72608285Y-97133428D02*
X72465428Y-97076285D01*
X72394000Y-97019142D01*
X72322571Y-96904857D01*
X72322571Y-96790571D01*
X73322571Y-95876285D02*
X72536857Y-95876285D01*
X72394000Y-95933428D01*
X72322571Y-96047714D01*
X72322571Y-96276285D01*
X72394000Y-96390571D01*
X73251142Y-95876285D02*
X73322571Y-95990571D01*
X73322571Y-96276285D01*
X73251142Y-96390571D01*
X73108285Y-96447714D01*
X72965428Y-96447714D01*
X72822571Y-96390571D01*
X72751142Y-96276285D01*
X72751142Y-95990571D01*
X72679714Y-95876285D01*
X72322571Y-95476285D02*
X72322571Y-95019142D01*
X71822571Y-95304857D02*
X73108285Y-95304857D01*
X73251142Y-95247714D01*
X73322571Y-95133428D01*
X73322571Y-95019142D01*
X73251142Y-94162000D02*
X73322571Y-94276285D01*
X73322571Y-94504857D01*
X73251142Y-94619142D01*
X73108285Y-94676285D01*
X72536857Y-94676285D01*
X72394000Y-94619142D01*
X72322571Y-94504857D01*
X72322571Y-94276285D01*
X72394000Y-94162000D01*
X72536857Y-94104857D01*
X72679714Y-94104857D01*
X72822571Y-94676285D01*
X73322571Y-93076285D02*
X71822571Y-93076285D01*
X73251142Y-93076285D02*
X73322571Y-93190571D01*
X73322571Y-93419142D01*
X73251142Y-93533428D01*
X73179714Y-93590571D01*
X73036857Y-93647714D01*
X72608285Y-93647714D01*
X72465428Y-93590571D01*
X72394000Y-93533428D01*
X72322571Y-93419142D01*
X72322571Y-93190571D01*
X72394000Y-93076285D01*
X73251142Y-91647714D02*
X73322571Y-91476285D01*
X73322571Y-91190571D01*
X73251142Y-91076285D01*
X73179714Y-91019142D01*
X73036857Y-90962000D01*
X72894000Y-90962000D01*
X72751142Y-91019142D01*
X72679714Y-91076285D01*
X72608285Y-91190571D01*
X72536857Y-91419142D01*
X72465428Y-91533428D01*
X72394000Y-91590571D01*
X72251142Y-91647714D01*
X72108285Y-91647714D01*
X71965428Y-91590571D01*
X71894000Y-91533428D01*
X71822571Y-91419142D01*
X71822571Y-91133428D01*
X71894000Y-90962000D01*
X72322571Y-90447714D02*
X73822571Y-90447714D01*
X72394000Y-90447714D02*
X72322571Y-90333428D01*
X72322571Y-90104857D01*
X72394000Y-89990571D01*
X72465428Y-89933428D01*
X72608285Y-89876285D01*
X73036857Y-89876285D01*
X73179714Y-89933428D01*
X73251142Y-89990571D01*
X73322571Y-90104857D01*
X73322571Y-90333428D01*
X73251142Y-90447714D01*
X73322571Y-88847714D02*
X72536857Y-88847714D01*
X72394000Y-88904857D01*
X72322571Y-89019142D01*
X72322571Y-89247714D01*
X72394000Y-89362000D01*
X73251142Y-88847714D02*
X73322571Y-88962000D01*
X73322571Y-89247714D01*
X73251142Y-89362000D01*
X73108285Y-89419142D01*
X72965428Y-89419142D01*
X72822571Y-89362000D01*
X72751142Y-89247714D01*
X72751142Y-88962000D01*
X72679714Y-88847714D01*
X73251142Y-87762000D02*
X73322571Y-87876285D01*
X73322571Y-88104857D01*
X73251142Y-88219142D01*
X73179714Y-88276285D01*
X73036857Y-88333428D01*
X72608285Y-88333428D01*
X72465428Y-88276285D01*
X72394000Y-88219142D01*
X72322571Y-88104857D01*
X72322571Y-87876285D01*
X72394000Y-87762000D01*
X73251142Y-86790571D02*
X73322571Y-86904857D01*
X73322571Y-87133428D01*
X73251142Y-87247714D01*
X73108285Y-87304857D01*
X72536857Y-87304857D01*
X72394000Y-87247714D01*
X72322571Y-87133428D01*
X72322571Y-86904857D01*
X72394000Y-86790571D01*
X72536857Y-86733428D01*
X72679714Y-86733428D01*
X72822571Y-87304857D01*
X73251142Y-85704857D02*
X73322571Y-85819142D01*
X73322571Y-86047714D01*
X73251142Y-86162000D01*
X73179714Y-86219142D01*
X73036857Y-86276285D01*
X72608285Y-86276285D01*
X72465428Y-86219142D01*
X72394000Y-86162000D01*
X72322571Y-86047714D01*
X72322571Y-85819142D01*
X72394000Y-85704857D01*
X73322571Y-85190571D02*
X72322571Y-85190571D01*
X72608285Y-85190571D02*
X72465428Y-85133428D01*
X72394000Y-85076285D01*
X72322571Y-84962000D01*
X72322571Y-84847714D01*
X73322571Y-83933428D02*
X72536857Y-83933428D01*
X72394000Y-83990571D01*
X72322571Y-84104857D01*
X72322571Y-84333428D01*
X72394000Y-84447714D01*
X73251142Y-83933428D02*
X73322571Y-84047714D01*
X73322571Y-84333428D01*
X73251142Y-84447714D01*
X73108285Y-84504857D01*
X72965428Y-84504857D01*
X72822571Y-84447714D01*
X72751142Y-84333428D01*
X72751142Y-84047714D01*
X72679714Y-83933428D01*
X72322571Y-83533428D02*
X72322571Y-83076285D01*
X73322571Y-83362000D02*
X72036857Y-83362000D01*
X71894000Y-83304857D01*
X71822571Y-83190571D01*
X71822571Y-83076285D01*
X72322571Y-82847714D02*
X72322571Y-82390571D01*
X71822571Y-82676285D02*
X73108285Y-82676285D01*
X73251142Y-82619142D01*
X73322571Y-82504857D01*
X73322571Y-82390571D01*
X72894000Y-81133428D02*
X72894000Y-80562000D01*
X73322571Y-81247714D02*
X71822571Y-80847714D01*
X73322571Y-80447714D01*
X72322571Y-79533428D02*
X73322571Y-79533428D01*
X72322571Y-80047714D02*
X73108285Y-80047714D01*
X73251142Y-79990571D01*
X73322571Y-79876285D01*
X73322571Y-79704857D01*
X73251142Y-79590571D01*
X73179714Y-79533428D01*
X72322571Y-79133428D02*
X72322571Y-78676285D01*
X71822571Y-78962000D02*
X73108285Y-78962000D01*
X73251142Y-78904857D01*
X73322571Y-78790571D01*
X73322571Y-78676285D01*
X73322571Y-78104857D02*
X73251142Y-78219142D01*
X73179714Y-78276285D01*
X73036857Y-78333428D01*
X72608285Y-78333428D01*
X72465428Y-78276285D01*
X72394000Y-78219142D01*
X72322571Y-78104857D01*
X72322571Y-77933428D01*
X72394000Y-77819142D01*
X72465428Y-77762000D01*
X72608285Y-77704857D01*
X73036857Y-77704857D01*
X73179714Y-77762000D01*
X73251142Y-77819142D01*
X73322571Y-77933428D01*
X73322571Y-78104857D01*
X72322571Y-77190571D02*
X73322571Y-77190571D01*
X72465428Y-77190571D02*
X72394000Y-77133428D01*
X72322571Y-77019142D01*
X72322571Y-76847714D01*
X72394000Y-76733428D01*
X72536857Y-76676285D01*
X73322571Y-76676285D01*
X73322571Y-75933428D02*
X73251142Y-76047714D01*
X73179714Y-76104857D01*
X73036857Y-76162000D01*
X72608285Y-76162000D01*
X72465428Y-76104857D01*
X72394000Y-76047714D01*
X72322571Y-75933428D01*
X72322571Y-75762000D01*
X72394000Y-75647714D01*
X72465428Y-75590571D01*
X72608285Y-75533428D01*
X73036857Y-75533428D01*
X73179714Y-75590571D01*
X73251142Y-75647714D01*
X73322571Y-75762000D01*
X73322571Y-75933428D01*
X73322571Y-75019142D02*
X72322571Y-75019142D01*
X72465428Y-75019142D02*
X72394000Y-74962000D01*
X72322571Y-74847714D01*
X72322571Y-74676285D01*
X72394000Y-74562000D01*
X72536857Y-74504857D01*
X73322571Y-74504857D01*
X72536857Y-74504857D02*
X72394000Y-74447714D01*
X72322571Y-74333428D01*
X72322571Y-74162000D01*
X72394000Y-74047714D01*
X72536857Y-73990571D01*
X73322571Y-73990571D01*
X73322571Y-73247714D02*
X73251142Y-73362000D01*
X73179714Y-73419142D01*
X73036857Y-73476285D01*
X72608285Y-73476285D01*
X72465428Y-73419142D01*
X72394000Y-73362000D01*
X72322571Y-73247714D01*
X72322571Y-73076285D01*
X72394000Y-72962000D01*
X72465428Y-72904857D01*
X72608285Y-72847714D01*
X73036857Y-72847714D01*
X73179714Y-72904857D01*
X73251142Y-72962000D01*
X73322571Y-73076285D01*
X73322571Y-73247714D01*
X72322571Y-71819142D02*
X73322571Y-71819142D01*
X72322571Y-72333428D02*
X73108285Y-72333428D01*
X73251142Y-72276285D01*
X73322571Y-72161999D01*
X73322571Y-71990571D01*
X73251142Y-71876285D01*
X73179714Y-71819142D01*
X73251142Y-71304857D02*
X73322571Y-71190571D01*
X73322571Y-70961999D01*
X73251142Y-70847714D01*
X73108285Y-70790571D01*
X73036857Y-70790571D01*
X72894000Y-70847714D01*
X72822571Y-70961999D01*
X72822571Y-71133428D01*
X72751142Y-71247714D01*
X72608285Y-71304857D01*
X72536857Y-71304857D01*
X72394000Y-71247714D01*
X72322571Y-71133428D01*
X72322571Y-70961999D01*
X72394000Y-70847714D01*
X72894000Y-69419142D02*
X72894000Y-68847714D01*
X73322571Y-69533428D02*
X71822571Y-69133428D01*
X73322571Y-68733428D01*
X72322571Y-68504857D02*
X72322571Y-68047714D01*
X71822571Y-68333428D02*
X73108285Y-68333428D01*
X73251142Y-68276285D01*
X73322571Y-68162000D01*
X73322571Y-68047714D01*
X72322571Y-67819142D02*
X72322571Y-67361999D01*
X71822571Y-67647714D02*
X73108285Y-67647714D01*
X73251142Y-67590571D01*
X73322571Y-67476285D01*
X73322571Y-67361999D01*
X73322571Y-66962000D02*
X72322571Y-66962000D01*
X71822571Y-66962000D02*
X71894000Y-67019142D01*
X71965428Y-66962000D01*
X71894000Y-66904857D01*
X71822571Y-66962000D01*
X71965428Y-66962000D01*
X72322571Y-66561999D02*
X72322571Y-66104857D01*
X71822571Y-66390571D02*
X73108285Y-66390571D01*
X73251142Y-66333428D01*
X73322571Y-66219142D01*
X73322571Y-66104857D01*
X72322571Y-65190571D02*
X73322571Y-65190571D01*
X72322571Y-65704857D02*
X73108285Y-65704857D01*
X73251142Y-65647714D01*
X73322571Y-65533428D01*
X73322571Y-65362000D01*
X73251142Y-65247714D01*
X73179714Y-65190571D01*
X73322571Y-64104857D02*
X71822571Y-64104857D01*
X73251142Y-64104857D02*
X73322571Y-64219142D01*
X73322571Y-64447714D01*
X73251142Y-64562000D01*
X73179714Y-64619142D01*
X73036857Y-64676285D01*
X72608285Y-64676285D01*
X72465428Y-64619142D01*
X72394000Y-64562000D01*
X72322571Y-64447714D01*
X72322571Y-64219142D01*
X72394000Y-64104857D01*
X73251142Y-63076285D02*
X73322571Y-63190571D01*
X73322571Y-63419142D01*
X73251142Y-63533428D01*
X73108285Y-63590571D01*
X72536857Y-63590571D01*
X72394000Y-63533428D01*
X72322571Y-63419142D01*
X72322571Y-63190571D01*
X72394000Y-63076285D01*
X72536857Y-63019142D01*
X72679714Y-63019142D01*
X72822571Y-63590571D01*
X73179714Y-60904857D02*
X73251142Y-60962000D01*
X73322571Y-61133428D01*
X73322571Y-61247714D01*
X73251142Y-61419142D01*
X73108285Y-61533428D01*
X72965428Y-61590571D01*
X72679714Y-61647714D01*
X72465428Y-61647714D01*
X72179714Y-61590571D01*
X72036857Y-61533428D01*
X71894000Y-61419142D01*
X71822571Y-61247714D01*
X71822571Y-61133428D01*
X71894000Y-60962000D01*
X71965428Y-60904857D01*
X73322571Y-60219142D02*
X73251142Y-60333428D01*
X73179714Y-60390571D01*
X73036857Y-60447714D01*
X72608285Y-60447714D01*
X72465428Y-60390571D01*
X72394000Y-60333428D01*
X72322571Y-60219142D01*
X72322571Y-60047714D01*
X72394000Y-59933428D01*
X72465428Y-59876285D01*
X72608285Y-59819142D01*
X73036857Y-59819142D01*
X73179714Y-59876285D01*
X73251142Y-59933428D01*
X73322571Y-60047714D01*
X73322571Y-60219142D01*
X72322571Y-59304857D02*
X73322571Y-59304857D01*
X72465428Y-59304857D02*
X72394000Y-59247714D01*
X72322571Y-59133428D01*
X72322571Y-58962000D01*
X72394000Y-58847714D01*
X72536857Y-58790571D01*
X73322571Y-58790571D01*
X72322571Y-58390571D02*
X72322571Y-57933428D01*
X71822571Y-58219142D02*
X73108285Y-58219142D01*
X73251142Y-58162000D01*
X73322571Y-58047714D01*
X73322571Y-57933428D01*
X73322571Y-57533428D02*
X72322571Y-57533428D01*
X72608285Y-57533428D02*
X72465428Y-57476285D01*
X72394000Y-57419142D01*
X72322571Y-57304857D01*
X72322571Y-57190571D01*
X73322571Y-56619142D02*
X73251142Y-56733428D01*
X73179714Y-56790571D01*
X73036857Y-56847714D01*
X72608285Y-56847714D01*
X72465428Y-56790571D01*
X72394000Y-56733428D01*
X72322571Y-56619142D01*
X72322571Y-56447714D01*
X72394000Y-56333428D01*
X72465428Y-56276285D01*
X72608285Y-56219142D01*
X73036857Y-56219142D01*
X73179714Y-56276285D01*
X73251142Y-56333428D01*
X73322571Y-56447714D01*
X73322571Y-56619142D01*
X73322571Y-55533428D02*
X73251142Y-55647714D01*
X73108285Y-55704857D01*
X71822571Y-55704857D01*
X73322571Y-54904857D02*
X73251142Y-55019142D01*
X73108285Y-55076285D01*
X71822571Y-55076285D01*
X73251142Y-53990571D02*
X73322571Y-54104857D01*
X73322571Y-54333428D01*
X73251142Y-54447714D01*
X73108285Y-54504857D01*
X72536857Y-54504857D01*
X72394000Y-54447714D01*
X72322571Y-54333428D01*
X72322571Y-54104857D01*
X72394000Y-53990571D01*
X72536857Y-53933428D01*
X72679714Y-53933428D01*
X72822571Y-54504857D01*
X73322571Y-53419142D02*
X72322571Y-53419142D01*
X72608285Y-53419142D02*
X72465428Y-53362000D01*
X72394000Y-53304857D01*
X72322571Y-53190571D01*
X72322571Y-53076285D01*
D12*
%TO.C,C2*%
X157314000Y-58940000D02*
G75*
G03*
X157314000Y-58940000I-2120000J0D01*
G01*
X156034000Y-58940000D02*
X157274000Y-58940000D01*
X153114000Y-58940000D02*
X154354000Y-58940000D01*
X156034000Y-58900000D02*
X157274000Y-58900000D01*
X153114000Y-58900000D02*
X154354000Y-58900000D01*
X156034000Y-58860000D02*
X157273000Y-58860000D01*
X153115000Y-58860000D02*
X154354000Y-58860000D01*
X153117000Y-58820000D02*
X154354000Y-58820000D01*
X156034000Y-58820000D02*
X157271000Y-58820000D01*
X153120000Y-58780000D02*
X154354000Y-58780000D01*
X156034000Y-58780000D02*
X157268000Y-58780000D01*
X153123000Y-58740000D02*
X154354000Y-58740000D01*
X156034000Y-58740000D02*
X157265000Y-58740000D01*
X153127000Y-58700000D02*
X154354000Y-58700000D01*
X156034000Y-58700000D02*
X157261000Y-58700000D01*
X153132000Y-58660000D02*
X154354000Y-58660000D01*
X156034000Y-58660000D02*
X157256000Y-58660000D01*
X153138000Y-58620000D02*
X154354000Y-58620000D01*
X156034000Y-58620000D02*
X157250000Y-58620000D01*
X153144000Y-58580000D02*
X154354000Y-58580000D01*
X156034000Y-58580000D02*
X157244000Y-58580000D01*
X153152000Y-58540000D02*
X154354000Y-58540000D01*
X156034000Y-58540000D02*
X157236000Y-58540000D01*
X153160000Y-58500000D02*
X154354000Y-58500000D01*
X156034000Y-58500000D02*
X157228000Y-58500000D01*
X153169000Y-58460000D02*
X154354000Y-58460000D01*
X156034000Y-58460000D02*
X157219000Y-58460000D01*
X153178000Y-58420000D02*
X154354000Y-58420000D01*
X156034000Y-58420000D02*
X157210000Y-58420000D01*
X153189000Y-58380000D02*
X154354000Y-58380000D01*
X156034000Y-58380000D02*
X157199000Y-58380000D01*
X153200000Y-58340000D02*
X154354000Y-58340000D01*
X156034000Y-58340000D02*
X157188000Y-58340000D01*
X153212000Y-58300000D02*
X154354000Y-58300000D01*
X156034000Y-58300000D02*
X157176000Y-58300000D01*
X153226000Y-58260000D02*
X154354000Y-58260000D01*
X156034000Y-58260000D02*
X157162000Y-58260000D01*
X153240000Y-58219000D02*
X154354000Y-58219000D01*
X156034000Y-58219000D02*
X157148000Y-58219000D01*
X153254000Y-58179000D02*
X154354000Y-58179000D01*
X156034000Y-58179000D02*
X157134000Y-58179000D01*
X153270000Y-58139000D02*
X154354000Y-58139000D01*
X156034000Y-58139000D02*
X157118000Y-58139000D01*
X153287000Y-58099000D02*
X154354000Y-58099000D01*
X156034000Y-58099000D02*
X157101000Y-58099000D01*
X153305000Y-58059000D02*
X154354000Y-58059000D01*
X156034000Y-58059000D02*
X157083000Y-58059000D01*
X153324000Y-58019000D02*
X154354000Y-58019000D01*
X156034000Y-58019000D02*
X157064000Y-58019000D01*
X153343000Y-57979000D02*
X154354000Y-57979000D01*
X156034000Y-57979000D02*
X157045000Y-57979000D01*
X153364000Y-57939000D02*
X154354000Y-57939000D01*
X156034000Y-57939000D02*
X157024000Y-57939000D01*
X153386000Y-57899000D02*
X154354000Y-57899000D01*
X156034000Y-57899000D02*
X157002000Y-57899000D01*
X153409000Y-57859000D02*
X154354000Y-57859000D01*
X156034000Y-57859000D02*
X156979000Y-57859000D01*
X153434000Y-57819000D02*
X154354000Y-57819000D01*
X156034000Y-57819000D02*
X156954000Y-57819000D01*
X153459000Y-57779000D02*
X154354000Y-57779000D01*
X156034000Y-57779000D02*
X156929000Y-57779000D01*
X153486000Y-57739000D02*
X154354000Y-57739000D01*
X156034000Y-57739000D02*
X156902000Y-57739000D01*
X153514000Y-57699000D02*
X154354000Y-57699000D01*
X156034000Y-57699000D02*
X156874000Y-57699000D01*
X153544000Y-57659000D02*
X154354000Y-57659000D01*
X156034000Y-57659000D02*
X156844000Y-57659000D01*
X153575000Y-57619000D02*
X154354000Y-57619000D01*
X156034000Y-57619000D02*
X156813000Y-57619000D01*
X153607000Y-57579000D02*
X154354000Y-57579000D01*
X156034000Y-57579000D02*
X156781000Y-57579000D01*
X153642000Y-57539000D02*
X154354000Y-57539000D01*
X156034000Y-57539000D02*
X156746000Y-57539000D01*
X153678000Y-57499000D02*
X154354000Y-57499000D01*
X156034000Y-57499000D02*
X156710000Y-57499000D01*
X153716000Y-57459000D02*
X154354000Y-57459000D01*
X156034000Y-57459000D02*
X156672000Y-57459000D01*
X153756000Y-57419000D02*
X154354000Y-57419000D01*
X156034000Y-57419000D02*
X156632000Y-57419000D01*
X153798000Y-57379000D02*
X154354000Y-57379000D01*
X156034000Y-57379000D02*
X156590000Y-57379000D01*
X153843000Y-57339000D02*
X156545000Y-57339000D01*
X153890000Y-57299000D02*
X156498000Y-57299000D01*
X153940000Y-57259000D02*
X156448000Y-57259000D01*
X153994000Y-57219000D02*
X156394000Y-57219000D01*
X154052000Y-57179000D02*
X156336000Y-57179000D01*
X154114000Y-57139000D02*
X156274000Y-57139000D01*
X154181000Y-57099000D02*
X156207000Y-57099000D01*
X154254000Y-57059000D02*
X156134000Y-57059000D01*
X154335000Y-57019000D02*
X156053000Y-57019000D01*
X154426000Y-56979000D02*
X155962000Y-56979000D01*
X154530000Y-56939000D02*
X155858000Y-56939000D01*
X154657000Y-56899000D02*
X155731000Y-56899000D01*
X154824000Y-56859000D02*
X155564000Y-56859000D01*
X153999000Y-61209801D02*
X153999000Y-60809801D01*
X153799000Y-61009801D02*
X154199000Y-61009801D01*
%TO.C,C1*%
X157314000Y-64758000D02*
G75*
G03*
X157314000Y-64758000I-2120000J0D01*
G01*
X154354000Y-64758000D02*
X153114000Y-64758000D01*
X157274000Y-64758000D02*
X156034000Y-64758000D01*
X154354000Y-64798000D02*
X153114000Y-64798000D01*
X157274000Y-64798000D02*
X156034000Y-64798000D01*
X154354000Y-64838000D02*
X153115000Y-64838000D01*
X157273000Y-64838000D02*
X156034000Y-64838000D01*
X157271000Y-64878000D02*
X156034000Y-64878000D01*
X154354000Y-64878000D02*
X153117000Y-64878000D01*
X157268000Y-64918000D02*
X156034000Y-64918000D01*
X154354000Y-64918000D02*
X153120000Y-64918000D01*
X157265000Y-64958000D02*
X156034000Y-64958000D01*
X154354000Y-64958000D02*
X153123000Y-64958000D01*
X157261000Y-64998000D02*
X156034000Y-64998000D01*
X154354000Y-64998000D02*
X153127000Y-64998000D01*
X157256000Y-65038000D02*
X156034000Y-65038000D01*
X154354000Y-65038000D02*
X153132000Y-65038000D01*
X157250000Y-65078000D02*
X156034000Y-65078000D01*
X154354000Y-65078000D02*
X153138000Y-65078000D01*
X157244000Y-65118000D02*
X156034000Y-65118000D01*
X154354000Y-65118000D02*
X153144000Y-65118000D01*
X157236000Y-65158000D02*
X156034000Y-65158000D01*
X154354000Y-65158000D02*
X153152000Y-65158000D01*
X157228000Y-65198000D02*
X156034000Y-65198000D01*
X154354000Y-65198000D02*
X153160000Y-65198000D01*
X157219000Y-65238000D02*
X156034000Y-65238000D01*
X154354000Y-65238000D02*
X153169000Y-65238000D01*
X157210000Y-65278000D02*
X156034000Y-65278000D01*
X154354000Y-65278000D02*
X153178000Y-65278000D01*
X157199000Y-65318000D02*
X156034000Y-65318000D01*
X154354000Y-65318000D02*
X153189000Y-65318000D01*
X157188000Y-65358000D02*
X156034000Y-65358000D01*
X154354000Y-65358000D02*
X153200000Y-65358000D01*
X157176000Y-65398000D02*
X156034000Y-65398000D01*
X154354000Y-65398000D02*
X153212000Y-65398000D01*
X157162000Y-65438000D02*
X156034000Y-65438000D01*
X154354000Y-65438000D02*
X153226000Y-65438000D01*
X157148000Y-65479000D02*
X156034000Y-65479000D01*
X154354000Y-65479000D02*
X153240000Y-65479000D01*
X157134000Y-65519000D02*
X156034000Y-65519000D01*
X154354000Y-65519000D02*
X153254000Y-65519000D01*
X157118000Y-65559000D02*
X156034000Y-65559000D01*
X154354000Y-65559000D02*
X153270000Y-65559000D01*
X157101000Y-65599000D02*
X156034000Y-65599000D01*
X154354000Y-65599000D02*
X153287000Y-65599000D01*
X157083000Y-65639000D02*
X156034000Y-65639000D01*
X154354000Y-65639000D02*
X153305000Y-65639000D01*
X157064000Y-65679000D02*
X156034000Y-65679000D01*
X154354000Y-65679000D02*
X153324000Y-65679000D01*
X157045000Y-65719000D02*
X156034000Y-65719000D01*
X154354000Y-65719000D02*
X153343000Y-65719000D01*
X157024000Y-65759000D02*
X156034000Y-65759000D01*
X154354000Y-65759000D02*
X153364000Y-65759000D01*
X157002000Y-65799000D02*
X156034000Y-65799000D01*
X154354000Y-65799000D02*
X153386000Y-65799000D01*
X156979000Y-65839000D02*
X156034000Y-65839000D01*
X154354000Y-65839000D02*
X153409000Y-65839000D01*
X156954000Y-65879000D02*
X156034000Y-65879000D01*
X154354000Y-65879000D02*
X153434000Y-65879000D01*
X156929000Y-65919000D02*
X156034000Y-65919000D01*
X154354000Y-65919000D02*
X153459000Y-65919000D01*
X156902000Y-65959000D02*
X156034000Y-65959000D01*
X154354000Y-65959000D02*
X153486000Y-65959000D01*
X156874000Y-65999000D02*
X156034000Y-65999000D01*
X154354000Y-65999000D02*
X153514000Y-65999000D01*
X156844000Y-66039000D02*
X156034000Y-66039000D01*
X154354000Y-66039000D02*
X153544000Y-66039000D01*
X156813000Y-66079000D02*
X156034000Y-66079000D01*
X154354000Y-66079000D02*
X153575000Y-66079000D01*
X156781000Y-66119000D02*
X156034000Y-66119000D01*
X154354000Y-66119000D02*
X153607000Y-66119000D01*
X156746000Y-66159000D02*
X156034000Y-66159000D01*
X154354000Y-66159000D02*
X153642000Y-66159000D01*
X156710000Y-66199000D02*
X156034000Y-66199000D01*
X154354000Y-66199000D02*
X153678000Y-66199000D01*
X156672000Y-66239000D02*
X156034000Y-66239000D01*
X154354000Y-66239000D02*
X153716000Y-66239000D01*
X156632000Y-66279000D02*
X156034000Y-66279000D01*
X154354000Y-66279000D02*
X153756000Y-66279000D01*
X156590000Y-66319000D02*
X156034000Y-66319000D01*
X154354000Y-66319000D02*
X153798000Y-66319000D01*
X156545000Y-66359000D02*
X153843000Y-66359000D01*
X156498000Y-66399000D02*
X153890000Y-66399000D01*
X156448000Y-66439000D02*
X153940000Y-66439000D01*
X156394000Y-66479000D02*
X153994000Y-66479000D01*
X156336000Y-66519000D02*
X154052000Y-66519000D01*
X156274000Y-66559000D02*
X154114000Y-66559000D01*
X156207000Y-66599000D02*
X154181000Y-66599000D01*
X156134000Y-66639000D02*
X154254000Y-66639000D01*
X156053000Y-66679000D02*
X154335000Y-66679000D01*
X155962000Y-66719000D02*
X154426000Y-66719000D01*
X155858000Y-66759000D02*
X154530000Y-66759000D01*
X155731000Y-66799000D02*
X154657000Y-66799000D01*
X155564000Y-66839000D02*
X154824000Y-66839000D01*
X156389000Y-62488199D02*
X156389000Y-62888199D01*
X156589000Y-62688199D02*
X156189000Y-62688199D01*
%TO.C,e1*%
X103532000Y-112098000D02*
X103532000Y-112498000D01*
X103532000Y-109498000D02*
X103532000Y-109898000D01*
X103532000Y-121498000D02*
X103532000Y-114698000D01*
X113932000Y-121498000D02*
X113532000Y-121498000D01*
X121632000Y-121498000D02*
X121232000Y-121498000D01*
X147032000Y-121498000D02*
X146632000Y-121498000D01*
X154532000Y-121498000D02*
X154232000Y-121498000D01*
X131732000Y-121498000D02*
X131332000Y-121498000D01*
X116532000Y-121498000D02*
X116132000Y-121498000D01*
X136832000Y-121498000D02*
X136432000Y-121498000D01*
X141932000Y-121498000D02*
X141532000Y-121498000D01*
X129232000Y-121498000D02*
X128832000Y-121498000D01*
X124132000Y-121498000D02*
X123732000Y-121498000D01*
X108932000Y-121498000D02*
X108532000Y-121498000D01*
X106332000Y-121498000D02*
X105932000Y-121498000D01*
X111432000Y-121498000D02*
X111032000Y-121498000D01*
X144432000Y-121498000D02*
X144032000Y-121498000D01*
X152132000Y-121498000D02*
X151732000Y-121498000D01*
X149532000Y-121498000D02*
X149132000Y-121498000D01*
X119032000Y-121498000D02*
X118632000Y-121498000D01*
X126732000Y-121498000D02*
X126332000Y-121498000D01*
X134332000Y-121498000D02*
X133932000Y-121498000D01*
X139432000Y-121498000D02*
X139032000Y-121498000D01*
X106332000Y-100498000D02*
X105932000Y-100498000D01*
X108932000Y-100498000D02*
X108532000Y-100498000D01*
X111432000Y-100498000D02*
X111032000Y-100498000D01*
X113932000Y-100498000D02*
X113532000Y-100498000D01*
X116532000Y-100498000D02*
X116132000Y-100498000D01*
X119032000Y-100498000D02*
X118632000Y-100498000D01*
X121632000Y-100498000D02*
X121232000Y-100498000D01*
X124132000Y-100498000D02*
X123732000Y-100498000D01*
X126732000Y-100498000D02*
X126332000Y-100498000D01*
X129232000Y-100498000D02*
X128832000Y-100498000D01*
X131732000Y-100498000D02*
X131332000Y-100498000D01*
X134332000Y-100498000D02*
X133932000Y-100498000D01*
X136832000Y-100498000D02*
X136432000Y-100498000D01*
X139432000Y-100498000D02*
X139032000Y-100498000D01*
X141932000Y-100498000D02*
X141532000Y-100498000D01*
X144432000Y-100498000D02*
X144032000Y-100498000D01*
X147032000Y-100498000D02*
X146632000Y-100498000D01*
X149532000Y-100498000D02*
X149132000Y-100498000D01*
X152132000Y-100498000D02*
X151732000Y-100498000D01*
X154532000Y-100498000D02*
X154232000Y-100498000D01*
X151865000Y-103505000D02*
X154532000Y-103505000D01*
X151865000Y-100498000D02*
X151865000Y-103505000D01*
X103532000Y-107298000D02*
X103532000Y-100498000D01*
X154532000Y-100498000D02*
X154532000Y-121498000D01*
D13*
%TO.C,U11*%
X147548600Y-58115200D02*
X143840200Y-58115200D01*
X143840200Y-58115200D02*
X143840200Y-64820800D01*
X143840200Y-64820800D02*
X147548600Y-64820800D01*
X147548600Y-64820800D02*
X147548600Y-58115200D01*
D14*
%TO.C,U10*%
X82443400Y-81991000D02*
G75*
G03*
X82443400Y-81991000I-100000J0D01*
G01*
D15*
X82368400Y-84246000D02*
X82368400Y-88146000D01*
X77328400Y-84246000D02*
X77328400Y-88146000D01*
D14*
%TO.C,U9*%
X92443400Y-81991000D02*
G75*
G03*
X92443400Y-81991000I-100000J0D01*
G01*
D15*
X92368400Y-84246000D02*
X92368400Y-88146000D01*
X87328400Y-84246000D02*
X87328400Y-88146000D01*
D14*
%TO.C,U8*%
X102443400Y-81991000D02*
G75*
G03*
X102443400Y-81991000I-100000J0D01*
G01*
D15*
X102368400Y-84246000D02*
X102368400Y-88146000D01*
X97328400Y-84246000D02*
X97328400Y-88146000D01*
D14*
%TO.C,U7*%
X85773400Y-111963000D02*
G75*
G03*
X85773400Y-111963000I-100000J0D01*
G01*
D15*
X85698400Y-114218000D02*
X85698400Y-118118000D01*
X80658400Y-114218000D02*
X80658400Y-118118000D01*
D12*
%TO.C,U6*%
X122682000Y-93726000D02*
X106172000Y-93726000D01*
X106172000Y-93726000D02*
X106172000Y-73152000D01*
X106172000Y-73152000D02*
X122682000Y-73152000D01*
X122682000Y-73152000D02*
X122682000Y-93726000D01*
X110079832Y-75438000D02*
G75*
G03*
X110079832Y-75438000I-1367832J0D01*
G01*
X110079832Y-91440000D02*
G75*
G03*
X110079832Y-91440000I-1367832J0D01*
G01*
D14*
%TO.C,U5*%
X95773400Y-111963000D02*
G75*
G03*
X95773400Y-111963000I-100000J0D01*
G01*
D15*
X95698400Y-114218000D02*
X95698400Y-118118000D01*
X90658400Y-114218000D02*
X90658400Y-118118000D01*
D14*
%TO.C,U4*%
X132443400Y-81991000D02*
G75*
G03*
X132443400Y-81991000I-100000J0D01*
G01*
D15*
X132368400Y-84246000D02*
X132368400Y-88146000D01*
X127328400Y-84246000D02*
X127328400Y-88146000D01*
D14*
%TO.C,U3*%
X142443400Y-81991000D02*
G75*
G03*
X142443400Y-81991000I-100000J0D01*
G01*
D15*
X142368400Y-84246000D02*
X142368400Y-88146000D01*
X137328400Y-84246000D02*
X137328400Y-88146000D01*
D14*
%TO.C,U2*%
X152443400Y-81991000D02*
G75*
G03*
X152443400Y-81991000I-100000J0D01*
G01*
D15*
X152368400Y-84246000D02*
X152368400Y-88146000D01*
X147328400Y-84246000D02*
X147328400Y-88146000D01*
D12*
%TO.C,R16*%
X82735000Y-93772936D02*
X82735000Y-94227064D01*
X81265000Y-93772936D02*
X81265000Y-94227064D01*
%TO.C,R15*%
X78735000Y-93772936D02*
X78735000Y-94227064D01*
X77265000Y-93772936D02*
X77265000Y-94227064D01*
%TO.C,R14*%
X92735000Y-93772936D02*
X92735000Y-94227064D01*
X91265000Y-93772936D02*
X91265000Y-94227064D01*
%TO.C,R13*%
X88735000Y-93772936D02*
X88735000Y-94227064D01*
X87265000Y-93772936D02*
X87265000Y-94227064D01*
%TO.C,R12*%
X102735000Y-93772936D02*
X102735000Y-94227064D01*
X101265000Y-93772936D02*
X101265000Y-94227064D01*
%TO.C,R11*%
X98735000Y-93772936D02*
X98735000Y-94227064D01*
X97265000Y-93772936D02*
X97265000Y-94227064D01*
%TO.C,R10*%
X86065000Y-123744936D02*
X86065000Y-124199064D01*
X84595000Y-123744936D02*
X84595000Y-124199064D01*
%TO.C,R9*%
X82065000Y-123744936D02*
X82065000Y-124199064D01*
X80595000Y-123744936D02*
X80595000Y-124199064D01*
%TO.C,R8*%
X96065000Y-123744936D02*
X96065000Y-124199064D01*
X94595000Y-123744936D02*
X94595000Y-124199064D01*
%TO.C,R7*%
X92065000Y-123744936D02*
X92065000Y-124199064D01*
X90595000Y-123744936D02*
X90595000Y-124199064D01*
%TO.C,R6*%
X132735000Y-93772936D02*
X132735000Y-94227064D01*
X131265000Y-93772936D02*
X131265000Y-94227064D01*
%TO.C,R5*%
X128735000Y-93772936D02*
X128735000Y-94227064D01*
X127265000Y-93772936D02*
X127265000Y-94227064D01*
%TO.C,R4*%
X142735000Y-93772936D02*
X142735000Y-94227064D01*
X141265000Y-93772936D02*
X141265000Y-94227064D01*
%TO.C,R3*%
X138735000Y-93772936D02*
X138735000Y-94227064D01*
X137265000Y-93772936D02*
X137265000Y-94227064D01*
%TO.C,R2*%
X152735000Y-93772936D02*
X152735000Y-94227064D01*
X151265000Y-93772936D02*
X151265000Y-94227064D01*
%TO.C,R1*%
X148735000Y-93772936D02*
X148735000Y-94227064D01*
X147265000Y-93772936D02*
X147265000Y-94227064D01*
D15*
%TO.C,J4*%
X77543200Y-63831600D02*
X79515200Y-63831600D01*
X93043200Y-63831600D02*
X91071200Y-63831600D01*
X83871200Y-63831600D02*
X86715200Y-63831600D01*
X77543200Y-45631600D02*
X77543200Y-63831600D01*
X93043200Y-63831600D02*
X93043200Y-45631600D01*
X93043200Y-45631600D02*
X77543200Y-45631600D01*
X82753200Y-66141600D02*
X81483200Y-66141600D01*
X81483200Y-66141600D02*
X81483200Y-67411600D01*
X80213200Y-66141600D02*
X81483200Y-66141600D01*
X81483200Y-66141600D02*
X81483200Y-64871600D01*
%TO.C,J3*%
X141986000Y-45430000D02*
X152146000Y-45430000D01*
X152146000Y-45430000D02*
X152146000Y-52630000D01*
X152146000Y-52630000D02*
X152146000Y-53630000D01*
X152146000Y-53630000D02*
X141986000Y-53630000D01*
X141986000Y-53630000D02*
X141986000Y-52630000D01*
X141986000Y-52630000D02*
X141986000Y-45430000D01*
X141986000Y-52630000D02*
X152146000Y-52630000D01*
D12*
%TO.C,J2*%
X121146600Y-58649200D02*
X120336600Y-58649200D01*
X120336600Y-58649200D02*
X120336600Y-45629200D01*
X120336600Y-45629200D02*
X129446600Y-45629200D01*
X137746600Y-58649200D02*
X138556600Y-58649200D01*
X138556600Y-58649200D02*
X138556600Y-45629200D01*
X138556600Y-45629200D02*
X129446600Y-45629200D01*
X122846600Y-61749200D02*
X122846600Y-63029200D01*
X123446600Y-61749200D02*
X123446600Y-63029200D01*
X127046600Y-61749200D02*
X127046600Y-63029200D01*
X127646600Y-61749200D02*
X127646600Y-63029200D01*
X131246600Y-61749200D02*
X131246600Y-63029200D01*
X131846600Y-61749200D02*
X131846600Y-63029200D01*
X135446600Y-61749200D02*
X135446600Y-63029200D01*
X136046600Y-61749200D02*
X136046600Y-63029200D01*
X124756600Y-58639200D02*
X125736600Y-58639200D01*
X128956600Y-58639200D02*
X129936600Y-58639200D01*
X133156600Y-58639200D02*
X134136600Y-58639200D01*
X121146600Y-59639200D02*
X120546600Y-59939200D01*
X120546600Y-59939200D02*
X120546600Y-59339200D01*
X120546600Y-59339200D02*
X121146600Y-59639200D01*
%TO.C,J1*%
X97778600Y-58522200D02*
X96968600Y-58522200D01*
X96968600Y-58522200D02*
X96968600Y-45502200D01*
X96968600Y-45502200D02*
X106078600Y-45502200D01*
X114378600Y-58522200D02*
X115188600Y-58522200D01*
X115188600Y-58522200D02*
X115188600Y-45502200D01*
X115188600Y-45502200D02*
X106078600Y-45502200D01*
X99478600Y-61622200D02*
X99478600Y-62902200D01*
X100078600Y-61622200D02*
X100078600Y-62902200D01*
X103678600Y-61622200D02*
X103678600Y-62902200D01*
X104278600Y-61622200D02*
X104278600Y-62902200D01*
X107878600Y-61622200D02*
X107878600Y-62902200D01*
X108478600Y-61622200D02*
X108478600Y-62902200D01*
X112078600Y-61622200D02*
X112078600Y-62902200D01*
X112678600Y-61622200D02*
X112678600Y-62902200D01*
X101388600Y-58512200D02*
X102368600Y-58512200D01*
X105588600Y-58512200D02*
X106568600Y-58512200D01*
X109788600Y-58512200D02*
X110768600Y-58512200D01*
X97778600Y-59512200D02*
X97178600Y-59812200D01*
X97178600Y-59812200D02*
X97178600Y-59212200D01*
X97178600Y-59212200D02*
X97778600Y-59512200D01*
%TO.C,D16*%
X77750000Y-73960000D02*
X83135000Y-73960000D01*
X83135000Y-73960000D02*
X83135000Y-70040000D01*
X83135000Y-70040000D02*
X77750000Y-70040000D01*
%TO.C,D15*%
X77750000Y-79960000D02*
X83135000Y-79960000D01*
X83135000Y-79960000D02*
X83135000Y-76040000D01*
X83135000Y-76040000D02*
X77750000Y-76040000D01*
%TO.C,D14*%
X87750000Y-73960000D02*
X93135000Y-73960000D01*
X93135000Y-73960000D02*
X93135000Y-70040000D01*
X93135000Y-70040000D02*
X87750000Y-70040000D01*
%TO.C,D13*%
X87750000Y-79960000D02*
X93135000Y-79960000D01*
X93135000Y-79960000D02*
X93135000Y-76040000D01*
X93135000Y-76040000D02*
X87750000Y-76040000D01*
%TO.C,D12*%
X97750000Y-73960000D02*
X103135000Y-73960000D01*
X103135000Y-73960000D02*
X103135000Y-70040000D01*
X103135000Y-70040000D02*
X97750000Y-70040000D01*
%TO.C,D11*%
X97750000Y-79960000D02*
X103135000Y-79960000D01*
X103135000Y-79960000D02*
X103135000Y-76040000D01*
X103135000Y-76040000D02*
X97750000Y-76040000D01*
%TO.C,D10*%
X81080000Y-103932000D02*
X86465000Y-103932000D01*
X86465000Y-103932000D02*
X86465000Y-100012000D01*
X86465000Y-100012000D02*
X81080000Y-100012000D01*
%TO.C,D9*%
X81080000Y-109932000D02*
X86465000Y-109932000D01*
X86465000Y-109932000D02*
X86465000Y-106012000D01*
X86465000Y-106012000D02*
X81080000Y-106012000D01*
%TO.C,D8*%
X91080000Y-103932000D02*
X96465000Y-103932000D01*
X96465000Y-103932000D02*
X96465000Y-100012000D01*
X96465000Y-100012000D02*
X91080000Y-100012000D01*
%TO.C,D7*%
X91080000Y-109932000D02*
X96465000Y-109932000D01*
X96465000Y-109932000D02*
X96465000Y-106012000D01*
X96465000Y-106012000D02*
X91080000Y-106012000D01*
%TO.C,D6*%
X127750000Y-73960000D02*
X133135000Y-73960000D01*
X133135000Y-73960000D02*
X133135000Y-70040000D01*
X133135000Y-70040000D02*
X127750000Y-70040000D01*
%TO.C,D5*%
X127750000Y-79960000D02*
X133135000Y-79960000D01*
X133135000Y-79960000D02*
X133135000Y-76040000D01*
X133135000Y-76040000D02*
X127750000Y-76040000D01*
%TO.C,D4*%
X137750000Y-73960000D02*
X143135000Y-73960000D01*
X143135000Y-73960000D02*
X143135000Y-70040000D01*
X143135000Y-70040000D02*
X137750000Y-70040000D01*
%TO.C,D3*%
X137750000Y-79960000D02*
X143135000Y-79960000D01*
X143135000Y-79960000D02*
X143135000Y-76040000D01*
X143135000Y-76040000D02*
X137750000Y-76040000D01*
%TO.C,D2*%
X147750000Y-73960000D02*
X153135000Y-73960000D01*
X153135000Y-73960000D02*
X153135000Y-70040000D01*
X153135000Y-70040000D02*
X147750000Y-70040000D01*
%TO.C,D1*%
X147750000Y-79960000D02*
X153135000Y-79960000D01*
X153135000Y-79960000D02*
X153135000Y-76040000D01*
X153135000Y-76040000D02*
X147750000Y-76040000D01*
%TO.C,C2*%
D16*
X152301142Y-59106666D02*
X152348761Y-59154285D01*
X152396380Y-59297142D01*
X152396380Y-59392380D01*
X152348761Y-59535238D01*
X152253523Y-59630476D01*
X152158285Y-59678095D01*
X151967809Y-59725714D01*
X151824952Y-59725714D01*
X151634476Y-59678095D01*
X151539238Y-59630476D01*
X151444000Y-59535238D01*
X151396380Y-59392380D01*
X151396380Y-59297142D01*
X151444000Y-59154285D01*
X151491619Y-59106666D01*
X151491619Y-58725714D02*
X151444000Y-58678095D01*
X151396380Y-58582857D01*
X151396380Y-58344761D01*
X151444000Y-58249523D01*
X151491619Y-58201904D01*
X151586857Y-58154285D01*
X151682095Y-58154285D01*
X151824952Y-58201904D01*
X152396380Y-58773333D01*
X152396380Y-58154285D01*
%TO.C,C1*%
X158801142Y-64924666D02*
X158848761Y-64972285D01*
X158896380Y-65115142D01*
X158896380Y-65210380D01*
X158848761Y-65353238D01*
X158753523Y-65448476D01*
X158658285Y-65496095D01*
X158467809Y-65543714D01*
X158324952Y-65543714D01*
X158134476Y-65496095D01*
X158039238Y-65448476D01*
X157944000Y-65353238D01*
X157896380Y-65210380D01*
X157896380Y-65115142D01*
X157944000Y-64972285D01*
X157991619Y-64924666D01*
X158896380Y-63972285D02*
X158896380Y-64543714D01*
X158896380Y-64258000D02*
X157896380Y-64258000D01*
X158039238Y-64353238D01*
X158134476Y-64448476D01*
X158182095Y-64543714D01*
%TO.C,e1*%
X129436761Y-111283714D02*
X129484380Y-111378952D01*
X129484380Y-111569428D01*
X129436761Y-111664666D01*
X129341523Y-111712285D01*
X128960571Y-111712285D01*
X128865333Y-111664666D01*
X128817714Y-111569428D01*
X128817714Y-111378952D01*
X128865333Y-111283714D01*
X128960571Y-111236095D01*
X129055809Y-111236095D01*
X129151047Y-111712285D01*
X129484380Y-110283714D02*
X129484380Y-110855142D01*
X129484380Y-110569428D02*
X128484380Y-110569428D01*
X128627238Y-110664666D01*
X128722476Y-110759904D01*
X128770095Y-110855142D01*
X103155809Y-118293238D02*
X103193904Y-118178952D01*
X103193904Y-117988476D01*
X103155809Y-117912285D01*
X103117714Y-117874190D01*
X103041523Y-117836095D01*
X102965333Y-117836095D01*
X102889142Y-117874190D01*
X102851047Y-117912285D01*
X102812952Y-117988476D01*
X102774857Y-118140857D01*
X102736761Y-118217047D01*
X102698666Y-118255142D01*
X102622476Y-118293238D01*
X102546285Y-118293238D01*
X102470095Y-118255142D01*
X102432000Y-118217047D01*
X102393904Y-118140857D01*
X102393904Y-117950380D01*
X102432000Y-117836095D01*
X102393904Y-117569428D02*
X103193904Y-117378952D01*
X102622476Y-117226571D01*
X103193904Y-117074190D01*
X102393904Y-116883714D01*
X103193904Y-116578952D02*
X102393904Y-116578952D01*
X102393904Y-116388476D01*
X102432000Y-116274190D01*
X102508190Y-116198000D01*
X102584380Y-116159904D01*
X102736761Y-116121809D01*
X102851047Y-116121809D01*
X103003428Y-116159904D01*
X103079619Y-116198000D01*
X103155809Y-116274190D01*
X103193904Y-116388476D01*
X103193904Y-116578952D01*
X103193904Y-115778952D02*
X102393904Y-115778952D01*
X102393904Y-115245619D02*
X102393904Y-115093238D01*
X102432000Y-115017047D01*
X102508190Y-114940857D01*
X102660571Y-114902761D01*
X102927238Y-114902761D01*
X103079619Y-114940857D01*
X103155809Y-115017047D01*
X103193904Y-115093238D01*
X103193904Y-115245619D01*
X103155809Y-115321809D01*
X103079619Y-115398000D01*
X102927238Y-115436095D01*
X102660571Y-115436095D01*
X102508190Y-115398000D01*
X102432000Y-115321809D01*
X102393904Y-115245619D01*
X103155809Y-107107523D02*
X103193904Y-106993238D01*
X103193904Y-106802761D01*
X103155809Y-106726571D01*
X103117714Y-106688476D01*
X103041523Y-106650380D01*
X102965333Y-106650380D01*
X102889142Y-106688476D01*
X102851047Y-106726571D01*
X102812952Y-106802761D01*
X102774857Y-106955142D01*
X102736761Y-107031333D01*
X102698666Y-107069428D01*
X102622476Y-107107523D01*
X102546285Y-107107523D01*
X102470095Y-107069428D01*
X102432000Y-107031333D01*
X102393904Y-106955142D01*
X102393904Y-106764666D01*
X102432000Y-106650380D01*
X102393904Y-106383714D02*
X103193904Y-106193238D01*
X102622476Y-106040857D01*
X103193904Y-105888476D01*
X102393904Y-105698000D01*
X103117714Y-104936095D02*
X103155809Y-104974190D01*
X103193904Y-105088476D01*
X103193904Y-105164666D01*
X103155809Y-105278952D01*
X103079619Y-105355142D01*
X103003428Y-105393238D01*
X102851047Y-105431333D01*
X102736761Y-105431333D01*
X102584380Y-105393238D01*
X102508190Y-105355142D01*
X102432000Y-105278952D01*
X102393904Y-105164666D01*
X102393904Y-105088476D01*
X102432000Y-104974190D01*
X102470095Y-104936095D01*
X103193904Y-104212285D02*
X103193904Y-104593238D01*
X102393904Y-104593238D01*
X103193904Y-103945619D02*
X102393904Y-103945619D01*
X103193904Y-103488476D02*
X102736761Y-103831333D01*
X102393904Y-103488476D02*
X102851047Y-103945619D01*
X134291035Y-123149597D02*
X134560409Y-123418971D01*
X134075536Y-123257346D02*
X134829783Y-122880223D01*
X134452659Y-123634470D01*
X135476280Y-123580595D02*
X135449343Y-123499783D01*
X135368531Y-123418971D01*
X135260781Y-123365096D01*
X135153032Y-123365096D01*
X135072219Y-123392033D01*
X134937532Y-123472845D01*
X134856720Y-123553658D01*
X134775908Y-123688345D01*
X134748971Y-123769157D01*
X134748971Y-123876906D01*
X134802845Y-123984656D01*
X134856720Y-124038531D01*
X134964470Y-124092406D01*
X135018345Y-124092406D01*
X135206906Y-123903844D01*
X135099157Y-123796094D01*
X135206906Y-124388717D02*
X135772592Y-123823032D01*
X135530155Y-124711966D01*
X136095841Y-124146280D01*
X135799529Y-124981340D02*
X136365215Y-124415654D01*
X136499902Y-124550341D01*
X136553776Y-124658091D01*
X136553776Y-124765841D01*
X136526839Y-124846653D01*
X136446027Y-124981340D01*
X136365215Y-125062152D01*
X136230528Y-125142964D01*
X136149715Y-125169902D01*
X136041966Y-125169902D01*
X135934216Y-125116027D01*
X135799529Y-124981340D01*
X147933844Y-123084158D02*
X147906906Y-123003346D01*
X147826094Y-122922534D01*
X147718345Y-122868659D01*
X147610595Y-122868659D01*
X147529783Y-122895597D01*
X147395096Y-122976409D01*
X147314284Y-123057221D01*
X147233471Y-123191908D01*
X147206534Y-123272720D01*
X147206534Y-123380470D01*
X147260409Y-123488219D01*
X147314284Y-123542094D01*
X147422033Y-123595969D01*
X147475908Y-123595969D01*
X147664470Y-123407407D01*
X147556720Y-123299658D01*
X147664470Y-123892280D02*
X148230155Y-123326595D01*
X147987719Y-124215529D01*
X148553404Y-123649844D01*
X148257093Y-124484903D02*
X148822778Y-123919218D01*
X148957465Y-124053905D01*
X149011340Y-124161654D01*
X149011340Y-124269404D01*
X148984402Y-124350216D01*
X148903590Y-124484903D01*
X148822778Y-124565715D01*
X148688091Y-124646528D01*
X148607279Y-124673465D01*
X148499529Y-124673465D01*
X148391780Y-124619590D01*
X148257093Y-124484903D01*
X122533844Y-123084158D02*
X122506906Y-123003346D01*
X122426094Y-122922534D01*
X122318345Y-122868659D01*
X122210595Y-122868659D01*
X122129783Y-122895597D01*
X121995096Y-122976409D01*
X121914284Y-123057221D01*
X121833471Y-123191908D01*
X121806534Y-123272720D01*
X121806534Y-123380470D01*
X121860409Y-123488219D01*
X121914284Y-123542094D01*
X122022033Y-123595969D01*
X122075908Y-123595969D01*
X122264470Y-123407407D01*
X122156720Y-123299658D01*
X122264470Y-123892280D02*
X122830155Y-123326595D01*
X122587719Y-124215529D01*
X123153404Y-123649844D01*
X122857093Y-124484903D02*
X123422778Y-123919218D01*
X123557465Y-124053905D01*
X123611340Y-124161654D01*
X123611340Y-124269404D01*
X123584402Y-124350216D01*
X123503590Y-124484903D01*
X123422778Y-124565715D01*
X123288091Y-124646528D01*
X123207279Y-124673465D01*
X123099529Y-124673465D01*
X122991780Y-124619590D01*
X122857093Y-124484903D01*
X109833844Y-123084158D02*
X109806906Y-123003346D01*
X109726094Y-122922534D01*
X109618345Y-122868659D01*
X109510595Y-122868659D01*
X109429783Y-122895597D01*
X109295096Y-122976409D01*
X109214284Y-123057221D01*
X109133471Y-123191908D01*
X109106534Y-123272720D01*
X109106534Y-123380470D01*
X109160409Y-123488219D01*
X109214284Y-123542094D01*
X109322033Y-123595969D01*
X109375908Y-123595969D01*
X109564470Y-123407407D01*
X109456720Y-123299658D01*
X109564470Y-123892280D02*
X110130155Y-123326595D01*
X109887719Y-124215529D01*
X110453404Y-123649844D01*
X110157093Y-124484903D02*
X110722778Y-123919218D01*
X110857465Y-124053905D01*
X110911340Y-124161654D01*
X110911340Y-124269404D01*
X110884402Y-124350216D01*
X110803590Y-124484903D01*
X110722778Y-124565715D01*
X110588091Y-124646528D01*
X110507279Y-124673465D01*
X110399529Y-124673465D01*
X110291780Y-124619590D01*
X110157093Y-124484903D01*
X109833844Y-97484158D02*
X109806906Y-97403346D01*
X109726094Y-97322534D01*
X109618345Y-97268659D01*
X109510595Y-97268659D01*
X109429783Y-97295597D01*
X109295096Y-97376409D01*
X109214284Y-97457221D01*
X109133471Y-97591908D01*
X109106534Y-97672720D01*
X109106534Y-97780470D01*
X109160409Y-97888219D01*
X109214284Y-97942094D01*
X109322033Y-97995969D01*
X109375908Y-97995969D01*
X109564470Y-97807407D01*
X109456720Y-97699658D01*
X109564470Y-98292280D02*
X110130155Y-97726595D01*
X109887719Y-98615529D01*
X110453404Y-98049844D01*
X110157093Y-98884903D02*
X110722778Y-98319218D01*
X110857465Y-98453905D01*
X110911340Y-98561654D01*
X110911340Y-98669404D01*
X110884402Y-98750216D01*
X110803590Y-98884903D01*
X110722778Y-98965715D01*
X110588091Y-99046528D01*
X110507279Y-99073465D01*
X110399529Y-99073465D01*
X110291780Y-99019590D01*
X110157093Y-98884903D01*
X122533844Y-97484158D02*
X122506906Y-97403346D01*
X122426094Y-97322534D01*
X122318345Y-97268659D01*
X122210595Y-97268659D01*
X122129783Y-97295597D01*
X121995096Y-97376409D01*
X121914284Y-97457221D01*
X121833471Y-97591908D01*
X121806534Y-97672720D01*
X121806534Y-97780470D01*
X121860409Y-97888219D01*
X121914284Y-97942094D01*
X122022033Y-97995969D01*
X122075908Y-97995969D01*
X122264470Y-97807407D01*
X122156720Y-97699658D01*
X122264470Y-98292280D02*
X122830155Y-97726595D01*
X122587719Y-98615529D01*
X123153404Y-98049844D01*
X122857093Y-98884903D02*
X123422778Y-98319218D01*
X123557465Y-98453905D01*
X123611340Y-98561654D01*
X123611340Y-98669404D01*
X123584402Y-98750216D01*
X123503590Y-98884903D01*
X123422778Y-98965715D01*
X123288091Y-99046528D01*
X123207279Y-99073465D01*
X123099529Y-99073465D01*
X122991780Y-99019590D01*
X122857093Y-98884903D01*
X135233844Y-97484158D02*
X135206906Y-97403346D01*
X135126094Y-97322534D01*
X135018345Y-97268659D01*
X134910595Y-97268659D01*
X134829783Y-97295597D01*
X134695096Y-97376409D01*
X134614284Y-97457221D01*
X134533471Y-97591908D01*
X134506534Y-97672720D01*
X134506534Y-97780470D01*
X134560409Y-97888219D01*
X134614284Y-97942094D01*
X134722033Y-97995969D01*
X134775908Y-97995969D01*
X134964470Y-97807407D01*
X134856720Y-97699658D01*
X134964470Y-98292280D02*
X135530155Y-97726595D01*
X135287719Y-98615529D01*
X135853404Y-98049844D01*
X135557093Y-98884903D02*
X136122778Y-98319218D01*
X136257465Y-98453905D01*
X136311340Y-98561654D01*
X136311340Y-98669404D01*
X136284402Y-98750216D01*
X136203590Y-98884903D01*
X136122778Y-98965715D01*
X135988091Y-99046528D01*
X135907279Y-99073465D01*
X135799529Y-99073465D01*
X135691780Y-99019590D01*
X135557093Y-98884903D01*
X147933844Y-97484158D02*
X147906906Y-97403346D01*
X147826094Y-97322534D01*
X147718345Y-97268659D01*
X147610595Y-97268659D01*
X147529783Y-97295597D01*
X147395096Y-97376409D01*
X147314284Y-97457221D01*
X147233471Y-97591908D01*
X147206534Y-97672720D01*
X147206534Y-97780470D01*
X147260409Y-97888219D01*
X147314284Y-97942094D01*
X147422033Y-97995969D01*
X147475908Y-97995969D01*
X147664470Y-97807407D01*
X147556720Y-97699658D01*
X147664470Y-98292280D02*
X148230155Y-97726595D01*
X147987719Y-98615529D01*
X148553404Y-98049844D01*
X148257093Y-98884903D02*
X148822778Y-98319218D01*
X148957465Y-98453905D01*
X149011340Y-98561654D01*
X149011340Y-98669404D01*
X148984402Y-98750216D01*
X148903590Y-98884903D01*
X148822778Y-98965715D01*
X148688091Y-99046528D01*
X148607279Y-99073465D01*
X148499529Y-99073465D01*
X148391780Y-99019590D01*
X148257093Y-98884903D01*
X152504690Y-122951129D02*
X152127566Y-123705377D01*
X152881813Y-123328253D01*
X152989563Y-123974751D02*
X153043438Y-124082500D01*
X153043438Y-124136375D01*
X153016500Y-124217187D01*
X152935688Y-124298000D01*
X152854876Y-124324937D01*
X152801001Y-124324937D01*
X152720189Y-124298000D01*
X152504690Y-124082500D01*
X153070375Y-123516815D01*
X153258937Y-123705377D01*
X153285874Y-123786189D01*
X153285874Y-123840064D01*
X153258937Y-123920876D01*
X153205062Y-123974751D01*
X153124250Y-124001688D01*
X153070375Y-124001688D01*
X152989563Y-123974751D01*
X152801001Y-123786189D01*
X153636061Y-124082500D02*
X153178125Y-124540436D01*
X153151187Y-124621248D01*
X153151187Y-124675123D01*
X153178125Y-124755935D01*
X153285874Y-124863685D01*
X153366687Y-124890622D01*
X153420561Y-124890622D01*
X153501374Y-124863685D01*
X153959309Y-124405749D01*
X153662998Y-125186934D02*
X153716873Y-125294683D01*
X153851560Y-125429370D01*
X153932372Y-125456308D01*
X153986247Y-125456308D01*
X154067059Y-125429370D01*
X154120934Y-125375496D01*
X154147871Y-125294683D01*
X154147871Y-125240809D01*
X154120934Y-125159996D01*
X154040122Y-125025309D01*
X154013184Y-124944497D01*
X154013184Y-124890622D01*
X154040122Y-124809810D01*
X154093996Y-124755935D01*
X154174809Y-124728998D01*
X154228683Y-124728998D01*
X154309496Y-124755935D01*
X154444183Y-124890622D01*
X154498057Y-124998372D01*
X149962033Y-122918473D02*
X149584910Y-123672720D01*
X150339157Y-123295597D01*
X149962033Y-123995969D02*
X150015908Y-124103719D01*
X150150595Y-124238406D01*
X150231407Y-124265343D01*
X150285282Y-124265343D01*
X150366094Y-124238406D01*
X150419969Y-124184531D01*
X150446906Y-124103719D01*
X150446906Y-124049844D01*
X150419969Y-123969032D01*
X150339157Y-123834345D01*
X150312219Y-123753532D01*
X150312219Y-123699658D01*
X150339157Y-123618845D01*
X150393032Y-123564971D01*
X150473844Y-123538033D01*
X150527719Y-123538033D01*
X150608531Y-123564971D01*
X150743218Y-123699658D01*
X150797093Y-123807407D01*
X150877905Y-124426967D02*
X150608531Y-124696341D01*
X150985654Y-123942094D02*
X150877905Y-124426967D01*
X151362778Y-124319218D01*
X150985654Y-125019590D02*
X151039529Y-125127340D01*
X151174216Y-125262027D01*
X151255028Y-125288964D01*
X151308903Y-125288964D01*
X151389715Y-125262027D01*
X151443590Y-125208152D01*
X151470528Y-125127340D01*
X151470528Y-125073465D01*
X151443590Y-124992653D01*
X151362778Y-124857966D01*
X151335841Y-124777154D01*
X151335841Y-124723279D01*
X151362778Y-124642467D01*
X151416653Y-124588592D01*
X151497465Y-124561654D01*
X151551340Y-124561654D01*
X151632152Y-124588592D01*
X151766839Y-124723279D01*
X151820714Y-124831028D01*
X145073691Y-122920131D02*
X145423877Y-123270317D01*
X145019816Y-123297255D01*
X145100629Y-123378067D01*
X145127566Y-123458879D01*
X145127566Y-123512754D01*
X145100629Y-123593566D01*
X144965942Y-123728253D01*
X144885129Y-123755190D01*
X144831255Y-123755190D01*
X144750442Y-123728253D01*
X144588818Y-123566629D01*
X144561881Y-123485816D01*
X144561881Y-123431942D01*
X145585502Y-123431942D02*
X145208378Y-124186189D01*
X145962625Y-123809065D01*
X146097312Y-123943752D02*
X146447499Y-124293938D01*
X146043438Y-124320876D01*
X146124250Y-124401688D01*
X146151187Y-124482500D01*
X146151187Y-124536375D01*
X146124250Y-124617187D01*
X145989563Y-124751874D01*
X145908751Y-124778812D01*
X145854876Y-124778812D01*
X145774064Y-124751874D01*
X145612439Y-124590250D01*
X145585502Y-124509438D01*
X145585502Y-124455563D01*
X145935688Y-125021248D02*
X146366687Y-125452247D01*
X146851560Y-125236748D02*
X147040122Y-125425309D01*
X146824622Y-125802433D02*
X146555248Y-125533059D01*
X147120934Y-124967374D01*
X147390308Y-125236748D01*
X147067059Y-126044870D02*
X147632744Y-125479184D01*
X147390308Y-126368118D01*
X147955993Y-125802433D01*
X142541407Y-122887847D02*
X142891593Y-123238033D01*
X142487532Y-123264971D01*
X142568345Y-123345783D01*
X142595282Y-123426595D01*
X142595282Y-123480470D01*
X142568345Y-123561282D01*
X142433658Y-123695969D01*
X142352845Y-123722906D01*
X142298971Y-123722906D01*
X142218158Y-123695969D01*
X142056534Y-123534345D01*
X142029597Y-123453532D01*
X142029597Y-123399658D01*
X143053218Y-123399658D02*
X142676094Y-124153905D01*
X143430341Y-123776781D01*
X143565028Y-123911468D02*
X143915215Y-124261654D01*
X143511154Y-124288592D01*
X143591966Y-124369404D01*
X143618903Y-124450216D01*
X143618903Y-124504091D01*
X143591966Y-124584903D01*
X143457279Y-124719590D01*
X143376467Y-124746528D01*
X143322592Y-124746528D01*
X143241780Y-124719590D01*
X143080155Y-124557966D01*
X143053218Y-124477154D01*
X143053218Y-124423279D01*
X139498226Y-123152788D02*
X139767600Y-123422162D01*
X139282727Y-123260537D02*
X140036974Y-122883414D01*
X139659850Y-123637661D01*
X139848412Y-123826223D02*
X140414097Y-123260537D01*
X140548784Y-123395224D01*
X140602659Y-123502974D01*
X140602659Y-123610723D01*
X140575722Y-123691536D01*
X140494910Y-123826223D01*
X140414097Y-123907035D01*
X140279410Y-123987847D01*
X140198598Y-124014784D01*
X140090849Y-124014784D01*
X139983099Y-123960910D01*
X139848412Y-123826223D01*
X140791221Y-124661282D02*
X140737346Y-124661282D01*
X140629597Y-124607407D01*
X140575722Y-124553532D01*
X140521847Y-124445783D01*
X140521847Y-124338033D01*
X140548784Y-124257221D01*
X140629597Y-124122534D01*
X140710409Y-124041722D01*
X140845096Y-123960910D01*
X140925908Y-123933972D01*
X141033658Y-123933972D01*
X141141407Y-123987847D01*
X141195282Y-124041722D01*
X141249157Y-124149471D01*
X141249157Y-124203346D01*
X140791221Y-124876781D02*
X141222219Y-125307780D01*
X141895654Y-124742094D02*
X141518531Y-125496341D01*
X142272778Y-125119218D01*
X142218903Y-126196714D02*
X142299715Y-125738778D01*
X141895654Y-125873465D02*
X142461340Y-125307780D01*
X142676839Y-125523279D01*
X142703776Y-125604091D01*
X142703776Y-125657966D01*
X142676839Y-125738778D01*
X142596027Y-125819590D01*
X142515215Y-125846528D01*
X142461340Y-125846528D01*
X142380528Y-125819590D01*
X142165028Y-125604091D01*
X142757651Y-126142839D02*
X142946213Y-126331401D01*
X142730714Y-126708524D02*
X142461340Y-126439150D01*
X143027025Y-125873465D01*
X143296399Y-126142839D01*
X143458024Y-126843211D02*
X143269462Y-126654650D01*
X142973150Y-126950961D02*
X143538836Y-126385276D01*
X143808210Y-126654650D01*
X137785407Y-123095722D02*
X137758470Y-123014910D01*
X137677658Y-122934097D01*
X137569908Y-122880223D01*
X137462158Y-122880223D01*
X137381346Y-122907160D01*
X137246659Y-122987972D01*
X137165847Y-123068784D01*
X137085035Y-123203471D01*
X137058097Y-123284284D01*
X137058097Y-123392033D01*
X137111972Y-123499783D01*
X137165847Y-123553658D01*
X137273597Y-123607532D01*
X137327471Y-123607532D01*
X137516033Y-123418971D01*
X137408284Y-123311221D01*
X137516033Y-123903844D02*
X138081719Y-123338158D01*
X138297218Y-123553658D01*
X138324155Y-123634470D01*
X138324155Y-123688345D01*
X138297218Y-123769157D01*
X138216406Y-123849969D01*
X138135593Y-123876906D01*
X138081719Y-123876906D01*
X138000906Y-123849969D01*
X137785407Y-123634470D01*
X138566592Y-123930781D02*
X138620467Y-123930781D01*
X138701279Y-123957719D01*
X138835966Y-124092406D01*
X138862903Y-124173218D01*
X138862903Y-124227093D01*
X138835966Y-124307905D01*
X138782091Y-124361780D01*
X138674341Y-124415654D01*
X138027844Y-124415654D01*
X138378030Y-124765841D01*
X139024528Y-124765841D02*
X138997590Y-124685028D01*
X138997590Y-124631154D01*
X139024528Y-124550341D01*
X139051465Y-124523404D01*
X139132277Y-124496467D01*
X139186152Y-124496467D01*
X139266964Y-124523404D01*
X139374714Y-124631154D01*
X139401651Y-124711966D01*
X139401651Y-124765841D01*
X139374714Y-124846653D01*
X139347776Y-124873590D01*
X139266964Y-124900528D01*
X139213089Y-124900528D01*
X139132277Y-124873590D01*
X139024528Y-124765841D01*
X138943715Y-124738903D01*
X138889841Y-124738903D01*
X138809028Y-124765841D01*
X138701279Y-124873590D01*
X138674341Y-124954402D01*
X138674341Y-125008277D01*
X138701279Y-125089089D01*
X138809028Y-125196839D01*
X138889841Y-125223776D01*
X138943715Y-125223776D01*
X139024528Y-125196839D01*
X139132277Y-125089089D01*
X139159215Y-125008277D01*
X139159215Y-124954402D01*
X139132277Y-124873590D01*
X132441407Y-123095722D02*
X132414470Y-123014910D01*
X132333658Y-122934097D01*
X132225908Y-122880223D01*
X132118158Y-122880223D01*
X132037346Y-122907160D01*
X131902659Y-122987972D01*
X131821847Y-123068784D01*
X131741035Y-123203471D01*
X131714097Y-123284284D01*
X131714097Y-123392033D01*
X131767972Y-123499783D01*
X131821847Y-123553658D01*
X131929597Y-123607532D01*
X131983471Y-123607532D01*
X132172033Y-123418971D01*
X132064284Y-123311221D01*
X132172033Y-123903844D02*
X132737719Y-123338158D01*
X132953218Y-123553658D01*
X132980155Y-123634470D01*
X132980155Y-123688345D01*
X132953218Y-123769157D01*
X132872406Y-123849969D01*
X132791593Y-123876906D01*
X132737719Y-123876906D01*
X132656906Y-123849969D01*
X132441407Y-123634470D01*
X133222592Y-123930781D02*
X133276467Y-123930781D01*
X133357279Y-123957719D01*
X133491966Y-124092406D01*
X133518903Y-124173218D01*
X133518903Y-124227093D01*
X133491966Y-124307905D01*
X133438091Y-124361780D01*
X133330341Y-124415654D01*
X132683844Y-124415654D01*
X133034030Y-124765841D01*
X133788277Y-124388717D02*
X134165401Y-124765841D01*
X133357279Y-125089089D01*
X129911407Y-123095722D02*
X129884470Y-123014910D01*
X129803658Y-122934097D01*
X129695908Y-122880223D01*
X129588158Y-122880223D01*
X129507346Y-122907160D01*
X129372659Y-122987972D01*
X129291847Y-123068784D01*
X129211035Y-123203471D01*
X129184097Y-123284284D01*
X129184097Y-123392033D01*
X129237972Y-123499783D01*
X129291847Y-123553658D01*
X129399597Y-123607532D01*
X129453471Y-123607532D01*
X129642033Y-123418971D01*
X129534284Y-123311221D01*
X129642033Y-123903844D02*
X130207719Y-123338158D01*
X130423218Y-123553658D01*
X130450155Y-123634470D01*
X130450155Y-123688345D01*
X130423218Y-123769157D01*
X130342406Y-123849969D01*
X130261593Y-123876906D01*
X130207719Y-123876906D01*
X130126906Y-123849969D01*
X129911407Y-123634470D01*
X130692592Y-123930781D02*
X130746467Y-123930781D01*
X130827279Y-123957719D01*
X130961966Y-124092406D01*
X130988903Y-124173218D01*
X130988903Y-124227093D01*
X130961966Y-124307905D01*
X130908091Y-124361780D01*
X130800341Y-124415654D01*
X130153844Y-124415654D01*
X130504030Y-124765841D01*
X131554589Y-124685028D02*
X131446839Y-124577279D01*
X131366027Y-124550341D01*
X131312152Y-124550341D01*
X131177465Y-124577279D01*
X131042778Y-124658091D01*
X130827279Y-124873590D01*
X130800341Y-124954402D01*
X130800341Y-125008277D01*
X130827279Y-125089089D01*
X130935028Y-125196839D01*
X131015841Y-125223776D01*
X131069715Y-125223776D01*
X131150528Y-125196839D01*
X131285215Y-125062152D01*
X131312152Y-124981340D01*
X131312152Y-124927465D01*
X131285215Y-124846653D01*
X131177465Y-124738903D01*
X131096653Y-124711966D01*
X131042778Y-124711966D01*
X130961966Y-124738903D01*
X127088564Y-123836375D02*
X127169377Y-123378439D01*
X126765316Y-123513126D02*
X127331001Y-122947441D01*
X127546500Y-123162940D01*
X127573438Y-123243752D01*
X127573438Y-123297627D01*
X127546500Y-123378439D01*
X127465688Y-123459251D01*
X127384876Y-123486189D01*
X127331001Y-123486189D01*
X127250189Y-123459251D01*
X127034690Y-123243752D01*
X127896687Y-123513126D02*
X127438751Y-123971062D01*
X127411813Y-124051874D01*
X127411813Y-124105749D01*
X127438751Y-124186561D01*
X127546500Y-124294311D01*
X127627312Y-124321248D01*
X127681187Y-124321248D01*
X127762000Y-124294311D01*
X128219935Y-123836375D01*
X127923624Y-124671435D02*
X128489309Y-124105749D01*
X128246873Y-124994683D01*
X128812558Y-124428998D01*
X124831407Y-123095722D02*
X124804470Y-123014910D01*
X124723658Y-122934097D01*
X124615908Y-122880223D01*
X124508158Y-122880223D01*
X124427346Y-122907160D01*
X124292659Y-122987972D01*
X124211847Y-123068784D01*
X124131035Y-123203471D01*
X124104097Y-123284284D01*
X124104097Y-123392033D01*
X124157972Y-123499783D01*
X124211847Y-123553658D01*
X124319597Y-123607532D01*
X124373471Y-123607532D01*
X124562033Y-123418971D01*
X124454284Y-123311221D01*
X124562033Y-123903844D02*
X125127719Y-123338158D01*
X125343218Y-123553658D01*
X125370155Y-123634470D01*
X125370155Y-123688345D01*
X125343218Y-123769157D01*
X125262406Y-123849969D01*
X125181593Y-123876906D01*
X125127719Y-123876906D01*
X125046906Y-123849969D01*
X124831407Y-123634470D01*
X125612592Y-123930781D02*
X125666467Y-123930781D01*
X125747279Y-123957719D01*
X125881966Y-124092406D01*
X125908903Y-124173218D01*
X125908903Y-124227093D01*
X125881966Y-124307905D01*
X125828091Y-124361780D01*
X125720341Y-124415654D01*
X125073844Y-124415654D01*
X125424030Y-124765841D01*
X126151340Y-124469529D02*
X126205215Y-124469529D01*
X126286027Y-124496467D01*
X126420714Y-124631154D01*
X126447651Y-124711966D01*
X126447651Y-124765841D01*
X126420714Y-124846653D01*
X126366839Y-124900528D01*
X126259089Y-124954402D01*
X125612592Y-124954402D01*
X125962778Y-125304589D01*
X119741407Y-123095722D02*
X119714470Y-123014910D01*
X119633658Y-122934097D01*
X119525908Y-122880223D01*
X119418158Y-122880223D01*
X119337346Y-122907160D01*
X119202659Y-122987972D01*
X119121847Y-123068784D01*
X119041035Y-123203471D01*
X119014097Y-123284284D01*
X119014097Y-123392033D01*
X119067972Y-123499783D01*
X119121847Y-123553658D01*
X119229597Y-123607532D01*
X119283471Y-123607532D01*
X119472033Y-123418971D01*
X119364284Y-123311221D01*
X119472033Y-123903844D02*
X120037719Y-123338158D01*
X120253218Y-123553658D01*
X120280155Y-123634470D01*
X120280155Y-123688345D01*
X120253218Y-123769157D01*
X120172406Y-123849969D01*
X120091593Y-123876906D01*
X120037719Y-123876906D01*
X119956906Y-123849969D01*
X119741407Y-123634470D01*
X120522592Y-123930781D02*
X120576467Y-123930781D01*
X120657279Y-123957719D01*
X120791966Y-124092406D01*
X120818903Y-124173218D01*
X120818903Y-124227093D01*
X120791966Y-124307905D01*
X120738091Y-124361780D01*
X120630341Y-124415654D01*
X119983844Y-124415654D01*
X120334030Y-124765841D01*
X120872778Y-125304589D02*
X120549529Y-124981340D01*
X120711154Y-125142964D02*
X121276839Y-124577279D01*
X121142152Y-124604216D01*
X121034402Y-124604216D01*
X120953590Y-124577279D01*
X117211407Y-123095722D02*
X117184470Y-123014910D01*
X117103658Y-122934097D01*
X116995908Y-122880223D01*
X116888158Y-122880223D01*
X116807346Y-122907160D01*
X116672659Y-122987972D01*
X116591847Y-123068784D01*
X116511035Y-123203471D01*
X116484097Y-123284284D01*
X116484097Y-123392033D01*
X116537972Y-123499783D01*
X116591847Y-123553658D01*
X116699597Y-123607532D01*
X116753471Y-123607532D01*
X116942033Y-123418971D01*
X116834284Y-123311221D01*
X116942033Y-123903844D02*
X117507719Y-123338158D01*
X117723218Y-123553658D01*
X117750155Y-123634470D01*
X117750155Y-123688345D01*
X117723218Y-123769157D01*
X117642406Y-123849969D01*
X117561593Y-123876906D01*
X117507719Y-123876906D01*
X117426906Y-123849969D01*
X117211407Y-123634470D01*
X117992592Y-123930781D02*
X118046467Y-123930781D01*
X118127279Y-123957719D01*
X118261966Y-124092406D01*
X118288903Y-124173218D01*
X118288903Y-124227093D01*
X118261966Y-124307905D01*
X118208091Y-124361780D01*
X118100341Y-124415654D01*
X117453844Y-124415654D01*
X117804030Y-124765841D01*
X118719902Y-124550341D02*
X118773776Y-124604216D01*
X118800714Y-124685028D01*
X118800714Y-124738903D01*
X118773776Y-124819715D01*
X118692964Y-124954402D01*
X118558277Y-125089089D01*
X118423590Y-125169902D01*
X118342778Y-125196839D01*
X118288903Y-125196839D01*
X118208091Y-125169902D01*
X118154216Y-125116027D01*
X118127279Y-125035215D01*
X118127279Y-124981340D01*
X118154216Y-124900528D01*
X118235028Y-124765841D01*
X118369715Y-124631154D01*
X118504402Y-124550341D01*
X118585215Y-124523404D01*
X118639089Y-124523404D01*
X118719902Y-124550341D01*
X114671407Y-123095722D02*
X114644470Y-123014910D01*
X114563658Y-122934097D01*
X114455908Y-122880223D01*
X114348158Y-122880223D01*
X114267346Y-122907160D01*
X114132659Y-122987972D01*
X114051847Y-123068784D01*
X113971035Y-123203471D01*
X113944097Y-123284284D01*
X113944097Y-123392033D01*
X113997972Y-123499783D01*
X114051847Y-123553658D01*
X114159597Y-123607532D01*
X114213471Y-123607532D01*
X114402033Y-123418971D01*
X114294284Y-123311221D01*
X114402033Y-123903844D02*
X114967719Y-123338158D01*
X115183218Y-123553658D01*
X115210155Y-123634470D01*
X115210155Y-123688345D01*
X115183218Y-123769157D01*
X115102406Y-123849969D01*
X115021593Y-123876906D01*
X114967719Y-123876906D01*
X114886906Y-123849969D01*
X114671407Y-123634470D01*
X115264030Y-124765841D02*
X114940781Y-124442592D01*
X115102406Y-124604216D02*
X115668091Y-124038531D01*
X115533404Y-124065468D01*
X115425654Y-124065468D01*
X115344842Y-124038531D01*
X115533404Y-125035215D02*
X115641154Y-125142964D01*
X115721966Y-125169902D01*
X115775841Y-125169902D01*
X115910528Y-125142964D01*
X116045215Y-125062152D01*
X116260714Y-124846653D01*
X116287651Y-124765841D01*
X116287651Y-124711966D01*
X116260714Y-124631154D01*
X116152964Y-124523404D01*
X116072152Y-124496467D01*
X116018277Y-124496467D01*
X115937465Y-124523404D01*
X115802778Y-124658091D01*
X115775841Y-124738903D01*
X115775841Y-124792778D01*
X115802778Y-124873590D01*
X115910528Y-124981340D01*
X115991340Y-125008277D01*
X116045215Y-125008277D01*
X116126027Y-124981340D01*
X112131407Y-123095722D02*
X112104470Y-123014910D01*
X112023658Y-122934097D01*
X111915908Y-122880223D01*
X111808158Y-122880223D01*
X111727346Y-122907160D01*
X111592659Y-122987972D01*
X111511847Y-123068784D01*
X111431035Y-123203471D01*
X111404097Y-123284284D01*
X111404097Y-123392033D01*
X111457972Y-123499783D01*
X111511847Y-123553658D01*
X111619597Y-123607532D01*
X111673471Y-123607532D01*
X111862033Y-123418971D01*
X111754284Y-123311221D01*
X111862033Y-123903844D02*
X112427719Y-123338158D01*
X112643218Y-123553658D01*
X112670155Y-123634470D01*
X112670155Y-123688345D01*
X112643218Y-123769157D01*
X112562406Y-123849969D01*
X112481593Y-123876906D01*
X112427719Y-123876906D01*
X112346906Y-123849969D01*
X112131407Y-123634470D01*
X112724030Y-124765841D02*
X112400781Y-124442592D01*
X112562406Y-124604216D02*
X113128091Y-124038531D01*
X112993404Y-124065468D01*
X112885654Y-124065468D01*
X112804842Y-124038531D01*
X113370528Y-124765841D02*
X113343590Y-124685028D01*
X113343590Y-124631154D01*
X113370528Y-124550341D01*
X113397465Y-124523404D01*
X113478277Y-124496467D01*
X113532152Y-124496467D01*
X113612964Y-124523404D01*
X113720714Y-124631154D01*
X113747651Y-124711966D01*
X113747651Y-124765841D01*
X113720714Y-124846653D01*
X113693776Y-124873590D01*
X113612964Y-124900528D01*
X113559089Y-124900528D01*
X113478277Y-124873590D01*
X113370528Y-124765841D01*
X113289715Y-124738903D01*
X113235841Y-124738903D01*
X113155028Y-124765841D01*
X113047279Y-124873590D01*
X113020341Y-124954402D01*
X113020341Y-125008277D01*
X113047279Y-125089089D01*
X113155028Y-125196839D01*
X113235841Y-125223776D01*
X113289715Y-125223776D01*
X113370528Y-125196839D01*
X113478277Y-125089089D01*
X113505215Y-125008277D01*
X113505215Y-124954402D01*
X113478277Y-124873590D01*
X107051407Y-123095722D02*
X107024470Y-123014910D01*
X106943658Y-122934097D01*
X106835908Y-122880223D01*
X106728158Y-122880223D01*
X106647346Y-122907160D01*
X106512659Y-122987972D01*
X106431847Y-123068784D01*
X106351035Y-123203471D01*
X106324097Y-123284284D01*
X106324097Y-123392033D01*
X106377972Y-123499783D01*
X106431847Y-123553658D01*
X106539597Y-123607532D01*
X106593471Y-123607532D01*
X106782033Y-123418971D01*
X106674284Y-123311221D01*
X106782033Y-123903844D02*
X107347719Y-123338158D01*
X107563218Y-123553658D01*
X107590155Y-123634470D01*
X107590155Y-123688345D01*
X107563218Y-123769157D01*
X107482406Y-123849969D01*
X107401593Y-123876906D01*
X107347719Y-123876906D01*
X107266906Y-123849969D01*
X107051407Y-123634470D01*
X107644030Y-124765841D02*
X107320781Y-124442592D01*
X107482406Y-124604216D02*
X108048091Y-124038531D01*
X107913404Y-124065468D01*
X107805654Y-124065468D01*
X107724842Y-124038531D01*
X108398277Y-124388717D02*
X108775401Y-124765841D01*
X107967279Y-125089089D01*
X104511407Y-123095722D02*
X104484470Y-123014910D01*
X104403658Y-122934097D01*
X104295908Y-122880223D01*
X104188158Y-122880223D01*
X104107346Y-122907160D01*
X103972659Y-122987972D01*
X103891847Y-123068784D01*
X103811035Y-123203471D01*
X103784097Y-123284284D01*
X103784097Y-123392033D01*
X103837972Y-123499783D01*
X103891847Y-123553658D01*
X103999597Y-123607532D01*
X104053471Y-123607532D01*
X104242033Y-123418971D01*
X104134284Y-123311221D01*
X104242033Y-123903844D02*
X104807719Y-123338158D01*
X105023218Y-123553658D01*
X105050155Y-123634470D01*
X105050155Y-123688345D01*
X105023218Y-123769157D01*
X104942406Y-123849969D01*
X104861593Y-123876906D01*
X104807719Y-123876906D01*
X104726906Y-123849969D01*
X104511407Y-123634470D01*
X105104030Y-124765841D02*
X104780781Y-124442592D01*
X104942406Y-124604216D02*
X105508091Y-124038531D01*
X105373404Y-124065468D01*
X105265654Y-124065468D01*
X105184842Y-124038531D01*
X106154589Y-124685028D02*
X106046839Y-124577279D01*
X105966027Y-124550341D01*
X105912152Y-124550341D01*
X105777465Y-124577279D01*
X105642778Y-124658091D01*
X105427279Y-124873590D01*
X105400341Y-124954402D01*
X105400341Y-125008277D01*
X105427279Y-125089089D01*
X105535028Y-125196839D01*
X105615841Y-125223776D01*
X105669715Y-125223776D01*
X105750528Y-125196839D01*
X105885215Y-125062152D01*
X105912152Y-124981340D01*
X105912152Y-124927465D01*
X105885215Y-124846653D01*
X105777465Y-124738903D01*
X105696653Y-124711966D01*
X105642778Y-124711966D01*
X105561966Y-124738903D01*
X104511407Y-96987722D02*
X104484470Y-96906910D01*
X104403658Y-96826097D01*
X104295908Y-96772223D01*
X104188158Y-96772223D01*
X104107346Y-96799160D01*
X103972659Y-96879972D01*
X103891847Y-96960784D01*
X103811035Y-97095471D01*
X103784097Y-97176284D01*
X103784097Y-97284033D01*
X103837972Y-97391783D01*
X103891847Y-97445658D01*
X103999597Y-97499532D01*
X104053471Y-97499532D01*
X104242033Y-97310971D01*
X104134284Y-97203221D01*
X104242033Y-97795844D02*
X104807719Y-97230158D01*
X105023218Y-97445658D01*
X105050155Y-97526470D01*
X105050155Y-97580345D01*
X105023218Y-97661157D01*
X104942406Y-97741969D01*
X104861593Y-97768906D01*
X104807719Y-97768906D01*
X104726906Y-97741969D01*
X104511407Y-97526470D01*
X105104030Y-98657841D02*
X104780781Y-98334592D01*
X104942406Y-98496216D02*
X105508091Y-97930531D01*
X105373404Y-97957468D01*
X105265654Y-97957468D01*
X105184842Y-97930531D01*
X106181526Y-98603966D02*
X105912152Y-98334592D01*
X105615841Y-98577028D01*
X105669715Y-98577028D01*
X105750528Y-98603966D01*
X105885215Y-98738653D01*
X105912152Y-98819465D01*
X105912152Y-98873340D01*
X105885215Y-98954152D01*
X105750528Y-99088839D01*
X105669715Y-99115776D01*
X105615841Y-99115776D01*
X105535028Y-99088839D01*
X105400341Y-98954152D01*
X105373404Y-98873340D01*
X105373404Y-98819465D01*
X107051407Y-96941722D02*
X107024470Y-96860910D01*
X106943658Y-96780097D01*
X106835908Y-96726223D01*
X106728158Y-96726223D01*
X106647346Y-96753160D01*
X106512659Y-96833972D01*
X106431847Y-96914784D01*
X106351035Y-97049471D01*
X106324097Y-97130284D01*
X106324097Y-97238033D01*
X106377972Y-97345783D01*
X106431847Y-97399658D01*
X106539597Y-97453532D01*
X106593471Y-97453532D01*
X106782033Y-97264971D01*
X106674284Y-97157221D01*
X106782033Y-97749844D02*
X107347719Y-97184158D01*
X107563218Y-97399658D01*
X107590155Y-97480470D01*
X107590155Y-97534345D01*
X107563218Y-97615157D01*
X107482406Y-97695969D01*
X107401593Y-97722906D01*
X107347719Y-97722906D01*
X107266906Y-97695969D01*
X107051407Y-97480470D01*
X107644030Y-98611841D02*
X107320781Y-98288592D01*
X107482406Y-98450216D02*
X108048091Y-97884531D01*
X107913404Y-97911468D01*
X107805654Y-97911468D01*
X107724842Y-97884531D01*
X108506027Y-98719590D02*
X108128903Y-99096714D01*
X108586839Y-98369404D02*
X108048091Y-98638778D01*
X108398277Y-98988964D01*
X112131407Y-96987722D02*
X112104470Y-96906910D01*
X112023658Y-96826097D01*
X111915908Y-96772223D01*
X111808158Y-96772223D01*
X111727346Y-96799160D01*
X111592659Y-96879972D01*
X111511847Y-96960784D01*
X111431035Y-97095471D01*
X111404097Y-97176284D01*
X111404097Y-97284033D01*
X111457972Y-97391783D01*
X111511847Y-97445658D01*
X111619597Y-97499532D01*
X111673471Y-97499532D01*
X111862033Y-97310971D01*
X111754284Y-97203221D01*
X111862033Y-97795844D02*
X112427719Y-97230158D01*
X112643218Y-97445658D01*
X112670155Y-97526470D01*
X112670155Y-97580345D01*
X112643218Y-97661157D01*
X112562406Y-97741969D01*
X112481593Y-97768906D01*
X112427719Y-97768906D01*
X112346906Y-97741969D01*
X112131407Y-97526470D01*
X112724030Y-98657841D02*
X112400781Y-98334592D01*
X112562406Y-98496216D02*
X113128091Y-97930531D01*
X112993404Y-97957468D01*
X112885654Y-97957468D01*
X112804842Y-97930531D01*
X113478277Y-98280717D02*
X113828463Y-98630903D01*
X113424402Y-98657841D01*
X113505215Y-98738653D01*
X113532152Y-98819465D01*
X113532152Y-98873340D01*
X113505215Y-98954152D01*
X113370528Y-99088839D01*
X113289715Y-99115776D01*
X113235841Y-99115776D01*
X113155028Y-99088839D01*
X112993404Y-98927215D01*
X112966467Y-98846402D01*
X112966467Y-98792528D01*
X114671407Y-96841722D02*
X114644470Y-96760910D01*
X114563658Y-96680097D01*
X114455908Y-96626223D01*
X114348158Y-96626223D01*
X114267346Y-96653160D01*
X114132659Y-96733972D01*
X114051847Y-96814784D01*
X113971035Y-96949471D01*
X113944097Y-97030284D01*
X113944097Y-97138033D01*
X113997972Y-97245783D01*
X114051847Y-97299658D01*
X114159597Y-97353532D01*
X114213471Y-97353532D01*
X114402033Y-97164971D01*
X114294284Y-97057221D01*
X114402033Y-97649844D02*
X114967719Y-97084158D01*
X115183218Y-97299658D01*
X115210155Y-97380470D01*
X115210155Y-97434345D01*
X115183218Y-97515157D01*
X115102406Y-97595969D01*
X115021593Y-97622906D01*
X114967719Y-97622906D01*
X114886906Y-97595969D01*
X114671407Y-97380470D01*
X115264030Y-98511841D02*
X114940781Y-98188592D01*
X115102406Y-98350216D02*
X115668091Y-97784531D01*
X115533404Y-97811468D01*
X115425654Y-97811468D01*
X115344842Y-97784531D01*
X115991340Y-98215529D02*
X116045215Y-98215529D01*
X116126027Y-98242467D01*
X116260714Y-98377154D01*
X116287651Y-98457966D01*
X116287651Y-98511841D01*
X116260714Y-98592653D01*
X116206839Y-98646528D01*
X116099089Y-98700402D01*
X115452592Y-98700402D01*
X115802778Y-99050589D01*
X117211407Y-96841722D02*
X117184470Y-96760910D01*
X117103658Y-96680097D01*
X116995908Y-96626223D01*
X116888158Y-96626223D01*
X116807346Y-96653160D01*
X116672659Y-96733972D01*
X116591847Y-96814784D01*
X116511035Y-96949471D01*
X116484097Y-97030284D01*
X116484097Y-97138033D01*
X116537972Y-97245783D01*
X116591847Y-97299658D01*
X116699597Y-97353532D01*
X116753471Y-97353532D01*
X116942033Y-97164971D01*
X116834284Y-97057221D01*
X116942033Y-97649844D02*
X117507719Y-97084158D01*
X117723218Y-97299658D01*
X117750155Y-97380470D01*
X117750155Y-97434345D01*
X117723218Y-97515157D01*
X117642406Y-97595969D01*
X117561593Y-97622906D01*
X117507719Y-97622906D01*
X117426906Y-97595969D01*
X117211407Y-97380470D01*
X117804030Y-98511841D02*
X117480781Y-98188592D01*
X117642406Y-98350216D02*
X118208091Y-97784531D01*
X118073404Y-97811468D01*
X117965654Y-97811468D01*
X117884842Y-97784531D01*
X118342778Y-99050589D02*
X118019529Y-98727340D01*
X118181154Y-98888964D02*
X118746839Y-98323279D01*
X118612152Y-98350216D01*
X118504402Y-98350216D01*
X118423590Y-98323279D01*
X119751407Y-96987722D02*
X119724470Y-96906910D01*
X119643658Y-96826097D01*
X119535908Y-96772223D01*
X119428158Y-96772223D01*
X119347346Y-96799160D01*
X119212659Y-96879972D01*
X119131847Y-96960784D01*
X119051035Y-97095471D01*
X119024097Y-97176284D01*
X119024097Y-97284033D01*
X119077972Y-97391783D01*
X119131847Y-97445658D01*
X119239597Y-97499532D01*
X119293471Y-97499532D01*
X119482033Y-97310971D01*
X119374284Y-97203221D01*
X119482033Y-97795844D02*
X120047719Y-97230158D01*
X120263218Y-97445658D01*
X120290155Y-97526470D01*
X120290155Y-97580345D01*
X120263218Y-97661157D01*
X120182406Y-97741969D01*
X120101593Y-97768906D01*
X120047719Y-97768906D01*
X119966906Y-97741969D01*
X119751407Y-97526470D01*
X120344030Y-98657841D02*
X120020781Y-98334592D01*
X120182406Y-98496216D02*
X120748091Y-97930531D01*
X120613404Y-97957468D01*
X120505654Y-97957468D01*
X120424842Y-97930531D01*
X121259902Y-98442341D02*
X121313776Y-98496216D01*
X121340714Y-98577028D01*
X121340714Y-98630903D01*
X121313776Y-98711715D01*
X121232964Y-98846402D01*
X121098277Y-98981089D01*
X120963590Y-99061902D01*
X120882778Y-99088839D01*
X120828903Y-99088839D01*
X120748091Y-99061902D01*
X120694216Y-99008027D01*
X120667279Y-98927215D01*
X120667279Y-98873340D01*
X120694216Y-98792528D01*
X120775028Y-98657841D01*
X120909715Y-98523154D01*
X121044402Y-98442341D01*
X121125215Y-98415404D01*
X121179089Y-98415404D01*
X121259902Y-98442341D01*
X125100781Y-97511096D02*
X125073844Y-97430284D01*
X124993032Y-97349471D01*
X124885282Y-97295597D01*
X124777532Y-97295597D01*
X124696720Y-97322534D01*
X124562033Y-97403346D01*
X124481221Y-97484158D01*
X124400409Y-97618845D01*
X124373471Y-97699658D01*
X124373471Y-97807407D01*
X124427346Y-97915157D01*
X124481221Y-97969032D01*
X124588971Y-98022906D01*
X124642845Y-98022906D01*
X124831407Y-97834345D01*
X124723658Y-97726595D01*
X124831407Y-98319218D02*
X125397093Y-97753532D01*
X125612592Y-97969032D01*
X125639529Y-98049844D01*
X125639529Y-98103719D01*
X125612592Y-98184531D01*
X125531780Y-98265343D01*
X125450967Y-98292280D01*
X125397093Y-98292280D01*
X125316280Y-98265343D01*
X125100781Y-98049844D01*
X125424030Y-98911841D02*
X125531780Y-99019590D01*
X125612592Y-99046528D01*
X125666467Y-99046528D01*
X125801154Y-99019590D01*
X125935841Y-98938778D01*
X126151340Y-98723279D01*
X126178277Y-98642467D01*
X126178277Y-98588592D01*
X126151340Y-98507780D01*
X126043590Y-98400030D01*
X125962778Y-98373093D01*
X125908903Y-98373093D01*
X125828091Y-98400030D01*
X125693404Y-98534717D01*
X125666467Y-98615529D01*
X125666467Y-98669404D01*
X125693404Y-98750216D01*
X125801154Y-98857966D01*
X125881966Y-98884903D01*
X125935841Y-98884903D01*
X126016653Y-98857966D01*
X127640781Y-97511096D02*
X127613844Y-97430284D01*
X127533032Y-97349471D01*
X127425282Y-97295597D01*
X127317532Y-97295597D01*
X127236720Y-97322534D01*
X127102033Y-97403346D01*
X127021221Y-97484158D01*
X126940409Y-97618845D01*
X126913471Y-97699658D01*
X126913471Y-97807407D01*
X126967346Y-97915157D01*
X127021221Y-97969032D01*
X127128971Y-98022906D01*
X127182845Y-98022906D01*
X127371407Y-97834345D01*
X127263658Y-97726595D01*
X127371407Y-98319218D02*
X127937093Y-97753532D01*
X128152592Y-97969032D01*
X128179529Y-98049844D01*
X128179529Y-98103719D01*
X128152592Y-98184531D01*
X128071780Y-98265343D01*
X127990967Y-98292280D01*
X127937093Y-98292280D01*
X127856280Y-98265343D01*
X127640781Y-98049844D01*
X128341154Y-98642467D02*
X128314216Y-98561654D01*
X128314216Y-98507780D01*
X128341154Y-98426967D01*
X128368091Y-98400030D01*
X128448903Y-98373093D01*
X128502778Y-98373093D01*
X128583590Y-98400030D01*
X128691340Y-98507780D01*
X128718277Y-98588592D01*
X128718277Y-98642467D01*
X128691340Y-98723279D01*
X128664402Y-98750216D01*
X128583590Y-98777154D01*
X128529715Y-98777154D01*
X128448903Y-98750216D01*
X128341154Y-98642467D01*
X128260341Y-98615529D01*
X128206467Y-98615529D01*
X128125654Y-98642467D01*
X128017905Y-98750216D01*
X127990967Y-98831028D01*
X127990967Y-98884903D01*
X128017905Y-98965715D01*
X128125654Y-99073465D01*
X128206467Y-99100402D01*
X128260341Y-99100402D01*
X128341154Y-99073465D01*
X128448903Y-98965715D01*
X128475841Y-98884903D01*
X128475841Y-98831028D01*
X128448903Y-98750216D01*
X130210781Y-97611096D02*
X130183844Y-97530284D01*
X130103032Y-97449471D01*
X129995282Y-97395597D01*
X129887532Y-97395597D01*
X129806720Y-97422534D01*
X129672033Y-97503346D01*
X129591221Y-97584158D01*
X129510409Y-97718845D01*
X129483471Y-97799658D01*
X129483471Y-97907407D01*
X129537346Y-98015157D01*
X129591221Y-98069032D01*
X129698971Y-98122906D01*
X129752845Y-98122906D01*
X129941407Y-97934345D01*
X129833658Y-97826595D01*
X129941407Y-98419218D02*
X130507093Y-97853532D01*
X130722592Y-98069032D01*
X130749529Y-98149844D01*
X130749529Y-98203719D01*
X130722592Y-98284531D01*
X130641780Y-98365343D01*
X130560967Y-98392280D01*
X130507093Y-98392280D01*
X130426280Y-98365343D01*
X130210781Y-98149844D01*
X131018903Y-98365343D02*
X131396027Y-98742467D01*
X130587905Y-99065715D01*
X132720781Y-97511096D02*
X132693844Y-97430284D01*
X132613032Y-97349471D01*
X132505282Y-97295597D01*
X132397532Y-97295597D01*
X132316720Y-97322534D01*
X132182033Y-97403346D01*
X132101221Y-97484158D01*
X132020409Y-97618845D01*
X131993471Y-97699658D01*
X131993471Y-97807407D01*
X132047346Y-97915157D01*
X132101221Y-97969032D01*
X132208971Y-98022906D01*
X132262845Y-98022906D01*
X132451407Y-97834345D01*
X132343658Y-97726595D01*
X132451407Y-98319218D02*
X133017093Y-97753532D01*
X133232592Y-97969032D01*
X133259529Y-98049844D01*
X133259529Y-98103719D01*
X133232592Y-98184531D01*
X133151780Y-98265343D01*
X133070967Y-98292280D01*
X133017093Y-98292280D01*
X132936280Y-98265343D01*
X132720781Y-98049844D01*
X133825215Y-98561654D02*
X133717465Y-98453905D01*
X133636653Y-98426967D01*
X133582778Y-98426967D01*
X133448091Y-98453905D01*
X133313404Y-98534717D01*
X133097905Y-98750216D01*
X133070967Y-98831028D01*
X133070967Y-98884903D01*
X133097905Y-98965715D01*
X133205654Y-99073465D01*
X133286467Y-99100402D01*
X133340341Y-99100402D01*
X133421154Y-99073465D01*
X133555841Y-98938778D01*
X133582778Y-98857966D01*
X133582778Y-98804091D01*
X133555841Y-98723279D01*
X133448091Y-98615529D01*
X133367279Y-98588592D01*
X133313404Y-98588592D01*
X133232592Y-98615529D01*
X137800781Y-97511096D02*
X137773844Y-97430284D01*
X137693032Y-97349471D01*
X137585282Y-97295597D01*
X137477532Y-97295597D01*
X137396720Y-97322534D01*
X137262033Y-97403346D01*
X137181221Y-97484158D01*
X137100409Y-97618845D01*
X137073471Y-97699658D01*
X137073471Y-97807407D01*
X137127346Y-97915157D01*
X137181221Y-97969032D01*
X137288971Y-98022906D01*
X137342845Y-98022906D01*
X137531407Y-97834345D01*
X137423658Y-97726595D01*
X137531407Y-98319218D02*
X138097093Y-97753532D01*
X138312592Y-97969032D01*
X138339529Y-98049844D01*
X138339529Y-98103719D01*
X138312592Y-98184531D01*
X138231780Y-98265343D01*
X138150967Y-98292280D01*
X138097093Y-98292280D01*
X138016280Y-98265343D01*
X137800781Y-98049844D01*
X138932152Y-98588592D02*
X138662778Y-98319218D01*
X138366467Y-98561654D01*
X138420341Y-98561654D01*
X138501154Y-98588592D01*
X138635841Y-98723279D01*
X138662778Y-98804091D01*
X138662778Y-98857966D01*
X138635841Y-98938778D01*
X138501154Y-99073465D01*
X138420341Y-99100402D01*
X138366467Y-99100402D01*
X138285654Y-99073465D01*
X138150967Y-98938778D01*
X138124030Y-98857966D01*
X138124030Y-98804091D01*
X140340781Y-97511096D02*
X140313844Y-97430284D01*
X140233032Y-97349471D01*
X140125282Y-97295597D01*
X140017532Y-97295597D01*
X139936720Y-97322534D01*
X139802033Y-97403346D01*
X139721221Y-97484158D01*
X139640409Y-97618845D01*
X139613471Y-97699658D01*
X139613471Y-97807407D01*
X139667346Y-97915157D01*
X139721221Y-97969032D01*
X139828971Y-98022906D01*
X139882845Y-98022906D01*
X140071407Y-97834345D01*
X139963658Y-97726595D01*
X140071407Y-98319218D02*
X140637093Y-97753532D01*
X140852592Y-97969032D01*
X140879529Y-98049844D01*
X140879529Y-98103719D01*
X140852592Y-98184531D01*
X140771780Y-98265343D01*
X140690967Y-98292280D01*
X140637093Y-98292280D01*
X140556280Y-98265343D01*
X140340781Y-98049844D01*
X141256653Y-98750216D02*
X140879529Y-99127340D01*
X141337465Y-98400030D02*
X140798717Y-98669404D01*
X141148903Y-99019590D01*
X142880781Y-97511096D02*
X142853844Y-97430284D01*
X142773032Y-97349471D01*
X142665282Y-97295597D01*
X142557532Y-97295597D01*
X142476720Y-97322534D01*
X142342033Y-97403346D01*
X142261221Y-97484158D01*
X142180409Y-97618845D01*
X142153471Y-97699658D01*
X142153471Y-97807407D01*
X142207346Y-97915157D01*
X142261221Y-97969032D01*
X142368971Y-98022906D01*
X142422845Y-98022906D01*
X142611407Y-97834345D01*
X142503658Y-97726595D01*
X142611407Y-98319218D02*
X143177093Y-97753532D01*
X143392592Y-97969032D01*
X143419529Y-98049844D01*
X143419529Y-98103719D01*
X143392592Y-98184531D01*
X143311780Y-98265343D01*
X143230967Y-98292280D01*
X143177093Y-98292280D01*
X143096280Y-98265343D01*
X142880781Y-98049844D01*
X143688903Y-98265343D02*
X144039089Y-98615529D01*
X143635028Y-98642467D01*
X143715841Y-98723279D01*
X143742778Y-98804091D01*
X143742778Y-98857966D01*
X143715841Y-98938778D01*
X143581154Y-99073465D01*
X143500341Y-99100402D01*
X143446467Y-99100402D01*
X143365654Y-99073465D01*
X143204030Y-98911841D01*
X143177093Y-98831028D01*
X143177093Y-98777154D01*
X153040781Y-97511096D02*
X153013844Y-97430284D01*
X152933032Y-97349471D01*
X152825282Y-97295597D01*
X152717532Y-97295597D01*
X152636720Y-97322534D01*
X152502033Y-97403346D01*
X152421221Y-97484158D01*
X152340409Y-97618845D01*
X152313471Y-97699658D01*
X152313471Y-97807407D01*
X152367346Y-97915157D01*
X152421221Y-97969032D01*
X152528971Y-98022906D01*
X152582845Y-98022906D01*
X152771407Y-97834345D01*
X152663658Y-97726595D01*
X152771407Y-98319218D02*
X153337093Y-97753532D01*
X153552592Y-97969032D01*
X153579529Y-98049844D01*
X153579529Y-98103719D01*
X153552592Y-98184531D01*
X153471780Y-98265343D01*
X153390967Y-98292280D01*
X153337093Y-98292280D01*
X153256280Y-98265343D01*
X153040781Y-98049844D01*
X154010528Y-98426967D02*
X154064402Y-98480842D01*
X154091340Y-98561654D01*
X154091340Y-98615529D01*
X154064402Y-98696341D01*
X153983590Y-98831028D01*
X153848903Y-98965715D01*
X153714216Y-99046528D01*
X153633404Y-99073465D01*
X153579529Y-99073465D01*
X153498717Y-99046528D01*
X153444842Y-98992653D01*
X153417905Y-98911841D01*
X153417905Y-98857966D01*
X153444842Y-98777154D01*
X153525654Y-98642467D01*
X153660341Y-98507780D01*
X153795028Y-98426967D01*
X153875841Y-98400030D01*
X153929715Y-98400030D01*
X154010528Y-98426967D01*
X145420781Y-97411096D02*
X145393844Y-97330284D01*
X145313032Y-97249471D01*
X145205282Y-97195597D01*
X145097532Y-97195597D01*
X145016720Y-97222534D01*
X144882033Y-97303346D01*
X144801221Y-97384158D01*
X144720409Y-97518845D01*
X144693471Y-97599658D01*
X144693471Y-97707407D01*
X144747346Y-97815157D01*
X144801221Y-97869032D01*
X144908971Y-97922906D01*
X144962845Y-97922906D01*
X145151407Y-97734345D01*
X145043658Y-97626595D01*
X145151407Y-98219218D02*
X145717093Y-97653532D01*
X145932592Y-97869032D01*
X145959529Y-97949844D01*
X145959529Y-98003719D01*
X145932592Y-98084531D01*
X145851780Y-98165343D01*
X145770967Y-98192280D01*
X145717093Y-98192280D01*
X145636280Y-98165343D01*
X145420781Y-97949844D01*
X146201966Y-98246155D02*
X146255841Y-98246155D01*
X146336653Y-98273093D01*
X146471340Y-98407780D01*
X146498277Y-98488592D01*
X146498277Y-98542467D01*
X146471340Y-98623279D01*
X146417465Y-98677154D01*
X146309715Y-98731028D01*
X145663218Y-98731028D01*
X146013404Y-99081215D01*
X150510781Y-97411096D02*
X150483844Y-97330284D01*
X150403032Y-97249471D01*
X150295282Y-97195597D01*
X150187532Y-97195597D01*
X150106720Y-97222534D01*
X149972033Y-97303346D01*
X149891221Y-97384158D01*
X149810409Y-97518845D01*
X149783471Y-97599658D01*
X149783471Y-97707407D01*
X149837346Y-97815157D01*
X149891221Y-97869032D01*
X149998971Y-97922906D01*
X150052845Y-97922906D01*
X150241407Y-97734345D01*
X150133658Y-97626595D01*
X150241407Y-98219218D02*
X150807093Y-97653532D01*
X151022592Y-97869032D01*
X151049529Y-97949844D01*
X151049529Y-98003719D01*
X151022592Y-98084531D01*
X150941780Y-98165343D01*
X150860967Y-98192280D01*
X150807093Y-98192280D01*
X150726280Y-98165343D01*
X150510781Y-97949844D01*
X151103404Y-99081215D02*
X150780155Y-98757966D01*
X150941780Y-98919590D02*
X151507465Y-98353905D01*
X151372778Y-98380842D01*
X151265028Y-98380842D01*
X151184216Y-98353905D01*
%TO.C,U11*%
X143104962Y-65218343D02*
X143104962Y-66546045D01*
X143183062Y-66702245D01*
X143261162Y-66780345D01*
X143417362Y-66858445D01*
X143729763Y-66858445D01*
X143885963Y-66780345D01*
X143964063Y-66702245D01*
X144042163Y-66546045D01*
X144042163Y-65218343D01*
X145682265Y-66858445D02*
X144745064Y-66858445D01*
X145213665Y-66858445D02*
X145213665Y-65218343D01*
X145057464Y-65452644D01*
X144901264Y-65608844D01*
X144745064Y-65686944D01*
X147244267Y-66858445D02*
X146307066Y-66858445D01*
X146775667Y-66858445D02*
X146775667Y-65218343D01*
X146619466Y-65452644D01*
X146463266Y-65608844D01*
X146307066Y-65686944D01*
%TO.C,U10*%
X82632780Y-87079095D02*
X83442304Y-87079095D01*
X83537542Y-87031476D01*
X83585161Y-86983857D01*
X83632780Y-86888619D01*
X83632780Y-86698142D01*
X83585161Y-86602904D01*
X83537542Y-86555285D01*
X83442304Y-86507666D01*
X82632780Y-86507666D01*
X83632780Y-85507666D02*
X83632780Y-86079095D01*
X83632780Y-85793380D02*
X82632780Y-85793380D01*
X82775638Y-85888619D01*
X82870876Y-85983857D01*
X82918495Y-86079095D01*
X82632780Y-84888619D02*
X82632780Y-84793380D01*
X82680400Y-84698142D01*
X82728019Y-84650523D01*
X82823257Y-84602904D01*
X83013733Y-84555285D01*
X83251828Y-84555285D01*
X83442304Y-84602904D01*
X83537542Y-84650523D01*
X83585161Y-84698142D01*
X83632780Y-84793380D01*
X83632780Y-84888619D01*
X83585161Y-84983857D01*
X83537542Y-85031476D01*
X83442304Y-85079095D01*
X83251828Y-85126714D01*
X83013733Y-85126714D01*
X82823257Y-85079095D01*
X82728019Y-85031476D01*
X82680400Y-84983857D01*
X82632780Y-84888619D01*
%TO.C,U9*%
X92632780Y-86602904D02*
X93442304Y-86602904D01*
X93537542Y-86555285D01*
X93585161Y-86507666D01*
X93632780Y-86412428D01*
X93632780Y-86221952D01*
X93585161Y-86126714D01*
X93537542Y-86079095D01*
X93442304Y-86031476D01*
X92632780Y-86031476D01*
X93632780Y-85507666D02*
X93632780Y-85317190D01*
X93585161Y-85221952D01*
X93537542Y-85174333D01*
X93394685Y-85079095D01*
X93204209Y-85031476D01*
X92823257Y-85031476D01*
X92728019Y-85079095D01*
X92680400Y-85126714D01*
X92632780Y-85221952D01*
X92632780Y-85412428D01*
X92680400Y-85507666D01*
X92728019Y-85555285D01*
X92823257Y-85602904D01*
X93061352Y-85602904D01*
X93156590Y-85555285D01*
X93204209Y-85507666D01*
X93251828Y-85412428D01*
X93251828Y-85221952D01*
X93204209Y-85126714D01*
X93156590Y-85079095D01*
X93061352Y-85031476D01*
%TO.C,U8*%
X102632780Y-86602904D02*
X103442304Y-86602904D01*
X103537542Y-86555285D01*
X103585161Y-86507666D01*
X103632780Y-86412428D01*
X103632780Y-86221952D01*
X103585161Y-86126714D01*
X103537542Y-86079095D01*
X103442304Y-86031476D01*
X102632780Y-86031476D01*
X103061352Y-85412428D02*
X103013733Y-85507666D01*
X102966114Y-85555285D01*
X102870876Y-85602904D01*
X102823257Y-85602904D01*
X102728019Y-85555285D01*
X102680400Y-85507666D01*
X102632780Y-85412428D01*
X102632780Y-85221952D01*
X102680400Y-85126714D01*
X102728019Y-85079095D01*
X102823257Y-85031476D01*
X102870876Y-85031476D01*
X102966114Y-85079095D01*
X103013733Y-85126714D01*
X103061352Y-85221952D01*
X103061352Y-85412428D01*
X103108971Y-85507666D01*
X103156590Y-85555285D01*
X103251828Y-85602904D01*
X103442304Y-85602904D01*
X103537542Y-85555285D01*
X103585161Y-85507666D01*
X103632780Y-85412428D01*
X103632780Y-85221952D01*
X103585161Y-85126714D01*
X103537542Y-85079095D01*
X103442304Y-85031476D01*
X103251828Y-85031476D01*
X103156590Y-85079095D01*
X103108971Y-85126714D01*
X103061352Y-85221952D01*
%TO.C,U7*%
X85962780Y-116574904D02*
X86772304Y-116574904D01*
X86867542Y-116527285D01*
X86915161Y-116479666D01*
X86962780Y-116384428D01*
X86962780Y-116193952D01*
X86915161Y-116098714D01*
X86867542Y-116051095D01*
X86772304Y-116003476D01*
X85962780Y-116003476D01*
X85962780Y-115622523D02*
X85962780Y-114955857D01*
X86962780Y-115384428D01*
%TO.C,U6*%
X119380095Y-94194380D02*
X119380095Y-95003904D01*
X119427714Y-95099142D01*
X119475333Y-95146761D01*
X119570571Y-95194380D01*
X119761047Y-95194380D01*
X119856285Y-95146761D01*
X119903904Y-95099142D01*
X119951523Y-95003904D01*
X119951523Y-94194380D01*
X120856285Y-94194380D02*
X120665809Y-94194380D01*
X120570571Y-94242000D01*
X120522952Y-94289619D01*
X120427714Y-94432476D01*
X120380095Y-94622952D01*
X120380095Y-95003904D01*
X120427714Y-95099142D01*
X120475333Y-95146761D01*
X120570571Y-95194380D01*
X120761047Y-95194380D01*
X120856285Y-95146761D01*
X120903904Y-95099142D01*
X120951523Y-95003904D01*
X120951523Y-94765809D01*
X120903904Y-94670571D01*
X120856285Y-94622952D01*
X120761047Y-94575333D01*
X120570571Y-94575333D01*
X120475333Y-94622952D01*
X120427714Y-94670571D01*
X120380095Y-94765809D01*
X116697238Y-74874380D02*
X116697238Y-73874380D01*
X117173428Y-74874380D02*
X117173428Y-73874380D01*
X117744857Y-74874380D01*
X117744857Y-73874380D01*
X118078190Y-73874380D02*
X118649619Y-73874380D01*
X118363904Y-74874380D02*
X118363904Y-73874380D01*
X116363904Y-77128666D02*
X116840095Y-77128666D01*
X116268666Y-77414380D02*
X116602000Y-76414380D01*
X116935333Y-77414380D01*
X117268666Y-77414380D02*
X117268666Y-76414380D01*
X117506761Y-76414380D01*
X117649619Y-76462000D01*
X117744857Y-76557238D01*
X117792476Y-76652476D01*
X117840095Y-76842952D01*
X117840095Y-76985809D01*
X117792476Y-77176285D01*
X117744857Y-77271523D01*
X117649619Y-77366761D01*
X117506761Y-77414380D01*
X117268666Y-77414380D01*
X118268666Y-77414380D02*
X118268666Y-76414380D01*
X118506761Y-76414380D01*
X118649619Y-76462000D01*
X118744857Y-76557238D01*
X118792476Y-76652476D01*
X118840095Y-76842952D01*
X118840095Y-76985809D01*
X118792476Y-77176285D01*
X118744857Y-77271523D01*
X118649619Y-77366761D01*
X118506761Y-77414380D01*
X118268666Y-77414380D01*
X116363904Y-78954380D02*
X117030571Y-79954380D01*
X117030571Y-78954380D02*
X116363904Y-79954380D01*
X117982952Y-79859142D02*
X117935333Y-79906761D01*
X117792476Y-79954380D01*
X117697238Y-79954380D01*
X117554380Y-79906761D01*
X117459142Y-79811523D01*
X117411523Y-79716285D01*
X117363904Y-79525809D01*
X117363904Y-79382952D01*
X117411523Y-79192476D01*
X117459142Y-79097238D01*
X117554380Y-79002000D01*
X117697238Y-78954380D01*
X117792476Y-78954380D01*
X117935333Y-79002000D01*
X117982952Y-79049619D01*
X118887714Y-79954380D02*
X118411523Y-79954380D01*
X118411523Y-78954380D01*
X116340095Y-81494380D02*
X117006761Y-82494380D01*
X117006761Y-81494380D02*
X116340095Y-82494380D01*
X117387714Y-82494380D02*
X117387714Y-81494380D01*
X117625809Y-81494380D01*
X117768666Y-81542000D01*
X117863904Y-81637238D01*
X117911523Y-81732476D01*
X117959142Y-81922952D01*
X117959142Y-82065809D01*
X117911523Y-82256285D01*
X117863904Y-82351523D01*
X117768666Y-82446761D01*
X117625809Y-82494380D01*
X117387714Y-82494380D01*
X118340095Y-82208666D02*
X118816285Y-82208666D01*
X118244857Y-82494380D02*
X118578190Y-81494380D01*
X118911523Y-82494380D01*
X116387714Y-84986761D02*
X116530571Y-85034380D01*
X116768666Y-85034380D01*
X116863904Y-84986761D01*
X116911523Y-84939142D01*
X116959142Y-84843904D01*
X116959142Y-84748666D01*
X116911523Y-84653428D01*
X116863904Y-84605809D01*
X116768666Y-84558190D01*
X116578190Y-84510571D01*
X116482952Y-84462952D01*
X116435333Y-84415333D01*
X116387714Y-84320095D01*
X116387714Y-84224857D01*
X116435333Y-84129619D01*
X116482952Y-84082000D01*
X116578190Y-84034380D01*
X116816285Y-84034380D01*
X116959142Y-84082000D01*
X117387714Y-85034380D02*
X117387714Y-84034380D01*
X117625809Y-84034380D01*
X117768666Y-84082000D01*
X117863904Y-84177238D01*
X117911523Y-84272476D01*
X117959142Y-84462952D01*
X117959142Y-84605809D01*
X117911523Y-84796285D01*
X117863904Y-84891523D01*
X117768666Y-84986761D01*
X117625809Y-85034380D01*
X117387714Y-85034380D01*
X118340095Y-84748666D02*
X118816285Y-84748666D01*
X118244857Y-85034380D02*
X118578190Y-84034380D01*
X118911523Y-85034380D01*
X116411523Y-87526761D02*
X116554380Y-87574380D01*
X116792476Y-87574380D01*
X116887714Y-87526761D01*
X116935333Y-87479142D01*
X116982952Y-87383904D01*
X116982952Y-87288666D01*
X116935333Y-87193428D01*
X116887714Y-87145809D01*
X116792476Y-87098190D01*
X116602000Y-87050571D01*
X116506761Y-87002952D01*
X116459142Y-86955333D01*
X116411523Y-86860095D01*
X116411523Y-86764857D01*
X116459142Y-86669619D01*
X116506761Y-86622000D01*
X116602000Y-86574380D01*
X116840095Y-86574380D01*
X116982952Y-86622000D01*
X117982952Y-87479142D02*
X117935333Y-87526761D01*
X117792476Y-87574380D01*
X117697238Y-87574380D01*
X117554380Y-87526761D01*
X117459142Y-87431523D01*
X117411523Y-87336285D01*
X117363904Y-87145809D01*
X117363904Y-87002952D01*
X117411523Y-86812476D01*
X117459142Y-86717238D01*
X117554380Y-86622000D01*
X117697238Y-86574380D01*
X117792476Y-86574380D01*
X117935333Y-86622000D01*
X117982952Y-86669619D01*
X118887714Y-87574380D02*
X118411523Y-87574380D01*
X118411523Y-86574380D01*
X116840095Y-89162000D02*
X116744857Y-89114380D01*
X116602000Y-89114380D01*
X116459142Y-89162000D01*
X116363904Y-89257238D01*
X116316285Y-89352476D01*
X116268666Y-89542952D01*
X116268666Y-89685809D01*
X116316285Y-89876285D01*
X116363904Y-89971523D01*
X116459142Y-90066761D01*
X116602000Y-90114380D01*
X116697238Y-90114380D01*
X116840095Y-90066761D01*
X116887714Y-90019142D01*
X116887714Y-89685809D01*
X116697238Y-89685809D01*
X117316285Y-90114380D02*
X117316285Y-89114380D01*
X117887714Y-90114380D01*
X117887714Y-89114380D01*
X118363904Y-90114380D02*
X118363904Y-89114380D01*
X118602000Y-89114380D01*
X118744857Y-89162000D01*
X118840095Y-89257238D01*
X118887714Y-89352476D01*
X118935333Y-89542952D01*
X118935333Y-89685809D01*
X118887714Y-89876285D01*
X118840095Y-89971523D01*
X118744857Y-90066761D01*
X118602000Y-90114380D01*
X118363904Y-90114380D01*
X116268666Y-91654380D02*
X116602000Y-92654380D01*
X116935333Y-91654380D01*
X117840095Y-92559142D02*
X117792476Y-92606761D01*
X117649619Y-92654380D01*
X117554380Y-92654380D01*
X117411523Y-92606761D01*
X117316285Y-92511523D01*
X117268666Y-92416285D01*
X117221047Y-92225809D01*
X117221047Y-92082952D01*
X117268666Y-91892476D01*
X117316285Y-91797238D01*
X117411523Y-91702000D01*
X117554380Y-91654380D01*
X117649619Y-91654380D01*
X117792476Y-91702000D01*
X117840095Y-91749619D01*
X118840095Y-92559142D02*
X118792476Y-92606761D01*
X118649619Y-92654380D01*
X118554380Y-92654380D01*
X118411523Y-92606761D01*
X118316285Y-92511523D01*
X118268666Y-92416285D01*
X118221047Y-92225809D01*
X118221047Y-92082952D01*
X118268666Y-91892476D01*
X118316285Y-91797238D01*
X118411523Y-91702000D01*
X118554380Y-91654380D01*
X118649619Y-91654380D01*
X118792476Y-91702000D01*
X118840095Y-91749619D01*
%TO.C,U5*%
X95962780Y-116574904D02*
X96772304Y-116574904D01*
X96867542Y-116527285D01*
X96915161Y-116479666D01*
X96962780Y-116384428D01*
X96962780Y-116193952D01*
X96915161Y-116098714D01*
X96867542Y-116051095D01*
X96772304Y-116003476D01*
X95962780Y-116003476D01*
X95962780Y-115051095D02*
X95962780Y-115527285D01*
X96438971Y-115574904D01*
X96391352Y-115527285D01*
X96343733Y-115432047D01*
X96343733Y-115193952D01*
X96391352Y-115098714D01*
X96438971Y-115051095D01*
X96534209Y-115003476D01*
X96772304Y-115003476D01*
X96867542Y-115051095D01*
X96915161Y-115098714D01*
X96962780Y-115193952D01*
X96962780Y-115432047D01*
X96915161Y-115527285D01*
X96867542Y-115574904D01*
%TO.C,U4*%
X132632780Y-86602904D02*
X133442304Y-86602904D01*
X133537542Y-86555285D01*
X133585161Y-86507666D01*
X133632780Y-86412428D01*
X133632780Y-86221952D01*
X133585161Y-86126714D01*
X133537542Y-86079095D01*
X133442304Y-86031476D01*
X132632780Y-86031476D01*
X132966114Y-85126714D02*
X133632780Y-85126714D01*
X132585161Y-85364809D02*
X133299447Y-85602904D01*
X133299447Y-84983857D01*
%TO.C,U3*%
X142632780Y-86602904D02*
X143442304Y-86602904D01*
X143537542Y-86555285D01*
X143585161Y-86507666D01*
X143632780Y-86412428D01*
X143632780Y-86221952D01*
X143585161Y-86126714D01*
X143537542Y-86079095D01*
X143442304Y-86031476D01*
X142632780Y-86031476D01*
X142632780Y-85650523D02*
X142632780Y-85031476D01*
X143013733Y-85364809D01*
X143013733Y-85221952D01*
X143061352Y-85126714D01*
X143108971Y-85079095D01*
X143204209Y-85031476D01*
X143442304Y-85031476D01*
X143537542Y-85079095D01*
X143585161Y-85126714D01*
X143632780Y-85221952D01*
X143632780Y-85507666D01*
X143585161Y-85602904D01*
X143537542Y-85650523D01*
%TO.C,U2*%
X152632780Y-86602904D02*
X153442304Y-86602904D01*
X153537542Y-86555285D01*
X153585161Y-86507666D01*
X153632780Y-86412428D01*
X153632780Y-86221952D01*
X153585161Y-86126714D01*
X153537542Y-86079095D01*
X153442304Y-86031476D01*
X152632780Y-86031476D01*
X152728019Y-85602904D02*
X152680400Y-85555285D01*
X152632780Y-85460047D01*
X152632780Y-85221952D01*
X152680400Y-85126714D01*
X152728019Y-85079095D01*
X152823257Y-85031476D01*
X152918495Y-85031476D01*
X153061352Y-85079095D01*
X153632780Y-85650523D01*
X153632780Y-85031476D01*
%TO.C,R16*%
X84102380Y-94642857D02*
X83626190Y-94976190D01*
X84102380Y-95214285D02*
X83102380Y-95214285D01*
X83102380Y-94833333D01*
X83150000Y-94738095D01*
X83197619Y-94690476D01*
X83292857Y-94642857D01*
X83435714Y-94642857D01*
X83530952Y-94690476D01*
X83578571Y-94738095D01*
X83626190Y-94833333D01*
X83626190Y-95214285D01*
X84102380Y-93690476D02*
X84102380Y-94261904D01*
X84102380Y-93976190D02*
X83102380Y-93976190D01*
X83245238Y-94071428D01*
X83340476Y-94166666D01*
X83388095Y-94261904D01*
X83102380Y-92833333D02*
X83102380Y-93023809D01*
X83150000Y-93119047D01*
X83197619Y-93166666D01*
X83340476Y-93261904D01*
X83530952Y-93309523D01*
X83911904Y-93309523D01*
X84007142Y-93261904D01*
X84054761Y-93214285D01*
X84102380Y-93119047D01*
X84102380Y-92928571D01*
X84054761Y-92833333D01*
X84007142Y-92785714D01*
X83911904Y-92738095D01*
X83673809Y-92738095D01*
X83578571Y-92785714D01*
X83530952Y-92833333D01*
X83483333Y-92928571D01*
X83483333Y-93119047D01*
X83530952Y-93214285D01*
X83578571Y-93261904D01*
X83673809Y-93309523D01*
%TO.C,R15*%
X80102380Y-94642857D02*
X79626190Y-94976190D01*
X80102380Y-95214285D02*
X79102380Y-95214285D01*
X79102380Y-94833333D01*
X79150000Y-94738095D01*
X79197619Y-94690476D01*
X79292857Y-94642857D01*
X79435714Y-94642857D01*
X79530952Y-94690476D01*
X79578571Y-94738095D01*
X79626190Y-94833333D01*
X79626190Y-95214285D01*
X80102380Y-93690476D02*
X80102380Y-94261904D01*
X80102380Y-93976190D02*
X79102380Y-93976190D01*
X79245238Y-94071428D01*
X79340476Y-94166666D01*
X79388095Y-94261904D01*
X79102380Y-92785714D02*
X79102380Y-93261904D01*
X79578571Y-93309523D01*
X79530952Y-93261904D01*
X79483333Y-93166666D01*
X79483333Y-92928571D01*
X79530952Y-92833333D01*
X79578571Y-92785714D01*
X79673809Y-92738095D01*
X79911904Y-92738095D01*
X80007142Y-92785714D01*
X80054761Y-92833333D01*
X80102380Y-92928571D01*
X80102380Y-93166666D01*
X80054761Y-93261904D01*
X80007142Y-93309523D01*
%TO.C,R14*%
X94102380Y-94642857D02*
X93626190Y-94976190D01*
X94102380Y-95214285D02*
X93102380Y-95214285D01*
X93102380Y-94833333D01*
X93150000Y-94738095D01*
X93197619Y-94690476D01*
X93292857Y-94642857D01*
X93435714Y-94642857D01*
X93530952Y-94690476D01*
X93578571Y-94738095D01*
X93626190Y-94833333D01*
X93626190Y-95214285D01*
X94102380Y-93690476D02*
X94102380Y-94261904D01*
X94102380Y-93976190D02*
X93102380Y-93976190D01*
X93245238Y-94071428D01*
X93340476Y-94166666D01*
X93388095Y-94261904D01*
X93435714Y-92833333D02*
X94102380Y-92833333D01*
X93054761Y-93071428D02*
X93769047Y-93309523D01*
X93769047Y-92690476D01*
%TO.C,R13*%
X90102380Y-94642857D02*
X89626190Y-94976190D01*
X90102380Y-95214285D02*
X89102380Y-95214285D01*
X89102380Y-94833333D01*
X89150000Y-94738095D01*
X89197619Y-94690476D01*
X89292857Y-94642857D01*
X89435714Y-94642857D01*
X89530952Y-94690476D01*
X89578571Y-94738095D01*
X89626190Y-94833333D01*
X89626190Y-95214285D01*
X90102380Y-93690476D02*
X90102380Y-94261904D01*
X90102380Y-93976190D02*
X89102380Y-93976190D01*
X89245238Y-94071428D01*
X89340476Y-94166666D01*
X89388095Y-94261904D01*
X89102380Y-93357142D02*
X89102380Y-92738095D01*
X89483333Y-93071428D01*
X89483333Y-92928571D01*
X89530952Y-92833333D01*
X89578571Y-92785714D01*
X89673809Y-92738095D01*
X89911904Y-92738095D01*
X90007142Y-92785714D01*
X90054761Y-92833333D01*
X90102380Y-92928571D01*
X90102380Y-93214285D01*
X90054761Y-93309523D01*
X90007142Y-93357142D01*
%TO.C,R12*%
X104102380Y-94642857D02*
X103626190Y-94976190D01*
X104102380Y-95214285D02*
X103102380Y-95214285D01*
X103102380Y-94833333D01*
X103150000Y-94738095D01*
X103197619Y-94690476D01*
X103292857Y-94642857D01*
X103435714Y-94642857D01*
X103530952Y-94690476D01*
X103578571Y-94738095D01*
X103626190Y-94833333D01*
X103626190Y-95214285D01*
X104102380Y-93690476D02*
X104102380Y-94261904D01*
X104102380Y-93976190D02*
X103102380Y-93976190D01*
X103245238Y-94071428D01*
X103340476Y-94166666D01*
X103388095Y-94261904D01*
X103197619Y-93309523D02*
X103150000Y-93261904D01*
X103102380Y-93166666D01*
X103102380Y-92928571D01*
X103150000Y-92833333D01*
X103197619Y-92785714D01*
X103292857Y-92738095D01*
X103388095Y-92738095D01*
X103530952Y-92785714D01*
X104102380Y-93357142D01*
X104102380Y-92738095D01*
%TO.C,R11*%
X100102380Y-94642857D02*
X99626190Y-94976190D01*
X100102380Y-95214285D02*
X99102380Y-95214285D01*
X99102380Y-94833333D01*
X99150000Y-94738095D01*
X99197619Y-94690476D01*
X99292857Y-94642857D01*
X99435714Y-94642857D01*
X99530952Y-94690476D01*
X99578571Y-94738095D01*
X99626190Y-94833333D01*
X99626190Y-95214285D01*
X100102380Y-93690476D02*
X100102380Y-94261904D01*
X100102380Y-93976190D02*
X99102380Y-93976190D01*
X99245238Y-94071428D01*
X99340476Y-94166666D01*
X99388095Y-94261904D01*
X100102380Y-92738095D02*
X100102380Y-93309523D01*
X100102380Y-93023809D02*
X99102380Y-93023809D01*
X99245238Y-93119047D01*
X99340476Y-93214285D01*
X99388095Y-93309523D01*
%TO.C,R10*%
X87432380Y-124614857D02*
X86956190Y-124948190D01*
X87432380Y-125186285D02*
X86432380Y-125186285D01*
X86432380Y-124805333D01*
X86480000Y-124710095D01*
X86527619Y-124662476D01*
X86622857Y-124614857D01*
X86765714Y-124614857D01*
X86860952Y-124662476D01*
X86908571Y-124710095D01*
X86956190Y-124805333D01*
X86956190Y-125186285D01*
X87432380Y-123662476D02*
X87432380Y-124233904D01*
X87432380Y-123948190D02*
X86432380Y-123948190D01*
X86575238Y-124043428D01*
X86670476Y-124138666D01*
X86718095Y-124233904D01*
X86432380Y-123043428D02*
X86432380Y-122948190D01*
X86480000Y-122852952D01*
X86527619Y-122805333D01*
X86622857Y-122757714D01*
X86813333Y-122710095D01*
X87051428Y-122710095D01*
X87241904Y-122757714D01*
X87337142Y-122805333D01*
X87384761Y-122852952D01*
X87432380Y-122948190D01*
X87432380Y-123043428D01*
X87384761Y-123138666D01*
X87337142Y-123186285D01*
X87241904Y-123233904D01*
X87051428Y-123281523D01*
X86813333Y-123281523D01*
X86622857Y-123233904D01*
X86527619Y-123186285D01*
X86480000Y-123138666D01*
X86432380Y-123043428D01*
%TO.C,R9*%
X83432380Y-124138666D02*
X82956190Y-124472000D01*
X83432380Y-124710095D02*
X82432380Y-124710095D01*
X82432380Y-124329142D01*
X82480000Y-124233904D01*
X82527619Y-124186285D01*
X82622857Y-124138666D01*
X82765714Y-124138666D01*
X82860952Y-124186285D01*
X82908571Y-124233904D01*
X82956190Y-124329142D01*
X82956190Y-124710095D01*
X83432380Y-123662476D02*
X83432380Y-123472000D01*
X83384761Y-123376761D01*
X83337142Y-123329142D01*
X83194285Y-123233904D01*
X83003809Y-123186285D01*
X82622857Y-123186285D01*
X82527619Y-123233904D01*
X82480000Y-123281523D01*
X82432380Y-123376761D01*
X82432380Y-123567238D01*
X82480000Y-123662476D01*
X82527619Y-123710095D01*
X82622857Y-123757714D01*
X82860952Y-123757714D01*
X82956190Y-123710095D01*
X83003809Y-123662476D01*
X83051428Y-123567238D01*
X83051428Y-123376761D01*
X83003809Y-123281523D01*
X82956190Y-123233904D01*
X82860952Y-123186285D01*
%TO.C,R8*%
X97432380Y-124138666D02*
X96956190Y-124472000D01*
X97432380Y-124710095D02*
X96432380Y-124710095D01*
X96432380Y-124329142D01*
X96480000Y-124233904D01*
X96527619Y-124186285D01*
X96622857Y-124138666D01*
X96765714Y-124138666D01*
X96860952Y-124186285D01*
X96908571Y-124233904D01*
X96956190Y-124329142D01*
X96956190Y-124710095D01*
X96860952Y-123567238D02*
X96813333Y-123662476D01*
X96765714Y-123710095D01*
X96670476Y-123757714D01*
X96622857Y-123757714D01*
X96527619Y-123710095D01*
X96480000Y-123662476D01*
X96432380Y-123567238D01*
X96432380Y-123376761D01*
X96480000Y-123281523D01*
X96527619Y-123233904D01*
X96622857Y-123186285D01*
X96670476Y-123186285D01*
X96765714Y-123233904D01*
X96813333Y-123281523D01*
X96860952Y-123376761D01*
X96860952Y-123567238D01*
X96908571Y-123662476D01*
X96956190Y-123710095D01*
X97051428Y-123757714D01*
X97241904Y-123757714D01*
X97337142Y-123710095D01*
X97384761Y-123662476D01*
X97432380Y-123567238D01*
X97432380Y-123376761D01*
X97384761Y-123281523D01*
X97337142Y-123233904D01*
X97241904Y-123186285D01*
X97051428Y-123186285D01*
X96956190Y-123233904D01*
X96908571Y-123281523D01*
X96860952Y-123376761D01*
%TO.C,R7*%
X93432380Y-124138666D02*
X92956190Y-124472000D01*
X93432380Y-124710095D02*
X92432380Y-124710095D01*
X92432380Y-124329142D01*
X92480000Y-124233904D01*
X92527619Y-124186285D01*
X92622857Y-124138666D01*
X92765714Y-124138666D01*
X92860952Y-124186285D01*
X92908571Y-124233904D01*
X92956190Y-124329142D01*
X92956190Y-124710095D01*
X92432380Y-123805333D02*
X92432380Y-123138666D01*
X93432380Y-123567238D01*
%TO.C,R6*%
X134102380Y-94166666D02*
X133626190Y-94500000D01*
X134102380Y-94738095D02*
X133102380Y-94738095D01*
X133102380Y-94357142D01*
X133150000Y-94261904D01*
X133197619Y-94214285D01*
X133292857Y-94166666D01*
X133435714Y-94166666D01*
X133530952Y-94214285D01*
X133578571Y-94261904D01*
X133626190Y-94357142D01*
X133626190Y-94738095D01*
X133102380Y-93309523D02*
X133102380Y-93500000D01*
X133150000Y-93595238D01*
X133197619Y-93642857D01*
X133340476Y-93738095D01*
X133530952Y-93785714D01*
X133911904Y-93785714D01*
X134007142Y-93738095D01*
X134054761Y-93690476D01*
X134102380Y-93595238D01*
X134102380Y-93404761D01*
X134054761Y-93309523D01*
X134007142Y-93261904D01*
X133911904Y-93214285D01*
X133673809Y-93214285D01*
X133578571Y-93261904D01*
X133530952Y-93309523D01*
X133483333Y-93404761D01*
X133483333Y-93595238D01*
X133530952Y-93690476D01*
X133578571Y-93738095D01*
X133673809Y-93785714D01*
%TO.C,R5*%
X130102380Y-94166666D02*
X129626190Y-94500000D01*
X130102380Y-94738095D02*
X129102380Y-94738095D01*
X129102380Y-94357142D01*
X129150000Y-94261904D01*
X129197619Y-94214285D01*
X129292857Y-94166666D01*
X129435714Y-94166666D01*
X129530952Y-94214285D01*
X129578571Y-94261904D01*
X129626190Y-94357142D01*
X129626190Y-94738095D01*
X129102380Y-93261904D02*
X129102380Y-93738095D01*
X129578571Y-93785714D01*
X129530952Y-93738095D01*
X129483333Y-93642857D01*
X129483333Y-93404761D01*
X129530952Y-93309523D01*
X129578571Y-93261904D01*
X129673809Y-93214285D01*
X129911904Y-93214285D01*
X130007142Y-93261904D01*
X130054761Y-93309523D01*
X130102380Y-93404761D01*
X130102380Y-93642857D01*
X130054761Y-93738095D01*
X130007142Y-93785714D01*
%TO.C,R4*%
X144102380Y-94166666D02*
X143626190Y-94500000D01*
X144102380Y-94738095D02*
X143102380Y-94738095D01*
X143102380Y-94357142D01*
X143150000Y-94261904D01*
X143197619Y-94214285D01*
X143292857Y-94166666D01*
X143435714Y-94166666D01*
X143530952Y-94214285D01*
X143578571Y-94261904D01*
X143626190Y-94357142D01*
X143626190Y-94738095D01*
X143435714Y-93309523D02*
X144102380Y-93309523D01*
X143054761Y-93547619D02*
X143769047Y-93785714D01*
X143769047Y-93166666D01*
%TO.C,R3*%
X140102380Y-94166666D02*
X139626190Y-94500000D01*
X140102380Y-94738095D02*
X139102380Y-94738095D01*
X139102380Y-94357142D01*
X139150000Y-94261904D01*
X139197619Y-94214285D01*
X139292857Y-94166666D01*
X139435714Y-94166666D01*
X139530952Y-94214285D01*
X139578571Y-94261904D01*
X139626190Y-94357142D01*
X139626190Y-94738095D01*
X139102380Y-93833333D02*
X139102380Y-93214285D01*
X139483333Y-93547619D01*
X139483333Y-93404761D01*
X139530952Y-93309523D01*
X139578571Y-93261904D01*
X139673809Y-93214285D01*
X139911904Y-93214285D01*
X140007142Y-93261904D01*
X140054761Y-93309523D01*
X140102380Y-93404761D01*
X140102380Y-93690476D01*
X140054761Y-93785714D01*
X140007142Y-93833333D01*
%TO.C,R2*%
X154102380Y-94166666D02*
X153626190Y-94500000D01*
X154102380Y-94738095D02*
X153102380Y-94738095D01*
X153102380Y-94357142D01*
X153150000Y-94261904D01*
X153197619Y-94214285D01*
X153292857Y-94166666D01*
X153435714Y-94166666D01*
X153530952Y-94214285D01*
X153578571Y-94261904D01*
X153626190Y-94357142D01*
X153626190Y-94738095D01*
X153197619Y-93785714D02*
X153150000Y-93738095D01*
X153102380Y-93642857D01*
X153102380Y-93404761D01*
X153150000Y-93309523D01*
X153197619Y-93261904D01*
X153292857Y-93214285D01*
X153388095Y-93214285D01*
X153530952Y-93261904D01*
X154102380Y-93833333D01*
X154102380Y-93214285D01*
%TO.C,R1*%
X150102380Y-94166666D02*
X149626190Y-94500000D01*
X150102380Y-94738095D02*
X149102380Y-94738095D01*
X149102380Y-94357142D01*
X149150000Y-94261904D01*
X149197619Y-94214285D01*
X149292857Y-94166666D01*
X149435714Y-94166666D01*
X149530952Y-94214285D01*
X149578571Y-94261904D01*
X149626190Y-94357142D01*
X149626190Y-94738095D01*
X150102380Y-93214285D02*
X150102380Y-93785714D01*
X150102380Y-93500000D02*
X149102380Y-93500000D01*
X149245238Y-93595238D01*
X149340476Y-93690476D01*
X149388095Y-93785714D01*
%TO.C,J4*%
X80136119Y-41918759D02*
X80136119Y-42633360D01*
X80088479Y-42776280D01*
X79993199Y-42871560D01*
X79850279Y-42919200D01*
X79754999Y-42919200D01*
X81041280Y-42252239D02*
X81041280Y-42919200D01*
X80803080Y-41871119D02*
X80564880Y-42585720D01*
X81184200Y-42585720D01*
%TO.C,J3*%
X145604732Y-43366319D02*
X145604732Y-44082061D01*
X145557015Y-44225209D01*
X145461583Y-44320642D01*
X145318435Y-44368358D01*
X145223002Y-44368358D01*
X145986461Y-43366319D02*
X146606771Y-43366319D01*
X146272758Y-43748048D01*
X146415906Y-43748048D01*
X146511338Y-43795764D01*
X146559054Y-43843480D01*
X146606771Y-43938913D01*
X146606771Y-44177493D01*
X146559054Y-44272926D01*
X146511338Y-44320642D01*
X146415906Y-44368358D01*
X146129609Y-44368358D01*
X146034177Y-44320642D01*
X145986461Y-44272926D01*
%TO.C,J2*%
X129113266Y-43991580D02*
X129113266Y-44705866D01*
X129065647Y-44848723D01*
X128970409Y-44943961D01*
X128827552Y-44991580D01*
X128732314Y-44991580D01*
X129541838Y-44086819D02*
X129589457Y-44039200D01*
X129684695Y-43991580D01*
X129922790Y-43991580D01*
X130018028Y-44039200D01*
X130065647Y-44086819D01*
X130113266Y-44182057D01*
X130113266Y-44277295D01*
X130065647Y-44420152D01*
X129494219Y-44991580D01*
X130113266Y-44991580D01*
%TO.C,J1*%
X105745266Y-43864580D02*
X105745266Y-44578866D01*
X105697647Y-44721723D01*
X105602409Y-44816961D01*
X105459552Y-44864580D01*
X105364314Y-44864580D01*
X106745266Y-44864580D02*
X106173838Y-44864580D01*
X106459552Y-44864580D02*
X106459552Y-43864580D01*
X106364314Y-44007438D01*
X106269076Y-44102676D01*
X106173838Y-44150295D01*
%TO.C,D16*%
X78785714Y-75102380D02*
X78785714Y-74102380D01*
X79023809Y-74102380D01*
X79166666Y-74150000D01*
X79261904Y-74245238D01*
X79309523Y-74340476D01*
X79357142Y-74530952D01*
X79357142Y-74673809D01*
X79309523Y-74864285D01*
X79261904Y-74959523D01*
X79166666Y-75054761D01*
X79023809Y-75102380D01*
X78785714Y-75102380D01*
X80309523Y-75102380D02*
X79738095Y-75102380D01*
X80023809Y-75102380D02*
X80023809Y-74102380D01*
X79928571Y-74245238D01*
X79833333Y-74340476D01*
X79738095Y-74388095D01*
X81166666Y-74102380D02*
X80976190Y-74102380D01*
X80880952Y-74150000D01*
X80833333Y-74197619D01*
X80738095Y-74340476D01*
X80690476Y-74530952D01*
X80690476Y-74911904D01*
X80738095Y-75007142D01*
X80785714Y-75054761D01*
X80880952Y-75102380D01*
X81071428Y-75102380D01*
X81166666Y-75054761D01*
X81214285Y-75007142D01*
X81261904Y-74911904D01*
X81261904Y-74673809D01*
X81214285Y-74578571D01*
X81166666Y-74530952D01*
X81071428Y-74483333D01*
X80880952Y-74483333D01*
X80785714Y-74530952D01*
X80738095Y-74578571D01*
X80690476Y-74673809D01*
%TO.C,D15*%
X78785714Y-81102380D02*
X78785714Y-80102380D01*
X79023809Y-80102380D01*
X79166666Y-80150000D01*
X79261904Y-80245238D01*
X79309523Y-80340476D01*
X79357142Y-80530952D01*
X79357142Y-80673809D01*
X79309523Y-80864285D01*
X79261904Y-80959523D01*
X79166666Y-81054761D01*
X79023809Y-81102380D01*
X78785714Y-81102380D01*
X80309523Y-81102380D02*
X79738095Y-81102380D01*
X80023809Y-81102380D02*
X80023809Y-80102380D01*
X79928571Y-80245238D01*
X79833333Y-80340476D01*
X79738095Y-80388095D01*
X81214285Y-80102380D02*
X80738095Y-80102380D01*
X80690476Y-80578571D01*
X80738095Y-80530952D01*
X80833333Y-80483333D01*
X81071428Y-80483333D01*
X81166666Y-80530952D01*
X81214285Y-80578571D01*
X81261904Y-80673809D01*
X81261904Y-80911904D01*
X81214285Y-81007142D01*
X81166666Y-81054761D01*
X81071428Y-81102380D01*
X80833333Y-81102380D01*
X80738095Y-81054761D01*
X80690476Y-81007142D01*
%TO.C,D14*%
X88785714Y-75102380D02*
X88785714Y-74102380D01*
X89023809Y-74102380D01*
X89166666Y-74150000D01*
X89261904Y-74245238D01*
X89309523Y-74340476D01*
X89357142Y-74530952D01*
X89357142Y-74673809D01*
X89309523Y-74864285D01*
X89261904Y-74959523D01*
X89166666Y-75054761D01*
X89023809Y-75102380D01*
X88785714Y-75102380D01*
X90309523Y-75102380D02*
X89738095Y-75102380D01*
X90023809Y-75102380D02*
X90023809Y-74102380D01*
X89928571Y-74245238D01*
X89833333Y-74340476D01*
X89738095Y-74388095D01*
X91166666Y-74435714D02*
X91166666Y-75102380D01*
X90928571Y-74054761D02*
X90690476Y-74769047D01*
X91309523Y-74769047D01*
%TO.C,D13*%
X88785714Y-81102380D02*
X88785714Y-80102380D01*
X89023809Y-80102380D01*
X89166666Y-80150000D01*
X89261904Y-80245238D01*
X89309523Y-80340476D01*
X89357142Y-80530952D01*
X89357142Y-80673809D01*
X89309523Y-80864285D01*
X89261904Y-80959523D01*
X89166666Y-81054761D01*
X89023809Y-81102380D01*
X88785714Y-81102380D01*
X90309523Y-81102380D02*
X89738095Y-81102380D01*
X90023809Y-81102380D02*
X90023809Y-80102380D01*
X89928571Y-80245238D01*
X89833333Y-80340476D01*
X89738095Y-80388095D01*
X90642857Y-80102380D02*
X91261904Y-80102380D01*
X90928571Y-80483333D01*
X91071428Y-80483333D01*
X91166666Y-80530952D01*
X91214285Y-80578571D01*
X91261904Y-80673809D01*
X91261904Y-80911904D01*
X91214285Y-81007142D01*
X91166666Y-81054761D01*
X91071428Y-81102380D01*
X90785714Y-81102380D01*
X90690476Y-81054761D01*
X90642857Y-81007142D01*
%TO.C,D12*%
X98785714Y-75102380D02*
X98785714Y-74102380D01*
X99023809Y-74102380D01*
X99166666Y-74150000D01*
X99261904Y-74245238D01*
X99309523Y-74340476D01*
X99357142Y-74530952D01*
X99357142Y-74673809D01*
X99309523Y-74864285D01*
X99261904Y-74959523D01*
X99166666Y-75054761D01*
X99023809Y-75102380D01*
X98785714Y-75102380D01*
X100309523Y-75102380D02*
X99738095Y-75102380D01*
X100023809Y-75102380D02*
X100023809Y-74102380D01*
X99928571Y-74245238D01*
X99833333Y-74340476D01*
X99738095Y-74388095D01*
X100690476Y-74197619D02*
X100738095Y-74150000D01*
X100833333Y-74102380D01*
X101071428Y-74102380D01*
X101166666Y-74150000D01*
X101214285Y-74197619D01*
X101261904Y-74292857D01*
X101261904Y-74388095D01*
X101214285Y-74530952D01*
X100642857Y-75102380D01*
X101261904Y-75102380D01*
%TO.C,D11*%
X98785714Y-81102380D02*
X98785714Y-80102380D01*
X99023809Y-80102380D01*
X99166666Y-80150000D01*
X99261904Y-80245238D01*
X99309523Y-80340476D01*
X99357142Y-80530952D01*
X99357142Y-80673809D01*
X99309523Y-80864285D01*
X99261904Y-80959523D01*
X99166666Y-81054761D01*
X99023809Y-81102380D01*
X98785714Y-81102380D01*
X100309523Y-81102380D02*
X99738095Y-81102380D01*
X100023809Y-81102380D02*
X100023809Y-80102380D01*
X99928571Y-80245238D01*
X99833333Y-80340476D01*
X99738095Y-80388095D01*
X101261904Y-81102380D02*
X100690476Y-81102380D01*
X100976190Y-81102380D02*
X100976190Y-80102380D01*
X100880952Y-80245238D01*
X100785714Y-80340476D01*
X100690476Y-80388095D01*
%TO.C,D10*%
X82115714Y-105074380D02*
X82115714Y-104074380D01*
X82353809Y-104074380D01*
X82496666Y-104122000D01*
X82591904Y-104217238D01*
X82639523Y-104312476D01*
X82687142Y-104502952D01*
X82687142Y-104645809D01*
X82639523Y-104836285D01*
X82591904Y-104931523D01*
X82496666Y-105026761D01*
X82353809Y-105074380D01*
X82115714Y-105074380D01*
X83639523Y-105074380D02*
X83068095Y-105074380D01*
X83353809Y-105074380D02*
X83353809Y-104074380D01*
X83258571Y-104217238D01*
X83163333Y-104312476D01*
X83068095Y-104360095D01*
X84258571Y-104074380D02*
X84353809Y-104074380D01*
X84449047Y-104122000D01*
X84496666Y-104169619D01*
X84544285Y-104264857D01*
X84591904Y-104455333D01*
X84591904Y-104693428D01*
X84544285Y-104883904D01*
X84496666Y-104979142D01*
X84449047Y-105026761D01*
X84353809Y-105074380D01*
X84258571Y-105074380D01*
X84163333Y-105026761D01*
X84115714Y-104979142D01*
X84068095Y-104883904D01*
X84020476Y-104693428D01*
X84020476Y-104455333D01*
X84068095Y-104264857D01*
X84115714Y-104169619D01*
X84163333Y-104122000D01*
X84258571Y-104074380D01*
%TO.C,D9*%
X82591904Y-111074380D02*
X82591904Y-110074380D01*
X82830000Y-110074380D01*
X82972857Y-110122000D01*
X83068095Y-110217238D01*
X83115714Y-110312476D01*
X83163333Y-110502952D01*
X83163333Y-110645809D01*
X83115714Y-110836285D01*
X83068095Y-110931523D01*
X82972857Y-111026761D01*
X82830000Y-111074380D01*
X82591904Y-111074380D01*
X83639523Y-111074380D02*
X83830000Y-111074380D01*
X83925238Y-111026761D01*
X83972857Y-110979142D01*
X84068095Y-110836285D01*
X84115714Y-110645809D01*
X84115714Y-110264857D01*
X84068095Y-110169619D01*
X84020476Y-110122000D01*
X83925238Y-110074380D01*
X83734761Y-110074380D01*
X83639523Y-110122000D01*
X83591904Y-110169619D01*
X83544285Y-110264857D01*
X83544285Y-110502952D01*
X83591904Y-110598190D01*
X83639523Y-110645809D01*
X83734761Y-110693428D01*
X83925238Y-110693428D01*
X84020476Y-110645809D01*
X84068095Y-110598190D01*
X84115714Y-110502952D01*
%TO.C,D8*%
X92591904Y-105074380D02*
X92591904Y-104074380D01*
X92830000Y-104074380D01*
X92972857Y-104122000D01*
X93068095Y-104217238D01*
X93115714Y-104312476D01*
X93163333Y-104502952D01*
X93163333Y-104645809D01*
X93115714Y-104836285D01*
X93068095Y-104931523D01*
X92972857Y-105026761D01*
X92830000Y-105074380D01*
X92591904Y-105074380D01*
X93734761Y-104502952D02*
X93639523Y-104455333D01*
X93591904Y-104407714D01*
X93544285Y-104312476D01*
X93544285Y-104264857D01*
X93591904Y-104169619D01*
X93639523Y-104122000D01*
X93734761Y-104074380D01*
X93925238Y-104074380D01*
X94020476Y-104122000D01*
X94068095Y-104169619D01*
X94115714Y-104264857D01*
X94115714Y-104312476D01*
X94068095Y-104407714D01*
X94020476Y-104455333D01*
X93925238Y-104502952D01*
X93734761Y-104502952D01*
X93639523Y-104550571D01*
X93591904Y-104598190D01*
X93544285Y-104693428D01*
X93544285Y-104883904D01*
X93591904Y-104979142D01*
X93639523Y-105026761D01*
X93734761Y-105074380D01*
X93925238Y-105074380D01*
X94020476Y-105026761D01*
X94068095Y-104979142D01*
X94115714Y-104883904D01*
X94115714Y-104693428D01*
X94068095Y-104598190D01*
X94020476Y-104550571D01*
X93925238Y-104502952D01*
%TO.C,D7*%
X92591904Y-111074380D02*
X92591904Y-110074380D01*
X92830000Y-110074380D01*
X92972857Y-110122000D01*
X93068095Y-110217238D01*
X93115714Y-110312476D01*
X93163333Y-110502952D01*
X93163333Y-110645809D01*
X93115714Y-110836285D01*
X93068095Y-110931523D01*
X92972857Y-111026761D01*
X92830000Y-111074380D01*
X92591904Y-111074380D01*
X93496666Y-110074380D02*
X94163333Y-110074380D01*
X93734761Y-111074380D01*
%TO.C,D6*%
X129261904Y-75102380D02*
X129261904Y-74102380D01*
X129500000Y-74102380D01*
X129642857Y-74150000D01*
X129738095Y-74245238D01*
X129785714Y-74340476D01*
X129833333Y-74530952D01*
X129833333Y-74673809D01*
X129785714Y-74864285D01*
X129738095Y-74959523D01*
X129642857Y-75054761D01*
X129500000Y-75102380D01*
X129261904Y-75102380D01*
X130690476Y-74102380D02*
X130500000Y-74102380D01*
X130404761Y-74150000D01*
X130357142Y-74197619D01*
X130261904Y-74340476D01*
X130214285Y-74530952D01*
X130214285Y-74911904D01*
X130261904Y-75007142D01*
X130309523Y-75054761D01*
X130404761Y-75102380D01*
X130595238Y-75102380D01*
X130690476Y-75054761D01*
X130738095Y-75007142D01*
X130785714Y-74911904D01*
X130785714Y-74673809D01*
X130738095Y-74578571D01*
X130690476Y-74530952D01*
X130595238Y-74483333D01*
X130404761Y-74483333D01*
X130309523Y-74530952D01*
X130261904Y-74578571D01*
X130214285Y-74673809D01*
%TO.C,D5*%
X129261904Y-81102380D02*
X129261904Y-80102380D01*
X129500000Y-80102380D01*
X129642857Y-80150000D01*
X129738095Y-80245238D01*
X129785714Y-80340476D01*
X129833333Y-80530952D01*
X129833333Y-80673809D01*
X129785714Y-80864285D01*
X129738095Y-80959523D01*
X129642857Y-81054761D01*
X129500000Y-81102380D01*
X129261904Y-81102380D01*
X130738095Y-80102380D02*
X130261904Y-80102380D01*
X130214285Y-80578571D01*
X130261904Y-80530952D01*
X130357142Y-80483333D01*
X130595238Y-80483333D01*
X130690476Y-80530952D01*
X130738095Y-80578571D01*
X130785714Y-80673809D01*
X130785714Y-80911904D01*
X130738095Y-81007142D01*
X130690476Y-81054761D01*
X130595238Y-81102380D01*
X130357142Y-81102380D01*
X130261904Y-81054761D01*
X130214285Y-81007142D01*
%TO.C,D4*%
X139261904Y-75102380D02*
X139261904Y-74102380D01*
X139500000Y-74102380D01*
X139642857Y-74150000D01*
X139738095Y-74245238D01*
X139785714Y-74340476D01*
X139833333Y-74530952D01*
X139833333Y-74673809D01*
X139785714Y-74864285D01*
X139738095Y-74959523D01*
X139642857Y-75054761D01*
X139500000Y-75102380D01*
X139261904Y-75102380D01*
X140690476Y-74435714D02*
X140690476Y-75102380D01*
X140452380Y-74054761D02*
X140214285Y-74769047D01*
X140833333Y-74769047D01*
%TO.C,D3*%
X139261904Y-81102380D02*
X139261904Y-80102380D01*
X139500000Y-80102380D01*
X139642857Y-80150000D01*
X139738095Y-80245238D01*
X139785714Y-80340476D01*
X139833333Y-80530952D01*
X139833333Y-80673809D01*
X139785714Y-80864285D01*
X139738095Y-80959523D01*
X139642857Y-81054761D01*
X139500000Y-81102380D01*
X139261904Y-81102380D01*
X140166666Y-80102380D02*
X140785714Y-80102380D01*
X140452380Y-80483333D01*
X140595238Y-80483333D01*
X140690476Y-80530952D01*
X140738095Y-80578571D01*
X140785714Y-80673809D01*
X140785714Y-80911904D01*
X140738095Y-81007142D01*
X140690476Y-81054761D01*
X140595238Y-81102380D01*
X140309523Y-81102380D01*
X140214285Y-81054761D01*
X140166666Y-81007142D01*
%TO.C,D2*%
X149261904Y-75102380D02*
X149261904Y-74102380D01*
X149500000Y-74102380D01*
X149642857Y-74150000D01*
X149738095Y-74245238D01*
X149785714Y-74340476D01*
X149833333Y-74530952D01*
X149833333Y-74673809D01*
X149785714Y-74864285D01*
X149738095Y-74959523D01*
X149642857Y-75054761D01*
X149500000Y-75102380D01*
X149261904Y-75102380D01*
X150214285Y-74197619D02*
X150261904Y-74150000D01*
X150357142Y-74102380D01*
X150595238Y-74102380D01*
X150690476Y-74150000D01*
X150738095Y-74197619D01*
X150785714Y-74292857D01*
X150785714Y-74388095D01*
X150738095Y-74530952D01*
X150166666Y-75102380D01*
X150785714Y-75102380D01*
%TO.C,D1*%
X149261904Y-81102380D02*
X149261904Y-80102380D01*
X149500000Y-80102380D01*
X149642857Y-80150000D01*
X149738095Y-80245238D01*
X149785714Y-80340476D01*
X149833333Y-80530952D01*
X149833333Y-80673809D01*
X149785714Y-80864285D01*
X149738095Y-80959523D01*
X149642857Y-81054761D01*
X149500000Y-81102380D01*
X149261904Y-81102380D01*
X150785714Y-81102380D02*
X150214285Y-81102380D01*
X150500000Y-81102380D02*
X150500000Y-80102380D01*
X150404761Y-80245238D01*
X150309523Y-80340476D01*
X150214285Y-80388095D01*
%TD*%
M02*
