%TF.GenerationSoftware,KiCad,Pcbnew,(5.1.10-1-10_14)*%
%TF.CreationDate,2021-10-18T16:54:11-04:00*%
%TF.ProjectId,ISAAC,49534141-432e-46b6-9963-61645f706362,rev?*%
%TF.SameCoordinates,Original*%
%TF.FileFunction,Paste,Top*%
%TF.FilePolarity,Positive*%
%FSLAX46Y46*%
G04 Gerber Fmt 4.6, Leading zero omitted, Abs format (unit mm)*
G04 Created by KiCad (PCBNEW (5.1.10-1-10_14)) date 2021-10-18 16:54:11*
%MOMM*%
%LPD*%
G01*
G04 APERTURE LIST*
%ADD10R,1.600200X3.098800*%
%ADD11R,1.600200X0.838200*%
G04 APERTURE END LIST*
D10*
%TO.C,U11*%
X142494000Y-61468000D03*
D11*
X148894800Y-59156600D03*
X148894800Y-61468000D03*
X148894800Y-63779400D03*
%TD*%
%TO.C,U10*%
G36*
G01*
X81499700Y-88031000D02*
X82007100Y-88031000D01*
G75*
G02*
X82048400Y-88072300I0J-41300D01*
G01*
X82048400Y-89569700D01*
G75*
G02*
X82007100Y-89611000I-41300J0D01*
G01*
X81499700Y-89611000D01*
G75*
G02*
X81458400Y-89569700I0J41300D01*
G01*
X81458400Y-88072300D01*
G75*
G02*
X81499700Y-88031000I41300J0D01*
G01*
G37*
G36*
G01*
X80229700Y-88031000D02*
X80737100Y-88031000D01*
G75*
G02*
X80778400Y-88072300I0J-41300D01*
G01*
X80778400Y-89569700D01*
G75*
G02*
X80737100Y-89611000I-41300J0D01*
G01*
X80229700Y-89611000D01*
G75*
G02*
X80188400Y-89569700I0J41300D01*
G01*
X80188400Y-88072300D01*
G75*
G02*
X80229700Y-88031000I41300J0D01*
G01*
G37*
G36*
G01*
X78959700Y-88031000D02*
X79467100Y-88031000D01*
G75*
G02*
X79508400Y-88072300I0J-41300D01*
G01*
X79508400Y-89569700D01*
G75*
G02*
X79467100Y-89611000I-41300J0D01*
G01*
X78959700Y-89611000D01*
G75*
G02*
X78918400Y-89569700I0J41300D01*
G01*
X78918400Y-88072300D01*
G75*
G02*
X78959700Y-88031000I41300J0D01*
G01*
G37*
G36*
G01*
X77689700Y-88031000D02*
X78197100Y-88031000D01*
G75*
G02*
X78238400Y-88072300I0J-41300D01*
G01*
X78238400Y-89569700D01*
G75*
G02*
X78197100Y-89611000I-41300J0D01*
G01*
X77689700Y-89611000D01*
G75*
G02*
X77648400Y-89569700I0J41300D01*
G01*
X77648400Y-88072300D01*
G75*
G02*
X77689700Y-88031000I41300J0D01*
G01*
G37*
G36*
G01*
X77689700Y-82781000D02*
X78197100Y-82781000D01*
G75*
G02*
X78238400Y-82822300I0J-41300D01*
G01*
X78238400Y-84319700D01*
G75*
G02*
X78197100Y-84361000I-41300J0D01*
G01*
X77689700Y-84361000D01*
G75*
G02*
X77648400Y-84319700I0J41300D01*
G01*
X77648400Y-82822300D01*
G75*
G02*
X77689700Y-82781000I41300J0D01*
G01*
G37*
G36*
G01*
X78959700Y-82781000D02*
X79467100Y-82781000D01*
G75*
G02*
X79508400Y-82822300I0J-41300D01*
G01*
X79508400Y-84319700D01*
G75*
G02*
X79467100Y-84361000I-41300J0D01*
G01*
X78959700Y-84361000D01*
G75*
G02*
X78918400Y-84319700I0J41300D01*
G01*
X78918400Y-82822300D01*
G75*
G02*
X78959700Y-82781000I41300J0D01*
G01*
G37*
G36*
G01*
X80229700Y-82781000D02*
X80737100Y-82781000D01*
G75*
G02*
X80778400Y-82822300I0J-41300D01*
G01*
X80778400Y-84319700D01*
G75*
G02*
X80737100Y-84361000I-41300J0D01*
G01*
X80229700Y-84361000D01*
G75*
G02*
X80188400Y-84319700I0J41300D01*
G01*
X80188400Y-82822300D01*
G75*
G02*
X80229700Y-82781000I41300J0D01*
G01*
G37*
G36*
G01*
X81499700Y-82781000D02*
X82007100Y-82781000D01*
G75*
G02*
X82048400Y-82822300I0J-41300D01*
G01*
X82048400Y-84319700D01*
G75*
G02*
X82007100Y-84361000I-41300J0D01*
G01*
X81499700Y-84361000D01*
G75*
G02*
X81458400Y-84319700I0J41300D01*
G01*
X81458400Y-82822300D01*
G75*
G02*
X81499700Y-82781000I41300J0D01*
G01*
G37*
%TD*%
%TO.C,U9*%
G36*
G01*
X91499700Y-88031000D02*
X92007100Y-88031000D01*
G75*
G02*
X92048400Y-88072300I0J-41300D01*
G01*
X92048400Y-89569700D01*
G75*
G02*
X92007100Y-89611000I-41300J0D01*
G01*
X91499700Y-89611000D01*
G75*
G02*
X91458400Y-89569700I0J41300D01*
G01*
X91458400Y-88072300D01*
G75*
G02*
X91499700Y-88031000I41300J0D01*
G01*
G37*
G36*
G01*
X90229700Y-88031000D02*
X90737100Y-88031000D01*
G75*
G02*
X90778400Y-88072300I0J-41300D01*
G01*
X90778400Y-89569700D01*
G75*
G02*
X90737100Y-89611000I-41300J0D01*
G01*
X90229700Y-89611000D01*
G75*
G02*
X90188400Y-89569700I0J41300D01*
G01*
X90188400Y-88072300D01*
G75*
G02*
X90229700Y-88031000I41300J0D01*
G01*
G37*
G36*
G01*
X88959700Y-88031000D02*
X89467100Y-88031000D01*
G75*
G02*
X89508400Y-88072300I0J-41300D01*
G01*
X89508400Y-89569700D01*
G75*
G02*
X89467100Y-89611000I-41300J0D01*
G01*
X88959700Y-89611000D01*
G75*
G02*
X88918400Y-89569700I0J41300D01*
G01*
X88918400Y-88072300D01*
G75*
G02*
X88959700Y-88031000I41300J0D01*
G01*
G37*
G36*
G01*
X87689700Y-88031000D02*
X88197100Y-88031000D01*
G75*
G02*
X88238400Y-88072300I0J-41300D01*
G01*
X88238400Y-89569700D01*
G75*
G02*
X88197100Y-89611000I-41300J0D01*
G01*
X87689700Y-89611000D01*
G75*
G02*
X87648400Y-89569700I0J41300D01*
G01*
X87648400Y-88072300D01*
G75*
G02*
X87689700Y-88031000I41300J0D01*
G01*
G37*
G36*
G01*
X87689700Y-82781000D02*
X88197100Y-82781000D01*
G75*
G02*
X88238400Y-82822300I0J-41300D01*
G01*
X88238400Y-84319700D01*
G75*
G02*
X88197100Y-84361000I-41300J0D01*
G01*
X87689700Y-84361000D01*
G75*
G02*
X87648400Y-84319700I0J41300D01*
G01*
X87648400Y-82822300D01*
G75*
G02*
X87689700Y-82781000I41300J0D01*
G01*
G37*
G36*
G01*
X88959700Y-82781000D02*
X89467100Y-82781000D01*
G75*
G02*
X89508400Y-82822300I0J-41300D01*
G01*
X89508400Y-84319700D01*
G75*
G02*
X89467100Y-84361000I-41300J0D01*
G01*
X88959700Y-84361000D01*
G75*
G02*
X88918400Y-84319700I0J41300D01*
G01*
X88918400Y-82822300D01*
G75*
G02*
X88959700Y-82781000I41300J0D01*
G01*
G37*
G36*
G01*
X90229700Y-82781000D02*
X90737100Y-82781000D01*
G75*
G02*
X90778400Y-82822300I0J-41300D01*
G01*
X90778400Y-84319700D01*
G75*
G02*
X90737100Y-84361000I-41300J0D01*
G01*
X90229700Y-84361000D01*
G75*
G02*
X90188400Y-84319700I0J41300D01*
G01*
X90188400Y-82822300D01*
G75*
G02*
X90229700Y-82781000I41300J0D01*
G01*
G37*
G36*
G01*
X91499700Y-82781000D02*
X92007100Y-82781000D01*
G75*
G02*
X92048400Y-82822300I0J-41300D01*
G01*
X92048400Y-84319700D01*
G75*
G02*
X92007100Y-84361000I-41300J0D01*
G01*
X91499700Y-84361000D01*
G75*
G02*
X91458400Y-84319700I0J41300D01*
G01*
X91458400Y-82822300D01*
G75*
G02*
X91499700Y-82781000I41300J0D01*
G01*
G37*
%TD*%
%TO.C,U8*%
G36*
G01*
X101499700Y-88031000D02*
X102007100Y-88031000D01*
G75*
G02*
X102048400Y-88072300I0J-41300D01*
G01*
X102048400Y-89569700D01*
G75*
G02*
X102007100Y-89611000I-41300J0D01*
G01*
X101499700Y-89611000D01*
G75*
G02*
X101458400Y-89569700I0J41300D01*
G01*
X101458400Y-88072300D01*
G75*
G02*
X101499700Y-88031000I41300J0D01*
G01*
G37*
G36*
G01*
X100229700Y-88031000D02*
X100737100Y-88031000D01*
G75*
G02*
X100778400Y-88072300I0J-41300D01*
G01*
X100778400Y-89569700D01*
G75*
G02*
X100737100Y-89611000I-41300J0D01*
G01*
X100229700Y-89611000D01*
G75*
G02*
X100188400Y-89569700I0J41300D01*
G01*
X100188400Y-88072300D01*
G75*
G02*
X100229700Y-88031000I41300J0D01*
G01*
G37*
G36*
G01*
X98959700Y-88031000D02*
X99467100Y-88031000D01*
G75*
G02*
X99508400Y-88072300I0J-41300D01*
G01*
X99508400Y-89569700D01*
G75*
G02*
X99467100Y-89611000I-41300J0D01*
G01*
X98959700Y-89611000D01*
G75*
G02*
X98918400Y-89569700I0J41300D01*
G01*
X98918400Y-88072300D01*
G75*
G02*
X98959700Y-88031000I41300J0D01*
G01*
G37*
G36*
G01*
X97689700Y-88031000D02*
X98197100Y-88031000D01*
G75*
G02*
X98238400Y-88072300I0J-41300D01*
G01*
X98238400Y-89569700D01*
G75*
G02*
X98197100Y-89611000I-41300J0D01*
G01*
X97689700Y-89611000D01*
G75*
G02*
X97648400Y-89569700I0J41300D01*
G01*
X97648400Y-88072300D01*
G75*
G02*
X97689700Y-88031000I41300J0D01*
G01*
G37*
G36*
G01*
X97689700Y-82781000D02*
X98197100Y-82781000D01*
G75*
G02*
X98238400Y-82822300I0J-41300D01*
G01*
X98238400Y-84319700D01*
G75*
G02*
X98197100Y-84361000I-41300J0D01*
G01*
X97689700Y-84361000D01*
G75*
G02*
X97648400Y-84319700I0J41300D01*
G01*
X97648400Y-82822300D01*
G75*
G02*
X97689700Y-82781000I41300J0D01*
G01*
G37*
G36*
G01*
X98959700Y-82781000D02*
X99467100Y-82781000D01*
G75*
G02*
X99508400Y-82822300I0J-41300D01*
G01*
X99508400Y-84319700D01*
G75*
G02*
X99467100Y-84361000I-41300J0D01*
G01*
X98959700Y-84361000D01*
G75*
G02*
X98918400Y-84319700I0J41300D01*
G01*
X98918400Y-82822300D01*
G75*
G02*
X98959700Y-82781000I41300J0D01*
G01*
G37*
G36*
G01*
X100229700Y-82781000D02*
X100737100Y-82781000D01*
G75*
G02*
X100778400Y-82822300I0J-41300D01*
G01*
X100778400Y-84319700D01*
G75*
G02*
X100737100Y-84361000I-41300J0D01*
G01*
X100229700Y-84361000D01*
G75*
G02*
X100188400Y-84319700I0J41300D01*
G01*
X100188400Y-82822300D01*
G75*
G02*
X100229700Y-82781000I41300J0D01*
G01*
G37*
G36*
G01*
X101499700Y-82781000D02*
X102007100Y-82781000D01*
G75*
G02*
X102048400Y-82822300I0J-41300D01*
G01*
X102048400Y-84319700D01*
G75*
G02*
X102007100Y-84361000I-41300J0D01*
G01*
X101499700Y-84361000D01*
G75*
G02*
X101458400Y-84319700I0J41300D01*
G01*
X101458400Y-82822300D01*
G75*
G02*
X101499700Y-82781000I41300J0D01*
G01*
G37*
%TD*%
%TO.C,U7*%
G36*
G01*
X84829700Y-118003000D02*
X85337100Y-118003000D01*
G75*
G02*
X85378400Y-118044300I0J-41300D01*
G01*
X85378400Y-119541700D01*
G75*
G02*
X85337100Y-119583000I-41300J0D01*
G01*
X84829700Y-119583000D01*
G75*
G02*
X84788400Y-119541700I0J41300D01*
G01*
X84788400Y-118044300D01*
G75*
G02*
X84829700Y-118003000I41300J0D01*
G01*
G37*
G36*
G01*
X83559700Y-118003000D02*
X84067100Y-118003000D01*
G75*
G02*
X84108400Y-118044300I0J-41300D01*
G01*
X84108400Y-119541700D01*
G75*
G02*
X84067100Y-119583000I-41300J0D01*
G01*
X83559700Y-119583000D01*
G75*
G02*
X83518400Y-119541700I0J41300D01*
G01*
X83518400Y-118044300D01*
G75*
G02*
X83559700Y-118003000I41300J0D01*
G01*
G37*
G36*
G01*
X82289700Y-118003000D02*
X82797100Y-118003000D01*
G75*
G02*
X82838400Y-118044300I0J-41300D01*
G01*
X82838400Y-119541700D01*
G75*
G02*
X82797100Y-119583000I-41300J0D01*
G01*
X82289700Y-119583000D01*
G75*
G02*
X82248400Y-119541700I0J41300D01*
G01*
X82248400Y-118044300D01*
G75*
G02*
X82289700Y-118003000I41300J0D01*
G01*
G37*
G36*
G01*
X81019700Y-118003000D02*
X81527100Y-118003000D01*
G75*
G02*
X81568400Y-118044300I0J-41300D01*
G01*
X81568400Y-119541700D01*
G75*
G02*
X81527100Y-119583000I-41300J0D01*
G01*
X81019700Y-119583000D01*
G75*
G02*
X80978400Y-119541700I0J41300D01*
G01*
X80978400Y-118044300D01*
G75*
G02*
X81019700Y-118003000I41300J0D01*
G01*
G37*
G36*
G01*
X81019700Y-112753000D02*
X81527100Y-112753000D01*
G75*
G02*
X81568400Y-112794300I0J-41300D01*
G01*
X81568400Y-114291700D01*
G75*
G02*
X81527100Y-114333000I-41300J0D01*
G01*
X81019700Y-114333000D01*
G75*
G02*
X80978400Y-114291700I0J41300D01*
G01*
X80978400Y-112794300D01*
G75*
G02*
X81019700Y-112753000I41300J0D01*
G01*
G37*
G36*
G01*
X82289700Y-112753000D02*
X82797100Y-112753000D01*
G75*
G02*
X82838400Y-112794300I0J-41300D01*
G01*
X82838400Y-114291700D01*
G75*
G02*
X82797100Y-114333000I-41300J0D01*
G01*
X82289700Y-114333000D01*
G75*
G02*
X82248400Y-114291700I0J41300D01*
G01*
X82248400Y-112794300D01*
G75*
G02*
X82289700Y-112753000I41300J0D01*
G01*
G37*
G36*
G01*
X83559700Y-112753000D02*
X84067100Y-112753000D01*
G75*
G02*
X84108400Y-112794300I0J-41300D01*
G01*
X84108400Y-114291700D01*
G75*
G02*
X84067100Y-114333000I-41300J0D01*
G01*
X83559700Y-114333000D01*
G75*
G02*
X83518400Y-114291700I0J41300D01*
G01*
X83518400Y-112794300D01*
G75*
G02*
X83559700Y-112753000I41300J0D01*
G01*
G37*
G36*
G01*
X84829700Y-112753000D02*
X85337100Y-112753000D01*
G75*
G02*
X85378400Y-112794300I0J-41300D01*
G01*
X85378400Y-114291700D01*
G75*
G02*
X85337100Y-114333000I-41300J0D01*
G01*
X84829700Y-114333000D01*
G75*
G02*
X84788400Y-114291700I0J41300D01*
G01*
X84788400Y-112794300D01*
G75*
G02*
X84829700Y-112753000I41300J0D01*
G01*
G37*
%TD*%
%TO.C,U5*%
G36*
G01*
X94829700Y-118003000D02*
X95337100Y-118003000D01*
G75*
G02*
X95378400Y-118044300I0J-41300D01*
G01*
X95378400Y-119541700D01*
G75*
G02*
X95337100Y-119583000I-41300J0D01*
G01*
X94829700Y-119583000D01*
G75*
G02*
X94788400Y-119541700I0J41300D01*
G01*
X94788400Y-118044300D01*
G75*
G02*
X94829700Y-118003000I41300J0D01*
G01*
G37*
G36*
G01*
X93559700Y-118003000D02*
X94067100Y-118003000D01*
G75*
G02*
X94108400Y-118044300I0J-41300D01*
G01*
X94108400Y-119541700D01*
G75*
G02*
X94067100Y-119583000I-41300J0D01*
G01*
X93559700Y-119583000D01*
G75*
G02*
X93518400Y-119541700I0J41300D01*
G01*
X93518400Y-118044300D01*
G75*
G02*
X93559700Y-118003000I41300J0D01*
G01*
G37*
G36*
G01*
X92289700Y-118003000D02*
X92797100Y-118003000D01*
G75*
G02*
X92838400Y-118044300I0J-41300D01*
G01*
X92838400Y-119541700D01*
G75*
G02*
X92797100Y-119583000I-41300J0D01*
G01*
X92289700Y-119583000D01*
G75*
G02*
X92248400Y-119541700I0J41300D01*
G01*
X92248400Y-118044300D01*
G75*
G02*
X92289700Y-118003000I41300J0D01*
G01*
G37*
G36*
G01*
X91019700Y-118003000D02*
X91527100Y-118003000D01*
G75*
G02*
X91568400Y-118044300I0J-41300D01*
G01*
X91568400Y-119541700D01*
G75*
G02*
X91527100Y-119583000I-41300J0D01*
G01*
X91019700Y-119583000D01*
G75*
G02*
X90978400Y-119541700I0J41300D01*
G01*
X90978400Y-118044300D01*
G75*
G02*
X91019700Y-118003000I41300J0D01*
G01*
G37*
G36*
G01*
X91019700Y-112753000D02*
X91527100Y-112753000D01*
G75*
G02*
X91568400Y-112794300I0J-41300D01*
G01*
X91568400Y-114291700D01*
G75*
G02*
X91527100Y-114333000I-41300J0D01*
G01*
X91019700Y-114333000D01*
G75*
G02*
X90978400Y-114291700I0J41300D01*
G01*
X90978400Y-112794300D01*
G75*
G02*
X91019700Y-112753000I41300J0D01*
G01*
G37*
G36*
G01*
X92289700Y-112753000D02*
X92797100Y-112753000D01*
G75*
G02*
X92838400Y-112794300I0J-41300D01*
G01*
X92838400Y-114291700D01*
G75*
G02*
X92797100Y-114333000I-41300J0D01*
G01*
X92289700Y-114333000D01*
G75*
G02*
X92248400Y-114291700I0J41300D01*
G01*
X92248400Y-112794300D01*
G75*
G02*
X92289700Y-112753000I41300J0D01*
G01*
G37*
G36*
G01*
X93559700Y-112753000D02*
X94067100Y-112753000D01*
G75*
G02*
X94108400Y-112794300I0J-41300D01*
G01*
X94108400Y-114291700D01*
G75*
G02*
X94067100Y-114333000I-41300J0D01*
G01*
X93559700Y-114333000D01*
G75*
G02*
X93518400Y-114291700I0J41300D01*
G01*
X93518400Y-112794300D01*
G75*
G02*
X93559700Y-112753000I41300J0D01*
G01*
G37*
G36*
G01*
X94829700Y-112753000D02*
X95337100Y-112753000D01*
G75*
G02*
X95378400Y-112794300I0J-41300D01*
G01*
X95378400Y-114291700D01*
G75*
G02*
X95337100Y-114333000I-41300J0D01*
G01*
X94829700Y-114333000D01*
G75*
G02*
X94788400Y-114291700I0J41300D01*
G01*
X94788400Y-112794300D01*
G75*
G02*
X94829700Y-112753000I41300J0D01*
G01*
G37*
%TD*%
%TO.C,U4*%
G36*
G01*
X131499700Y-88031000D02*
X132007100Y-88031000D01*
G75*
G02*
X132048400Y-88072300I0J-41300D01*
G01*
X132048400Y-89569700D01*
G75*
G02*
X132007100Y-89611000I-41300J0D01*
G01*
X131499700Y-89611000D01*
G75*
G02*
X131458400Y-89569700I0J41300D01*
G01*
X131458400Y-88072300D01*
G75*
G02*
X131499700Y-88031000I41300J0D01*
G01*
G37*
G36*
G01*
X130229700Y-88031000D02*
X130737100Y-88031000D01*
G75*
G02*
X130778400Y-88072300I0J-41300D01*
G01*
X130778400Y-89569700D01*
G75*
G02*
X130737100Y-89611000I-41300J0D01*
G01*
X130229700Y-89611000D01*
G75*
G02*
X130188400Y-89569700I0J41300D01*
G01*
X130188400Y-88072300D01*
G75*
G02*
X130229700Y-88031000I41300J0D01*
G01*
G37*
G36*
G01*
X128959700Y-88031000D02*
X129467100Y-88031000D01*
G75*
G02*
X129508400Y-88072300I0J-41300D01*
G01*
X129508400Y-89569700D01*
G75*
G02*
X129467100Y-89611000I-41300J0D01*
G01*
X128959700Y-89611000D01*
G75*
G02*
X128918400Y-89569700I0J41300D01*
G01*
X128918400Y-88072300D01*
G75*
G02*
X128959700Y-88031000I41300J0D01*
G01*
G37*
G36*
G01*
X127689700Y-88031000D02*
X128197100Y-88031000D01*
G75*
G02*
X128238400Y-88072300I0J-41300D01*
G01*
X128238400Y-89569700D01*
G75*
G02*
X128197100Y-89611000I-41300J0D01*
G01*
X127689700Y-89611000D01*
G75*
G02*
X127648400Y-89569700I0J41300D01*
G01*
X127648400Y-88072300D01*
G75*
G02*
X127689700Y-88031000I41300J0D01*
G01*
G37*
G36*
G01*
X127689700Y-82781000D02*
X128197100Y-82781000D01*
G75*
G02*
X128238400Y-82822300I0J-41300D01*
G01*
X128238400Y-84319700D01*
G75*
G02*
X128197100Y-84361000I-41300J0D01*
G01*
X127689700Y-84361000D01*
G75*
G02*
X127648400Y-84319700I0J41300D01*
G01*
X127648400Y-82822300D01*
G75*
G02*
X127689700Y-82781000I41300J0D01*
G01*
G37*
G36*
G01*
X128959700Y-82781000D02*
X129467100Y-82781000D01*
G75*
G02*
X129508400Y-82822300I0J-41300D01*
G01*
X129508400Y-84319700D01*
G75*
G02*
X129467100Y-84361000I-41300J0D01*
G01*
X128959700Y-84361000D01*
G75*
G02*
X128918400Y-84319700I0J41300D01*
G01*
X128918400Y-82822300D01*
G75*
G02*
X128959700Y-82781000I41300J0D01*
G01*
G37*
G36*
G01*
X130229700Y-82781000D02*
X130737100Y-82781000D01*
G75*
G02*
X130778400Y-82822300I0J-41300D01*
G01*
X130778400Y-84319700D01*
G75*
G02*
X130737100Y-84361000I-41300J0D01*
G01*
X130229700Y-84361000D01*
G75*
G02*
X130188400Y-84319700I0J41300D01*
G01*
X130188400Y-82822300D01*
G75*
G02*
X130229700Y-82781000I41300J0D01*
G01*
G37*
G36*
G01*
X131499700Y-82781000D02*
X132007100Y-82781000D01*
G75*
G02*
X132048400Y-82822300I0J-41300D01*
G01*
X132048400Y-84319700D01*
G75*
G02*
X132007100Y-84361000I-41300J0D01*
G01*
X131499700Y-84361000D01*
G75*
G02*
X131458400Y-84319700I0J41300D01*
G01*
X131458400Y-82822300D01*
G75*
G02*
X131499700Y-82781000I41300J0D01*
G01*
G37*
%TD*%
%TO.C,U3*%
G36*
G01*
X141499700Y-88031000D02*
X142007100Y-88031000D01*
G75*
G02*
X142048400Y-88072300I0J-41300D01*
G01*
X142048400Y-89569700D01*
G75*
G02*
X142007100Y-89611000I-41300J0D01*
G01*
X141499700Y-89611000D01*
G75*
G02*
X141458400Y-89569700I0J41300D01*
G01*
X141458400Y-88072300D01*
G75*
G02*
X141499700Y-88031000I41300J0D01*
G01*
G37*
G36*
G01*
X140229700Y-88031000D02*
X140737100Y-88031000D01*
G75*
G02*
X140778400Y-88072300I0J-41300D01*
G01*
X140778400Y-89569700D01*
G75*
G02*
X140737100Y-89611000I-41300J0D01*
G01*
X140229700Y-89611000D01*
G75*
G02*
X140188400Y-89569700I0J41300D01*
G01*
X140188400Y-88072300D01*
G75*
G02*
X140229700Y-88031000I41300J0D01*
G01*
G37*
G36*
G01*
X138959700Y-88031000D02*
X139467100Y-88031000D01*
G75*
G02*
X139508400Y-88072300I0J-41300D01*
G01*
X139508400Y-89569700D01*
G75*
G02*
X139467100Y-89611000I-41300J0D01*
G01*
X138959700Y-89611000D01*
G75*
G02*
X138918400Y-89569700I0J41300D01*
G01*
X138918400Y-88072300D01*
G75*
G02*
X138959700Y-88031000I41300J0D01*
G01*
G37*
G36*
G01*
X137689700Y-88031000D02*
X138197100Y-88031000D01*
G75*
G02*
X138238400Y-88072300I0J-41300D01*
G01*
X138238400Y-89569700D01*
G75*
G02*
X138197100Y-89611000I-41300J0D01*
G01*
X137689700Y-89611000D01*
G75*
G02*
X137648400Y-89569700I0J41300D01*
G01*
X137648400Y-88072300D01*
G75*
G02*
X137689700Y-88031000I41300J0D01*
G01*
G37*
G36*
G01*
X137689700Y-82781000D02*
X138197100Y-82781000D01*
G75*
G02*
X138238400Y-82822300I0J-41300D01*
G01*
X138238400Y-84319700D01*
G75*
G02*
X138197100Y-84361000I-41300J0D01*
G01*
X137689700Y-84361000D01*
G75*
G02*
X137648400Y-84319700I0J41300D01*
G01*
X137648400Y-82822300D01*
G75*
G02*
X137689700Y-82781000I41300J0D01*
G01*
G37*
G36*
G01*
X138959700Y-82781000D02*
X139467100Y-82781000D01*
G75*
G02*
X139508400Y-82822300I0J-41300D01*
G01*
X139508400Y-84319700D01*
G75*
G02*
X139467100Y-84361000I-41300J0D01*
G01*
X138959700Y-84361000D01*
G75*
G02*
X138918400Y-84319700I0J41300D01*
G01*
X138918400Y-82822300D01*
G75*
G02*
X138959700Y-82781000I41300J0D01*
G01*
G37*
G36*
G01*
X140229700Y-82781000D02*
X140737100Y-82781000D01*
G75*
G02*
X140778400Y-82822300I0J-41300D01*
G01*
X140778400Y-84319700D01*
G75*
G02*
X140737100Y-84361000I-41300J0D01*
G01*
X140229700Y-84361000D01*
G75*
G02*
X140188400Y-84319700I0J41300D01*
G01*
X140188400Y-82822300D01*
G75*
G02*
X140229700Y-82781000I41300J0D01*
G01*
G37*
G36*
G01*
X141499700Y-82781000D02*
X142007100Y-82781000D01*
G75*
G02*
X142048400Y-82822300I0J-41300D01*
G01*
X142048400Y-84319700D01*
G75*
G02*
X142007100Y-84361000I-41300J0D01*
G01*
X141499700Y-84361000D01*
G75*
G02*
X141458400Y-84319700I0J41300D01*
G01*
X141458400Y-82822300D01*
G75*
G02*
X141499700Y-82781000I41300J0D01*
G01*
G37*
%TD*%
%TO.C,U2*%
G36*
G01*
X151499700Y-88031000D02*
X152007100Y-88031000D01*
G75*
G02*
X152048400Y-88072300I0J-41300D01*
G01*
X152048400Y-89569700D01*
G75*
G02*
X152007100Y-89611000I-41300J0D01*
G01*
X151499700Y-89611000D01*
G75*
G02*
X151458400Y-89569700I0J41300D01*
G01*
X151458400Y-88072300D01*
G75*
G02*
X151499700Y-88031000I41300J0D01*
G01*
G37*
G36*
G01*
X150229700Y-88031000D02*
X150737100Y-88031000D01*
G75*
G02*
X150778400Y-88072300I0J-41300D01*
G01*
X150778400Y-89569700D01*
G75*
G02*
X150737100Y-89611000I-41300J0D01*
G01*
X150229700Y-89611000D01*
G75*
G02*
X150188400Y-89569700I0J41300D01*
G01*
X150188400Y-88072300D01*
G75*
G02*
X150229700Y-88031000I41300J0D01*
G01*
G37*
G36*
G01*
X148959700Y-88031000D02*
X149467100Y-88031000D01*
G75*
G02*
X149508400Y-88072300I0J-41300D01*
G01*
X149508400Y-89569700D01*
G75*
G02*
X149467100Y-89611000I-41300J0D01*
G01*
X148959700Y-89611000D01*
G75*
G02*
X148918400Y-89569700I0J41300D01*
G01*
X148918400Y-88072300D01*
G75*
G02*
X148959700Y-88031000I41300J0D01*
G01*
G37*
G36*
G01*
X147689700Y-88031000D02*
X148197100Y-88031000D01*
G75*
G02*
X148238400Y-88072300I0J-41300D01*
G01*
X148238400Y-89569700D01*
G75*
G02*
X148197100Y-89611000I-41300J0D01*
G01*
X147689700Y-89611000D01*
G75*
G02*
X147648400Y-89569700I0J41300D01*
G01*
X147648400Y-88072300D01*
G75*
G02*
X147689700Y-88031000I41300J0D01*
G01*
G37*
G36*
G01*
X147689700Y-82781000D02*
X148197100Y-82781000D01*
G75*
G02*
X148238400Y-82822300I0J-41300D01*
G01*
X148238400Y-84319700D01*
G75*
G02*
X148197100Y-84361000I-41300J0D01*
G01*
X147689700Y-84361000D01*
G75*
G02*
X147648400Y-84319700I0J41300D01*
G01*
X147648400Y-82822300D01*
G75*
G02*
X147689700Y-82781000I41300J0D01*
G01*
G37*
G36*
G01*
X148959700Y-82781000D02*
X149467100Y-82781000D01*
G75*
G02*
X149508400Y-82822300I0J-41300D01*
G01*
X149508400Y-84319700D01*
G75*
G02*
X149467100Y-84361000I-41300J0D01*
G01*
X148959700Y-84361000D01*
G75*
G02*
X148918400Y-84319700I0J41300D01*
G01*
X148918400Y-82822300D01*
G75*
G02*
X148959700Y-82781000I41300J0D01*
G01*
G37*
G36*
G01*
X150229700Y-82781000D02*
X150737100Y-82781000D01*
G75*
G02*
X150778400Y-82822300I0J-41300D01*
G01*
X150778400Y-84319700D01*
G75*
G02*
X150737100Y-84361000I-41300J0D01*
G01*
X150229700Y-84361000D01*
G75*
G02*
X150188400Y-84319700I0J41300D01*
G01*
X150188400Y-82822300D01*
G75*
G02*
X150229700Y-82781000I41300J0D01*
G01*
G37*
G36*
G01*
X151499700Y-82781000D02*
X152007100Y-82781000D01*
G75*
G02*
X152048400Y-82822300I0J-41300D01*
G01*
X152048400Y-84319700D01*
G75*
G02*
X152007100Y-84361000I-41300J0D01*
G01*
X151499700Y-84361000D01*
G75*
G02*
X151458400Y-84319700I0J41300D01*
G01*
X151458400Y-82822300D01*
G75*
G02*
X151499700Y-82781000I41300J0D01*
G01*
G37*
%TD*%
%TO.C,R16*%
G36*
G01*
X81549999Y-94400000D02*
X82450001Y-94400000D01*
G75*
G02*
X82700000Y-94649999I0J-249999D01*
G01*
X82700000Y-95350001D01*
G75*
G02*
X82450001Y-95600000I-249999J0D01*
G01*
X81549999Y-95600000D01*
G75*
G02*
X81300000Y-95350001I0J249999D01*
G01*
X81300000Y-94649999D01*
G75*
G02*
X81549999Y-94400000I249999J0D01*
G01*
G37*
G36*
G01*
X81549999Y-92400000D02*
X82450001Y-92400000D01*
G75*
G02*
X82700000Y-92649999I0J-249999D01*
G01*
X82700000Y-93350001D01*
G75*
G02*
X82450001Y-93600000I-249999J0D01*
G01*
X81549999Y-93600000D01*
G75*
G02*
X81300000Y-93350001I0J249999D01*
G01*
X81300000Y-92649999D01*
G75*
G02*
X81549999Y-92400000I249999J0D01*
G01*
G37*
%TD*%
%TO.C,R15*%
G36*
G01*
X77549999Y-94400000D02*
X78450001Y-94400000D01*
G75*
G02*
X78700000Y-94649999I0J-249999D01*
G01*
X78700000Y-95350001D01*
G75*
G02*
X78450001Y-95600000I-249999J0D01*
G01*
X77549999Y-95600000D01*
G75*
G02*
X77300000Y-95350001I0J249999D01*
G01*
X77300000Y-94649999D01*
G75*
G02*
X77549999Y-94400000I249999J0D01*
G01*
G37*
G36*
G01*
X77549999Y-92400000D02*
X78450001Y-92400000D01*
G75*
G02*
X78700000Y-92649999I0J-249999D01*
G01*
X78700000Y-93350001D01*
G75*
G02*
X78450001Y-93600000I-249999J0D01*
G01*
X77549999Y-93600000D01*
G75*
G02*
X77300000Y-93350001I0J249999D01*
G01*
X77300000Y-92649999D01*
G75*
G02*
X77549999Y-92400000I249999J0D01*
G01*
G37*
%TD*%
%TO.C,R14*%
G36*
G01*
X91549999Y-94400000D02*
X92450001Y-94400000D01*
G75*
G02*
X92700000Y-94649999I0J-249999D01*
G01*
X92700000Y-95350001D01*
G75*
G02*
X92450001Y-95600000I-249999J0D01*
G01*
X91549999Y-95600000D01*
G75*
G02*
X91300000Y-95350001I0J249999D01*
G01*
X91300000Y-94649999D01*
G75*
G02*
X91549999Y-94400000I249999J0D01*
G01*
G37*
G36*
G01*
X91549999Y-92400000D02*
X92450001Y-92400000D01*
G75*
G02*
X92700000Y-92649999I0J-249999D01*
G01*
X92700000Y-93350001D01*
G75*
G02*
X92450001Y-93600000I-249999J0D01*
G01*
X91549999Y-93600000D01*
G75*
G02*
X91300000Y-93350001I0J249999D01*
G01*
X91300000Y-92649999D01*
G75*
G02*
X91549999Y-92400000I249999J0D01*
G01*
G37*
%TD*%
%TO.C,R13*%
G36*
G01*
X87549999Y-94400000D02*
X88450001Y-94400000D01*
G75*
G02*
X88700000Y-94649999I0J-249999D01*
G01*
X88700000Y-95350001D01*
G75*
G02*
X88450001Y-95600000I-249999J0D01*
G01*
X87549999Y-95600000D01*
G75*
G02*
X87300000Y-95350001I0J249999D01*
G01*
X87300000Y-94649999D01*
G75*
G02*
X87549999Y-94400000I249999J0D01*
G01*
G37*
G36*
G01*
X87549999Y-92400000D02*
X88450001Y-92400000D01*
G75*
G02*
X88700000Y-92649999I0J-249999D01*
G01*
X88700000Y-93350001D01*
G75*
G02*
X88450001Y-93600000I-249999J0D01*
G01*
X87549999Y-93600000D01*
G75*
G02*
X87300000Y-93350001I0J249999D01*
G01*
X87300000Y-92649999D01*
G75*
G02*
X87549999Y-92400000I249999J0D01*
G01*
G37*
%TD*%
%TO.C,R12*%
G36*
G01*
X101549999Y-94400000D02*
X102450001Y-94400000D01*
G75*
G02*
X102700000Y-94649999I0J-249999D01*
G01*
X102700000Y-95350001D01*
G75*
G02*
X102450001Y-95600000I-249999J0D01*
G01*
X101549999Y-95600000D01*
G75*
G02*
X101300000Y-95350001I0J249999D01*
G01*
X101300000Y-94649999D01*
G75*
G02*
X101549999Y-94400000I249999J0D01*
G01*
G37*
G36*
G01*
X101549999Y-92400000D02*
X102450001Y-92400000D01*
G75*
G02*
X102700000Y-92649999I0J-249999D01*
G01*
X102700000Y-93350001D01*
G75*
G02*
X102450001Y-93600000I-249999J0D01*
G01*
X101549999Y-93600000D01*
G75*
G02*
X101300000Y-93350001I0J249999D01*
G01*
X101300000Y-92649999D01*
G75*
G02*
X101549999Y-92400000I249999J0D01*
G01*
G37*
%TD*%
%TO.C,R11*%
G36*
G01*
X97549999Y-94400000D02*
X98450001Y-94400000D01*
G75*
G02*
X98700000Y-94649999I0J-249999D01*
G01*
X98700000Y-95350001D01*
G75*
G02*
X98450001Y-95600000I-249999J0D01*
G01*
X97549999Y-95600000D01*
G75*
G02*
X97300000Y-95350001I0J249999D01*
G01*
X97300000Y-94649999D01*
G75*
G02*
X97549999Y-94400000I249999J0D01*
G01*
G37*
G36*
G01*
X97549999Y-92400000D02*
X98450001Y-92400000D01*
G75*
G02*
X98700000Y-92649999I0J-249999D01*
G01*
X98700000Y-93350001D01*
G75*
G02*
X98450001Y-93600000I-249999J0D01*
G01*
X97549999Y-93600000D01*
G75*
G02*
X97300000Y-93350001I0J249999D01*
G01*
X97300000Y-92649999D01*
G75*
G02*
X97549999Y-92400000I249999J0D01*
G01*
G37*
%TD*%
%TO.C,R10*%
G36*
G01*
X84879999Y-124372000D02*
X85780001Y-124372000D01*
G75*
G02*
X86030000Y-124621999I0J-249999D01*
G01*
X86030000Y-125322001D01*
G75*
G02*
X85780001Y-125572000I-249999J0D01*
G01*
X84879999Y-125572000D01*
G75*
G02*
X84630000Y-125322001I0J249999D01*
G01*
X84630000Y-124621999D01*
G75*
G02*
X84879999Y-124372000I249999J0D01*
G01*
G37*
G36*
G01*
X84879999Y-122372000D02*
X85780001Y-122372000D01*
G75*
G02*
X86030000Y-122621999I0J-249999D01*
G01*
X86030000Y-123322001D01*
G75*
G02*
X85780001Y-123572000I-249999J0D01*
G01*
X84879999Y-123572000D01*
G75*
G02*
X84630000Y-123322001I0J249999D01*
G01*
X84630000Y-122621999D01*
G75*
G02*
X84879999Y-122372000I249999J0D01*
G01*
G37*
%TD*%
%TO.C,R9*%
G36*
G01*
X80879999Y-124372000D02*
X81780001Y-124372000D01*
G75*
G02*
X82030000Y-124621999I0J-249999D01*
G01*
X82030000Y-125322001D01*
G75*
G02*
X81780001Y-125572000I-249999J0D01*
G01*
X80879999Y-125572000D01*
G75*
G02*
X80630000Y-125322001I0J249999D01*
G01*
X80630000Y-124621999D01*
G75*
G02*
X80879999Y-124372000I249999J0D01*
G01*
G37*
G36*
G01*
X80879999Y-122372000D02*
X81780001Y-122372000D01*
G75*
G02*
X82030000Y-122621999I0J-249999D01*
G01*
X82030000Y-123322001D01*
G75*
G02*
X81780001Y-123572000I-249999J0D01*
G01*
X80879999Y-123572000D01*
G75*
G02*
X80630000Y-123322001I0J249999D01*
G01*
X80630000Y-122621999D01*
G75*
G02*
X80879999Y-122372000I249999J0D01*
G01*
G37*
%TD*%
%TO.C,R8*%
G36*
G01*
X94879999Y-124372000D02*
X95780001Y-124372000D01*
G75*
G02*
X96030000Y-124621999I0J-249999D01*
G01*
X96030000Y-125322001D01*
G75*
G02*
X95780001Y-125572000I-249999J0D01*
G01*
X94879999Y-125572000D01*
G75*
G02*
X94630000Y-125322001I0J249999D01*
G01*
X94630000Y-124621999D01*
G75*
G02*
X94879999Y-124372000I249999J0D01*
G01*
G37*
G36*
G01*
X94879999Y-122372000D02*
X95780001Y-122372000D01*
G75*
G02*
X96030000Y-122621999I0J-249999D01*
G01*
X96030000Y-123322001D01*
G75*
G02*
X95780001Y-123572000I-249999J0D01*
G01*
X94879999Y-123572000D01*
G75*
G02*
X94630000Y-123322001I0J249999D01*
G01*
X94630000Y-122621999D01*
G75*
G02*
X94879999Y-122372000I249999J0D01*
G01*
G37*
%TD*%
%TO.C,R7*%
G36*
G01*
X90879999Y-124372000D02*
X91780001Y-124372000D01*
G75*
G02*
X92030000Y-124621999I0J-249999D01*
G01*
X92030000Y-125322001D01*
G75*
G02*
X91780001Y-125572000I-249999J0D01*
G01*
X90879999Y-125572000D01*
G75*
G02*
X90630000Y-125322001I0J249999D01*
G01*
X90630000Y-124621999D01*
G75*
G02*
X90879999Y-124372000I249999J0D01*
G01*
G37*
G36*
G01*
X90879999Y-122372000D02*
X91780001Y-122372000D01*
G75*
G02*
X92030000Y-122621999I0J-249999D01*
G01*
X92030000Y-123322001D01*
G75*
G02*
X91780001Y-123572000I-249999J0D01*
G01*
X90879999Y-123572000D01*
G75*
G02*
X90630000Y-123322001I0J249999D01*
G01*
X90630000Y-122621999D01*
G75*
G02*
X90879999Y-122372000I249999J0D01*
G01*
G37*
%TD*%
%TO.C,R6*%
G36*
G01*
X131549999Y-94400000D02*
X132450001Y-94400000D01*
G75*
G02*
X132700000Y-94649999I0J-249999D01*
G01*
X132700000Y-95350001D01*
G75*
G02*
X132450001Y-95600000I-249999J0D01*
G01*
X131549999Y-95600000D01*
G75*
G02*
X131300000Y-95350001I0J249999D01*
G01*
X131300000Y-94649999D01*
G75*
G02*
X131549999Y-94400000I249999J0D01*
G01*
G37*
G36*
G01*
X131549999Y-92400000D02*
X132450001Y-92400000D01*
G75*
G02*
X132700000Y-92649999I0J-249999D01*
G01*
X132700000Y-93350001D01*
G75*
G02*
X132450001Y-93600000I-249999J0D01*
G01*
X131549999Y-93600000D01*
G75*
G02*
X131300000Y-93350001I0J249999D01*
G01*
X131300000Y-92649999D01*
G75*
G02*
X131549999Y-92400000I249999J0D01*
G01*
G37*
%TD*%
%TO.C,R5*%
G36*
G01*
X127549999Y-94400000D02*
X128450001Y-94400000D01*
G75*
G02*
X128700000Y-94649999I0J-249999D01*
G01*
X128700000Y-95350001D01*
G75*
G02*
X128450001Y-95600000I-249999J0D01*
G01*
X127549999Y-95600000D01*
G75*
G02*
X127300000Y-95350001I0J249999D01*
G01*
X127300000Y-94649999D01*
G75*
G02*
X127549999Y-94400000I249999J0D01*
G01*
G37*
G36*
G01*
X127549999Y-92400000D02*
X128450001Y-92400000D01*
G75*
G02*
X128700000Y-92649999I0J-249999D01*
G01*
X128700000Y-93350001D01*
G75*
G02*
X128450001Y-93600000I-249999J0D01*
G01*
X127549999Y-93600000D01*
G75*
G02*
X127300000Y-93350001I0J249999D01*
G01*
X127300000Y-92649999D01*
G75*
G02*
X127549999Y-92400000I249999J0D01*
G01*
G37*
%TD*%
%TO.C,R4*%
G36*
G01*
X141549999Y-94400000D02*
X142450001Y-94400000D01*
G75*
G02*
X142700000Y-94649999I0J-249999D01*
G01*
X142700000Y-95350001D01*
G75*
G02*
X142450001Y-95600000I-249999J0D01*
G01*
X141549999Y-95600000D01*
G75*
G02*
X141300000Y-95350001I0J249999D01*
G01*
X141300000Y-94649999D01*
G75*
G02*
X141549999Y-94400000I249999J0D01*
G01*
G37*
G36*
G01*
X141549999Y-92400000D02*
X142450001Y-92400000D01*
G75*
G02*
X142700000Y-92649999I0J-249999D01*
G01*
X142700000Y-93350001D01*
G75*
G02*
X142450001Y-93600000I-249999J0D01*
G01*
X141549999Y-93600000D01*
G75*
G02*
X141300000Y-93350001I0J249999D01*
G01*
X141300000Y-92649999D01*
G75*
G02*
X141549999Y-92400000I249999J0D01*
G01*
G37*
%TD*%
%TO.C,R3*%
G36*
G01*
X137549999Y-94400000D02*
X138450001Y-94400000D01*
G75*
G02*
X138700000Y-94649999I0J-249999D01*
G01*
X138700000Y-95350001D01*
G75*
G02*
X138450001Y-95600000I-249999J0D01*
G01*
X137549999Y-95600000D01*
G75*
G02*
X137300000Y-95350001I0J249999D01*
G01*
X137300000Y-94649999D01*
G75*
G02*
X137549999Y-94400000I249999J0D01*
G01*
G37*
G36*
G01*
X137549999Y-92400000D02*
X138450001Y-92400000D01*
G75*
G02*
X138700000Y-92649999I0J-249999D01*
G01*
X138700000Y-93350001D01*
G75*
G02*
X138450001Y-93600000I-249999J0D01*
G01*
X137549999Y-93600000D01*
G75*
G02*
X137300000Y-93350001I0J249999D01*
G01*
X137300000Y-92649999D01*
G75*
G02*
X137549999Y-92400000I249999J0D01*
G01*
G37*
%TD*%
%TO.C,R2*%
G36*
G01*
X151549999Y-94400000D02*
X152450001Y-94400000D01*
G75*
G02*
X152700000Y-94649999I0J-249999D01*
G01*
X152700000Y-95350001D01*
G75*
G02*
X152450001Y-95600000I-249999J0D01*
G01*
X151549999Y-95600000D01*
G75*
G02*
X151300000Y-95350001I0J249999D01*
G01*
X151300000Y-94649999D01*
G75*
G02*
X151549999Y-94400000I249999J0D01*
G01*
G37*
G36*
G01*
X151549999Y-92400000D02*
X152450001Y-92400000D01*
G75*
G02*
X152700000Y-92649999I0J-249999D01*
G01*
X152700000Y-93350001D01*
G75*
G02*
X152450001Y-93600000I-249999J0D01*
G01*
X151549999Y-93600000D01*
G75*
G02*
X151300000Y-93350001I0J249999D01*
G01*
X151300000Y-92649999D01*
G75*
G02*
X151549999Y-92400000I249999J0D01*
G01*
G37*
%TD*%
%TO.C,R1*%
G36*
G01*
X147549999Y-94400000D02*
X148450001Y-94400000D01*
G75*
G02*
X148700000Y-94649999I0J-249999D01*
G01*
X148700000Y-95350001D01*
G75*
G02*
X148450001Y-95600000I-249999J0D01*
G01*
X147549999Y-95600000D01*
G75*
G02*
X147300000Y-95350001I0J249999D01*
G01*
X147300000Y-94649999D01*
G75*
G02*
X147549999Y-94400000I249999J0D01*
G01*
G37*
G36*
G01*
X147549999Y-92400000D02*
X148450001Y-92400000D01*
G75*
G02*
X148700000Y-92649999I0J-249999D01*
G01*
X148700000Y-93350001D01*
G75*
G02*
X148450001Y-93600000I-249999J0D01*
G01*
X147549999Y-93600000D01*
G75*
G02*
X147300000Y-93350001I0J249999D01*
G01*
X147300000Y-92649999D01*
G75*
G02*
X147549999Y-92400000I249999J0D01*
G01*
G37*
%TD*%
%TO.C,D16*%
G36*
G01*
X78425000Y-70550000D02*
X78425000Y-73450000D01*
G75*
G02*
X78175000Y-73700000I-250000J0D01*
G01*
X77375000Y-73700000D01*
G75*
G02*
X77125000Y-73450000I0J250000D01*
G01*
X77125000Y-70550000D01*
G75*
G02*
X77375000Y-70300000I250000J0D01*
G01*
X78175000Y-70300000D01*
G75*
G02*
X78425000Y-70550000I0J-250000D01*
G01*
G37*
G36*
G01*
X82875000Y-70550000D02*
X82875000Y-73450000D01*
G75*
G02*
X82625000Y-73700000I-250000J0D01*
G01*
X81825000Y-73700000D01*
G75*
G02*
X81575000Y-73450000I0J250000D01*
G01*
X81575000Y-70550000D01*
G75*
G02*
X81825000Y-70300000I250000J0D01*
G01*
X82625000Y-70300000D01*
G75*
G02*
X82875000Y-70550000I0J-250000D01*
G01*
G37*
%TD*%
%TO.C,D15*%
G36*
G01*
X78425000Y-76550000D02*
X78425000Y-79450000D01*
G75*
G02*
X78175000Y-79700000I-250000J0D01*
G01*
X77375000Y-79700000D01*
G75*
G02*
X77125000Y-79450000I0J250000D01*
G01*
X77125000Y-76550000D01*
G75*
G02*
X77375000Y-76300000I250000J0D01*
G01*
X78175000Y-76300000D01*
G75*
G02*
X78425000Y-76550000I0J-250000D01*
G01*
G37*
G36*
G01*
X82875000Y-76550000D02*
X82875000Y-79450000D01*
G75*
G02*
X82625000Y-79700000I-250000J0D01*
G01*
X81825000Y-79700000D01*
G75*
G02*
X81575000Y-79450000I0J250000D01*
G01*
X81575000Y-76550000D01*
G75*
G02*
X81825000Y-76300000I250000J0D01*
G01*
X82625000Y-76300000D01*
G75*
G02*
X82875000Y-76550000I0J-250000D01*
G01*
G37*
%TD*%
%TO.C,D14*%
G36*
G01*
X88425000Y-70550000D02*
X88425000Y-73450000D01*
G75*
G02*
X88175000Y-73700000I-250000J0D01*
G01*
X87375000Y-73700000D01*
G75*
G02*
X87125000Y-73450000I0J250000D01*
G01*
X87125000Y-70550000D01*
G75*
G02*
X87375000Y-70300000I250000J0D01*
G01*
X88175000Y-70300000D01*
G75*
G02*
X88425000Y-70550000I0J-250000D01*
G01*
G37*
G36*
G01*
X92875000Y-70550000D02*
X92875000Y-73450000D01*
G75*
G02*
X92625000Y-73700000I-250000J0D01*
G01*
X91825000Y-73700000D01*
G75*
G02*
X91575000Y-73450000I0J250000D01*
G01*
X91575000Y-70550000D01*
G75*
G02*
X91825000Y-70300000I250000J0D01*
G01*
X92625000Y-70300000D01*
G75*
G02*
X92875000Y-70550000I0J-250000D01*
G01*
G37*
%TD*%
%TO.C,D13*%
G36*
G01*
X88425000Y-76550000D02*
X88425000Y-79450000D01*
G75*
G02*
X88175000Y-79700000I-250000J0D01*
G01*
X87375000Y-79700000D01*
G75*
G02*
X87125000Y-79450000I0J250000D01*
G01*
X87125000Y-76550000D01*
G75*
G02*
X87375000Y-76300000I250000J0D01*
G01*
X88175000Y-76300000D01*
G75*
G02*
X88425000Y-76550000I0J-250000D01*
G01*
G37*
G36*
G01*
X92875000Y-76550000D02*
X92875000Y-79450000D01*
G75*
G02*
X92625000Y-79700000I-250000J0D01*
G01*
X91825000Y-79700000D01*
G75*
G02*
X91575000Y-79450000I0J250000D01*
G01*
X91575000Y-76550000D01*
G75*
G02*
X91825000Y-76300000I250000J0D01*
G01*
X92625000Y-76300000D01*
G75*
G02*
X92875000Y-76550000I0J-250000D01*
G01*
G37*
%TD*%
%TO.C,D12*%
G36*
G01*
X98425000Y-70550000D02*
X98425000Y-73450000D01*
G75*
G02*
X98175000Y-73700000I-250000J0D01*
G01*
X97375000Y-73700000D01*
G75*
G02*
X97125000Y-73450000I0J250000D01*
G01*
X97125000Y-70550000D01*
G75*
G02*
X97375000Y-70300000I250000J0D01*
G01*
X98175000Y-70300000D01*
G75*
G02*
X98425000Y-70550000I0J-250000D01*
G01*
G37*
G36*
G01*
X102875000Y-70550000D02*
X102875000Y-73450000D01*
G75*
G02*
X102625000Y-73700000I-250000J0D01*
G01*
X101825000Y-73700000D01*
G75*
G02*
X101575000Y-73450000I0J250000D01*
G01*
X101575000Y-70550000D01*
G75*
G02*
X101825000Y-70300000I250000J0D01*
G01*
X102625000Y-70300000D01*
G75*
G02*
X102875000Y-70550000I0J-250000D01*
G01*
G37*
%TD*%
%TO.C,D11*%
G36*
G01*
X98425000Y-76550000D02*
X98425000Y-79450000D01*
G75*
G02*
X98175000Y-79700000I-250000J0D01*
G01*
X97375000Y-79700000D01*
G75*
G02*
X97125000Y-79450000I0J250000D01*
G01*
X97125000Y-76550000D01*
G75*
G02*
X97375000Y-76300000I250000J0D01*
G01*
X98175000Y-76300000D01*
G75*
G02*
X98425000Y-76550000I0J-250000D01*
G01*
G37*
G36*
G01*
X102875000Y-76550000D02*
X102875000Y-79450000D01*
G75*
G02*
X102625000Y-79700000I-250000J0D01*
G01*
X101825000Y-79700000D01*
G75*
G02*
X101575000Y-79450000I0J250000D01*
G01*
X101575000Y-76550000D01*
G75*
G02*
X101825000Y-76300000I250000J0D01*
G01*
X102625000Y-76300000D01*
G75*
G02*
X102875000Y-76550000I0J-250000D01*
G01*
G37*
%TD*%
%TO.C,D10*%
G36*
G01*
X81755000Y-100522000D02*
X81755000Y-103422000D01*
G75*
G02*
X81505000Y-103672000I-250000J0D01*
G01*
X80705000Y-103672000D01*
G75*
G02*
X80455000Y-103422000I0J250000D01*
G01*
X80455000Y-100522000D01*
G75*
G02*
X80705000Y-100272000I250000J0D01*
G01*
X81505000Y-100272000D01*
G75*
G02*
X81755000Y-100522000I0J-250000D01*
G01*
G37*
G36*
G01*
X86205000Y-100522000D02*
X86205000Y-103422000D01*
G75*
G02*
X85955000Y-103672000I-250000J0D01*
G01*
X85155000Y-103672000D01*
G75*
G02*
X84905000Y-103422000I0J250000D01*
G01*
X84905000Y-100522000D01*
G75*
G02*
X85155000Y-100272000I250000J0D01*
G01*
X85955000Y-100272000D01*
G75*
G02*
X86205000Y-100522000I0J-250000D01*
G01*
G37*
%TD*%
%TO.C,D9*%
G36*
G01*
X81755000Y-106522000D02*
X81755000Y-109422000D01*
G75*
G02*
X81505000Y-109672000I-250000J0D01*
G01*
X80705000Y-109672000D01*
G75*
G02*
X80455000Y-109422000I0J250000D01*
G01*
X80455000Y-106522000D01*
G75*
G02*
X80705000Y-106272000I250000J0D01*
G01*
X81505000Y-106272000D01*
G75*
G02*
X81755000Y-106522000I0J-250000D01*
G01*
G37*
G36*
G01*
X86205000Y-106522000D02*
X86205000Y-109422000D01*
G75*
G02*
X85955000Y-109672000I-250000J0D01*
G01*
X85155000Y-109672000D01*
G75*
G02*
X84905000Y-109422000I0J250000D01*
G01*
X84905000Y-106522000D01*
G75*
G02*
X85155000Y-106272000I250000J0D01*
G01*
X85955000Y-106272000D01*
G75*
G02*
X86205000Y-106522000I0J-250000D01*
G01*
G37*
%TD*%
%TO.C,D8*%
G36*
G01*
X91755000Y-100522000D02*
X91755000Y-103422000D01*
G75*
G02*
X91505000Y-103672000I-250000J0D01*
G01*
X90705000Y-103672000D01*
G75*
G02*
X90455000Y-103422000I0J250000D01*
G01*
X90455000Y-100522000D01*
G75*
G02*
X90705000Y-100272000I250000J0D01*
G01*
X91505000Y-100272000D01*
G75*
G02*
X91755000Y-100522000I0J-250000D01*
G01*
G37*
G36*
G01*
X96205000Y-100522000D02*
X96205000Y-103422000D01*
G75*
G02*
X95955000Y-103672000I-250000J0D01*
G01*
X95155000Y-103672000D01*
G75*
G02*
X94905000Y-103422000I0J250000D01*
G01*
X94905000Y-100522000D01*
G75*
G02*
X95155000Y-100272000I250000J0D01*
G01*
X95955000Y-100272000D01*
G75*
G02*
X96205000Y-100522000I0J-250000D01*
G01*
G37*
%TD*%
%TO.C,D7*%
G36*
G01*
X91755000Y-106522000D02*
X91755000Y-109422000D01*
G75*
G02*
X91505000Y-109672000I-250000J0D01*
G01*
X90705000Y-109672000D01*
G75*
G02*
X90455000Y-109422000I0J250000D01*
G01*
X90455000Y-106522000D01*
G75*
G02*
X90705000Y-106272000I250000J0D01*
G01*
X91505000Y-106272000D01*
G75*
G02*
X91755000Y-106522000I0J-250000D01*
G01*
G37*
G36*
G01*
X96205000Y-106522000D02*
X96205000Y-109422000D01*
G75*
G02*
X95955000Y-109672000I-250000J0D01*
G01*
X95155000Y-109672000D01*
G75*
G02*
X94905000Y-109422000I0J250000D01*
G01*
X94905000Y-106522000D01*
G75*
G02*
X95155000Y-106272000I250000J0D01*
G01*
X95955000Y-106272000D01*
G75*
G02*
X96205000Y-106522000I0J-250000D01*
G01*
G37*
%TD*%
%TO.C,D6*%
G36*
G01*
X128425000Y-70550000D02*
X128425000Y-73450000D01*
G75*
G02*
X128175000Y-73700000I-250000J0D01*
G01*
X127375000Y-73700000D01*
G75*
G02*
X127125000Y-73450000I0J250000D01*
G01*
X127125000Y-70550000D01*
G75*
G02*
X127375000Y-70300000I250000J0D01*
G01*
X128175000Y-70300000D01*
G75*
G02*
X128425000Y-70550000I0J-250000D01*
G01*
G37*
G36*
G01*
X132875000Y-70550000D02*
X132875000Y-73450000D01*
G75*
G02*
X132625000Y-73700000I-250000J0D01*
G01*
X131825000Y-73700000D01*
G75*
G02*
X131575000Y-73450000I0J250000D01*
G01*
X131575000Y-70550000D01*
G75*
G02*
X131825000Y-70300000I250000J0D01*
G01*
X132625000Y-70300000D01*
G75*
G02*
X132875000Y-70550000I0J-250000D01*
G01*
G37*
%TD*%
%TO.C,D5*%
G36*
G01*
X128425000Y-76550000D02*
X128425000Y-79450000D01*
G75*
G02*
X128175000Y-79700000I-250000J0D01*
G01*
X127375000Y-79700000D01*
G75*
G02*
X127125000Y-79450000I0J250000D01*
G01*
X127125000Y-76550000D01*
G75*
G02*
X127375000Y-76300000I250000J0D01*
G01*
X128175000Y-76300000D01*
G75*
G02*
X128425000Y-76550000I0J-250000D01*
G01*
G37*
G36*
G01*
X132875000Y-76550000D02*
X132875000Y-79450000D01*
G75*
G02*
X132625000Y-79700000I-250000J0D01*
G01*
X131825000Y-79700000D01*
G75*
G02*
X131575000Y-79450000I0J250000D01*
G01*
X131575000Y-76550000D01*
G75*
G02*
X131825000Y-76300000I250000J0D01*
G01*
X132625000Y-76300000D01*
G75*
G02*
X132875000Y-76550000I0J-250000D01*
G01*
G37*
%TD*%
%TO.C,D4*%
G36*
G01*
X138425000Y-70550000D02*
X138425000Y-73450000D01*
G75*
G02*
X138175000Y-73700000I-250000J0D01*
G01*
X137375000Y-73700000D01*
G75*
G02*
X137125000Y-73450000I0J250000D01*
G01*
X137125000Y-70550000D01*
G75*
G02*
X137375000Y-70300000I250000J0D01*
G01*
X138175000Y-70300000D01*
G75*
G02*
X138425000Y-70550000I0J-250000D01*
G01*
G37*
G36*
G01*
X142875000Y-70550000D02*
X142875000Y-73450000D01*
G75*
G02*
X142625000Y-73700000I-250000J0D01*
G01*
X141825000Y-73700000D01*
G75*
G02*
X141575000Y-73450000I0J250000D01*
G01*
X141575000Y-70550000D01*
G75*
G02*
X141825000Y-70300000I250000J0D01*
G01*
X142625000Y-70300000D01*
G75*
G02*
X142875000Y-70550000I0J-250000D01*
G01*
G37*
%TD*%
%TO.C,D3*%
G36*
G01*
X138425000Y-76550000D02*
X138425000Y-79450000D01*
G75*
G02*
X138175000Y-79700000I-250000J0D01*
G01*
X137375000Y-79700000D01*
G75*
G02*
X137125000Y-79450000I0J250000D01*
G01*
X137125000Y-76550000D01*
G75*
G02*
X137375000Y-76300000I250000J0D01*
G01*
X138175000Y-76300000D01*
G75*
G02*
X138425000Y-76550000I0J-250000D01*
G01*
G37*
G36*
G01*
X142875000Y-76550000D02*
X142875000Y-79450000D01*
G75*
G02*
X142625000Y-79700000I-250000J0D01*
G01*
X141825000Y-79700000D01*
G75*
G02*
X141575000Y-79450000I0J250000D01*
G01*
X141575000Y-76550000D01*
G75*
G02*
X141825000Y-76300000I250000J0D01*
G01*
X142625000Y-76300000D01*
G75*
G02*
X142875000Y-76550000I0J-250000D01*
G01*
G37*
%TD*%
%TO.C,D2*%
G36*
G01*
X148425000Y-70550000D02*
X148425000Y-73450000D01*
G75*
G02*
X148175000Y-73700000I-250000J0D01*
G01*
X147375000Y-73700000D01*
G75*
G02*
X147125000Y-73450000I0J250000D01*
G01*
X147125000Y-70550000D01*
G75*
G02*
X147375000Y-70300000I250000J0D01*
G01*
X148175000Y-70300000D01*
G75*
G02*
X148425000Y-70550000I0J-250000D01*
G01*
G37*
G36*
G01*
X152875000Y-70550000D02*
X152875000Y-73450000D01*
G75*
G02*
X152625000Y-73700000I-250000J0D01*
G01*
X151825000Y-73700000D01*
G75*
G02*
X151575000Y-73450000I0J250000D01*
G01*
X151575000Y-70550000D01*
G75*
G02*
X151825000Y-70300000I250000J0D01*
G01*
X152625000Y-70300000D01*
G75*
G02*
X152875000Y-70550000I0J-250000D01*
G01*
G37*
%TD*%
%TO.C,D1*%
G36*
G01*
X148425000Y-76550000D02*
X148425000Y-79450000D01*
G75*
G02*
X148175000Y-79700000I-250000J0D01*
G01*
X147375000Y-79700000D01*
G75*
G02*
X147125000Y-79450000I0J250000D01*
G01*
X147125000Y-76550000D01*
G75*
G02*
X147375000Y-76300000I250000J0D01*
G01*
X148175000Y-76300000D01*
G75*
G02*
X148425000Y-76550000I0J-250000D01*
G01*
G37*
G36*
G01*
X152875000Y-76550000D02*
X152875000Y-79450000D01*
G75*
G02*
X152625000Y-79700000I-250000J0D01*
G01*
X151825000Y-79700000D01*
G75*
G02*
X151575000Y-79450000I0J250000D01*
G01*
X151575000Y-76550000D01*
G75*
G02*
X151825000Y-76300000I250000J0D01*
G01*
X152625000Y-76300000D01*
G75*
G02*
X152875000Y-76550000I0J-250000D01*
G01*
G37*
%TD*%
M02*
