G04 #@! TF.GenerationSoftware,KiCad,Pcbnew,(5.1.10-1-10_14)*
G04 #@! TF.CreationDate,2021-11-10T20:03:13-05:00*
G04 #@! TF.ProjectId,ISAAC_V2,49534141-435f-4563-922e-6b696361645f,rev?*
G04 #@! TF.SameCoordinates,Original*
G04 #@! TF.FileFunction,Soldermask,Bot*
G04 #@! TF.FilePolarity,Negative*
%FSLAX46Y46*%
G04 Gerber Fmt 4.6, Leading zero omitted, Abs format (unit mm)*
G04 Created by KiCad (PCBNEW (5.1.10-1-10_14)) date 2021-11-10 20:03:13*
%MOMM*%
%LPD*%
G01*
G04 APERTURE LIST*
%ADD10C,1.200000*%
%ADD11R,1.200000X1.200000*%
%ADD12C,3.200000*%
%ADD13C,3.000000*%
%ADD14O,2.700000X3.700000*%
%ADD15R,1.650000X1.650000*%
%ADD16C,1.650000*%
%ADD17R,3.716000X3.716000*%
%ADD18C,3.716000*%
%ADD19O,1.200000X2.400000*%
%ADD20C,1.524000*%
%ADD21O,1.700000X1.700000*%
%ADD22R,1.700000X1.700000*%
%ADD23O,1.800000X1.800000*%
%ADD24O,1.500000X1.500000*%
G04 APERTURE END LIST*
D10*
X214400000Y-95250000D03*
D11*
X215900000Y-95250000D03*
X220980000Y-95250000D03*
D10*
X222480000Y-95250000D03*
D12*
X235585000Y-76200000D03*
X235585000Y-121285000D03*
X111760000Y-76835000D03*
X111760000Y-121285000D03*
D13*
X206275000Y-80330000D03*
X193675000Y-80330000D03*
D14*
X206275000Y-93130000D03*
X202075000Y-93130000D03*
X197875000Y-93130000D03*
X193675000Y-93130000D03*
X206275000Y-87630000D03*
X202075000Y-87630000D03*
X197875000Y-87630000D03*
G36*
G01*
X192325000Y-89229999D02*
X192325000Y-86030001D01*
G75*
G02*
X192575001Y-85780000I250001J0D01*
G01*
X194774999Y-85780000D01*
G75*
G02*
X195025000Y-86030001I0J-250001D01*
G01*
X195025000Y-89229999D01*
G75*
G02*
X194774999Y-89480000I-250001J0D01*
G01*
X192575001Y-89480000D01*
G75*
G02*
X192325000Y-89229999I0J250001D01*
G01*
G37*
G36*
G01*
X168195000Y-89229999D02*
X168195000Y-86030001D01*
G75*
G02*
X168445001Y-85780000I250001J0D01*
G01*
X170644999Y-85780000D01*
G75*
G02*
X170895000Y-86030001I0J-250001D01*
G01*
X170895000Y-89229999D01*
G75*
G02*
X170644999Y-89480000I-250001J0D01*
G01*
X168445001Y-89480000D01*
G75*
G02*
X168195000Y-89229999I0J250001D01*
G01*
G37*
X173745000Y-87630000D03*
X177945000Y-87630000D03*
X182145000Y-87630000D03*
X169545000Y-93130000D03*
X173745000Y-93130000D03*
X177945000Y-93130000D03*
X182145000Y-93130000D03*
D13*
X169545000Y-80330000D03*
X182145000Y-80330000D03*
D15*
X215900000Y-77470000D03*
D16*
X220980000Y-77470000D03*
D17*
X150070000Y-89820000D03*
D18*
X157270000Y-89820000D03*
D19*
X146920000Y-83820000D03*
X160420000Y-83820000D03*
D20*
X176530000Y-120015000D03*
X176530000Y-117475000D03*
X176530000Y-114935000D03*
X176530000Y-112395000D03*
X176530000Y-109855000D03*
X176530000Y-107315000D03*
X176530000Y-104775000D03*
X176530000Y-102235000D03*
D21*
X229870000Y-102235000D03*
X227330000Y-102235000D03*
D22*
X224790000Y-102235000D03*
D21*
X222250000Y-102235000D03*
X219710000Y-102235000D03*
X217170000Y-102235000D03*
X214630000Y-102235000D03*
D22*
X212090000Y-102235000D03*
D21*
X209550000Y-102235000D03*
X207010000Y-102235000D03*
X204470000Y-102235000D03*
X201930000Y-102235000D03*
D22*
X199390000Y-102235000D03*
D21*
X196850000Y-102235000D03*
X194310000Y-102235000D03*
X191770000Y-102235000D03*
X189230000Y-102235000D03*
D22*
X186690000Y-102235000D03*
D21*
X184150000Y-102235000D03*
X181610000Y-102235000D03*
X181610000Y-120015000D03*
X184150000Y-120015000D03*
D22*
X186690000Y-120015000D03*
D21*
X189230000Y-120015000D03*
X191770000Y-120015000D03*
X194310000Y-120015000D03*
X196850000Y-120015000D03*
D22*
X199390000Y-120015000D03*
D21*
X201930000Y-120015000D03*
X204470000Y-120015000D03*
X207010000Y-120015000D03*
X209550000Y-120015000D03*
D22*
X212090000Y-120015000D03*
D21*
X214630000Y-120015000D03*
X217170000Y-120015000D03*
X219710000Y-120015000D03*
X222250000Y-120015000D03*
D22*
X224790000Y-120015000D03*
D21*
X227330000Y-120015000D03*
X229870000Y-120015000D03*
D23*
X229740000Y-108400000D03*
X229740000Y-113850000D03*
D24*
X226710000Y-108700000D03*
X226710000Y-113550000D03*
D21*
X181840000Y-108585000D03*
D22*
X181840000Y-111125000D03*
D21*
X181840000Y-113665000D03*
M02*
