G04 #@! TF.GenerationSoftware,KiCad,Pcbnew,(5.1.10-1-10_14)*
G04 #@! TF.CreationDate,2021-11-10T20:03:13-05:00*
G04 #@! TF.ProjectId,ISAAC_V2,49534141-435f-4563-922e-6b696361645f,rev?*
G04 #@! TF.SameCoordinates,Original*
G04 #@! TF.FileFunction,Paste,Top*
G04 #@! TF.FilePolarity,Positive*
%FSLAX46Y46*%
G04 Gerber Fmt 4.6, Leading zero omitted, Abs format (unit mm)*
G04 Created by KiCad (PCBNEW (5.1.10-1-10_14)) date 2021-11-10 20:03:13*
%MOMM*%
%LPD*%
G01*
G04 APERTURE LIST*
%ADD10R,0.838200X1.600200*%
%ADD11R,3.098800X1.600200*%
G04 APERTURE END LIST*
G36*
G01*
X153335000Y-103050000D02*
X153335000Y-100150000D01*
G75*
G02*
X153585000Y-99900000I250000J0D01*
G01*
X154385000Y-99900000D01*
G75*
G02*
X154635000Y-100150000I0J-250000D01*
G01*
X154635000Y-103050000D01*
G75*
G02*
X154385000Y-103300000I-250000J0D01*
G01*
X153585000Y-103300000D01*
G75*
G02*
X153335000Y-103050000I0J250000D01*
G01*
G37*
G36*
G01*
X157785000Y-103050000D02*
X157785000Y-100150000D01*
G75*
G02*
X158035000Y-99900000I250000J0D01*
G01*
X158835000Y-99900000D01*
G75*
G02*
X159085000Y-100150000I0J-250000D01*
G01*
X159085000Y-103050000D01*
G75*
G02*
X158835000Y-103300000I-250000J0D01*
G01*
X158035000Y-103300000D01*
G75*
G02*
X157785000Y-103050000I0J250000D01*
G01*
G37*
G36*
G01*
X157785000Y-118290000D02*
X157785000Y-115390000D01*
G75*
G02*
X158035000Y-115140000I250000J0D01*
G01*
X158835000Y-115140000D01*
G75*
G02*
X159085000Y-115390000I0J-250000D01*
G01*
X159085000Y-118290000D01*
G75*
G02*
X158835000Y-118540000I-250000J0D01*
G01*
X158035000Y-118540000D01*
G75*
G02*
X157785000Y-118290000I0J250000D01*
G01*
G37*
G36*
G01*
X153335000Y-118290000D02*
X153335000Y-115390000D01*
G75*
G02*
X153585000Y-115140000I250000J0D01*
G01*
X154385000Y-115140000D01*
G75*
G02*
X154635000Y-115390000I0J-250000D01*
G01*
X154635000Y-118290000D01*
G75*
G02*
X154385000Y-118540000I-250000J0D01*
G01*
X153585000Y-118540000D01*
G75*
G02*
X153335000Y-118290000I0J250000D01*
G01*
G37*
G36*
G01*
X144445000Y-103050000D02*
X144445000Y-100150000D01*
G75*
G02*
X144695000Y-99900000I250000J0D01*
G01*
X145495000Y-99900000D01*
G75*
G02*
X145745000Y-100150000I0J-250000D01*
G01*
X145745000Y-103050000D01*
G75*
G02*
X145495000Y-103300000I-250000J0D01*
G01*
X144695000Y-103300000D01*
G75*
G02*
X144445000Y-103050000I0J250000D01*
G01*
G37*
G36*
G01*
X148895000Y-103050000D02*
X148895000Y-100150000D01*
G75*
G02*
X149145000Y-99900000I250000J0D01*
G01*
X149945000Y-99900000D01*
G75*
G02*
X150195000Y-100150000I0J-250000D01*
G01*
X150195000Y-103050000D01*
G75*
G02*
X149945000Y-103300000I-250000J0D01*
G01*
X149145000Y-103300000D01*
G75*
G02*
X148895000Y-103050000I0J250000D01*
G01*
G37*
G36*
G01*
X148895000Y-118290000D02*
X148895000Y-115390000D01*
G75*
G02*
X149145000Y-115140000I250000J0D01*
G01*
X149945000Y-115140000D01*
G75*
G02*
X150195000Y-115390000I0J-250000D01*
G01*
X150195000Y-118290000D01*
G75*
G02*
X149945000Y-118540000I-250000J0D01*
G01*
X149145000Y-118540000D01*
G75*
G02*
X148895000Y-118290000I0J250000D01*
G01*
G37*
G36*
G01*
X144445000Y-118290000D02*
X144445000Y-115390000D01*
G75*
G02*
X144695000Y-115140000I250000J0D01*
G01*
X145495000Y-115140000D01*
G75*
G02*
X145745000Y-115390000I0J-250000D01*
G01*
X145745000Y-118290000D01*
G75*
G02*
X145495000Y-118540000I-250000J0D01*
G01*
X144695000Y-118540000D01*
G75*
G02*
X144445000Y-118290000I0J250000D01*
G01*
G37*
G36*
G01*
X135870000Y-103050000D02*
X135870000Y-100150000D01*
G75*
G02*
X136120000Y-99900000I250000J0D01*
G01*
X136920000Y-99900000D01*
G75*
G02*
X137170000Y-100150000I0J-250000D01*
G01*
X137170000Y-103050000D01*
G75*
G02*
X136920000Y-103300000I-250000J0D01*
G01*
X136120000Y-103300000D01*
G75*
G02*
X135870000Y-103050000I0J250000D01*
G01*
G37*
G36*
G01*
X140320000Y-103050000D02*
X140320000Y-100150000D01*
G75*
G02*
X140570000Y-99900000I250000J0D01*
G01*
X141370000Y-99900000D01*
G75*
G02*
X141620000Y-100150000I0J-250000D01*
G01*
X141620000Y-103050000D01*
G75*
G02*
X141370000Y-103300000I-250000J0D01*
G01*
X140570000Y-103300000D01*
G75*
G02*
X140320000Y-103050000I0J250000D01*
G01*
G37*
G36*
G01*
X140005000Y-118290000D02*
X140005000Y-115390000D01*
G75*
G02*
X140255000Y-115140000I250000J0D01*
G01*
X141055000Y-115140000D01*
G75*
G02*
X141305000Y-115390000I0J-250000D01*
G01*
X141305000Y-118290000D01*
G75*
G02*
X141055000Y-118540000I-250000J0D01*
G01*
X140255000Y-118540000D01*
G75*
G02*
X140005000Y-118290000I0J250000D01*
G01*
G37*
G36*
G01*
X135555000Y-118290000D02*
X135555000Y-115390000D01*
G75*
G02*
X135805000Y-115140000I250000J0D01*
G01*
X136605000Y-115140000D01*
G75*
G02*
X136855000Y-115390000I0J-250000D01*
G01*
X136855000Y-118290000D01*
G75*
G02*
X136605000Y-118540000I-250000J0D01*
G01*
X135805000Y-118540000D01*
G75*
G02*
X135555000Y-118290000I0J250000D01*
G01*
G37*
G36*
G01*
X126980000Y-103050000D02*
X126980000Y-100150000D01*
G75*
G02*
X127230000Y-99900000I250000J0D01*
G01*
X128030000Y-99900000D01*
G75*
G02*
X128280000Y-100150000I0J-250000D01*
G01*
X128280000Y-103050000D01*
G75*
G02*
X128030000Y-103300000I-250000J0D01*
G01*
X127230000Y-103300000D01*
G75*
G02*
X126980000Y-103050000I0J250000D01*
G01*
G37*
G36*
G01*
X131430000Y-103050000D02*
X131430000Y-100150000D01*
G75*
G02*
X131680000Y-99900000I250000J0D01*
G01*
X132480000Y-99900000D01*
G75*
G02*
X132730000Y-100150000I0J-250000D01*
G01*
X132730000Y-103050000D01*
G75*
G02*
X132480000Y-103300000I-250000J0D01*
G01*
X131680000Y-103300000D01*
G75*
G02*
X131430000Y-103050000I0J250000D01*
G01*
G37*
G36*
G01*
X131115000Y-118290000D02*
X131115000Y-115390000D01*
G75*
G02*
X131365000Y-115140000I250000J0D01*
G01*
X132165000Y-115140000D01*
G75*
G02*
X132415000Y-115390000I0J-250000D01*
G01*
X132415000Y-118290000D01*
G75*
G02*
X132165000Y-118540000I-250000J0D01*
G01*
X131365000Y-118540000D01*
G75*
G02*
X131115000Y-118290000I0J250000D01*
G01*
G37*
G36*
G01*
X126665000Y-118290000D02*
X126665000Y-115390000D01*
G75*
G02*
X126915000Y-115140000I250000J0D01*
G01*
X127715000Y-115140000D01*
G75*
G02*
X127965000Y-115390000I0J-250000D01*
G01*
X127965000Y-118290000D01*
G75*
G02*
X127715000Y-118540000I-250000J0D01*
G01*
X126915000Y-118540000D01*
G75*
G02*
X126665000Y-118290000I0J250000D01*
G01*
G37*
G36*
G01*
X116505000Y-103050000D02*
X116505000Y-100150000D01*
G75*
G02*
X116755000Y-99900000I250000J0D01*
G01*
X117555000Y-99900000D01*
G75*
G02*
X117805000Y-100150000I0J-250000D01*
G01*
X117805000Y-103050000D01*
G75*
G02*
X117555000Y-103300000I-250000J0D01*
G01*
X116755000Y-103300000D01*
G75*
G02*
X116505000Y-103050000I0J250000D01*
G01*
G37*
G36*
G01*
X120955000Y-103050000D02*
X120955000Y-100150000D01*
G75*
G02*
X121205000Y-99900000I250000J0D01*
G01*
X122005000Y-99900000D01*
G75*
G02*
X122255000Y-100150000I0J-250000D01*
G01*
X122255000Y-103050000D01*
G75*
G02*
X122005000Y-103300000I-250000J0D01*
G01*
X121205000Y-103300000D01*
G75*
G02*
X120955000Y-103050000I0J250000D01*
G01*
G37*
G36*
G01*
X120955000Y-118290000D02*
X120955000Y-115390000D01*
G75*
G02*
X121205000Y-115140000I250000J0D01*
G01*
X122005000Y-115140000D01*
G75*
G02*
X122255000Y-115390000I0J-250000D01*
G01*
X122255000Y-118290000D01*
G75*
G02*
X122005000Y-118540000I-250000J0D01*
G01*
X121205000Y-118540000D01*
G75*
G02*
X120955000Y-118290000I0J250000D01*
G01*
G37*
G36*
G01*
X116505000Y-118290000D02*
X116505000Y-115390000D01*
G75*
G02*
X116755000Y-115140000I250000J0D01*
G01*
X117555000Y-115140000D01*
G75*
G02*
X117805000Y-115390000I0J-250000D01*
G01*
X117805000Y-118290000D01*
G75*
G02*
X117555000Y-118540000I-250000J0D01*
G01*
X116755000Y-118540000D01*
G75*
G02*
X116505000Y-118290000I0J250000D01*
G01*
G37*
G36*
G01*
X134285000Y-77650000D02*
X134285000Y-74750000D01*
G75*
G02*
X134535000Y-74500000I250000J0D01*
G01*
X135335000Y-74500000D01*
G75*
G02*
X135585000Y-74750000I0J-250000D01*
G01*
X135585000Y-77650000D01*
G75*
G02*
X135335000Y-77900000I-250000J0D01*
G01*
X134535000Y-77900000D01*
G75*
G02*
X134285000Y-77650000I0J250000D01*
G01*
G37*
G36*
G01*
X138735000Y-77650000D02*
X138735000Y-74750000D01*
G75*
G02*
X138985000Y-74500000I250000J0D01*
G01*
X139785000Y-74500000D01*
G75*
G02*
X140035000Y-74750000I0J-250000D01*
G01*
X140035000Y-77650000D01*
G75*
G02*
X139785000Y-77900000I-250000J0D01*
G01*
X138985000Y-77900000D01*
G75*
G02*
X138735000Y-77650000I0J250000D01*
G01*
G37*
G36*
G01*
X138735000Y-92890000D02*
X138735000Y-89990000D01*
G75*
G02*
X138985000Y-89740000I250000J0D01*
G01*
X139785000Y-89740000D01*
G75*
G02*
X140035000Y-89990000I0J-250000D01*
G01*
X140035000Y-92890000D01*
G75*
G02*
X139785000Y-93140000I-250000J0D01*
G01*
X138985000Y-93140000D01*
G75*
G02*
X138735000Y-92890000I0J250000D01*
G01*
G37*
G36*
G01*
X134285000Y-92890000D02*
X134285000Y-89990000D01*
G75*
G02*
X134535000Y-89740000I250000J0D01*
G01*
X135335000Y-89740000D01*
G75*
G02*
X135585000Y-89990000I0J-250000D01*
G01*
X135585000Y-92890000D01*
G75*
G02*
X135335000Y-93140000I-250000J0D01*
G01*
X134535000Y-93140000D01*
G75*
G02*
X134285000Y-92890000I0J250000D01*
G01*
G37*
G36*
G01*
X125395000Y-77650000D02*
X125395000Y-74750000D01*
G75*
G02*
X125645000Y-74500000I250000J0D01*
G01*
X126445000Y-74500000D01*
G75*
G02*
X126695000Y-74750000I0J-250000D01*
G01*
X126695000Y-77650000D01*
G75*
G02*
X126445000Y-77900000I-250000J0D01*
G01*
X125645000Y-77900000D01*
G75*
G02*
X125395000Y-77650000I0J250000D01*
G01*
G37*
G36*
G01*
X129845000Y-77650000D02*
X129845000Y-74750000D01*
G75*
G02*
X130095000Y-74500000I250000J0D01*
G01*
X130895000Y-74500000D01*
G75*
G02*
X131145000Y-74750000I0J-250000D01*
G01*
X131145000Y-77650000D01*
G75*
G02*
X130895000Y-77900000I-250000J0D01*
G01*
X130095000Y-77900000D01*
G75*
G02*
X129845000Y-77650000I0J250000D01*
G01*
G37*
G36*
G01*
X129845000Y-92890000D02*
X129845000Y-89990000D01*
G75*
G02*
X130095000Y-89740000I250000J0D01*
G01*
X130895000Y-89740000D01*
G75*
G02*
X131145000Y-89990000I0J-250000D01*
G01*
X131145000Y-92890000D01*
G75*
G02*
X130895000Y-93140000I-250000J0D01*
G01*
X130095000Y-93140000D01*
G75*
G02*
X129845000Y-92890000I0J250000D01*
G01*
G37*
G36*
G01*
X125395000Y-92890000D02*
X125395000Y-89990000D01*
G75*
G02*
X125645000Y-89740000I250000J0D01*
G01*
X126445000Y-89740000D01*
G75*
G02*
X126695000Y-89990000I0J-250000D01*
G01*
X126695000Y-92890000D01*
G75*
G02*
X126445000Y-93140000I-250000J0D01*
G01*
X125645000Y-93140000D01*
G75*
G02*
X125395000Y-92890000I0J250000D01*
G01*
G37*
G36*
G01*
X116505000Y-77650000D02*
X116505000Y-74750000D01*
G75*
G02*
X116755000Y-74500000I250000J0D01*
G01*
X117555000Y-74500000D01*
G75*
G02*
X117805000Y-74750000I0J-250000D01*
G01*
X117805000Y-77650000D01*
G75*
G02*
X117555000Y-77900000I-250000J0D01*
G01*
X116755000Y-77900000D01*
G75*
G02*
X116505000Y-77650000I0J250000D01*
G01*
G37*
G36*
G01*
X120955000Y-77650000D02*
X120955000Y-74750000D01*
G75*
G02*
X121205000Y-74500000I250000J0D01*
G01*
X122005000Y-74500000D01*
G75*
G02*
X122255000Y-74750000I0J-250000D01*
G01*
X122255000Y-77650000D01*
G75*
G02*
X122005000Y-77900000I-250000J0D01*
G01*
X121205000Y-77900000D01*
G75*
G02*
X120955000Y-77650000I0J250000D01*
G01*
G37*
G36*
G01*
X121270000Y-92890000D02*
X121270000Y-89990000D01*
G75*
G02*
X121520000Y-89740000I250000J0D01*
G01*
X122320000Y-89740000D01*
G75*
G02*
X122570000Y-89990000I0J-250000D01*
G01*
X122570000Y-92890000D01*
G75*
G02*
X122320000Y-93140000I-250000J0D01*
G01*
X121520000Y-93140000D01*
G75*
G02*
X121270000Y-92890000I0J250000D01*
G01*
G37*
G36*
G01*
X116820000Y-92890000D02*
X116820000Y-89990000D01*
G75*
G02*
X117070000Y-89740000I250000J0D01*
G01*
X117870000Y-89740000D01*
G75*
G02*
X118120000Y-89990000I0J-250000D01*
G01*
X118120000Y-92890000D01*
G75*
G02*
X117870000Y-93140000I-250000J0D01*
G01*
X117070000Y-93140000D01*
G75*
G02*
X116820000Y-92890000I0J250000D01*
G01*
G37*
G36*
G01*
X159200001Y-123250000D02*
X158299999Y-123250000D01*
G75*
G02*
X158050000Y-123000001I0J249999D01*
G01*
X158050000Y-122299999D01*
G75*
G02*
X158299999Y-122050000I249999J0D01*
G01*
X159200001Y-122050000D01*
G75*
G02*
X159450000Y-122299999I0J-249999D01*
G01*
X159450000Y-123000001D01*
G75*
G02*
X159200001Y-123250000I-249999J0D01*
G01*
G37*
G36*
G01*
X159200001Y-121250000D02*
X158299999Y-121250000D01*
G75*
G02*
X158050000Y-121000001I0J249999D01*
G01*
X158050000Y-120299999D01*
G75*
G02*
X158299999Y-120050000I249999J0D01*
G01*
X159200001Y-120050000D01*
G75*
G02*
X159450000Y-120299999I0J-249999D01*
G01*
X159450000Y-121000001D01*
G75*
G02*
X159200001Y-121250000I-249999J0D01*
G01*
G37*
G36*
G01*
X154120001Y-123250000D02*
X153219999Y-123250000D01*
G75*
G02*
X152970000Y-123000001I0J249999D01*
G01*
X152970000Y-122299999D01*
G75*
G02*
X153219999Y-122050000I249999J0D01*
G01*
X154120001Y-122050000D01*
G75*
G02*
X154370000Y-122299999I0J-249999D01*
G01*
X154370000Y-123000001D01*
G75*
G02*
X154120001Y-123250000I-249999J0D01*
G01*
G37*
G36*
G01*
X154120001Y-121250000D02*
X153219999Y-121250000D01*
G75*
G02*
X152970000Y-121000001I0J249999D01*
G01*
X152970000Y-120299999D01*
G75*
G02*
X153219999Y-120050000I249999J0D01*
G01*
X154120001Y-120050000D01*
G75*
G02*
X154370000Y-120299999I0J-249999D01*
G01*
X154370000Y-121000001D01*
G75*
G02*
X154120001Y-121250000I-249999J0D01*
G01*
G37*
G36*
G01*
X150310001Y-121250000D02*
X149409999Y-121250000D01*
G75*
G02*
X149160000Y-121000001I0J249999D01*
G01*
X149160000Y-120299999D01*
G75*
G02*
X149409999Y-120050000I249999J0D01*
G01*
X150310001Y-120050000D01*
G75*
G02*
X150560000Y-120299999I0J-249999D01*
G01*
X150560000Y-121000001D01*
G75*
G02*
X150310001Y-121250000I-249999J0D01*
G01*
G37*
G36*
G01*
X150310001Y-123250000D02*
X149409999Y-123250000D01*
G75*
G02*
X149160000Y-123000001I0J249999D01*
G01*
X149160000Y-122299999D01*
G75*
G02*
X149409999Y-122050000I249999J0D01*
G01*
X150310001Y-122050000D01*
G75*
G02*
X150560000Y-122299999I0J-249999D01*
G01*
X150560000Y-123000001D01*
G75*
G02*
X150310001Y-123250000I-249999J0D01*
G01*
G37*
G36*
G01*
X145230001Y-121250000D02*
X144329999Y-121250000D01*
G75*
G02*
X144080000Y-121000001I0J249999D01*
G01*
X144080000Y-120299999D01*
G75*
G02*
X144329999Y-120050000I249999J0D01*
G01*
X145230001Y-120050000D01*
G75*
G02*
X145480000Y-120299999I0J-249999D01*
G01*
X145480000Y-121000001D01*
G75*
G02*
X145230001Y-121250000I-249999J0D01*
G01*
G37*
G36*
G01*
X145230001Y-123250000D02*
X144329999Y-123250000D01*
G75*
G02*
X144080000Y-123000001I0J249999D01*
G01*
X144080000Y-122299999D01*
G75*
G02*
X144329999Y-122050000I249999J0D01*
G01*
X145230001Y-122050000D01*
G75*
G02*
X145480000Y-122299999I0J-249999D01*
G01*
X145480000Y-123000001D01*
G75*
G02*
X145230001Y-123250000I-249999J0D01*
G01*
G37*
G36*
G01*
X141420001Y-123250000D02*
X140519999Y-123250000D01*
G75*
G02*
X140270000Y-123000001I0J249999D01*
G01*
X140270000Y-122299999D01*
G75*
G02*
X140519999Y-122050000I249999J0D01*
G01*
X141420001Y-122050000D01*
G75*
G02*
X141670000Y-122299999I0J-249999D01*
G01*
X141670000Y-123000001D01*
G75*
G02*
X141420001Y-123250000I-249999J0D01*
G01*
G37*
G36*
G01*
X141420001Y-121250000D02*
X140519999Y-121250000D01*
G75*
G02*
X140270000Y-121000001I0J249999D01*
G01*
X140270000Y-120299999D01*
G75*
G02*
X140519999Y-120050000I249999J0D01*
G01*
X141420001Y-120050000D01*
G75*
G02*
X141670000Y-120299999I0J-249999D01*
G01*
X141670000Y-121000001D01*
G75*
G02*
X141420001Y-121250000I-249999J0D01*
G01*
G37*
G36*
G01*
X136340001Y-123250000D02*
X135439999Y-123250000D01*
G75*
G02*
X135190000Y-123000001I0J249999D01*
G01*
X135190000Y-122299999D01*
G75*
G02*
X135439999Y-122050000I249999J0D01*
G01*
X136340001Y-122050000D01*
G75*
G02*
X136590000Y-122299999I0J-249999D01*
G01*
X136590000Y-123000001D01*
G75*
G02*
X136340001Y-123250000I-249999J0D01*
G01*
G37*
G36*
G01*
X136340001Y-121250000D02*
X135439999Y-121250000D01*
G75*
G02*
X135190000Y-121000001I0J249999D01*
G01*
X135190000Y-120299999D01*
G75*
G02*
X135439999Y-120050000I249999J0D01*
G01*
X136340001Y-120050000D01*
G75*
G02*
X136590000Y-120299999I0J-249999D01*
G01*
X136590000Y-121000001D01*
G75*
G02*
X136340001Y-121250000I-249999J0D01*
G01*
G37*
G36*
G01*
X132530001Y-121250000D02*
X131629999Y-121250000D01*
G75*
G02*
X131380000Y-121000001I0J249999D01*
G01*
X131380000Y-120299999D01*
G75*
G02*
X131629999Y-120050000I249999J0D01*
G01*
X132530001Y-120050000D01*
G75*
G02*
X132780000Y-120299999I0J-249999D01*
G01*
X132780000Y-121000001D01*
G75*
G02*
X132530001Y-121250000I-249999J0D01*
G01*
G37*
G36*
G01*
X132530001Y-123250000D02*
X131629999Y-123250000D01*
G75*
G02*
X131380000Y-123000001I0J249999D01*
G01*
X131380000Y-122299999D01*
G75*
G02*
X131629999Y-122050000I249999J0D01*
G01*
X132530001Y-122050000D01*
G75*
G02*
X132780000Y-122299999I0J-249999D01*
G01*
X132780000Y-123000001D01*
G75*
G02*
X132530001Y-123250000I-249999J0D01*
G01*
G37*
G36*
G01*
X127450001Y-123250000D02*
X126549999Y-123250000D01*
G75*
G02*
X126300000Y-123000001I0J249999D01*
G01*
X126300000Y-122299999D01*
G75*
G02*
X126549999Y-122050000I249999J0D01*
G01*
X127450001Y-122050000D01*
G75*
G02*
X127700000Y-122299999I0J-249999D01*
G01*
X127700000Y-123000001D01*
G75*
G02*
X127450001Y-123250000I-249999J0D01*
G01*
G37*
G36*
G01*
X127450001Y-121250000D02*
X126549999Y-121250000D01*
G75*
G02*
X126300000Y-121000001I0J249999D01*
G01*
X126300000Y-120299999D01*
G75*
G02*
X126549999Y-120050000I249999J0D01*
G01*
X127450001Y-120050000D01*
G75*
G02*
X127700000Y-120299999I0J-249999D01*
G01*
X127700000Y-121000001D01*
G75*
G02*
X127450001Y-121250000I-249999J0D01*
G01*
G37*
G36*
G01*
X122370001Y-121250000D02*
X121469999Y-121250000D01*
G75*
G02*
X121220000Y-121000001I0J249999D01*
G01*
X121220000Y-120299999D01*
G75*
G02*
X121469999Y-120050000I249999J0D01*
G01*
X122370001Y-120050000D01*
G75*
G02*
X122620000Y-120299999I0J-249999D01*
G01*
X122620000Y-121000001D01*
G75*
G02*
X122370001Y-121250000I-249999J0D01*
G01*
G37*
G36*
G01*
X122370001Y-123250000D02*
X121469999Y-123250000D01*
G75*
G02*
X121220000Y-123000001I0J249999D01*
G01*
X121220000Y-122299999D01*
G75*
G02*
X121469999Y-122050000I249999J0D01*
G01*
X122370001Y-122050000D01*
G75*
G02*
X122620000Y-122299999I0J-249999D01*
G01*
X122620000Y-123000001D01*
G75*
G02*
X122370001Y-123250000I-249999J0D01*
G01*
G37*
G36*
G01*
X117290001Y-121250000D02*
X116389999Y-121250000D01*
G75*
G02*
X116140000Y-121000001I0J249999D01*
G01*
X116140000Y-120299999D01*
G75*
G02*
X116389999Y-120050000I249999J0D01*
G01*
X117290001Y-120050000D01*
G75*
G02*
X117540000Y-120299999I0J-249999D01*
G01*
X117540000Y-121000001D01*
G75*
G02*
X117290001Y-121250000I-249999J0D01*
G01*
G37*
G36*
G01*
X117290001Y-123250000D02*
X116389999Y-123250000D01*
G75*
G02*
X116140000Y-123000001I0J249999D01*
G01*
X116140000Y-122299999D01*
G75*
G02*
X116389999Y-122050000I249999J0D01*
G01*
X117290001Y-122050000D01*
G75*
G02*
X117540000Y-122299999I0J-249999D01*
G01*
X117540000Y-123000001D01*
G75*
G02*
X117290001Y-123250000I-249999J0D01*
G01*
G37*
G36*
G01*
X140150001Y-97850000D02*
X139249999Y-97850000D01*
G75*
G02*
X139000000Y-97600001I0J249999D01*
G01*
X139000000Y-96899999D01*
G75*
G02*
X139249999Y-96650000I249999J0D01*
G01*
X140150001Y-96650000D01*
G75*
G02*
X140400000Y-96899999I0J-249999D01*
G01*
X140400000Y-97600001D01*
G75*
G02*
X140150001Y-97850000I-249999J0D01*
G01*
G37*
G36*
G01*
X140150001Y-95850000D02*
X139249999Y-95850000D01*
G75*
G02*
X139000000Y-95600001I0J249999D01*
G01*
X139000000Y-94899999D01*
G75*
G02*
X139249999Y-94650000I249999J0D01*
G01*
X140150001Y-94650000D01*
G75*
G02*
X140400000Y-94899999I0J-249999D01*
G01*
X140400000Y-95600001D01*
G75*
G02*
X140150001Y-95850000I-249999J0D01*
G01*
G37*
G36*
G01*
X135070001Y-95850000D02*
X134169999Y-95850000D01*
G75*
G02*
X133920000Y-95600001I0J249999D01*
G01*
X133920000Y-94899999D01*
G75*
G02*
X134169999Y-94650000I249999J0D01*
G01*
X135070001Y-94650000D01*
G75*
G02*
X135320000Y-94899999I0J-249999D01*
G01*
X135320000Y-95600001D01*
G75*
G02*
X135070001Y-95850000I-249999J0D01*
G01*
G37*
G36*
G01*
X135070001Y-97850000D02*
X134169999Y-97850000D01*
G75*
G02*
X133920000Y-97600001I0J249999D01*
G01*
X133920000Y-96899999D01*
G75*
G02*
X134169999Y-96650000I249999J0D01*
G01*
X135070001Y-96650000D01*
G75*
G02*
X135320000Y-96899999I0J-249999D01*
G01*
X135320000Y-97600001D01*
G75*
G02*
X135070001Y-97850000I-249999J0D01*
G01*
G37*
G36*
G01*
X131260001Y-95850000D02*
X130359999Y-95850000D01*
G75*
G02*
X130110000Y-95600001I0J249999D01*
G01*
X130110000Y-94899999D01*
G75*
G02*
X130359999Y-94650000I249999J0D01*
G01*
X131260001Y-94650000D01*
G75*
G02*
X131510000Y-94899999I0J-249999D01*
G01*
X131510000Y-95600001D01*
G75*
G02*
X131260001Y-95850000I-249999J0D01*
G01*
G37*
G36*
G01*
X131260001Y-97850000D02*
X130359999Y-97850000D01*
G75*
G02*
X130110000Y-97600001I0J249999D01*
G01*
X130110000Y-96899999D01*
G75*
G02*
X130359999Y-96650000I249999J0D01*
G01*
X131260001Y-96650000D01*
G75*
G02*
X131510000Y-96899999I0J-249999D01*
G01*
X131510000Y-97600001D01*
G75*
G02*
X131260001Y-97850000I-249999J0D01*
G01*
G37*
G36*
G01*
X126180001Y-97755000D02*
X125279999Y-97755000D01*
G75*
G02*
X125030000Y-97505001I0J249999D01*
G01*
X125030000Y-96804999D01*
G75*
G02*
X125279999Y-96555000I249999J0D01*
G01*
X126180001Y-96555000D01*
G75*
G02*
X126430000Y-96804999I0J-249999D01*
G01*
X126430000Y-97505001D01*
G75*
G02*
X126180001Y-97755000I-249999J0D01*
G01*
G37*
G36*
G01*
X126180001Y-95755000D02*
X125279999Y-95755000D01*
G75*
G02*
X125030000Y-95505001I0J249999D01*
G01*
X125030000Y-94804999D01*
G75*
G02*
X125279999Y-94555000I249999J0D01*
G01*
X126180001Y-94555000D01*
G75*
G02*
X126430000Y-94804999I0J-249999D01*
G01*
X126430000Y-95505001D01*
G75*
G02*
X126180001Y-95755000I-249999J0D01*
G01*
G37*
G36*
G01*
X122370001Y-97850000D02*
X121469999Y-97850000D01*
G75*
G02*
X121220000Y-97600001I0J249999D01*
G01*
X121220000Y-96899999D01*
G75*
G02*
X121469999Y-96650000I249999J0D01*
G01*
X122370001Y-96650000D01*
G75*
G02*
X122620000Y-96899999I0J-249999D01*
G01*
X122620000Y-97600001D01*
G75*
G02*
X122370001Y-97850000I-249999J0D01*
G01*
G37*
G36*
G01*
X122370001Y-95850000D02*
X121469999Y-95850000D01*
G75*
G02*
X121220000Y-95600001I0J249999D01*
G01*
X121220000Y-94899999D01*
G75*
G02*
X121469999Y-94650000I249999J0D01*
G01*
X122370001Y-94650000D01*
G75*
G02*
X122620000Y-94899999I0J-249999D01*
G01*
X122620000Y-95600001D01*
G75*
G02*
X122370001Y-95850000I-249999J0D01*
G01*
G37*
G36*
G01*
X117925001Y-95755000D02*
X117024999Y-95755000D01*
G75*
G02*
X116775000Y-95505001I0J249999D01*
G01*
X116775000Y-94804999D01*
G75*
G02*
X117024999Y-94555000I249999J0D01*
G01*
X117925001Y-94555000D01*
G75*
G02*
X118175000Y-94804999I0J-249999D01*
G01*
X118175000Y-95505001D01*
G75*
G02*
X117925001Y-95755000I-249999J0D01*
G01*
G37*
G36*
G01*
X117925001Y-97755000D02*
X117024999Y-97755000D01*
G75*
G02*
X116775000Y-97505001I0J249999D01*
G01*
X116775000Y-96804999D01*
G75*
G02*
X117024999Y-96555000I249999J0D01*
G01*
X117925001Y-96555000D01*
G75*
G02*
X118175000Y-96804999I0J-249999D01*
G01*
X118175000Y-97505001D01*
G75*
G02*
X117925001Y-97755000I-249999J0D01*
G01*
G37*
G36*
G01*
X154558700Y-112635000D02*
X154051300Y-112635000D01*
G75*
G02*
X154010000Y-112593700I0J41300D01*
G01*
X154010000Y-111096300D01*
G75*
G02*
X154051300Y-111055000I41300J0D01*
G01*
X154558700Y-111055000D01*
G75*
G02*
X154600000Y-111096300I0J-41300D01*
G01*
X154600000Y-112593700D01*
G75*
G02*
X154558700Y-112635000I-41300J0D01*
G01*
G37*
G36*
G01*
X155828700Y-112635000D02*
X155321300Y-112635000D01*
G75*
G02*
X155280000Y-112593700I0J41300D01*
G01*
X155280000Y-111096300D01*
G75*
G02*
X155321300Y-111055000I41300J0D01*
G01*
X155828700Y-111055000D01*
G75*
G02*
X155870000Y-111096300I0J-41300D01*
G01*
X155870000Y-112593700D01*
G75*
G02*
X155828700Y-112635000I-41300J0D01*
G01*
G37*
G36*
G01*
X157098700Y-112635000D02*
X156591300Y-112635000D01*
G75*
G02*
X156550000Y-112593700I0J41300D01*
G01*
X156550000Y-111096300D01*
G75*
G02*
X156591300Y-111055000I41300J0D01*
G01*
X157098700Y-111055000D01*
G75*
G02*
X157140000Y-111096300I0J-41300D01*
G01*
X157140000Y-112593700D01*
G75*
G02*
X157098700Y-112635000I-41300J0D01*
G01*
G37*
G36*
G01*
X158368700Y-112635000D02*
X157861300Y-112635000D01*
G75*
G02*
X157820000Y-112593700I0J41300D01*
G01*
X157820000Y-111096300D01*
G75*
G02*
X157861300Y-111055000I41300J0D01*
G01*
X158368700Y-111055000D01*
G75*
G02*
X158410000Y-111096300I0J-41300D01*
G01*
X158410000Y-112593700D01*
G75*
G02*
X158368700Y-112635000I-41300J0D01*
G01*
G37*
G36*
G01*
X158368700Y-107385000D02*
X157861300Y-107385000D01*
G75*
G02*
X157820000Y-107343700I0J41300D01*
G01*
X157820000Y-105846300D01*
G75*
G02*
X157861300Y-105805000I41300J0D01*
G01*
X158368700Y-105805000D01*
G75*
G02*
X158410000Y-105846300I0J-41300D01*
G01*
X158410000Y-107343700D01*
G75*
G02*
X158368700Y-107385000I-41300J0D01*
G01*
G37*
G36*
G01*
X157098700Y-107385000D02*
X156591300Y-107385000D01*
G75*
G02*
X156550000Y-107343700I0J41300D01*
G01*
X156550000Y-105846300D01*
G75*
G02*
X156591300Y-105805000I41300J0D01*
G01*
X157098700Y-105805000D01*
G75*
G02*
X157140000Y-105846300I0J-41300D01*
G01*
X157140000Y-107343700D01*
G75*
G02*
X157098700Y-107385000I-41300J0D01*
G01*
G37*
G36*
G01*
X155828700Y-107385000D02*
X155321300Y-107385000D01*
G75*
G02*
X155280000Y-107343700I0J41300D01*
G01*
X155280000Y-105846300D01*
G75*
G02*
X155321300Y-105805000I41300J0D01*
G01*
X155828700Y-105805000D01*
G75*
G02*
X155870000Y-105846300I0J-41300D01*
G01*
X155870000Y-107343700D01*
G75*
G02*
X155828700Y-107385000I-41300J0D01*
G01*
G37*
G36*
G01*
X154558700Y-107385000D02*
X154051300Y-107385000D01*
G75*
G02*
X154010000Y-107343700I0J41300D01*
G01*
X154010000Y-105846300D01*
G75*
G02*
X154051300Y-105805000I41300J0D01*
G01*
X154558700Y-105805000D01*
G75*
G02*
X154600000Y-105846300I0J-41300D01*
G01*
X154600000Y-107343700D01*
G75*
G02*
X154558700Y-107385000I-41300J0D01*
G01*
G37*
G36*
G01*
X145668700Y-112635000D02*
X145161300Y-112635000D01*
G75*
G02*
X145120000Y-112593700I0J41300D01*
G01*
X145120000Y-111096300D01*
G75*
G02*
X145161300Y-111055000I41300J0D01*
G01*
X145668700Y-111055000D01*
G75*
G02*
X145710000Y-111096300I0J-41300D01*
G01*
X145710000Y-112593700D01*
G75*
G02*
X145668700Y-112635000I-41300J0D01*
G01*
G37*
G36*
G01*
X146938700Y-112635000D02*
X146431300Y-112635000D01*
G75*
G02*
X146390000Y-112593700I0J41300D01*
G01*
X146390000Y-111096300D01*
G75*
G02*
X146431300Y-111055000I41300J0D01*
G01*
X146938700Y-111055000D01*
G75*
G02*
X146980000Y-111096300I0J-41300D01*
G01*
X146980000Y-112593700D01*
G75*
G02*
X146938700Y-112635000I-41300J0D01*
G01*
G37*
G36*
G01*
X148208700Y-112635000D02*
X147701300Y-112635000D01*
G75*
G02*
X147660000Y-112593700I0J41300D01*
G01*
X147660000Y-111096300D01*
G75*
G02*
X147701300Y-111055000I41300J0D01*
G01*
X148208700Y-111055000D01*
G75*
G02*
X148250000Y-111096300I0J-41300D01*
G01*
X148250000Y-112593700D01*
G75*
G02*
X148208700Y-112635000I-41300J0D01*
G01*
G37*
G36*
G01*
X149478700Y-112635000D02*
X148971300Y-112635000D01*
G75*
G02*
X148930000Y-112593700I0J41300D01*
G01*
X148930000Y-111096300D01*
G75*
G02*
X148971300Y-111055000I41300J0D01*
G01*
X149478700Y-111055000D01*
G75*
G02*
X149520000Y-111096300I0J-41300D01*
G01*
X149520000Y-112593700D01*
G75*
G02*
X149478700Y-112635000I-41300J0D01*
G01*
G37*
G36*
G01*
X149478700Y-107385000D02*
X148971300Y-107385000D01*
G75*
G02*
X148930000Y-107343700I0J41300D01*
G01*
X148930000Y-105846300D01*
G75*
G02*
X148971300Y-105805000I41300J0D01*
G01*
X149478700Y-105805000D01*
G75*
G02*
X149520000Y-105846300I0J-41300D01*
G01*
X149520000Y-107343700D01*
G75*
G02*
X149478700Y-107385000I-41300J0D01*
G01*
G37*
G36*
G01*
X148208700Y-107385000D02*
X147701300Y-107385000D01*
G75*
G02*
X147660000Y-107343700I0J41300D01*
G01*
X147660000Y-105846300D01*
G75*
G02*
X147701300Y-105805000I41300J0D01*
G01*
X148208700Y-105805000D01*
G75*
G02*
X148250000Y-105846300I0J-41300D01*
G01*
X148250000Y-107343700D01*
G75*
G02*
X148208700Y-107385000I-41300J0D01*
G01*
G37*
G36*
G01*
X146938700Y-107385000D02*
X146431300Y-107385000D01*
G75*
G02*
X146390000Y-107343700I0J41300D01*
G01*
X146390000Y-105846300D01*
G75*
G02*
X146431300Y-105805000I41300J0D01*
G01*
X146938700Y-105805000D01*
G75*
G02*
X146980000Y-105846300I0J-41300D01*
G01*
X146980000Y-107343700D01*
G75*
G02*
X146938700Y-107385000I-41300J0D01*
G01*
G37*
G36*
G01*
X145668700Y-107385000D02*
X145161300Y-107385000D01*
G75*
G02*
X145120000Y-107343700I0J41300D01*
G01*
X145120000Y-105846300D01*
G75*
G02*
X145161300Y-105805000I41300J0D01*
G01*
X145668700Y-105805000D01*
G75*
G02*
X145710000Y-105846300I0J-41300D01*
G01*
X145710000Y-107343700D01*
G75*
G02*
X145668700Y-107385000I-41300J0D01*
G01*
G37*
G36*
G01*
X136778700Y-107385000D02*
X136271300Y-107385000D01*
G75*
G02*
X136230000Y-107343700I0J41300D01*
G01*
X136230000Y-105846300D01*
G75*
G02*
X136271300Y-105805000I41300J0D01*
G01*
X136778700Y-105805000D01*
G75*
G02*
X136820000Y-105846300I0J-41300D01*
G01*
X136820000Y-107343700D01*
G75*
G02*
X136778700Y-107385000I-41300J0D01*
G01*
G37*
G36*
G01*
X138048700Y-107385000D02*
X137541300Y-107385000D01*
G75*
G02*
X137500000Y-107343700I0J41300D01*
G01*
X137500000Y-105846300D01*
G75*
G02*
X137541300Y-105805000I41300J0D01*
G01*
X138048700Y-105805000D01*
G75*
G02*
X138090000Y-105846300I0J-41300D01*
G01*
X138090000Y-107343700D01*
G75*
G02*
X138048700Y-107385000I-41300J0D01*
G01*
G37*
G36*
G01*
X139318700Y-107385000D02*
X138811300Y-107385000D01*
G75*
G02*
X138770000Y-107343700I0J41300D01*
G01*
X138770000Y-105846300D01*
G75*
G02*
X138811300Y-105805000I41300J0D01*
G01*
X139318700Y-105805000D01*
G75*
G02*
X139360000Y-105846300I0J-41300D01*
G01*
X139360000Y-107343700D01*
G75*
G02*
X139318700Y-107385000I-41300J0D01*
G01*
G37*
G36*
G01*
X140588700Y-107385000D02*
X140081300Y-107385000D01*
G75*
G02*
X140040000Y-107343700I0J41300D01*
G01*
X140040000Y-105846300D01*
G75*
G02*
X140081300Y-105805000I41300J0D01*
G01*
X140588700Y-105805000D01*
G75*
G02*
X140630000Y-105846300I0J-41300D01*
G01*
X140630000Y-107343700D01*
G75*
G02*
X140588700Y-107385000I-41300J0D01*
G01*
G37*
G36*
G01*
X140588700Y-112635000D02*
X140081300Y-112635000D01*
G75*
G02*
X140040000Y-112593700I0J41300D01*
G01*
X140040000Y-111096300D01*
G75*
G02*
X140081300Y-111055000I41300J0D01*
G01*
X140588700Y-111055000D01*
G75*
G02*
X140630000Y-111096300I0J-41300D01*
G01*
X140630000Y-112593700D01*
G75*
G02*
X140588700Y-112635000I-41300J0D01*
G01*
G37*
G36*
G01*
X139318700Y-112635000D02*
X138811300Y-112635000D01*
G75*
G02*
X138770000Y-112593700I0J41300D01*
G01*
X138770000Y-111096300D01*
G75*
G02*
X138811300Y-111055000I41300J0D01*
G01*
X139318700Y-111055000D01*
G75*
G02*
X139360000Y-111096300I0J-41300D01*
G01*
X139360000Y-112593700D01*
G75*
G02*
X139318700Y-112635000I-41300J0D01*
G01*
G37*
G36*
G01*
X138048700Y-112635000D02*
X137541300Y-112635000D01*
G75*
G02*
X137500000Y-112593700I0J41300D01*
G01*
X137500000Y-111096300D01*
G75*
G02*
X137541300Y-111055000I41300J0D01*
G01*
X138048700Y-111055000D01*
G75*
G02*
X138090000Y-111096300I0J-41300D01*
G01*
X138090000Y-112593700D01*
G75*
G02*
X138048700Y-112635000I-41300J0D01*
G01*
G37*
G36*
G01*
X136778700Y-112635000D02*
X136271300Y-112635000D01*
G75*
G02*
X136230000Y-112593700I0J41300D01*
G01*
X136230000Y-111096300D01*
G75*
G02*
X136271300Y-111055000I41300J0D01*
G01*
X136778700Y-111055000D01*
G75*
G02*
X136820000Y-111096300I0J-41300D01*
G01*
X136820000Y-112593700D01*
G75*
G02*
X136778700Y-112635000I-41300J0D01*
G01*
G37*
G36*
G01*
X127888700Y-107385000D02*
X127381300Y-107385000D01*
G75*
G02*
X127340000Y-107343700I0J41300D01*
G01*
X127340000Y-105846300D01*
G75*
G02*
X127381300Y-105805000I41300J0D01*
G01*
X127888700Y-105805000D01*
G75*
G02*
X127930000Y-105846300I0J-41300D01*
G01*
X127930000Y-107343700D01*
G75*
G02*
X127888700Y-107385000I-41300J0D01*
G01*
G37*
G36*
G01*
X129158700Y-107385000D02*
X128651300Y-107385000D01*
G75*
G02*
X128610000Y-107343700I0J41300D01*
G01*
X128610000Y-105846300D01*
G75*
G02*
X128651300Y-105805000I41300J0D01*
G01*
X129158700Y-105805000D01*
G75*
G02*
X129200000Y-105846300I0J-41300D01*
G01*
X129200000Y-107343700D01*
G75*
G02*
X129158700Y-107385000I-41300J0D01*
G01*
G37*
G36*
G01*
X130428700Y-107385000D02*
X129921300Y-107385000D01*
G75*
G02*
X129880000Y-107343700I0J41300D01*
G01*
X129880000Y-105846300D01*
G75*
G02*
X129921300Y-105805000I41300J0D01*
G01*
X130428700Y-105805000D01*
G75*
G02*
X130470000Y-105846300I0J-41300D01*
G01*
X130470000Y-107343700D01*
G75*
G02*
X130428700Y-107385000I-41300J0D01*
G01*
G37*
G36*
G01*
X131698700Y-107385000D02*
X131191300Y-107385000D01*
G75*
G02*
X131150000Y-107343700I0J41300D01*
G01*
X131150000Y-105846300D01*
G75*
G02*
X131191300Y-105805000I41300J0D01*
G01*
X131698700Y-105805000D01*
G75*
G02*
X131740000Y-105846300I0J-41300D01*
G01*
X131740000Y-107343700D01*
G75*
G02*
X131698700Y-107385000I-41300J0D01*
G01*
G37*
G36*
G01*
X131698700Y-112635000D02*
X131191300Y-112635000D01*
G75*
G02*
X131150000Y-112593700I0J41300D01*
G01*
X131150000Y-111096300D01*
G75*
G02*
X131191300Y-111055000I41300J0D01*
G01*
X131698700Y-111055000D01*
G75*
G02*
X131740000Y-111096300I0J-41300D01*
G01*
X131740000Y-112593700D01*
G75*
G02*
X131698700Y-112635000I-41300J0D01*
G01*
G37*
G36*
G01*
X130428700Y-112635000D02*
X129921300Y-112635000D01*
G75*
G02*
X129880000Y-112593700I0J41300D01*
G01*
X129880000Y-111096300D01*
G75*
G02*
X129921300Y-111055000I41300J0D01*
G01*
X130428700Y-111055000D01*
G75*
G02*
X130470000Y-111096300I0J-41300D01*
G01*
X130470000Y-112593700D01*
G75*
G02*
X130428700Y-112635000I-41300J0D01*
G01*
G37*
G36*
G01*
X129158700Y-112635000D02*
X128651300Y-112635000D01*
G75*
G02*
X128610000Y-112593700I0J41300D01*
G01*
X128610000Y-111096300D01*
G75*
G02*
X128651300Y-111055000I41300J0D01*
G01*
X129158700Y-111055000D01*
G75*
G02*
X129200000Y-111096300I0J-41300D01*
G01*
X129200000Y-112593700D01*
G75*
G02*
X129158700Y-112635000I-41300J0D01*
G01*
G37*
G36*
G01*
X127888700Y-112635000D02*
X127381300Y-112635000D01*
G75*
G02*
X127340000Y-112593700I0J41300D01*
G01*
X127340000Y-111096300D01*
G75*
G02*
X127381300Y-111055000I41300J0D01*
G01*
X127888700Y-111055000D01*
G75*
G02*
X127930000Y-111096300I0J-41300D01*
G01*
X127930000Y-112593700D01*
G75*
G02*
X127888700Y-112635000I-41300J0D01*
G01*
G37*
G36*
G01*
X117728700Y-112635000D02*
X117221300Y-112635000D01*
G75*
G02*
X117180000Y-112593700I0J41300D01*
G01*
X117180000Y-111096300D01*
G75*
G02*
X117221300Y-111055000I41300J0D01*
G01*
X117728700Y-111055000D01*
G75*
G02*
X117770000Y-111096300I0J-41300D01*
G01*
X117770000Y-112593700D01*
G75*
G02*
X117728700Y-112635000I-41300J0D01*
G01*
G37*
G36*
G01*
X118998700Y-112635000D02*
X118491300Y-112635000D01*
G75*
G02*
X118450000Y-112593700I0J41300D01*
G01*
X118450000Y-111096300D01*
G75*
G02*
X118491300Y-111055000I41300J0D01*
G01*
X118998700Y-111055000D01*
G75*
G02*
X119040000Y-111096300I0J-41300D01*
G01*
X119040000Y-112593700D01*
G75*
G02*
X118998700Y-112635000I-41300J0D01*
G01*
G37*
G36*
G01*
X120268700Y-112635000D02*
X119761300Y-112635000D01*
G75*
G02*
X119720000Y-112593700I0J41300D01*
G01*
X119720000Y-111096300D01*
G75*
G02*
X119761300Y-111055000I41300J0D01*
G01*
X120268700Y-111055000D01*
G75*
G02*
X120310000Y-111096300I0J-41300D01*
G01*
X120310000Y-112593700D01*
G75*
G02*
X120268700Y-112635000I-41300J0D01*
G01*
G37*
G36*
G01*
X121538700Y-112635000D02*
X121031300Y-112635000D01*
G75*
G02*
X120990000Y-112593700I0J41300D01*
G01*
X120990000Y-111096300D01*
G75*
G02*
X121031300Y-111055000I41300J0D01*
G01*
X121538700Y-111055000D01*
G75*
G02*
X121580000Y-111096300I0J-41300D01*
G01*
X121580000Y-112593700D01*
G75*
G02*
X121538700Y-112635000I-41300J0D01*
G01*
G37*
G36*
G01*
X121538700Y-107385000D02*
X121031300Y-107385000D01*
G75*
G02*
X120990000Y-107343700I0J41300D01*
G01*
X120990000Y-105846300D01*
G75*
G02*
X121031300Y-105805000I41300J0D01*
G01*
X121538700Y-105805000D01*
G75*
G02*
X121580000Y-105846300I0J-41300D01*
G01*
X121580000Y-107343700D01*
G75*
G02*
X121538700Y-107385000I-41300J0D01*
G01*
G37*
G36*
G01*
X120268700Y-107385000D02*
X119761300Y-107385000D01*
G75*
G02*
X119720000Y-107343700I0J41300D01*
G01*
X119720000Y-105846300D01*
G75*
G02*
X119761300Y-105805000I41300J0D01*
G01*
X120268700Y-105805000D01*
G75*
G02*
X120310000Y-105846300I0J-41300D01*
G01*
X120310000Y-107343700D01*
G75*
G02*
X120268700Y-107385000I-41300J0D01*
G01*
G37*
G36*
G01*
X118998700Y-107385000D02*
X118491300Y-107385000D01*
G75*
G02*
X118450000Y-107343700I0J41300D01*
G01*
X118450000Y-105846300D01*
G75*
G02*
X118491300Y-105805000I41300J0D01*
G01*
X118998700Y-105805000D01*
G75*
G02*
X119040000Y-105846300I0J-41300D01*
G01*
X119040000Y-107343700D01*
G75*
G02*
X118998700Y-107385000I-41300J0D01*
G01*
G37*
G36*
G01*
X117728700Y-107385000D02*
X117221300Y-107385000D01*
G75*
G02*
X117180000Y-107343700I0J41300D01*
G01*
X117180000Y-105846300D01*
G75*
G02*
X117221300Y-105805000I41300J0D01*
G01*
X117728700Y-105805000D01*
G75*
G02*
X117770000Y-105846300I0J-41300D01*
G01*
X117770000Y-107343700D01*
G75*
G02*
X117728700Y-107385000I-41300J0D01*
G01*
G37*
G36*
G01*
X135508700Y-81985000D02*
X135001300Y-81985000D01*
G75*
G02*
X134960000Y-81943700I0J41300D01*
G01*
X134960000Y-80446300D01*
G75*
G02*
X135001300Y-80405000I41300J0D01*
G01*
X135508700Y-80405000D01*
G75*
G02*
X135550000Y-80446300I0J-41300D01*
G01*
X135550000Y-81943700D01*
G75*
G02*
X135508700Y-81985000I-41300J0D01*
G01*
G37*
G36*
G01*
X136778700Y-81985000D02*
X136271300Y-81985000D01*
G75*
G02*
X136230000Y-81943700I0J41300D01*
G01*
X136230000Y-80446300D01*
G75*
G02*
X136271300Y-80405000I41300J0D01*
G01*
X136778700Y-80405000D01*
G75*
G02*
X136820000Y-80446300I0J-41300D01*
G01*
X136820000Y-81943700D01*
G75*
G02*
X136778700Y-81985000I-41300J0D01*
G01*
G37*
G36*
G01*
X138048700Y-81985000D02*
X137541300Y-81985000D01*
G75*
G02*
X137500000Y-81943700I0J41300D01*
G01*
X137500000Y-80446300D01*
G75*
G02*
X137541300Y-80405000I41300J0D01*
G01*
X138048700Y-80405000D01*
G75*
G02*
X138090000Y-80446300I0J-41300D01*
G01*
X138090000Y-81943700D01*
G75*
G02*
X138048700Y-81985000I-41300J0D01*
G01*
G37*
G36*
G01*
X139318700Y-81985000D02*
X138811300Y-81985000D01*
G75*
G02*
X138770000Y-81943700I0J41300D01*
G01*
X138770000Y-80446300D01*
G75*
G02*
X138811300Y-80405000I41300J0D01*
G01*
X139318700Y-80405000D01*
G75*
G02*
X139360000Y-80446300I0J-41300D01*
G01*
X139360000Y-81943700D01*
G75*
G02*
X139318700Y-81985000I-41300J0D01*
G01*
G37*
G36*
G01*
X139318700Y-87235000D02*
X138811300Y-87235000D01*
G75*
G02*
X138770000Y-87193700I0J41300D01*
G01*
X138770000Y-85696300D01*
G75*
G02*
X138811300Y-85655000I41300J0D01*
G01*
X139318700Y-85655000D01*
G75*
G02*
X139360000Y-85696300I0J-41300D01*
G01*
X139360000Y-87193700D01*
G75*
G02*
X139318700Y-87235000I-41300J0D01*
G01*
G37*
G36*
G01*
X138048700Y-87235000D02*
X137541300Y-87235000D01*
G75*
G02*
X137500000Y-87193700I0J41300D01*
G01*
X137500000Y-85696300D01*
G75*
G02*
X137541300Y-85655000I41300J0D01*
G01*
X138048700Y-85655000D01*
G75*
G02*
X138090000Y-85696300I0J-41300D01*
G01*
X138090000Y-87193700D01*
G75*
G02*
X138048700Y-87235000I-41300J0D01*
G01*
G37*
G36*
G01*
X136778700Y-87235000D02*
X136271300Y-87235000D01*
G75*
G02*
X136230000Y-87193700I0J41300D01*
G01*
X136230000Y-85696300D01*
G75*
G02*
X136271300Y-85655000I41300J0D01*
G01*
X136778700Y-85655000D01*
G75*
G02*
X136820000Y-85696300I0J-41300D01*
G01*
X136820000Y-87193700D01*
G75*
G02*
X136778700Y-87235000I-41300J0D01*
G01*
G37*
G36*
G01*
X135508700Y-87235000D02*
X135001300Y-87235000D01*
G75*
G02*
X134960000Y-87193700I0J41300D01*
G01*
X134960000Y-85696300D01*
G75*
G02*
X135001300Y-85655000I41300J0D01*
G01*
X135508700Y-85655000D01*
G75*
G02*
X135550000Y-85696300I0J-41300D01*
G01*
X135550000Y-87193700D01*
G75*
G02*
X135508700Y-87235000I-41300J0D01*
G01*
G37*
G36*
G01*
X126618700Y-87235000D02*
X126111300Y-87235000D01*
G75*
G02*
X126070000Y-87193700I0J41300D01*
G01*
X126070000Y-85696300D01*
G75*
G02*
X126111300Y-85655000I41300J0D01*
G01*
X126618700Y-85655000D01*
G75*
G02*
X126660000Y-85696300I0J-41300D01*
G01*
X126660000Y-87193700D01*
G75*
G02*
X126618700Y-87235000I-41300J0D01*
G01*
G37*
G36*
G01*
X127888700Y-87235000D02*
X127381300Y-87235000D01*
G75*
G02*
X127340000Y-87193700I0J41300D01*
G01*
X127340000Y-85696300D01*
G75*
G02*
X127381300Y-85655000I41300J0D01*
G01*
X127888700Y-85655000D01*
G75*
G02*
X127930000Y-85696300I0J-41300D01*
G01*
X127930000Y-87193700D01*
G75*
G02*
X127888700Y-87235000I-41300J0D01*
G01*
G37*
G36*
G01*
X129158700Y-87235000D02*
X128651300Y-87235000D01*
G75*
G02*
X128610000Y-87193700I0J41300D01*
G01*
X128610000Y-85696300D01*
G75*
G02*
X128651300Y-85655000I41300J0D01*
G01*
X129158700Y-85655000D01*
G75*
G02*
X129200000Y-85696300I0J-41300D01*
G01*
X129200000Y-87193700D01*
G75*
G02*
X129158700Y-87235000I-41300J0D01*
G01*
G37*
G36*
G01*
X130428700Y-87235000D02*
X129921300Y-87235000D01*
G75*
G02*
X129880000Y-87193700I0J41300D01*
G01*
X129880000Y-85696300D01*
G75*
G02*
X129921300Y-85655000I41300J0D01*
G01*
X130428700Y-85655000D01*
G75*
G02*
X130470000Y-85696300I0J-41300D01*
G01*
X130470000Y-87193700D01*
G75*
G02*
X130428700Y-87235000I-41300J0D01*
G01*
G37*
G36*
G01*
X130428700Y-81985000D02*
X129921300Y-81985000D01*
G75*
G02*
X129880000Y-81943700I0J41300D01*
G01*
X129880000Y-80446300D01*
G75*
G02*
X129921300Y-80405000I41300J0D01*
G01*
X130428700Y-80405000D01*
G75*
G02*
X130470000Y-80446300I0J-41300D01*
G01*
X130470000Y-81943700D01*
G75*
G02*
X130428700Y-81985000I-41300J0D01*
G01*
G37*
G36*
G01*
X129158700Y-81985000D02*
X128651300Y-81985000D01*
G75*
G02*
X128610000Y-81943700I0J41300D01*
G01*
X128610000Y-80446300D01*
G75*
G02*
X128651300Y-80405000I41300J0D01*
G01*
X129158700Y-80405000D01*
G75*
G02*
X129200000Y-80446300I0J-41300D01*
G01*
X129200000Y-81943700D01*
G75*
G02*
X129158700Y-81985000I-41300J0D01*
G01*
G37*
G36*
G01*
X127888700Y-81985000D02*
X127381300Y-81985000D01*
G75*
G02*
X127340000Y-81943700I0J41300D01*
G01*
X127340000Y-80446300D01*
G75*
G02*
X127381300Y-80405000I41300J0D01*
G01*
X127888700Y-80405000D01*
G75*
G02*
X127930000Y-80446300I0J-41300D01*
G01*
X127930000Y-81943700D01*
G75*
G02*
X127888700Y-81985000I-41300J0D01*
G01*
G37*
G36*
G01*
X126618700Y-81985000D02*
X126111300Y-81985000D01*
G75*
G02*
X126070000Y-81943700I0J41300D01*
G01*
X126070000Y-80446300D01*
G75*
G02*
X126111300Y-80405000I41300J0D01*
G01*
X126618700Y-80405000D01*
G75*
G02*
X126660000Y-80446300I0J-41300D01*
G01*
X126660000Y-81943700D01*
G75*
G02*
X126618700Y-81985000I-41300J0D01*
G01*
G37*
G36*
G01*
X117728700Y-81985000D02*
X117221300Y-81985000D01*
G75*
G02*
X117180000Y-81943700I0J41300D01*
G01*
X117180000Y-80446300D01*
G75*
G02*
X117221300Y-80405000I41300J0D01*
G01*
X117728700Y-80405000D01*
G75*
G02*
X117770000Y-80446300I0J-41300D01*
G01*
X117770000Y-81943700D01*
G75*
G02*
X117728700Y-81985000I-41300J0D01*
G01*
G37*
G36*
G01*
X118998700Y-81985000D02*
X118491300Y-81985000D01*
G75*
G02*
X118450000Y-81943700I0J41300D01*
G01*
X118450000Y-80446300D01*
G75*
G02*
X118491300Y-80405000I41300J0D01*
G01*
X118998700Y-80405000D01*
G75*
G02*
X119040000Y-80446300I0J-41300D01*
G01*
X119040000Y-81943700D01*
G75*
G02*
X118998700Y-81985000I-41300J0D01*
G01*
G37*
G36*
G01*
X120268700Y-81985000D02*
X119761300Y-81985000D01*
G75*
G02*
X119720000Y-81943700I0J41300D01*
G01*
X119720000Y-80446300D01*
G75*
G02*
X119761300Y-80405000I41300J0D01*
G01*
X120268700Y-80405000D01*
G75*
G02*
X120310000Y-80446300I0J-41300D01*
G01*
X120310000Y-81943700D01*
G75*
G02*
X120268700Y-81985000I-41300J0D01*
G01*
G37*
G36*
G01*
X121538700Y-81985000D02*
X121031300Y-81985000D01*
G75*
G02*
X120990000Y-81943700I0J41300D01*
G01*
X120990000Y-80446300D01*
G75*
G02*
X121031300Y-80405000I41300J0D01*
G01*
X121538700Y-80405000D01*
G75*
G02*
X121580000Y-80446300I0J-41300D01*
G01*
X121580000Y-81943700D01*
G75*
G02*
X121538700Y-81985000I-41300J0D01*
G01*
G37*
G36*
G01*
X121538700Y-87235000D02*
X121031300Y-87235000D01*
G75*
G02*
X120990000Y-87193700I0J41300D01*
G01*
X120990000Y-85696300D01*
G75*
G02*
X121031300Y-85655000I41300J0D01*
G01*
X121538700Y-85655000D01*
G75*
G02*
X121580000Y-85696300I0J-41300D01*
G01*
X121580000Y-87193700D01*
G75*
G02*
X121538700Y-87235000I-41300J0D01*
G01*
G37*
G36*
G01*
X120268700Y-87235000D02*
X119761300Y-87235000D01*
G75*
G02*
X119720000Y-87193700I0J41300D01*
G01*
X119720000Y-85696300D01*
G75*
G02*
X119761300Y-85655000I41300J0D01*
G01*
X120268700Y-85655000D01*
G75*
G02*
X120310000Y-85696300I0J-41300D01*
G01*
X120310000Y-87193700D01*
G75*
G02*
X120268700Y-87235000I-41300J0D01*
G01*
G37*
G36*
G01*
X118998700Y-87235000D02*
X118491300Y-87235000D01*
G75*
G02*
X118450000Y-87193700I0J41300D01*
G01*
X118450000Y-85696300D01*
G75*
G02*
X118491300Y-85655000I41300J0D01*
G01*
X118998700Y-85655000D01*
G75*
G02*
X119040000Y-85696300I0J-41300D01*
G01*
X119040000Y-87193700D01*
G75*
G02*
X118998700Y-87235000I-41300J0D01*
G01*
G37*
G36*
G01*
X117728700Y-87235000D02*
X117221300Y-87235000D01*
G75*
G02*
X117180000Y-87193700I0J41300D01*
G01*
X117180000Y-85696300D01*
G75*
G02*
X117221300Y-85655000I41300J0D01*
G01*
X117728700Y-85655000D01*
G75*
G02*
X117770000Y-85696300I0J-41300D01*
G01*
X117770000Y-87193700D01*
G75*
G02*
X117728700Y-87235000I-41300J0D01*
G01*
G37*
D10*
X216128600Y-90830400D03*
X218440000Y-90830400D03*
X220751400Y-90830400D03*
D11*
X218440000Y-84429600D03*
M02*
