G04 #@! TF.GenerationSoftware,KiCad,Pcbnew,(5.1.10-1-10_14)*
G04 #@! TF.CreationDate,2021-11-10T20:03:13-05:00*
G04 #@! TF.ProjectId,ISAAC_V2,49534141-435f-4563-922e-6b696361645f,rev?*
G04 #@! TF.SameCoordinates,Original*
G04 #@! TF.FileFunction,Legend,Top*
G04 #@! TF.FilePolarity,Positive*
%FSLAX46Y46*%
G04 Gerber Fmt 4.6, Leading zero omitted, Abs format (unit mm)*
G04 Created by KiCad (PCBNEW (5.1.10-1-10_14)) date 2021-11-10 20:03:13*
%MOMM*%
%LPD*%
G01*
G04 APERTURE LIST*
%ADD10C,0.150000*%
%ADD11C,0.300000*%
%ADD12C,0.750000*%
%ADD13C,0.400000*%
%ADD14C,0.120000*%
%ADD15C,0.127000*%
%ADD16C,0.200000*%
%ADD17C,0.152400*%
G04 APERTURE END LIST*
D10*
X206057523Y-98496380D02*
X205486095Y-98496380D01*
X205771809Y-98496380D02*
X205771809Y-97496380D01*
X205676571Y-97639238D01*
X205581333Y-97734476D01*
X205486095Y-97782095D01*
X206914666Y-97496380D02*
X206724190Y-97496380D01*
X206628952Y-97544000D01*
X206581333Y-97591619D01*
X206486095Y-97734476D01*
X206438476Y-97924952D01*
X206438476Y-98305904D01*
X206486095Y-98401142D01*
X206533714Y-98448761D01*
X206628952Y-98496380D01*
X206819428Y-98496380D01*
X206914666Y-98448761D01*
X206962285Y-98401142D01*
X207009904Y-98305904D01*
X207009904Y-98067809D01*
X206962285Y-97972571D01*
X206914666Y-97924952D01*
X206819428Y-97877333D01*
X206628952Y-97877333D01*
X206533714Y-97924952D01*
X206486095Y-97972571D01*
X206438476Y-98067809D01*
X201993523Y-98496380D02*
X201422095Y-98496380D01*
X201707809Y-98496380D02*
X201707809Y-97496380D01*
X201612571Y-97639238D01*
X201517333Y-97734476D01*
X201422095Y-97782095D01*
X202898285Y-97496380D02*
X202422095Y-97496380D01*
X202374476Y-97972571D01*
X202422095Y-97924952D01*
X202517333Y-97877333D01*
X202755428Y-97877333D01*
X202850666Y-97924952D01*
X202898285Y-97972571D01*
X202945904Y-98067809D01*
X202945904Y-98305904D01*
X202898285Y-98401142D01*
X202850666Y-98448761D01*
X202755428Y-98496380D01*
X202517333Y-98496380D01*
X202422095Y-98448761D01*
X202374476Y-98401142D01*
X197421523Y-98496380D02*
X196850095Y-98496380D01*
X197135809Y-98496380D02*
X197135809Y-97496380D01*
X197040571Y-97639238D01*
X196945333Y-97734476D01*
X196850095Y-97782095D01*
X198278666Y-97829714D02*
X198278666Y-98496380D01*
X198040571Y-97448761D02*
X197802476Y-98163047D01*
X198421523Y-98163047D01*
X193357523Y-98496380D02*
X192786095Y-98496380D01*
X193071809Y-98496380D02*
X193071809Y-97496380D01*
X192976571Y-97639238D01*
X192881333Y-97734476D01*
X192786095Y-97782095D01*
X193690857Y-97496380D02*
X194309904Y-97496380D01*
X193976571Y-97877333D01*
X194119428Y-97877333D01*
X194214666Y-97924952D01*
X194262285Y-97972571D01*
X194309904Y-98067809D01*
X194309904Y-98305904D01*
X194262285Y-98401142D01*
X194214666Y-98448761D01*
X194119428Y-98496380D01*
X193833714Y-98496380D01*
X193738476Y-98448761D01*
X193690857Y-98401142D01*
D11*
X215138095Y-82946857D02*
X216661904Y-82946857D01*
X220218095Y-82946857D02*
X221741904Y-82946857D01*
X220980000Y-83708761D02*
X220980000Y-82184952D01*
D10*
X206057523Y-96464380D02*
X205486095Y-96464380D01*
X205771809Y-96464380D02*
X205771809Y-95464380D01*
X205676571Y-95607238D01*
X205581333Y-95702476D01*
X205486095Y-95750095D01*
X206438476Y-95559619D02*
X206486095Y-95512000D01*
X206581333Y-95464380D01*
X206819428Y-95464380D01*
X206914666Y-95512000D01*
X206962285Y-95559619D01*
X207009904Y-95654857D01*
X207009904Y-95750095D01*
X206962285Y-95892952D01*
X206390857Y-96464380D01*
X207009904Y-96464380D01*
X201993523Y-96464380D02*
X201422095Y-96464380D01*
X201707809Y-96464380D02*
X201707809Y-95464380D01*
X201612571Y-95607238D01*
X201517333Y-95702476D01*
X201422095Y-95750095D01*
X202945904Y-96464380D02*
X202374476Y-96464380D01*
X202660190Y-96464380D02*
X202660190Y-95464380D01*
X202564952Y-95607238D01*
X202469714Y-95702476D01*
X202374476Y-95750095D01*
X197421523Y-96464380D02*
X196850095Y-96464380D01*
X197135809Y-96464380D02*
X197135809Y-95464380D01*
X197040571Y-95607238D01*
X196945333Y-95702476D01*
X196850095Y-95750095D01*
X198040571Y-95464380D02*
X198135809Y-95464380D01*
X198231047Y-95512000D01*
X198278666Y-95559619D01*
X198326285Y-95654857D01*
X198373904Y-95845333D01*
X198373904Y-96083428D01*
X198326285Y-96273904D01*
X198278666Y-96369142D01*
X198231047Y-96416761D01*
X198135809Y-96464380D01*
X198040571Y-96464380D01*
X197945333Y-96416761D01*
X197897714Y-96369142D01*
X197850095Y-96273904D01*
X197802476Y-96083428D01*
X197802476Y-95845333D01*
X197850095Y-95654857D01*
X197897714Y-95559619D01*
X197945333Y-95512000D01*
X198040571Y-95464380D01*
X193357523Y-96464380D02*
X193548000Y-96464380D01*
X193643238Y-96416761D01*
X193690857Y-96369142D01*
X193786095Y-96226285D01*
X193833714Y-96035809D01*
X193833714Y-95654857D01*
X193786095Y-95559619D01*
X193738476Y-95512000D01*
X193643238Y-95464380D01*
X193452761Y-95464380D01*
X193357523Y-95512000D01*
X193309904Y-95559619D01*
X193262285Y-95654857D01*
X193262285Y-95892952D01*
X193309904Y-95988190D01*
X193357523Y-96035809D01*
X193452761Y-96083428D01*
X193643238Y-96083428D01*
X193738476Y-96035809D01*
X193786095Y-95988190D01*
X193833714Y-95892952D01*
X182276761Y-97924952D02*
X182181523Y-97877333D01*
X182133904Y-97829714D01*
X182086285Y-97734476D01*
X182086285Y-97686857D01*
X182133904Y-97591619D01*
X182181523Y-97544000D01*
X182276761Y-97496380D01*
X182467238Y-97496380D01*
X182562476Y-97544000D01*
X182610095Y-97591619D01*
X182657714Y-97686857D01*
X182657714Y-97734476D01*
X182610095Y-97829714D01*
X182562476Y-97877333D01*
X182467238Y-97924952D01*
X182276761Y-97924952D01*
X182181523Y-97972571D01*
X182133904Y-98020190D01*
X182086285Y-98115428D01*
X182086285Y-98305904D01*
X182133904Y-98401142D01*
X182181523Y-98448761D01*
X182276761Y-98496380D01*
X182467238Y-98496380D01*
X182562476Y-98448761D01*
X182610095Y-98401142D01*
X182657714Y-98305904D01*
X182657714Y-98115428D01*
X182610095Y-98020190D01*
X182562476Y-97972571D01*
X182467238Y-97924952D01*
X177466666Y-97496380D02*
X178133333Y-97496380D01*
X177704761Y-98496380D01*
X173926476Y-97496380D02*
X173736000Y-97496380D01*
X173640761Y-97544000D01*
X173593142Y-97591619D01*
X173497904Y-97734476D01*
X173450285Y-97924952D01*
X173450285Y-98305904D01*
X173497904Y-98401142D01*
X173545523Y-98448761D01*
X173640761Y-98496380D01*
X173831238Y-98496380D01*
X173926476Y-98448761D01*
X173974095Y-98401142D01*
X174021714Y-98305904D01*
X174021714Y-98067809D01*
X173974095Y-97972571D01*
X173926476Y-97924952D01*
X173831238Y-97877333D01*
X173640761Y-97877333D01*
X173545523Y-97924952D01*
X173497904Y-97972571D01*
X173450285Y-98067809D01*
X182562476Y-95797714D02*
X182562476Y-96464380D01*
X182324380Y-95416761D02*
X182086285Y-96131047D01*
X182705333Y-96131047D01*
X177466666Y-95464380D02*
X178085714Y-95464380D01*
X177752380Y-95845333D01*
X177895238Y-95845333D01*
X177990476Y-95892952D01*
X178038095Y-95940571D01*
X178085714Y-96035809D01*
X178085714Y-96273904D01*
X178038095Y-96369142D01*
X177990476Y-96416761D01*
X177895238Y-96464380D01*
X177609523Y-96464380D01*
X177514285Y-96416761D01*
X177466666Y-96369142D01*
X173450285Y-95559619D02*
X173497904Y-95512000D01*
X173593142Y-95464380D01*
X173831238Y-95464380D01*
X173926476Y-95512000D01*
X173974095Y-95559619D01*
X174021714Y-95654857D01*
X174021714Y-95750095D01*
X173974095Y-95892952D01*
X173402666Y-96464380D01*
X174021714Y-96464380D01*
X169783095Y-97496380D02*
X169306904Y-97496380D01*
X169259285Y-97972571D01*
X169306904Y-97924952D01*
X169402142Y-97877333D01*
X169640238Y-97877333D01*
X169735476Y-97924952D01*
X169783095Y-97972571D01*
X169830714Y-98067809D01*
X169830714Y-98305904D01*
X169783095Y-98401142D01*
X169735476Y-98448761D01*
X169640238Y-98496380D01*
X169402142Y-98496380D01*
X169306904Y-98448761D01*
X169259285Y-98401142D01*
X169830714Y-96464380D02*
X169259285Y-96464380D01*
X169545000Y-96464380D02*
X169545000Y-95464380D01*
X169449761Y-95607238D01*
X169354523Y-95702476D01*
X169259285Y-95750095D01*
D12*
X229512857Y-95725238D02*
X229512857Y-94058571D01*
X232131904Y-93344285D02*
X232131904Y-95725238D01*
X227131904Y-95725238D01*
X227131904Y-93344285D01*
X232131904Y-91201428D02*
X227131904Y-91201428D01*
X227131904Y-89296666D01*
X227370000Y-88820476D01*
X227608095Y-88582380D01*
X228084285Y-88344285D01*
X228798571Y-88344285D01*
X229274761Y-88582380D01*
X229512857Y-88820476D01*
X229750952Y-89296666D01*
X229750952Y-91201428D01*
X232131904Y-86201428D02*
X227131904Y-86201428D01*
X227131904Y-84296666D01*
X227370000Y-83820476D01*
X227608095Y-83582380D01*
X228084285Y-83344285D01*
X228798571Y-83344285D01*
X229274761Y-83582380D01*
X229512857Y-83820476D01*
X229750952Y-84296666D01*
X229750952Y-86201428D01*
X232131904Y-78820476D02*
X232131904Y-81201428D01*
X227131904Y-81201428D01*
D10*
X237533571Y-115659285D02*
X236033571Y-115659285D01*
X236033571Y-115302142D01*
X236105000Y-115087857D01*
X236247857Y-114945000D01*
X236390714Y-114873571D01*
X236676428Y-114802142D01*
X236890714Y-114802142D01*
X237176428Y-114873571D01*
X237319285Y-114945000D01*
X237462142Y-115087857D01*
X237533571Y-115302142D01*
X237533571Y-115659285D01*
X237462142Y-113587857D02*
X237533571Y-113730714D01*
X237533571Y-114016428D01*
X237462142Y-114159285D01*
X237319285Y-114230714D01*
X236747857Y-114230714D01*
X236605000Y-114159285D01*
X236533571Y-114016428D01*
X236533571Y-113730714D01*
X236605000Y-113587857D01*
X236747857Y-113516428D01*
X236890714Y-113516428D01*
X237033571Y-114230714D01*
X237462142Y-112945000D02*
X237533571Y-112802142D01*
X237533571Y-112516428D01*
X237462142Y-112373571D01*
X237319285Y-112302142D01*
X237247857Y-112302142D01*
X237105000Y-112373571D01*
X237033571Y-112516428D01*
X237033571Y-112730714D01*
X236962142Y-112873571D01*
X236819285Y-112945000D01*
X236747857Y-112945000D01*
X236605000Y-112873571D01*
X236533571Y-112730714D01*
X236533571Y-112516428D01*
X236605000Y-112373571D01*
X237533571Y-111659285D02*
X236533571Y-111659285D01*
X236033571Y-111659285D02*
X236105000Y-111730714D01*
X236176428Y-111659285D01*
X236105000Y-111587857D01*
X236033571Y-111659285D01*
X236176428Y-111659285D01*
X236533571Y-110302142D02*
X237747857Y-110302142D01*
X237890714Y-110373571D01*
X237962142Y-110445000D01*
X238033571Y-110587857D01*
X238033571Y-110802142D01*
X237962142Y-110945000D01*
X237462142Y-110302142D02*
X237533571Y-110445000D01*
X237533571Y-110730714D01*
X237462142Y-110873571D01*
X237390714Y-110945000D01*
X237247857Y-111016428D01*
X236819285Y-111016428D01*
X236676428Y-110945000D01*
X236605000Y-110873571D01*
X236533571Y-110730714D01*
X236533571Y-110445000D01*
X236605000Y-110302142D01*
X236533571Y-109587857D02*
X237533571Y-109587857D01*
X236676428Y-109587857D02*
X236605000Y-109516428D01*
X236533571Y-109373571D01*
X236533571Y-109159285D01*
X236605000Y-109016428D01*
X236747857Y-108945000D01*
X237533571Y-108945000D01*
X237462142Y-107659285D02*
X237533571Y-107802142D01*
X237533571Y-108087857D01*
X237462142Y-108230714D01*
X237319285Y-108302142D01*
X236747857Y-108302142D01*
X236605000Y-108230714D01*
X236533571Y-108087857D01*
X236533571Y-107802142D01*
X236605000Y-107659285D01*
X236747857Y-107587857D01*
X236890714Y-107587857D01*
X237033571Y-108302142D01*
X237533571Y-106302142D02*
X236033571Y-106302142D01*
X237462142Y-106302142D02*
X237533571Y-106445000D01*
X237533571Y-106730714D01*
X237462142Y-106873571D01*
X237390714Y-106945000D01*
X237247857Y-107016428D01*
X236819285Y-107016428D01*
X236676428Y-106945000D01*
X236605000Y-106873571D01*
X236533571Y-106730714D01*
X236533571Y-106445000D01*
X236605000Y-106302142D01*
X236747857Y-103945000D02*
X236819285Y-103730714D01*
X236890714Y-103659285D01*
X237033571Y-103587857D01*
X237247857Y-103587857D01*
X237390714Y-103659285D01*
X237462142Y-103730714D01*
X237533571Y-103873571D01*
X237533571Y-104445000D01*
X236033571Y-104445000D01*
X236033571Y-103945000D01*
X236105000Y-103802142D01*
X236176428Y-103730714D01*
X236319285Y-103659285D01*
X236462142Y-103659285D01*
X236605000Y-103730714D01*
X236676428Y-103802142D01*
X236747857Y-103945000D01*
X236747857Y-104445000D01*
X236533571Y-103087857D02*
X237533571Y-102730714D01*
X236533571Y-102373571D02*
X237533571Y-102730714D01*
X237890714Y-102873571D01*
X237962142Y-102945000D01*
X238033571Y-103087857D01*
X237390714Y-101802142D02*
X237462142Y-101730714D01*
X237533571Y-101802142D01*
X237462142Y-101873571D01*
X237390714Y-101802142D01*
X237533571Y-101802142D01*
X236605000Y-101802142D02*
X236676428Y-101730714D01*
X236747857Y-101802142D01*
X236676428Y-101873571D01*
X236605000Y-101802142D01*
X236747857Y-101802142D01*
X237533571Y-99945000D02*
X236033571Y-99945000D01*
X236033571Y-99587857D01*
X236105000Y-99373571D01*
X236247857Y-99230714D01*
X236390714Y-99159285D01*
X236676428Y-99087857D01*
X236890714Y-99087857D01*
X237176428Y-99159285D01*
X237319285Y-99230714D01*
X237462142Y-99373571D01*
X237533571Y-99587857D01*
X237533571Y-99945000D01*
X236533571Y-98587857D02*
X237533571Y-98230714D01*
X236533571Y-97873571D02*
X237533571Y-98230714D01*
X237890714Y-98373571D01*
X237962142Y-98445000D01*
X238033571Y-98587857D01*
X237533571Y-97087857D02*
X237462142Y-97230714D01*
X237319285Y-97302142D01*
X236033571Y-97302142D01*
X237533571Y-95873571D02*
X236747857Y-95873571D01*
X236605000Y-95945000D01*
X236533571Y-96087857D01*
X236533571Y-96373571D01*
X236605000Y-96516428D01*
X237462142Y-95873571D02*
X237533571Y-96016428D01*
X237533571Y-96373571D01*
X237462142Y-96516428D01*
X237319285Y-96587857D01*
X237176428Y-96587857D01*
X237033571Y-96516428D01*
X236962142Y-96373571D01*
X236962142Y-96016428D01*
X236890714Y-95873571D01*
X236533571Y-95159285D02*
X237533571Y-95159285D01*
X236676428Y-95159285D02*
X236605000Y-95087857D01*
X236533571Y-94945000D01*
X236533571Y-94730714D01*
X236605000Y-94587857D01*
X236747857Y-94516428D01*
X237533571Y-94516428D01*
X236747857Y-92159285D02*
X236819285Y-91945000D01*
X236890714Y-91873571D01*
X237033571Y-91802142D01*
X237247857Y-91802142D01*
X237390714Y-91873571D01*
X237462142Y-91945000D01*
X237533571Y-92087857D01*
X237533571Y-92659285D01*
X236033571Y-92659285D01*
X236033571Y-92159285D01*
X236105000Y-92016428D01*
X236176428Y-91945000D01*
X236319285Y-91873571D01*
X236462142Y-91873571D01*
X236605000Y-91945000D01*
X236676428Y-92016428D01*
X236747857Y-92159285D01*
X236747857Y-92659285D01*
X237533571Y-90516428D02*
X236747857Y-90516428D01*
X236605000Y-90587857D01*
X236533571Y-90730714D01*
X236533571Y-91016428D01*
X236605000Y-91159285D01*
X237462142Y-90516428D02*
X237533571Y-90659285D01*
X237533571Y-91016428D01*
X237462142Y-91159285D01*
X237319285Y-91230714D01*
X237176428Y-91230714D01*
X237033571Y-91159285D01*
X236962142Y-91016428D01*
X236962142Y-90659285D01*
X236890714Y-90516428D01*
X237533571Y-89587857D02*
X237462142Y-89730714D01*
X237319285Y-89802142D01*
X236033571Y-89802142D01*
X237533571Y-88802142D02*
X237462142Y-88945000D01*
X237319285Y-89016428D01*
X236033571Y-89016428D01*
X237533571Y-88230714D02*
X236033571Y-88230714D01*
X236605000Y-88230714D02*
X236533571Y-88087857D01*
X236533571Y-87802142D01*
X236605000Y-87659285D01*
X236676428Y-87587857D01*
X236819285Y-87516428D01*
X237247857Y-87516428D01*
X237390714Y-87587857D01*
X237462142Y-87659285D01*
X237533571Y-87802142D01*
X237533571Y-88087857D01*
X237462142Y-88230714D01*
X237533571Y-86230714D02*
X236747857Y-86230714D01*
X236605000Y-86302142D01*
X236533571Y-86445000D01*
X236533571Y-86730714D01*
X236605000Y-86873571D01*
X237462142Y-86230714D02*
X237533571Y-86373571D01*
X237533571Y-86730714D01*
X237462142Y-86873571D01*
X237319285Y-86945000D01*
X237176428Y-86945000D01*
X237033571Y-86873571D01*
X236962142Y-86730714D01*
X236962142Y-86373571D01*
X236890714Y-86230714D01*
X237462142Y-84873571D02*
X237533571Y-85016428D01*
X237533571Y-85302142D01*
X237462142Y-85445000D01*
X237390714Y-85516428D01*
X237247857Y-85587857D01*
X236819285Y-85587857D01*
X236676428Y-85516428D01*
X236605000Y-85445000D01*
X236533571Y-85302142D01*
X236533571Y-85016428D01*
X236605000Y-84873571D01*
X237533571Y-84230714D02*
X236033571Y-84230714D01*
X236962142Y-84087857D02*
X237533571Y-83659285D01*
X236533571Y-83659285D02*
X237105000Y-84230714D01*
X110117380Y-101019523D02*
X109117380Y-101019523D01*
X109450714Y-100543333D02*
X110117380Y-100543333D01*
X109545952Y-100543333D02*
X109498333Y-100495714D01*
X109450714Y-100400476D01*
X109450714Y-100257619D01*
X109498333Y-100162380D01*
X109593571Y-100114761D01*
X110117380Y-100114761D01*
X109450714Y-99781428D02*
X109450714Y-99400476D01*
X109117380Y-99638571D02*
X109974523Y-99638571D01*
X110069761Y-99590952D01*
X110117380Y-99495714D01*
X110117380Y-99400476D01*
X110069761Y-98686190D02*
X110117380Y-98781428D01*
X110117380Y-98971904D01*
X110069761Y-99067142D01*
X109974523Y-99114761D01*
X109593571Y-99114761D01*
X109498333Y-99067142D01*
X109450714Y-98971904D01*
X109450714Y-98781428D01*
X109498333Y-98686190D01*
X109593571Y-98638571D01*
X109688809Y-98638571D01*
X109784047Y-99114761D01*
X109450714Y-97781428D02*
X110260238Y-97781428D01*
X110355476Y-97829047D01*
X110403095Y-97876666D01*
X110450714Y-97971904D01*
X110450714Y-98114761D01*
X110403095Y-98210000D01*
X110069761Y-97781428D02*
X110117380Y-97876666D01*
X110117380Y-98067142D01*
X110069761Y-98162380D01*
X110022142Y-98210000D01*
X109926904Y-98257619D01*
X109641190Y-98257619D01*
X109545952Y-98210000D01*
X109498333Y-98162380D01*
X109450714Y-98067142D01*
X109450714Y-97876666D01*
X109498333Y-97781428D01*
X110117380Y-97305238D02*
X109450714Y-97305238D01*
X109641190Y-97305238D02*
X109545952Y-97257619D01*
X109498333Y-97210000D01*
X109450714Y-97114761D01*
X109450714Y-97019523D01*
X110117380Y-96257619D02*
X109593571Y-96257619D01*
X109498333Y-96305238D01*
X109450714Y-96400476D01*
X109450714Y-96590952D01*
X109498333Y-96686190D01*
X110069761Y-96257619D02*
X110117380Y-96352857D01*
X110117380Y-96590952D01*
X110069761Y-96686190D01*
X109974523Y-96733809D01*
X109879285Y-96733809D01*
X109784047Y-96686190D01*
X109736428Y-96590952D01*
X109736428Y-96352857D01*
X109688809Y-96257619D01*
X109450714Y-95924285D02*
X109450714Y-95543333D01*
X109117380Y-95781428D02*
X109974523Y-95781428D01*
X110069761Y-95733809D01*
X110117380Y-95638571D01*
X110117380Y-95543333D01*
X110069761Y-94829047D02*
X110117380Y-94924285D01*
X110117380Y-95114761D01*
X110069761Y-95210000D01*
X109974523Y-95257619D01*
X109593571Y-95257619D01*
X109498333Y-95210000D01*
X109450714Y-95114761D01*
X109450714Y-94924285D01*
X109498333Y-94829047D01*
X109593571Y-94781428D01*
X109688809Y-94781428D01*
X109784047Y-95257619D01*
X110117380Y-93924285D02*
X109117380Y-93924285D01*
X110069761Y-93924285D02*
X110117380Y-94019523D01*
X110117380Y-94210000D01*
X110069761Y-94305238D01*
X110022142Y-94352857D01*
X109926904Y-94400476D01*
X109641190Y-94400476D01*
X109545952Y-94352857D01*
X109498333Y-94305238D01*
X109450714Y-94210000D01*
X109450714Y-94019523D01*
X109498333Y-93924285D01*
X110069761Y-92733809D02*
X110117380Y-92590952D01*
X110117380Y-92352857D01*
X110069761Y-92257619D01*
X110022142Y-92210000D01*
X109926904Y-92162380D01*
X109831666Y-92162380D01*
X109736428Y-92210000D01*
X109688809Y-92257619D01*
X109641190Y-92352857D01*
X109593571Y-92543333D01*
X109545952Y-92638571D01*
X109498333Y-92686190D01*
X109403095Y-92733809D01*
X109307857Y-92733809D01*
X109212619Y-92686190D01*
X109165000Y-92638571D01*
X109117380Y-92543333D01*
X109117380Y-92305238D01*
X109165000Y-92162380D01*
X109450714Y-91733809D02*
X110450714Y-91733809D01*
X109498333Y-91733809D02*
X109450714Y-91638571D01*
X109450714Y-91448095D01*
X109498333Y-91352857D01*
X109545952Y-91305238D01*
X109641190Y-91257619D01*
X109926904Y-91257619D01*
X110022142Y-91305238D01*
X110069761Y-91352857D01*
X110117380Y-91448095D01*
X110117380Y-91638571D01*
X110069761Y-91733809D01*
X110117380Y-90400476D02*
X109593571Y-90400476D01*
X109498333Y-90448095D01*
X109450714Y-90543333D01*
X109450714Y-90733809D01*
X109498333Y-90829047D01*
X110069761Y-90400476D02*
X110117380Y-90495714D01*
X110117380Y-90733809D01*
X110069761Y-90829047D01*
X109974523Y-90876666D01*
X109879285Y-90876666D01*
X109784047Y-90829047D01*
X109736428Y-90733809D01*
X109736428Y-90495714D01*
X109688809Y-90400476D01*
X110069761Y-89495714D02*
X110117380Y-89590952D01*
X110117380Y-89781428D01*
X110069761Y-89876666D01*
X110022142Y-89924285D01*
X109926904Y-89971904D01*
X109641190Y-89971904D01*
X109545952Y-89924285D01*
X109498333Y-89876666D01*
X109450714Y-89781428D01*
X109450714Y-89590952D01*
X109498333Y-89495714D01*
X110069761Y-88686190D02*
X110117380Y-88781428D01*
X110117380Y-88971904D01*
X110069761Y-89067142D01*
X109974523Y-89114761D01*
X109593571Y-89114761D01*
X109498333Y-89067142D01*
X109450714Y-88971904D01*
X109450714Y-88781428D01*
X109498333Y-88686190D01*
X109593571Y-88638571D01*
X109688809Y-88638571D01*
X109784047Y-89114761D01*
X110069761Y-87781428D02*
X110117380Y-87876666D01*
X110117380Y-88067142D01*
X110069761Y-88162380D01*
X110022142Y-88210000D01*
X109926904Y-88257619D01*
X109641190Y-88257619D01*
X109545952Y-88210000D01*
X109498333Y-88162380D01*
X109450714Y-88067142D01*
X109450714Y-87876666D01*
X109498333Y-87781428D01*
X110117380Y-87352857D02*
X109450714Y-87352857D01*
X109641190Y-87352857D02*
X109545952Y-87305238D01*
X109498333Y-87257619D01*
X109450714Y-87162380D01*
X109450714Y-87067142D01*
X110117380Y-86305238D02*
X109593571Y-86305238D01*
X109498333Y-86352857D01*
X109450714Y-86448095D01*
X109450714Y-86638571D01*
X109498333Y-86733809D01*
X110069761Y-86305238D02*
X110117380Y-86400476D01*
X110117380Y-86638571D01*
X110069761Y-86733809D01*
X109974523Y-86781428D01*
X109879285Y-86781428D01*
X109784047Y-86733809D01*
X109736428Y-86638571D01*
X109736428Y-86400476D01*
X109688809Y-86305238D01*
X109450714Y-85971904D02*
X109450714Y-85590952D01*
X110117380Y-85829047D02*
X109260238Y-85829047D01*
X109165000Y-85781428D01*
X109117380Y-85686190D01*
X109117380Y-85590952D01*
X109450714Y-85400476D02*
X109450714Y-85019523D01*
X109117380Y-85257619D02*
X109974523Y-85257619D01*
X110069761Y-85210000D01*
X110117380Y-85114761D01*
X110117380Y-85019523D01*
X111481666Y-104352857D02*
X111481666Y-103876666D01*
X111767380Y-104448095D02*
X110767380Y-104114761D01*
X111767380Y-103781428D01*
X111100714Y-103019523D02*
X111767380Y-103019523D01*
X111100714Y-103448095D02*
X111624523Y-103448095D01*
X111719761Y-103400476D01*
X111767380Y-103305238D01*
X111767380Y-103162380D01*
X111719761Y-103067142D01*
X111672142Y-103019523D01*
X111100714Y-102686190D02*
X111100714Y-102305238D01*
X110767380Y-102543333D02*
X111624523Y-102543333D01*
X111719761Y-102495714D01*
X111767380Y-102400476D01*
X111767380Y-102305238D01*
X111767380Y-101829047D02*
X111719761Y-101924285D01*
X111672142Y-101971904D01*
X111576904Y-102019523D01*
X111291190Y-102019523D01*
X111195952Y-101971904D01*
X111148333Y-101924285D01*
X111100714Y-101829047D01*
X111100714Y-101686190D01*
X111148333Y-101590952D01*
X111195952Y-101543333D01*
X111291190Y-101495714D01*
X111576904Y-101495714D01*
X111672142Y-101543333D01*
X111719761Y-101590952D01*
X111767380Y-101686190D01*
X111767380Y-101829047D01*
X111100714Y-101067142D02*
X111767380Y-101067142D01*
X111195952Y-101067142D02*
X111148333Y-101019523D01*
X111100714Y-100924285D01*
X111100714Y-100781428D01*
X111148333Y-100686190D01*
X111243571Y-100638571D01*
X111767380Y-100638571D01*
X111767380Y-100019523D02*
X111719761Y-100114761D01*
X111672142Y-100162380D01*
X111576904Y-100210000D01*
X111291190Y-100210000D01*
X111195952Y-100162380D01*
X111148333Y-100114761D01*
X111100714Y-100019523D01*
X111100714Y-99876666D01*
X111148333Y-99781428D01*
X111195952Y-99733809D01*
X111291190Y-99686190D01*
X111576904Y-99686190D01*
X111672142Y-99733809D01*
X111719761Y-99781428D01*
X111767380Y-99876666D01*
X111767380Y-100019523D01*
X111767380Y-99257619D02*
X111100714Y-99257619D01*
X111195952Y-99257619D02*
X111148333Y-99210000D01*
X111100714Y-99114761D01*
X111100714Y-98971904D01*
X111148333Y-98876666D01*
X111243571Y-98829047D01*
X111767380Y-98829047D01*
X111243571Y-98829047D02*
X111148333Y-98781428D01*
X111100714Y-98686190D01*
X111100714Y-98543333D01*
X111148333Y-98448095D01*
X111243571Y-98400476D01*
X111767380Y-98400476D01*
X111767380Y-97781428D02*
X111719761Y-97876666D01*
X111672142Y-97924285D01*
X111576904Y-97971904D01*
X111291190Y-97971904D01*
X111195952Y-97924285D01*
X111148333Y-97876666D01*
X111100714Y-97781428D01*
X111100714Y-97638571D01*
X111148333Y-97543333D01*
X111195952Y-97495714D01*
X111291190Y-97448095D01*
X111576904Y-97448095D01*
X111672142Y-97495714D01*
X111719761Y-97543333D01*
X111767380Y-97638571D01*
X111767380Y-97781428D01*
X111100714Y-96590952D02*
X111767380Y-96590952D01*
X111100714Y-97019523D02*
X111624523Y-97019523D01*
X111719761Y-96971904D01*
X111767380Y-96876666D01*
X111767380Y-96733809D01*
X111719761Y-96638571D01*
X111672142Y-96590952D01*
X111719761Y-96162380D02*
X111767380Y-96067142D01*
X111767380Y-95876666D01*
X111719761Y-95781428D01*
X111624523Y-95733809D01*
X111576904Y-95733809D01*
X111481666Y-95781428D01*
X111434047Y-95876666D01*
X111434047Y-96019523D01*
X111386428Y-96114761D01*
X111291190Y-96162380D01*
X111243571Y-96162380D01*
X111148333Y-96114761D01*
X111100714Y-96019523D01*
X111100714Y-95876666D01*
X111148333Y-95781428D01*
X111481666Y-94590952D02*
X111481666Y-94114761D01*
X111767380Y-94686190D02*
X110767380Y-94352857D01*
X111767380Y-94019523D01*
X111100714Y-93829047D02*
X111100714Y-93448095D01*
X110767380Y-93686190D02*
X111624523Y-93686190D01*
X111719761Y-93638571D01*
X111767380Y-93543333D01*
X111767380Y-93448095D01*
X111100714Y-93257619D02*
X111100714Y-92876666D01*
X110767380Y-93114761D02*
X111624523Y-93114761D01*
X111719761Y-93067142D01*
X111767380Y-92971904D01*
X111767380Y-92876666D01*
X111767380Y-92543333D02*
X111100714Y-92543333D01*
X110767380Y-92543333D02*
X110815000Y-92590952D01*
X110862619Y-92543333D01*
X110815000Y-92495714D01*
X110767380Y-92543333D01*
X110862619Y-92543333D01*
X111100714Y-92210000D02*
X111100714Y-91829047D01*
X110767380Y-92067142D02*
X111624523Y-92067142D01*
X111719761Y-92019523D01*
X111767380Y-91924285D01*
X111767380Y-91829047D01*
X111100714Y-91067142D02*
X111767380Y-91067142D01*
X111100714Y-91495714D02*
X111624523Y-91495714D01*
X111719761Y-91448095D01*
X111767380Y-91352857D01*
X111767380Y-91210000D01*
X111719761Y-91114761D01*
X111672142Y-91067142D01*
X111767380Y-90162380D02*
X110767380Y-90162380D01*
X111719761Y-90162380D02*
X111767380Y-90257619D01*
X111767380Y-90448095D01*
X111719761Y-90543333D01*
X111672142Y-90590952D01*
X111576904Y-90638571D01*
X111291190Y-90638571D01*
X111195952Y-90590952D01*
X111148333Y-90543333D01*
X111100714Y-90448095D01*
X111100714Y-90257619D01*
X111148333Y-90162380D01*
X111719761Y-89305238D02*
X111767380Y-89400476D01*
X111767380Y-89590952D01*
X111719761Y-89686190D01*
X111624523Y-89733809D01*
X111243571Y-89733809D01*
X111148333Y-89686190D01*
X111100714Y-89590952D01*
X111100714Y-89400476D01*
X111148333Y-89305238D01*
X111243571Y-89257619D01*
X111338809Y-89257619D01*
X111434047Y-89733809D01*
X111672142Y-87495714D02*
X111719761Y-87543333D01*
X111767380Y-87686190D01*
X111767380Y-87781428D01*
X111719761Y-87924285D01*
X111624523Y-88019523D01*
X111529285Y-88067142D01*
X111338809Y-88114761D01*
X111195952Y-88114761D01*
X111005476Y-88067142D01*
X110910238Y-88019523D01*
X110815000Y-87924285D01*
X110767380Y-87781428D01*
X110767380Y-87686190D01*
X110815000Y-87543333D01*
X110862619Y-87495714D01*
X111767380Y-86924285D02*
X111719761Y-87019523D01*
X111672142Y-87067142D01*
X111576904Y-87114761D01*
X111291190Y-87114761D01*
X111195952Y-87067142D01*
X111148333Y-87019523D01*
X111100714Y-86924285D01*
X111100714Y-86781428D01*
X111148333Y-86686190D01*
X111195952Y-86638571D01*
X111291190Y-86590952D01*
X111576904Y-86590952D01*
X111672142Y-86638571D01*
X111719761Y-86686190D01*
X111767380Y-86781428D01*
X111767380Y-86924285D01*
X111100714Y-86162380D02*
X111767380Y-86162380D01*
X111195952Y-86162380D02*
X111148333Y-86114761D01*
X111100714Y-86019523D01*
X111100714Y-85876666D01*
X111148333Y-85781428D01*
X111243571Y-85733809D01*
X111767380Y-85733809D01*
X111100714Y-85400476D02*
X111100714Y-85019523D01*
X110767380Y-85257619D02*
X111624523Y-85257619D01*
X111719761Y-85210000D01*
X111767380Y-85114761D01*
X111767380Y-85019523D01*
X111767380Y-84686190D02*
X111100714Y-84686190D01*
X111291190Y-84686190D02*
X111195952Y-84638571D01*
X111148333Y-84590952D01*
X111100714Y-84495714D01*
X111100714Y-84400476D01*
X111767380Y-83924285D02*
X111719761Y-84019523D01*
X111672142Y-84067142D01*
X111576904Y-84114761D01*
X111291190Y-84114761D01*
X111195952Y-84067142D01*
X111148333Y-84019523D01*
X111100714Y-83924285D01*
X111100714Y-83781428D01*
X111148333Y-83686190D01*
X111195952Y-83638571D01*
X111291190Y-83590952D01*
X111576904Y-83590952D01*
X111672142Y-83638571D01*
X111719761Y-83686190D01*
X111767380Y-83781428D01*
X111767380Y-83924285D01*
X111767380Y-83019523D02*
X111719761Y-83114761D01*
X111624523Y-83162380D01*
X110767380Y-83162380D01*
X111767380Y-82495714D02*
X111719761Y-82590952D01*
X111624523Y-82638571D01*
X110767380Y-82638571D01*
X111719761Y-81733809D02*
X111767380Y-81829047D01*
X111767380Y-82019523D01*
X111719761Y-82114761D01*
X111624523Y-82162380D01*
X111243571Y-82162380D01*
X111148333Y-82114761D01*
X111100714Y-82019523D01*
X111100714Y-81829047D01*
X111148333Y-81733809D01*
X111243571Y-81686190D01*
X111338809Y-81686190D01*
X111434047Y-82162380D01*
X111767380Y-81257619D02*
X111100714Y-81257619D01*
X111291190Y-81257619D02*
X111195952Y-81210000D01*
X111148333Y-81162380D01*
X111100714Y-81067142D01*
X111100714Y-80971904D01*
D13*
X112482142Y-117260000D02*
X109482142Y-117260000D01*
X112339285Y-115974285D02*
X112482142Y-115545714D01*
X112482142Y-114831428D01*
X112339285Y-114545714D01*
X112196428Y-114402857D01*
X111910714Y-114260000D01*
X111625000Y-114260000D01*
X111339285Y-114402857D01*
X111196428Y-114545714D01*
X111053571Y-114831428D01*
X110910714Y-115402857D01*
X110767857Y-115688571D01*
X110625000Y-115831428D01*
X110339285Y-115974285D01*
X110053571Y-115974285D01*
X109767857Y-115831428D01*
X109625000Y-115688571D01*
X109482142Y-115402857D01*
X109482142Y-114688571D01*
X109625000Y-114260000D01*
X111625000Y-113117142D02*
X111625000Y-111688571D01*
X112482142Y-113402857D02*
X109482142Y-112402857D01*
X112482142Y-111402857D01*
X111625000Y-110545714D02*
X111625000Y-109117142D01*
X112482142Y-110831428D02*
X109482142Y-109831428D01*
X112482142Y-108831428D01*
X112196428Y-106117142D02*
X112339285Y-106260000D01*
X112482142Y-106688571D01*
X112482142Y-106974285D01*
X112339285Y-107402857D01*
X112053571Y-107688571D01*
X111767857Y-107831428D01*
X111196428Y-107974285D01*
X110767857Y-107974285D01*
X110196428Y-107831428D01*
X109910714Y-107688571D01*
X109625000Y-107402857D01*
X109482142Y-106974285D01*
X109482142Y-106688571D01*
X109625000Y-106260000D01*
X109767857Y-106117142D01*
D14*
X217270000Y-95250000D02*
G75*
G03*
X217270000Y-95250000I-2120000J0D01*
G01*
X215150000Y-94410000D02*
X215150000Y-93170000D01*
X215150000Y-97330000D02*
X215150000Y-96090000D01*
X215110000Y-94410000D02*
X215110000Y-93170000D01*
X215110000Y-97330000D02*
X215110000Y-96090000D01*
X215070000Y-94410000D02*
X215070000Y-93171000D01*
X215070000Y-97329000D02*
X215070000Y-96090000D01*
X215030000Y-97327000D02*
X215030000Y-96090000D01*
X215030000Y-94410000D02*
X215030000Y-93173000D01*
X214990000Y-97324000D02*
X214990000Y-96090000D01*
X214990000Y-94410000D02*
X214990000Y-93176000D01*
X214950000Y-97321000D02*
X214950000Y-96090000D01*
X214950000Y-94410000D02*
X214950000Y-93179000D01*
X214910000Y-97317000D02*
X214910000Y-96090000D01*
X214910000Y-94410000D02*
X214910000Y-93183000D01*
X214870000Y-97312000D02*
X214870000Y-96090000D01*
X214870000Y-94410000D02*
X214870000Y-93188000D01*
X214830000Y-97306000D02*
X214830000Y-96090000D01*
X214830000Y-94410000D02*
X214830000Y-93194000D01*
X214790000Y-97300000D02*
X214790000Y-96090000D01*
X214790000Y-94410000D02*
X214790000Y-93200000D01*
X214750000Y-97292000D02*
X214750000Y-96090000D01*
X214750000Y-94410000D02*
X214750000Y-93208000D01*
X214710000Y-97284000D02*
X214710000Y-96090000D01*
X214710000Y-94410000D02*
X214710000Y-93216000D01*
X214670000Y-97275000D02*
X214670000Y-96090000D01*
X214670000Y-94410000D02*
X214670000Y-93225000D01*
X214630000Y-97266000D02*
X214630000Y-96090000D01*
X214630000Y-94410000D02*
X214630000Y-93234000D01*
X214590000Y-97255000D02*
X214590000Y-96090000D01*
X214590000Y-94410000D02*
X214590000Y-93245000D01*
X214550000Y-97244000D02*
X214550000Y-96090000D01*
X214550000Y-94410000D02*
X214550000Y-93256000D01*
X214510000Y-97232000D02*
X214510000Y-96090000D01*
X214510000Y-94410000D02*
X214510000Y-93268000D01*
X214470000Y-97218000D02*
X214470000Y-96090000D01*
X214470000Y-94410000D02*
X214470000Y-93282000D01*
X214429000Y-97204000D02*
X214429000Y-96090000D01*
X214429000Y-94410000D02*
X214429000Y-93296000D01*
X214389000Y-97190000D02*
X214389000Y-96090000D01*
X214389000Y-94410000D02*
X214389000Y-93310000D01*
X214349000Y-97174000D02*
X214349000Y-96090000D01*
X214349000Y-94410000D02*
X214349000Y-93326000D01*
X214309000Y-97157000D02*
X214309000Y-96090000D01*
X214309000Y-94410000D02*
X214309000Y-93343000D01*
X214269000Y-97139000D02*
X214269000Y-96090000D01*
X214269000Y-94410000D02*
X214269000Y-93361000D01*
X214229000Y-97120000D02*
X214229000Y-96090000D01*
X214229000Y-94410000D02*
X214229000Y-93380000D01*
X214189000Y-97101000D02*
X214189000Y-96090000D01*
X214189000Y-94410000D02*
X214189000Y-93399000D01*
X214149000Y-97080000D02*
X214149000Y-96090000D01*
X214149000Y-94410000D02*
X214149000Y-93420000D01*
X214109000Y-97058000D02*
X214109000Y-96090000D01*
X214109000Y-94410000D02*
X214109000Y-93442000D01*
X214069000Y-97035000D02*
X214069000Y-96090000D01*
X214069000Y-94410000D02*
X214069000Y-93465000D01*
X214029000Y-97010000D02*
X214029000Y-96090000D01*
X214029000Y-94410000D02*
X214029000Y-93490000D01*
X213989000Y-96985000D02*
X213989000Y-96090000D01*
X213989000Y-94410000D02*
X213989000Y-93515000D01*
X213949000Y-96958000D02*
X213949000Y-96090000D01*
X213949000Y-94410000D02*
X213949000Y-93542000D01*
X213909000Y-96930000D02*
X213909000Y-96090000D01*
X213909000Y-94410000D02*
X213909000Y-93570000D01*
X213869000Y-96900000D02*
X213869000Y-96090000D01*
X213869000Y-94410000D02*
X213869000Y-93600000D01*
X213829000Y-96869000D02*
X213829000Y-96090000D01*
X213829000Y-94410000D02*
X213829000Y-93631000D01*
X213789000Y-96837000D02*
X213789000Y-96090000D01*
X213789000Y-94410000D02*
X213789000Y-93663000D01*
X213749000Y-96802000D02*
X213749000Y-96090000D01*
X213749000Y-94410000D02*
X213749000Y-93698000D01*
X213709000Y-96766000D02*
X213709000Y-96090000D01*
X213709000Y-94410000D02*
X213709000Y-93734000D01*
X213669000Y-96728000D02*
X213669000Y-96090000D01*
X213669000Y-94410000D02*
X213669000Y-93772000D01*
X213629000Y-96688000D02*
X213629000Y-96090000D01*
X213629000Y-94410000D02*
X213629000Y-93812000D01*
X213589000Y-96646000D02*
X213589000Y-96090000D01*
X213589000Y-94410000D02*
X213589000Y-93854000D01*
X213549000Y-96601000D02*
X213549000Y-93899000D01*
X213509000Y-96554000D02*
X213509000Y-93946000D01*
X213469000Y-96504000D02*
X213469000Y-93996000D01*
X213429000Y-96450000D02*
X213429000Y-94050000D01*
X213389000Y-96392000D02*
X213389000Y-94108000D01*
X213349000Y-96330000D02*
X213349000Y-94170000D01*
X213309000Y-96263000D02*
X213309000Y-94237000D01*
X213269000Y-96190000D02*
X213269000Y-94310000D01*
X213229000Y-96109000D02*
X213229000Y-94391000D01*
X213189000Y-96018000D02*
X213189000Y-94482000D01*
X213149000Y-95914000D02*
X213149000Y-94586000D01*
X213109000Y-95787000D02*
X213109000Y-94713000D01*
X213069000Y-95620000D02*
X213069000Y-94880000D01*
X217419801Y-96445000D02*
X217019801Y-96445000D01*
X217219801Y-96645000D02*
X217219801Y-96245000D01*
X219660199Y-93855000D02*
X219660199Y-94255000D01*
X219460199Y-94055000D02*
X219860199Y-94055000D01*
X223811000Y-94880000D02*
X223811000Y-95620000D01*
X223771000Y-94713000D02*
X223771000Y-95787000D01*
X223731000Y-94586000D02*
X223731000Y-95914000D01*
X223691000Y-94482000D02*
X223691000Y-96018000D01*
X223651000Y-94391000D02*
X223651000Y-96109000D01*
X223611000Y-94310000D02*
X223611000Y-96190000D01*
X223571000Y-94237000D02*
X223571000Y-96263000D01*
X223531000Y-94170000D02*
X223531000Y-96330000D01*
X223491000Y-94108000D02*
X223491000Y-96392000D01*
X223451000Y-94050000D02*
X223451000Y-96450000D01*
X223411000Y-93996000D02*
X223411000Y-96504000D01*
X223371000Y-93946000D02*
X223371000Y-96554000D01*
X223331000Y-93899000D02*
X223331000Y-96601000D01*
X223291000Y-96090000D02*
X223291000Y-96646000D01*
X223291000Y-93854000D02*
X223291000Y-94410000D01*
X223251000Y-96090000D02*
X223251000Y-96688000D01*
X223251000Y-93812000D02*
X223251000Y-94410000D01*
X223211000Y-96090000D02*
X223211000Y-96728000D01*
X223211000Y-93772000D02*
X223211000Y-94410000D01*
X223171000Y-96090000D02*
X223171000Y-96766000D01*
X223171000Y-93734000D02*
X223171000Y-94410000D01*
X223131000Y-96090000D02*
X223131000Y-96802000D01*
X223131000Y-93698000D02*
X223131000Y-94410000D01*
X223091000Y-96090000D02*
X223091000Y-96837000D01*
X223091000Y-93663000D02*
X223091000Y-94410000D01*
X223051000Y-96090000D02*
X223051000Y-96869000D01*
X223051000Y-93631000D02*
X223051000Y-94410000D01*
X223011000Y-96090000D02*
X223011000Y-96900000D01*
X223011000Y-93600000D02*
X223011000Y-94410000D01*
X222971000Y-96090000D02*
X222971000Y-96930000D01*
X222971000Y-93570000D02*
X222971000Y-94410000D01*
X222931000Y-96090000D02*
X222931000Y-96958000D01*
X222931000Y-93542000D02*
X222931000Y-94410000D01*
X222891000Y-96090000D02*
X222891000Y-96985000D01*
X222891000Y-93515000D02*
X222891000Y-94410000D01*
X222851000Y-96090000D02*
X222851000Y-97010000D01*
X222851000Y-93490000D02*
X222851000Y-94410000D01*
X222811000Y-96090000D02*
X222811000Y-97035000D01*
X222811000Y-93465000D02*
X222811000Y-94410000D01*
X222771000Y-96090000D02*
X222771000Y-97058000D01*
X222771000Y-93442000D02*
X222771000Y-94410000D01*
X222731000Y-96090000D02*
X222731000Y-97080000D01*
X222731000Y-93420000D02*
X222731000Y-94410000D01*
X222691000Y-96090000D02*
X222691000Y-97101000D01*
X222691000Y-93399000D02*
X222691000Y-94410000D01*
X222651000Y-96090000D02*
X222651000Y-97120000D01*
X222651000Y-93380000D02*
X222651000Y-94410000D01*
X222611000Y-96090000D02*
X222611000Y-97139000D01*
X222611000Y-93361000D02*
X222611000Y-94410000D01*
X222571000Y-96090000D02*
X222571000Y-97157000D01*
X222571000Y-93343000D02*
X222571000Y-94410000D01*
X222531000Y-96090000D02*
X222531000Y-97174000D01*
X222531000Y-93326000D02*
X222531000Y-94410000D01*
X222491000Y-96090000D02*
X222491000Y-97190000D01*
X222491000Y-93310000D02*
X222491000Y-94410000D01*
X222451000Y-96090000D02*
X222451000Y-97204000D01*
X222451000Y-93296000D02*
X222451000Y-94410000D01*
X222410000Y-96090000D02*
X222410000Y-97218000D01*
X222410000Y-93282000D02*
X222410000Y-94410000D01*
X222370000Y-96090000D02*
X222370000Y-97232000D01*
X222370000Y-93268000D02*
X222370000Y-94410000D01*
X222330000Y-96090000D02*
X222330000Y-97244000D01*
X222330000Y-93256000D02*
X222330000Y-94410000D01*
X222290000Y-96090000D02*
X222290000Y-97255000D01*
X222290000Y-93245000D02*
X222290000Y-94410000D01*
X222250000Y-96090000D02*
X222250000Y-97266000D01*
X222250000Y-93234000D02*
X222250000Y-94410000D01*
X222210000Y-96090000D02*
X222210000Y-97275000D01*
X222210000Y-93225000D02*
X222210000Y-94410000D01*
X222170000Y-96090000D02*
X222170000Y-97284000D01*
X222170000Y-93216000D02*
X222170000Y-94410000D01*
X222130000Y-96090000D02*
X222130000Y-97292000D01*
X222130000Y-93208000D02*
X222130000Y-94410000D01*
X222090000Y-96090000D02*
X222090000Y-97300000D01*
X222090000Y-93200000D02*
X222090000Y-94410000D01*
X222050000Y-96090000D02*
X222050000Y-97306000D01*
X222050000Y-93194000D02*
X222050000Y-94410000D01*
X222010000Y-96090000D02*
X222010000Y-97312000D01*
X222010000Y-93188000D02*
X222010000Y-94410000D01*
X221970000Y-96090000D02*
X221970000Y-97317000D01*
X221970000Y-93183000D02*
X221970000Y-94410000D01*
X221930000Y-96090000D02*
X221930000Y-97321000D01*
X221930000Y-93179000D02*
X221930000Y-94410000D01*
X221890000Y-96090000D02*
X221890000Y-97324000D01*
X221890000Y-93176000D02*
X221890000Y-94410000D01*
X221850000Y-96090000D02*
X221850000Y-97327000D01*
X221850000Y-93173000D02*
X221850000Y-94410000D01*
X221810000Y-93171000D02*
X221810000Y-94410000D01*
X221810000Y-96090000D02*
X221810000Y-97329000D01*
X221770000Y-93170000D02*
X221770000Y-94410000D01*
X221770000Y-96090000D02*
X221770000Y-97330000D01*
X221730000Y-93170000D02*
X221730000Y-94410000D01*
X221730000Y-96090000D02*
X221730000Y-97330000D01*
X223850000Y-95250000D02*
G75*
G03*
X223850000Y-95250000I-2120000J0D01*
G01*
X153075000Y-103560000D02*
X158460000Y-103560000D01*
X153075000Y-99640000D02*
X153075000Y-103560000D01*
X158460000Y-99640000D02*
X153075000Y-99640000D01*
X158460000Y-114880000D02*
X153075000Y-114880000D01*
X153075000Y-114880000D02*
X153075000Y-118800000D01*
X153075000Y-118800000D02*
X158460000Y-118800000D01*
X144185000Y-103560000D02*
X149570000Y-103560000D01*
X144185000Y-99640000D02*
X144185000Y-103560000D01*
X149570000Y-99640000D02*
X144185000Y-99640000D01*
X149570000Y-114880000D02*
X144185000Y-114880000D01*
X144185000Y-114880000D02*
X144185000Y-118800000D01*
X144185000Y-118800000D02*
X149570000Y-118800000D01*
X135610000Y-103560000D02*
X140995000Y-103560000D01*
X135610000Y-99640000D02*
X135610000Y-103560000D01*
X140995000Y-99640000D02*
X135610000Y-99640000D01*
X140680000Y-114880000D02*
X135295000Y-114880000D01*
X135295000Y-114880000D02*
X135295000Y-118800000D01*
X135295000Y-118800000D02*
X140680000Y-118800000D01*
X126720000Y-103560000D02*
X132105000Y-103560000D01*
X126720000Y-99640000D02*
X126720000Y-103560000D01*
X132105000Y-99640000D02*
X126720000Y-99640000D01*
X131790000Y-114880000D02*
X126405000Y-114880000D01*
X126405000Y-114880000D02*
X126405000Y-118800000D01*
X126405000Y-118800000D02*
X131790000Y-118800000D01*
X116245000Y-103560000D02*
X121630000Y-103560000D01*
X116245000Y-99640000D02*
X116245000Y-103560000D01*
X121630000Y-99640000D02*
X116245000Y-99640000D01*
X121630000Y-114880000D02*
X116245000Y-114880000D01*
X116245000Y-114880000D02*
X116245000Y-118800000D01*
X116245000Y-118800000D02*
X121630000Y-118800000D01*
X134025000Y-78160000D02*
X139410000Y-78160000D01*
X134025000Y-74240000D02*
X134025000Y-78160000D01*
X139410000Y-74240000D02*
X134025000Y-74240000D01*
X139410000Y-89480000D02*
X134025000Y-89480000D01*
X134025000Y-89480000D02*
X134025000Y-93400000D01*
X134025000Y-93400000D02*
X139410000Y-93400000D01*
X125135000Y-78160000D02*
X130520000Y-78160000D01*
X125135000Y-74240000D02*
X125135000Y-78160000D01*
X130520000Y-74240000D02*
X125135000Y-74240000D01*
X130520000Y-89480000D02*
X125135000Y-89480000D01*
X125135000Y-89480000D02*
X125135000Y-93400000D01*
X125135000Y-93400000D02*
X130520000Y-93400000D01*
X116245000Y-78160000D02*
X121630000Y-78160000D01*
X116245000Y-74240000D02*
X116245000Y-78160000D01*
X121630000Y-74240000D02*
X116245000Y-74240000D01*
X121945000Y-89480000D02*
X116560000Y-89480000D01*
X116560000Y-89480000D02*
X116560000Y-93400000D01*
X116560000Y-93400000D02*
X121945000Y-93400000D01*
X191675000Y-86640000D02*
X190865000Y-86640000D01*
X190865000Y-86640000D02*
X190865000Y-73620000D01*
X190865000Y-73620000D02*
X199975000Y-73620000D01*
X208275000Y-86640000D02*
X209085000Y-86640000D01*
X209085000Y-86640000D02*
X209085000Y-73620000D01*
X209085000Y-73620000D02*
X199975000Y-73620000D01*
X193375000Y-89740000D02*
X193375000Y-91020000D01*
X193975000Y-89740000D02*
X193975000Y-91020000D01*
X197575000Y-89740000D02*
X197575000Y-91020000D01*
X198175000Y-89740000D02*
X198175000Y-91020000D01*
X201775000Y-89740000D02*
X201775000Y-91020000D01*
X202375000Y-89740000D02*
X202375000Y-91020000D01*
X205975000Y-89740000D02*
X205975000Y-91020000D01*
X206575000Y-89740000D02*
X206575000Y-91020000D01*
X195285000Y-86630000D02*
X196265000Y-86630000D01*
X199485000Y-86630000D02*
X200465000Y-86630000D01*
X203685000Y-86630000D02*
X204665000Y-86630000D01*
X191675000Y-87630000D02*
X191075000Y-87930000D01*
X191075000Y-87930000D02*
X191075000Y-87330000D01*
X191075000Y-87330000D02*
X191675000Y-87630000D01*
X166945000Y-87330000D02*
X167545000Y-87630000D01*
X166945000Y-87930000D02*
X166945000Y-87330000D01*
X167545000Y-87630000D02*
X166945000Y-87930000D01*
X179555000Y-86630000D02*
X180535000Y-86630000D01*
X175355000Y-86630000D02*
X176335000Y-86630000D01*
X171155000Y-86630000D02*
X172135000Y-86630000D01*
X182445000Y-89740000D02*
X182445000Y-91020000D01*
X181845000Y-89740000D02*
X181845000Y-91020000D01*
X178245000Y-89740000D02*
X178245000Y-91020000D01*
X177645000Y-89740000D02*
X177645000Y-91020000D01*
X174045000Y-89740000D02*
X174045000Y-91020000D01*
X173445000Y-89740000D02*
X173445000Y-91020000D01*
X169845000Y-89740000D02*
X169845000Y-91020000D01*
X169245000Y-89740000D02*
X169245000Y-91020000D01*
X184955000Y-73620000D02*
X175845000Y-73620000D01*
X184955000Y-86640000D02*
X184955000Y-73620000D01*
X184145000Y-86640000D02*
X184955000Y-86640000D01*
X166735000Y-73620000D02*
X175845000Y-73620000D01*
X166735000Y-86640000D02*
X166735000Y-73620000D01*
X167545000Y-86640000D02*
X166735000Y-86640000D01*
D15*
X213360000Y-80570000D02*
X223520000Y-80570000D01*
X213360000Y-80570000D02*
X213360000Y-73370000D01*
X213360000Y-81570000D02*
X213360000Y-80570000D01*
X223520000Y-81570000D02*
X213360000Y-81570000D01*
X223520000Y-80570000D02*
X223520000Y-81570000D01*
X223520000Y-73370000D02*
X223520000Y-80570000D01*
X213360000Y-73370000D02*
X223520000Y-73370000D01*
X149860000Y-93980000D02*
X149860000Y-92710000D01*
X148590000Y-93980000D02*
X149860000Y-93980000D01*
X149860000Y-93980000D02*
X149860000Y-95250000D01*
X151130000Y-93980000D02*
X149860000Y-93980000D01*
X161420000Y-73470000D02*
X145920000Y-73470000D01*
X161420000Y-91670000D02*
X161420000Y-73470000D01*
X145920000Y-73470000D02*
X145920000Y-91670000D01*
X152248000Y-91670000D02*
X155092000Y-91670000D01*
X161420000Y-91670000D02*
X159448000Y-91670000D01*
X145920000Y-91670000D02*
X147892000Y-91670000D01*
D14*
X159485000Y-121877064D02*
X159485000Y-121422936D01*
X158015000Y-121877064D02*
X158015000Y-121422936D01*
X154405000Y-121877064D02*
X154405000Y-121422936D01*
X152935000Y-121877064D02*
X152935000Y-121422936D01*
X149125000Y-121877064D02*
X149125000Y-121422936D01*
X150595000Y-121877064D02*
X150595000Y-121422936D01*
X144045000Y-121877064D02*
X144045000Y-121422936D01*
X145515000Y-121877064D02*
X145515000Y-121422936D01*
X141705000Y-121877064D02*
X141705000Y-121422936D01*
X140235000Y-121877064D02*
X140235000Y-121422936D01*
X136625000Y-121877064D02*
X136625000Y-121422936D01*
X135155000Y-121877064D02*
X135155000Y-121422936D01*
X131345000Y-121877064D02*
X131345000Y-121422936D01*
X132815000Y-121877064D02*
X132815000Y-121422936D01*
X127735000Y-121877064D02*
X127735000Y-121422936D01*
X126265000Y-121877064D02*
X126265000Y-121422936D01*
X121185000Y-121877064D02*
X121185000Y-121422936D01*
X122655000Y-121877064D02*
X122655000Y-121422936D01*
X116105000Y-121877064D02*
X116105000Y-121422936D01*
X117575000Y-121877064D02*
X117575000Y-121422936D01*
X140435000Y-96477064D02*
X140435000Y-96022936D01*
X138965000Y-96477064D02*
X138965000Y-96022936D01*
X133885000Y-96477064D02*
X133885000Y-96022936D01*
X135355000Y-96477064D02*
X135355000Y-96022936D01*
X130075000Y-96477064D02*
X130075000Y-96022936D01*
X131545000Y-96477064D02*
X131545000Y-96022936D01*
X126465000Y-96382064D02*
X126465000Y-95927936D01*
X124995000Y-96382064D02*
X124995000Y-95927936D01*
X122655000Y-96477064D02*
X122655000Y-96022936D01*
X121185000Y-96477064D02*
X121185000Y-96022936D01*
X116740000Y-96382064D02*
X116740000Y-95927936D01*
X118210000Y-96382064D02*
X118210000Y-95927936D01*
D15*
X158730000Y-111170000D02*
X158730000Y-107270000D01*
X153690000Y-111170000D02*
X153690000Y-107270000D01*
D16*
X153815000Y-113425000D02*
G75*
G03*
X153815000Y-113425000I-100000J0D01*
G01*
D15*
X149840000Y-111170000D02*
X149840000Y-107270000D01*
X144800000Y-111170000D02*
X144800000Y-107270000D01*
D16*
X144925000Y-113425000D02*
G75*
G03*
X144925000Y-113425000I-100000J0D01*
G01*
X136035000Y-113425000D02*
G75*
G03*
X136035000Y-113425000I-100000J0D01*
G01*
D15*
X135910000Y-111170000D02*
X135910000Y-107270000D01*
X140950000Y-111170000D02*
X140950000Y-107270000D01*
D16*
X127145000Y-113425000D02*
G75*
G03*
X127145000Y-113425000I-100000J0D01*
G01*
D15*
X127020000Y-111170000D02*
X127020000Y-107270000D01*
X132060000Y-111170000D02*
X132060000Y-107270000D01*
D14*
X165197832Y-119253000D02*
G75*
G03*
X165197832Y-119253000I-1367832J0D01*
G01*
X165197832Y-103251000D02*
G75*
G03*
X165197832Y-103251000I-1367832J0D01*
G01*
X177800000Y-100965000D02*
X177800000Y-121539000D01*
X161290000Y-100965000D02*
X177800000Y-100965000D01*
X161290000Y-121539000D02*
X161290000Y-100965000D01*
X177800000Y-121539000D02*
X161290000Y-121539000D01*
D15*
X121900000Y-111170000D02*
X121900000Y-107270000D01*
X116860000Y-111170000D02*
X116860000Y-107270000D01*
D16*
X116985000Y-113425000D02*
G75*
G03*
X116985000Y-113425000I-100000J0D01*
G01*
X134765000Y-88025000D02*
G75*
G03*
X134765000Y-88025000I-100000J0D01*
G01*
D15*
X134640000Y-85770000D02*
X134640000Y-81870000D01*
X139680000Y-85770000D02*
X139680000Y-81870000D01*
X130790000Y-85770000D02*
X130790000Y-81870000D01*
X125750000Y-85770000D02*
X125750000Y-81870000D01*
D16*
X125875000Y-88025000D02*
G75*
G03*
X125875000Y-88025000I-100000J0D01*
G01*
X116985000Y-88025000D02*
G75*
G03*
X116985000Y-88025000I-100000J0D01*
G01*
D15*
X116860000Y-85770000D02*
X116860000Y-81870000D01*
X121900000Y-85770000D02*
X121900000Y-81870000D01*
D17*
X215087200Y-89484200D02*
X221792800Y-89484200D01*
X215087200Y-85775800D02*
X215087200Y-89484200D01*
X221792800Y-85775800D02*
X215087200Y-85775800D01*
X221792800Y-89484200D02*
X221792800Y-85775800D01*
D14*
X231240000Y-100625000D02*
X231240000Y-121625000D01*
X180240000Y-107425000D02*
X180240000Y-100625000D01*
X228573000Y-100625000D02*
X228573000Y-103632000D01*
X228573000Y-103632000D02*
X231240000Y-103632000D01*
X231240000Y-100625000D02*
X230940000Y-100625000D01*
X228840000Y-100625000D02*
X228440000Y-100625000D01*
X226240000Y-100625000D02*
X225840000Y-100625000D01*
X223740000Y-100625000D02*
X223340000Y-100625000D01*
X221140000Y-100625000D02*
X220740000Y-100625000D01*
X218640000Y-100625000D02*
X218240000Y-100625000D01*
X216140000Y-100625000D02*
X215740000Y-100625000D01*
X213540000Y-100625000D02*
X213140000Y-100625000D01*
X211040000Y-100625000D02*
X210640000Y-100625000D01*
X208440000Y-100625000D02*
X208040000Y-100625000D01*
X205940000Y-100625000D02*
X205540000Y-100625000D01*
X203440000Y-100625000D02*
X203040000Y-100625000D01*
X200840000Y-100625000D02*
X200440000Y-100625000D01*
X198340000Y-100625000D02*
X197940000Y-100625000D01*
X195740000Y-100625000D02*
X195340000Y-100625000D01*
X193240000Y-100625000D02*
X192840000Y-100625000D01*
X190640000Y-100625000D02*
X190240000Y-100625000D01*
X188140000Y-100625000D02*
X187740000Y-100625000D01*
X185640000Y-100625000D02*
X185240000Y-100625000D01*
X183040000Y-100625000D02*
X182640000Y-100625000D01*
X216140000Y-121625000D02*
X215740000Y-121625000D01*
X211040000Y-121625000D02*
X210640000Y-121625000D01*
X203440000Y-121625000D02*
X203040000Y-121625000D01*
X195740000Y-121625000D02*
X195340000Y-121625000D01*
X226240000Y-121625000D02*
X225840000Y-121625000D01*
X228840000Y-121625000D02*
X228440000Y-121625000D01*
X221140000Y-121625000D02*
X220740000Y-121625000D01*
X188140000Y-121625000D02*
X187740000Y-121625000D01*
X183040000Y-121625000D02*
X182640000Y-121625000D01*
X185640000Y-121625000D02*
X185240000Y-121625000D01*
X200840000Y-121625000D02*
X200440000Y-121625000D01*
X205940000Y-121625000D02*
X205540000Y-121625000D01*
X218640000Y-121625000D02*
X218240000Y-121625000D01*
X213540000Y-121625000D02*
X213140000Y-121625000D01*
X193240000Y-121625000D02*
X192840000Y-121625000D01*
X208440000Y-121625000D02*
X208040000Y-121625000D01*
X231240000Y-121625000D02*
X230940000Y-121625000D01*
X223740000Y-121625000D02*
X223340000Y-121625000D01*
X198340000Y-121625000D02*
X197940000Y-121625000D01*
X190640000Y-121625000D02*
X190240000Y-121625000D01*
X180240000Y-121625000D02*
X180240000Y-114825000D01*
X180240000Y-109625000D02*
X180240000Y-110025000D01*
X180240000Y-112225000D02*
X180240000Y-112625000D01*
D10*
X211923333Y-93702142D02*
X211875714Y-93749761D01*
X211732857Y-93797380D01*
X211637619Y-93797380D01*
X211494761Y-93749761D01*
X211399523Y-93654523D01*
X211351904Y-93559285D01*
X211304285Y-93368809D01*
X211304285Y-93225952D01*
X211351904Y-93035476D01*
X211399523Y-92940238D01*
X211494761Y-92845000D01*
X211637619Y-92797380D01*
X211732857Y-92797380D01*
X211875714Y-92845000D01*
X211923333Y-92892619D01*
X212875714Y-93797380D02*
X212304285Y-93797380D01*
X212590000Y-93797380D02*
X212590000Y-92797380D01*
X212494761Y-92940238D01*
X212399523Y-93035476D01*
X212304285Y-93083095D01*
X223353333Y-92432142D02*
X223305714Y-92479761D01*
X223162857Y-92527380D01*
X223067619Y-92527380D01*
X222924761Y-92479761D01*
X222829523Y-92384523D01*
X222781904Y-92289285D01*
X222734285Y-92098809D01*
X222734285Y-91955952D01*
X222781904Y-91765476D01*
X222829523Y-91670238D01*
X222924761Y-91575000D01*
X223067619Y-91527380D01*
X223162857Y-91527380D01*
X223305714Y-91575000D01*
X223353333Y-91622619D01*
X223734285Y-91622619D02*
X223781904Y-91575000D01*
X223877142Y-91527380D01*
X224115238Y-91527380D01*
X224210476Y-91575000D01*
X224258095Y-91622619D01*
X224305714Y-91717857D01*
X224305714Y-91813095D01*
X224258095Y-91955952D01*
X223686666Y-92527380D01*
X224305714Y-92527380D01*
X155471904Y-99402380D02*
X155471904Y-98402380D01*
X155710000Y-98402380D01*
X155852857Y-98450000D01*
X155948095Y-98545238D01*
X155995714Y-98640476D01*
X156043333Y-98830952D01*
X156043333Y-98973809D01*
X155995714Y-99164285D01*
X155948095Y-99259523D01*
X155852857Y-99354761D01*
X155710000Y-99402380D01*
X155471904Y-99402380D01*
X156995714Y-99402380D02*
X156424285Y-99402380D01*
X156710000Y-99402380D02*
X156710000Y-98402380D01*
X156614761Y-98545238D01*
X156519523Y-98640476D01*
X156424285Y-98688095D01*
X155471904Y-114642380D02*
X155471904Y-113642380D01*
X155710000Y-113642380D01*
X155852857Y-113690000D01*
X155948095Y-113785238D01*
X155995714Y-113880476D01*
X156043333Y-114070952D01*
X156043333Y-114213809D01*
X155995714Y-114404285D01*
X155948095Y-114499523D01*
X155852857Y-114594761D01*
X155710000Y-114642380D01*
X155471904Y-114642380D01*
X156424285Y-113737619D02*
X156471904Y-113690000D01*
X156567142Y-113642380D01*
X156805238Y-113642380D01*
X156900476Y-113690000D01*
X156948095Y-113737619D01*
X156995714Y-113832857D01*
X156995714Y-113928095D01*
X156948095Y-114070952D01*
X156376666Y-114642380D01*
X156995714Y-114642380D01*
X146581904Y-99402380D02*
X146581904Y-98402380D01*
X146820000Y-98402380D01*
X146962857Y-98450000D01*
X147058095Y-98545238D01*
X147105714Y-98640476D01*
X147153333Y-98830952D01*
X147153333Y-98973809D01*
X147105714Y-99164285D01*
X147058095Y-99259523D01*
X146962857Y-99354761D01*
X146820000Y-99402380D01*
X146581904Y-99402380D01*
X147486666Y-98402380D02*
X148105714Y-98402380D01*
X147772380Y-98783333D01*
X147915238Y-98783333D01*
X148010476Y-98830952D01*
X148058095Y-98878571D01*
X148105714Y-98973809D01*
X148105714Y-99211904D01*
X148058095Y-99307142D01*
X148010476Y-99354761D01*
X147915238Y-99402380D01*
X147629523Y-99402380D01*
X147534285Y-99354761D01*
X147486666Y-99307142D01*
X146581904Y-114642380D02*
X146581904Y-113642380D01*
X146820000Y-113642380D01*
X146962857Y-113690000D01*
X147058095Y-113785238D01*
X147105714Y-113880476D01*
X147153333Y-114070952D01*
X147153333Y-114213809D01*
X147105714Y-114404285D01*
X147058095Y-114499523D01*
X146962857Y-114594761D01*
X146820000Y-114642380D01*
X146581904Y-114642380D01*
X148010476Y-113975714D02*
X148010476Y-114642380D01*
X147772380Y-113594761D02*
X147534285Y-114309047D01*
X148153333Y-114309047D01*
X138006904Y-99402380D02*
X138006904Y-98402380D01*
X138245000Y-98402380D01*
X138387857Y-98450000D01*
X138483095Y-98545238D01*
X138530714Y-98640476D01*
X138578333Y-98830952D01*
X138578333Y-98973809D01*
X138530714Y-99164285D01*
X138483095Y-99259523D01*
X138387857Y-99354761D01*
X138245000Y-99402380D01*
X138006904Y-99402380D01*
X139483095Y-98402380D02*
X139006904Y-98402380D01*
X138959285Y-98878571D01*
X139006904Y-98830952D01*
X139102142Y-98783333D01*
X139340238Y-98783333D01*
X139435476Y-98830952D01*
X139483095Y-98878571D01*
X139530714Y-98973809D01*
X139530714Y-99211904D01*
X139483095Y-99307142D01*
X139435476Y-99354761D01*
X139340238Y-99402380D01*
X139102142Y-99402380D01*
X139006904Y-99354761D01*
X138959285Y-99307142D01*
X137691904Y-114642380D02*
X137691904Y-113642380D01*
X137930000Y-113642380D01*
X138072857Y-113690000D01*
X138168095Y-113785238D01*
X138215714Y-113880476D01*
X138263333Y-114070952D01*
X138263333Y-114213809D01*
X138215714Y-114404285D01*
X138168095Y-114499523D01*
X138072857Y-114594761D01*
X137930000Y-114642380D01*
X137691904Y-114642380D01*
X139120476Y-113642380D02*
X138930000Y-113642380D01*
X138834761Y-113690000D01*
X138787142Y-113737619D01*
X138691904Y-113880476D01*
X138644285Y-114070952D01*
X138644285Y-114451904D01*
X138691904Y-114547142D01*
X138739523Y-114594761D01*
X138834761Y-114642380D01*
X139025238Y-114642380D01*
X139120476Y-114594761D01*
X139168095Y-114547142D01*
X139215714Y-114451904D01*
X139215714Y-114213809D01*
X139168095Y-114118571D01*
X139120476Y-114070952D01*
X139025238Y-114023333D01*
X138834761Y-114023333D01*
X138739523Y-114070952D01*
X138691904Y-114118571D01*
X138644285Y-114213809D01*
X129116904Y-99402380D02*
X129116904Y-98402380D01*
X129355000Y-98402380D01*
X129497857Y-98450000D01*
X129593095Y-98545238D01*
X129640714Y-98640476D01*
X129688333Y-98830952D01*
X129688333Y-98973809D01*
X129640714Y-99164285D01*
X129593095Y-99259523D01*
X129497857Y-99354761D01*
X129355000Y-99402380D01*
X129116904Y-99402380D01*
X130021666Y-98402380D02*
X130688333Y-98402380D01*
X130259761Y-99402380D01*
X128801904Y-114642380D02*
X128801904Y-113642380D01*
X129040000Y-113642380D01*
X129182857Y-113690000D01*
X129278095Y-113785238D01*
X129325714Y-113880476D01*
X129373333Y-114070952D01*
X129373333Y-114213809D01*
X129325714Y-114404285D01*
X129278095Y-114499523D01*
X129182857Y-114594761D01*
X129040000Y-114642380D01*
X128801904Y-114642380D01*
X129944761Y-114070952D02*
X129849523Y-114023333D01*
X129801904Y-113975714D01*
X129754285Y-113880476D01*
X129754285Y-113832857D01*
X129801904Y-113737619D01*
X129849523Y-113690000D01*
X129944761Y-113642380D01*
X130135238Y-113642380D01*
X130230476Y-113690000D01*
X130278095Y-113737619D01*
X130325714Y-113832857D01*
X130325714Y-113880476D01*
X130278095Y-113975714D01*
X130230476Y-114023333D01*
X130135238Y-114070952D01*
X129944761Y-114070952D01*
X129849523Y-114118571D01*
X129801904Y-114166190D01*
X129754285Y-114261428D01*
X129754285Y-114451904D01*
X129801904Y-114547142D01*
X129849523Y-114594761D01*
X129944761Y-114642380D01*
X130135238Y-114642380D01*
X130230476Y-114594761D01*
X130278095Y-114547142D01*
X130325714Y-114451904D01*
X130325714Y-114261428D01*
X130278095Y-114166190D01*
X130230476Y-114118571D01*
X130135238Y-114070952D01*
X118641904Y-99402380D02*
X118641904Y-98402380D01*
X118880000Y-98402380D01*
X119022857Y-98450000D01*
X119118095Y-98545238D01*
X119165714Y-98640476D01*
X119213333Y-98830952D01*
X119213333Y-98973809D01*
X119165714Y-99164285D01*
X119118095Y-99259523D01*
X119022857Y-99354761D01*
X118880000Y-99402380D01*
X118641904Y-99402380D01*
X119689523Y-99402380D02*
X119880000Y-99402380D01*
X119975238Y-99354761D01*
X120022857Y-99307142D01*
X120118095Y-99164285D01*
X120165714Y-98973809D01*
X120165714Y-98592857D01*
X120118095Y-98497619D01*
X120070476Y-98450000D01*
X119975238Y-98402380D01*
X119784761Y-98402380D01*
X119689523Y-98450000D01*
X119641904Y-98497619D01*
X119594285Y-98592857D01*
X119594285Y-98830952D01*
X119641904Y-98926190D01*
X119689523Y-98973809D01*
X119784761Y-99021428D01*
X119975238Y-99021428D01*
X120070476Y-98973809D01*
X120118095Y-98926190D01*
X120165714Y-98830952D01*
X118165714Y-114642380D02*
X118165714Y-113642380D01*
X118403809Y-113642380D01*
X118546666Y-113690000D01*
X118641904Y-113785238D01*
X118689523Y-113880476D01*
X118737142Y-114070952D01*
X118737142Y-114213809D01*
X118689523Y-114404285D01*
X118641904Y-114499523D01*
X118546666Y-114594761D01*
X118403809Y-114642380D01*
X118165714Y-114642380D01*
X119689523Y-114642380D02*
X119118095Y-114642380D01*
X119403809Y-114642380D02*
X119403809Y-113642380D01*
X119308571Y-113785238D01*
X119213333Y-113880476D01*
X119118095Y-113928095D01*
X120308571Y-113642380D02*
X120403809Y-113642380D01*
X120499047Y-113690000D01*
X120546666Y-113737619D01*
X120594285Y-113832857D01*
X120641904Y-114023333D01*
X120641904Y-114261428D01*
X120594285Y-114451904D01*
X120546666Y-114547142D01*
X120499047Y-114594761D01*
X120403809Y-114642380D01*
X120308571Y-114642380D01*
X120213333Y-114594761D01*
X120165714Y-114547142D01*
X120118095Y-114451904D01*
X120070476Y-114261428D01*
X120070476Y-114023333D01*
X120118095Y-113832857D01*
X120165714Y-113737619D01*
X120213333Y-113690000D01*
X120308571Y-113642380D01*
X135945714Y-74002380D02*
X135945714Y-73002380D01*
X136183809Y-73002380D01*
X136326666Y-73050000D01*
X136421904Y-73145238D01*
X136469523Y-73240476D01*
X136517142Y-73430952D01*
X136517142Y-73573809D01*
X136469523Y-73764285D01*
X136421904Y-73859523D01*
X136326666Y-73954761D01*
X136183809Y-74002380D01*
X135945714Y-74002380D01*
X137469523Y-74002380D02*
X136898095Y-74002380D01*
X137183809Y-74002380D02*
X137183809Y-73002380D01*
X137088571Y-73145238D01*
X136993333Y-73240476D01*
X136898095Y-73288095D01*
X138421904Y-74002380D02*
X137850476Y-74002380D01*
X138136190Y-74002380D02*
X138136190Y-73002380D01*
X138040952Y-73145238D01*
X137945714Y-73240476D01*
X137850476Y-73288095D01*
X135945714Y-89242380D02*
X135945714Y-88242380D01*
X136183809Y-88242380D01*
X136326666Y-88290000D01*
X136421904Y-88385238D01*
X136469523Y-88480476D01*
X136517142Y-88670952D01*
X136517142Y-88813809D01*
X136469523Y-89004285D01*
X136421904Y-89099523D01*
X136326666Y-89194761D01*
X136183809Y-89242380D01*
X135945714Y-89242380D01*
X137469523Y-89242380D02*
X136898095Y-89242380D01*
X137183809Y-89242380D02*
X137183809Y-88242380D01*
X137088571Y-88385238D01*
X136993333Y-88480476D01*
X136898095Y-88528095D01*
X137850476Y-88337619D02*
X137898095Y-88290000D01*
X137993333Y-88242380D01*
X138231428Y-88242380D01*
X138326666Y-88290000D01*
X138374285Y-88337619D01*
X138421904Y-88432857D01*
X138421904Y-88528095D01*
X138374285Y-88670952D01*
X137802857Y-89242380D01*
X138421904Y-89242380D01*
X127055714Y-74002380D02*
X127055714Y-73002380D01*
X127293809Y-73002380D01*
X127436666Y-73050000D01*
X127531904Y-73145238D01*
X127579523Y-73240476D01*
X127627142Y-73430952D01*
X127627142Y-73573809D01*
X127579523Y-73764285D01*
X127531904Y-73859523D01*
X127436666Y-73954761D01*
X127293809Y-74002380D01*
X127055714Y-74002380D01*
X128579523Y-74002380D02*
X128008095Y-74002380D01*
X128293809Y-74002380D02*
X128293809Y-73002380D01*
X128198571Y-73145238D01*
X128103333Y-73240476D01*
X128008095Y-73288095D01*
X128912857Y-73002380D02*
X129531904Y-73002380D01*
X129198571Y-73383333D01*
X129341428Y-73383333D01*
X129436666Y-73430952D01*
X129484285Y-73478571D01*
X129531904Y-73573809D01*
X129531904Y-73811904D01*
X129484285Y-73907142D01*
X129436666Y-73954761D01*
X129341428Y-74002380D01*
X129055714Y-74002380D01*
X128960476Y-73954761D01*
X128912857Y-73907142D01*
X127055714Y-89242380D02*
X127055714Y-88242380D01*
X127293809Y-88242380D01*
X127436666Y-88290000D01*
X127531904Y-88385238D01*
X127579523Y-88480476D01*
X127627142Y-88670952D01*
X127627142Y-88813809D01*
X127579523Y-89004285D01*
X127531904Y-89099523D01*
X127436666Y-89194761D01*
X127293809Y-89242380D01*
X127055714Y-89242380D01*
X128579523Y-89242380D02*
X128008095Y-89242380D01*
X128293809Y-89242380D02*
X128293809Y-88242380D01*
X128198571Y-88385238D01*
X128103333Y-88480476D01*
X128008095Y-88528095D01*
X129436666Y-88575714D02*
X129436666Y-89242380D01*
X129198571Y-88194761D02*
X128960476Y-88909047D01*
X129579523Y-88909047D01*
X118165714Y-74002380D02*
X118165714Y-73002380D01*
X118403809Y-73002380D01*
X118546666Y-73050000D01*
X118641904Y-73145238D01*
X118689523Y-73240476D01*
X118737142Y-73430952D01*
X118737142Y-73573809D01*
X118689523Y-73764285D01*
X118641904Y-73859523D01*
X118546666Y-73954761D01*
X118403809Y-74002380D01*
X118165714Y-74002380D01*
X119689523Y-74002380D02*
X119118095Y-74002380D01*
X119403809Y-74002380D02*
X119403809Y-73002380D01*
X119308571Y-73145238D01*
X119213333Y-73240476D01*
X119118095Y-73288095D01*
X120594285Y-73002380D02*
X120118095Y-73002380D01*
X120070476Y-73478571D01*
X120118095Y-73430952D01*
X120213333Y-73383333D01*
X120451428Y-73383333D01*
X120546666Y-73430952D01*
X120594285Y-73478571D01*
X120641904Y-73573809D01*
X120641904Y-73811904D01*
X120594285Y-73907142D01*
X120546666Y-73954761D01*
X120451428Y-74002380D01*
X120213333Y-74002380D01*
X120118095Y-73954761D01*
X120070476Y-73907142D01*
X118480714Y-89242380D02*
X118480714Y-88242380D01*
X118718809Y-88242380D01*
X118861666Y-88290000D01*
X118956904Y-88385238D01*
X119004523Y-88480476D01*
X119052142Y-88670952D01*
X119052142Y-88813809D01*
X119004523Y-89004285D01*
X118956904Y-89099523D01*
X118861666Y-89194761D01*
X118718809Y-89242380D01*
X118480714Y-89242380D01*
X120004523Y-89242380D02*
X119433095Y-89242380D01*
X119718809Y-89242380D02*
X119718809Y-88242380D01*
X119623571Y-88385238D01*
X119528333Y-88480476D01*
X119433095Y-88528095D01*
X120861666Y-88242380D02*
X120671190Y-88242380D01*
X120575952Y-88290000D01*
X120528333Y-88337619D01*
X120433095Y-88480476D01*
X120385476Y-88670952D01*
X120385476Y-89051904D01*
X120433095Y-89147142D01*
X120480714Y-89194761D01*
X120575952Y-89242380D01*
X120766428Y-89242380D01*
X120861666Y-89194761D01*
X120909285Y-89147142D01*
X120956904Y-89051904D01*
X120956904Y-88813809D01*
X120909285Y-88718571D01*
X120861666Y-88670952D01*
X120766428Y-88623333D01*
X120575952Y-88623333D01*
X120480714Y-88670952D01*
X120433095Y-88718571D01*
X120385476Y-88813809D01*
X199641666Y-71982380D02*
X199641666Y-72696666D01*
X199594047Y-72839523D01*
X199498809Y-72934761D01*
X199355952Y-72982380D01*
X199260714Y-72982380D01*
X200641666Y-72982380D02*
X200070238Y-72982380D01*
X200355952Y-72982380D02*
X200355952Y-71982380D01*
X200260714Y-72125238D01*
X200165476Y-72220476D01*
X200070238Y-72268095D01*
X175511666Y-71982380D02*
X175511666Y-72696666D01*
X175464047Y-72839523D01*
X175368809Y-72934761D01*
X175225952Y-72982380D01*
X175130714Y-72982380D01*
X175940238Y-72077619D02*
X175987857Y-72030000D01*
X176083095Y-71982380D01*
X176321190Y-71982380D01*
X176416428Y-72030000D01*
X176464047Y-72077619D01*
X176511666Y-72172857D01*
X176511666Y-72268095D01*
X176464047Y-72410952D01*
X175892619Y-72982380D01*
X176511666Y-72982380D01*
X216978732Y-71306319D02*
X216978732Y-72022061D01*
X216931015Y-72165209D01*
X216835583Y-72260642D01*
X216692435Y-72308358D01*
X216597002Y-72308358D01*
X217360461Y-71306319D02*
X217980771Y-71306319D01*
X217646758Y-71688048D01*
X217789906Y-71688048D01*
X217885338Y-71735764D01*
X217933054Y-71783480D01*
X217980771Y-71878913D01*
X217980771Y-72117493D01*
X217933054Y-72212926D01*
X217885338Y-72260642D01*
X217789906Y-72308358D01*
X217503609Y-72308358D01*
X217408177Y-72260642D01*
X217360461Y-72212926D01*
X148512919Y-69757159D02*
X148512919Y-70471760D01*
X148465279Y-70614680D01*
X148369999Y-70709960D01*
X148227079Y-70757600D01*
X148131799Y-70757600D01*
X149418080Y-70090639D02*
X149418080Y-70757600D01*
X149179880Y-69709519D02*
X148941680Y-70424120D01*
X149561000Y-70424120D01*
X157552380Y-121816666D02*
X157076190Y-122150000D01*
X157552380Y-122388095D02*
X156552380Y-122388095D01*
X156552380Y-122007142D01*
X156600000Y-121911904D01*
X156647619Y-121864285D01*
X156742857Y-121816666D01*
X156885714Y-121816666D01*
X156980952Y-121864285D01*
X157028571Y-121911904D01*
X157076190Y-122007142D01*
X157076190Y-122388095D01*
X157552380Y-120864285D02*
X157552380Y-121435714D01*
X157552380Y-121150000D02*
X156552380Y-121150000D01*
X156695238Y-121245238D01*
X156790476Y-121340476D01*
X156838095Y-121435714D01*
X152472380Y-121816666D02*
X151996190Y-122150000D01*
X152472380Y-122388095D02*
X151472380Y-122388095D01*
X151472380Y-122007142D01*
X151520000Y-121911904D01*
X151567619Y-121864285D01*
X151662857Y-121816666D01*
X151805714Y-121816666D01*
X151900952Y-121864285D01*
X151948571Y-121911904D01*
X151996190Y-122007142D01*
X151996190Y-122388095D01*
X151567619Y-121435714D02*
X151520000Y-121388095D01*
X151472380Y-121292857D01*
X151472380Y-121054761D01*
X151520000Y-120959523D01*
X151567619Y-120911904D01*
X151662857Y-120864285D01*
X151758095Y-120864285D01*
X151900952Y-120911904D01*
X152472380Y-121483333D01*
X152472380Y-120864285D01*
X148662380Y-121816666D02*
X148186190Y-122150000D01*
X148662380Y-122388095D02*
X147662380Y-122388095D01*
X147662380Y-122007142D01*
X147710000Y-121911904D01*
X147757619Y-121864285D01*
X147852857Y-121816666D01*
X147995714Y-121816666D01*
X148090952Y-121864285D01*
X148138571Y-121911904D01*
X148186190Y-122007142D01*
X148186190Y-122388095D01*
X147662380Y-121483333D02*
X147662380Y-120864285D01*
X148043333Y-121197619D01*
X148043333Y-121054761D01*
X148090952Y-120959523D01*
X148138571Y-120911904D01*
X148233809Y-120864285D01*
X148471904Y-120864285D01*
X148567142Y-120911904D01*
X148614761Y-120959523D01*
X148662380Y-121054761D01*
X148662380Y-121340476D01*
X148614761Y-121435714D01*
X148567142Y-121483333D01*
X143582380Y-121816666D02*
X143106190Y-122150000D01*
X143582380Y-122388095D02*
X142582380Y-122388095D01*
X142582380Y-122007142D01*
X142630000Y-121911904D01*
X142677619Y-121864285D01*
X142772857Y-121816666D01*
X142915714Y-121816666D01*
X143010952Y-121864285D01*
X143058571Y-121911904D01*
X143106190Y-122007142D01*
X143106190Y-122388095D01*
X142915714Y-120959523D02*
X143582380Y-120959523D01*
X142534761Y-121197619D02*
X143249047Y-121435714D01*
X143249047Y-120816666D01*
X139772380Y-121816666D02*
X139296190Y-122150000D01*
X139772380Y-122388095D02*
X138772380Y-122388095D01*
X138772380Y-122007142D01*
X138820000Y-121911904D01*
X138867619Y-121864285D01*
X138962857Y-121816666D01*
X139105714Y-121816666D01*
X139200952Y-121864285D01*
X139248571Y-121911904D01*
X139296190Y-122007142D01*
X139296190Y-122388095D01*
X138772380Y-120911904D02*
X138772380Y-121388095D01*
X139248571Y-121435714D01*
X139200952Y-121388095D01*
X139153333Y-121292857D01*
X139153333Y-121054761D01*
X139200952Y-120959523D01*
X139248571Y-120911904D01*
X139343809Y-120864285D01*
X139581904Y-120864285D01*
X139677142Y-120911904D01*
X139724761Y-120959523D01*
X139772380Y-121054761D01*
X139772380Y-121292857D01*
X139724761Y-121388095D01*
X139677142Y-121435714D01*
X134692380Y-121816666D02*
X134216190Y-122150000D01*
X134692380Y-122388095D02*
X133692380Y-122388095D01*
X133692380Y-122007142D01*
X133740000Y-121911904D01*
X133787619Y-121864285D01*
X133882857Y-121816666D01*
X134025714Y-121816666D01*
X134120952Y-121864285D01*
X134168571Y-121911904D01*
X134216190Y-122007142D01*
X134216190Y-122388095D01*
X133692380Y-120959523D02*
X133692380Y-121150000D01*
X133740000Y-121245238D01*
X133787619Y-121292857D01*
X133930476Y-121388095D01*
X134120952Y-121435714D01*
X134501904Y-121435714D01*
X134597142Y-121388095D01*
X134644761Y-121340476D01*
X134692380Y-121245238D01*
X134692380Y-121054761D01*
X134644761Y-120959523D01*
X134597142Y-120911904D01*
X134501904Y-120864285D01*
X134263809Y-120864285D01*
X134168571Y-120911904D01*
X134120952Y-120959523D01*
X134073333Y-121054761D01*
X134073333Y-121245238D01*
X134120952Y-121340476D01*
X134168571Y-121388095D01*
X134263809Y-121435714D01*
X130882380Y-121816666D02*
X130406190Y-122150000D01*
X130882380Y-122388095D02*
X129882380Y-122388095D01*
X129882380Y-122007142D01*
X129930000Y-121911904D01*
X129977619Y-121864285D01*
X130072857Y-121816666D01*
X130215714Y-121816666D01*
X130310952Y-121864285D01*
X130358571Y-121911904D01*
X130406190Y-122007142D01*
X130406190Y-122388095D01*
X129882380Y-121483333D02*
X129882380Y-120816666D01*
X130882380Y-121245238D01*
X125802380Y-121816666D02*
X125326190Y-122150000D01*
X125802380Y-122388095D02*
X124802380Y-122388095D01*
X124802380Y-122007142D01*
X124850000Y-121911904D01*
X124897619Y-121864285D01*
X124992857Y-121816666D01*
X125135714Y-121816666D01*
X125230952Y-121864285D01*
X125278571Y-121911904D01*
X125326190Y-122007142D01*
X125326190Y-122388095D01*
X125230952Y-121245238D02*
X125183333Y-121340476D01*
X125135714Y-121388095D01*
X125040476Y-121435714D01*
X124992857Y-121435714D01*
X124897619Y-121388095D01*
X124850000Y-121340476D01*
X124802380Y-121245238D01*
X124802380Y-121054761D01*
X124850000Y-120959523D01*
X124897619Y-120911904D01*
X124992857Y-120864285D01*
X125040476Y-120864285D01*
X125135714Y-120911904D01*
X125183333Y-120959523D01*
X125230952Y-121054761D01*
X125230952Y-121245238D01*
X125278571Y-121340476D01*
X125326190Y-121388095D01*
X125421428Y-121435714D01*
X125611904Y-121435714D01*
X125707142Y-121388095D01*
X125754761Y-121340476D01*
X125802380Y-121245238D01*
X125802380Y-121054761D01*
X125754761Y-120959523D01*
X125707142Y-120911904D01*
X125611904Y-120864285D01*
X125421428Y-120864285D01*
X125326190Y-120911904D01*
X125278571Y-120959523D01*
X125230952Y-121054761D01*
X120722380Y-121816666D02*
X120246190Y-122150000D01*
X120722380Y-122388095D02*
X119722380Y-122388095D01*
X119722380Y-122007142D01*
X119770000Y-121911904D01*
X119817619Y-121864285D01*
X119912857Y-121816666D01*
X120055714Y-121816666D01*
X120150952Y-121864285D01*
X120198571Y-121911904D01*
X120246190Y-122007142D01*
X120246190Y-122388095D01*
X120722380Y-121340476D02*
X120722380Y-121150000D01*
X120674761Y-121054761D01*
X120627142Y-121007142D01*
X120484285Y-120911904D01*
X120293809Y-120864285D01*
X119912857Y-120864285D01*
X119817619Y-120911904D01*
X119770000Y-120959523D01*
X119722380Y-121054761D01*
X119722380Y-121245238D01*
X119770000Y-121340476D01*
X119817619Y-121388095D01*
X119912857Y-121435714D01*
X120150952Y-121435714D01*
X120246190Y-121388095D01*
X120293809Y-121340476D01*
X120341428Y-121245238D01*
X120341428Y-121054761D01*
X120293809Y-120959523D01*
X120246190Y-120911904D01*
X120150952Y-120864285D01*
X115642380Y-122292857D02*
X115166190Y-122626190D01*
X115642380Y-122864285D02*
X114642380Y-122864285D01*
X114642380Y-122483333D01*
X114690000Y-122388095D01*
X114737619Y-122340476D01*
X114832857Y-122292857D01*
X114975714Y-122292857D01*
X115070952Y-122340476D01*
X115118571Y-122388095D01*
X115166190Y-122483333D01*
X115166190Y-122864285D01*
X115642380Y-121340476D02*
X115642380Y-121911904D01*
X115642380Y-121626190D02*
X114642380Y-121626190D01*
X114785238Y-121721428D01*
X114880476Y-121816666D01*
X114928095Y-121911904D01*
X114642380Y-120721428D02*
X114642380Y-120626190D01*
X114690000Y-120530952D01*
X114737619Y-120483333D01*
X114832857Y-120435714D01*
X115023333Y-120388095D01*
X115261428Y-120388095D01*
X115451904Y-120435714D01*
X115547142Y-120483333D01*
X115594761Y-120530952D01*
X115642380Y-120626190D01*
X115642380Y-120721428D01*
X115594761Y-120816666D01*
X115547142Y-120864285D01*
X115451904Y-120911904D01*
X115261428Y-120959523D01*
X115023333Y-120959523D01*
X114832857Y-120911904D01*
X114737619Y-120864285D01*
X114690000Y-120816666D01*
X114642380Y-120721428D01*
X138502380Y-96892857D02*
X138026190Y-97226190D01*
X138502380Y-97464285D02*
X137502380Y-97464285D01*
X137502380Y-97083333D01*
X137550000Y-96988095D01*
X137597619Y-96940476D01*
X137692857Y-96892857D01*
X137835714Y-96892857D01*
X137930952Y-96940476D01*
X137978571Y-96988095D01*
X138026190Y-97083333D01*
X138026190Y-97464285D01*
X138502380Y-95940476D02*
X138502380Y-96511904D01*
X138502380Y-96226190D02*
X137502380Y-96226190D01*
X137645238Y-96321428D01*
X137740476Y-96416666D01*
X137788095Y-96511904D01*
X138502380Y-94988095D02*
X138502380Y-95559523D01*
X138502380Y-95273809D02*
X137502380Y-95273809D01*
X137645238Y-95369047D01*
X137740476Y-95464285D01*
X137788095Y-95559523D01*
X133422380Y-96892857D02*
X132946190Y-97226190D01*
X133422380Y-97464285D02*
X132422380Y-97464285D01*
X132422380Y-97083333D01*
X132470000Y-96988095D01*
X132517619Y-96940476D01*
X132612857Y-96892857D01*
X132755714Y-96892857D01*
X132850952Y-96940476D01*
X132898571Y-96988095D01*
X132946190Y-97083333D01*
X132946190Y-97464285D01*
X133422380Y-95940476D02*
X133422380Y-96511904D01*
X133422380Y-96226190D02*
X132422380Y-96226190D01*
X132565238Y-96321428D01*
X132660476Y-96416666D01*
X132708095Y-96511904D01*
X132517619Y-95559523D02*
X132470000Y-95511904D01*
X132422380Y-95416666D01*
X132422380Y-95178571D01*
X132470000Y-95083333D01*
X132517619Y-95035714D01*
X132612857Y-94988095D01*
X132708095Y-94988095D01*
X132850952Y-95035714D01*
X133422380Y-95607142D01*
X133422380Y-94988095D01*
X129612380Y-96892857D02*
X129136190Y-97226190D01*
X129612380Y-97464285D02*
X128612380Y-97464285D01*
X128612380Y-97083333D01*
X128660000Y-96988095D01*
X128707619Y-96940476D01*
X128802857Y-96892857D01*
X128945714Y-96892857D01*
X129040952Y-96940476D01*
X129088571Y-96988095D01*
X129136190Y-97083333D01*
X129136190Y-97464285D01*
X129612380Y-95940476D02*
X129612380Y-96511904D01*
X129612380Y-96226190D02*
X128612380Y-96226190D01*
X128755238Y-96321428D01*
X128850476Y-96416666D01*
X128898095Y-96511904D01*
X128612380Y-95607142D02*
X128612380Y-94988095D01*
X128993333Y-95321428D01*
X128993333Y-95178571D01*
X129040952Y-95083333D01*
X129088571Y-95035714D01*
X129183809Y-94988095D01*
X129421904Y-94988095D01*
X129517142Y-95035714D01*
X129564761Y-95083333D01*
X129612380Y-95178571D01*
X129612380Y-95464285D01*
X129564761Y-95559523D01*
X129517142Y-95607142D01*
X124532380Y-96797857D02*
X124056190Y-97131190D01*
X124532380Y-97369285D02*
X123532380Y-97369285D01*
X123532380Y-96988333D01*
X123580000Y-96893095D01*
X123627619Y-96845476D01*
X123722857Y-96797857D01*
X123865714Y-96797857D01*
X123960952Y-96845476D01*
X124008571Y-96893095D01*
X124056190Y-96988333D01*
X124056190Y-97369285D01*
X124532380Y-95845476D02*
X124532380Y-96416904D01*
X124532380Y-96131190D02*
X123532380Y-96131190D01*
X123675238Y-96226428D01*
X123770476Y-96321666D01*
X123818095Y-96416904D01*
X123865714Y-94988333D02*
X124532380Y-94988333D01*
X123484761Y-95226428D02*
X124199047Y-95464523D01*
X124199047Y-94845476D01*
X120722380Y-96892857D02*
X120246190Y-97226190D01*
X120722380Y-97464285D02*
X119722380Y-97464285D01*
X119722380Y-97083333D01*
X119770000Y-96988095D01*
X119817619Y-96940476D01*
X119912857Y-96892857D01*
X120055714Y-96892857D01*
X120150952Y-96940476D01*
X120198571Y-96988095D01*
X120246190Y-97083333D01*
X120246190Y-97464285D01*
X120722380Y-95940476D02*
X120722380Y-96511904D01*
X120722380Y-96226190D02*
X119722380Y-96226190D01*
X119865238Y-96321428D01*
X119960476Y-96416666D01*
X120008095Y-96511904D01*
X119722380Y-95035714D02*
X119722380Y-95511904D01*
X120198571Y-95559523D01*
X120150952Y-95511904D01*
X120103333Y-95416666D01*
X120103333Y-95178571D01*
X120150952Y-95083333D01*
X120198571Y-95035714D01*
X120293809Y-94988095D01*
X120531904Y-94988095D01*
X120627142Y-95035714D01*
X120674761Y-95083333D01*
X120722380Y-95178571D01*
X120722380Y-95416666D01*
X120674761Y-95511904D01*
X120627142Y-95559523D01*
X116277380Y-96797857D02*
X115801190Y-97131190D01*
X116277380Y-97369285D02*
X115277380Y-97369285D01*
X115277380Y-96988333D01*
X115325000Y-96893095D01*
X115372619Y-96845476D01*
X115467857Y-96797857D01*
X115610714Y-96797857D01*
X115705952Y-96845476D01*
X115753571Y-96893095D01*
X115801190Y-96988333D01*
X115801190Y-97369285D01*
X116277380Y-95845476D02*
X116277380Y-96416904D01*
X116277380Y-96131190D02*
X115277380Y-96131190D01*
X115420238Y-96226428D01*
X115515476Y-96321666D01*
X115563095Y-96416904D01*
X115277380Y-94988333D02*
X115277380Y-95178809D01*
X115325000Y-95274047D01*
X115372619Y-95321666D01*
X115515476Y-95416904D01*
X115705952Y-95464523D01*
X116086904Y-95464523D01*
X116182142Y-95416904D01*
X116229761Y-95369285D01*
X116277380Y-95274047D01*
X116277380Y-95083571D01*
X116229761Y-94988333D01*
X116182142Y-94940714D01*
X116086904Y-94893095D01*
X115848809Y-94893095D01*
X115753571Y-94940714D01*
X115705952Y-94988333D01*
X115658333Y-95083571D01*
X115658333Y-95274047D01*
X115705952Y-95369285D01*
X115753571Y-95416904D01*
X115848809Y-95464523D01*
X152330380Y-110336904D02*
X153139904Y-110336904D01*
X153235142Y-110289285D01*
X153282761Y-110241666D01*
X153330380Y-110146428D01*
X153330380Y-109955952D01*
X153282761Y-109860714D01*
X153235142Y-109813095D01*
X153139904Y-109765476D01*
X152330380Y-109765476D01*
X152425619Y-109336904D02*
X152378000Y-109289285D01*
X152330380Y-109194047D01*
X152330380Y-108955952D01*
X152378000Y-108860714D01*
X152425619Y-108813095D01*
X152520857Y-108765476D01*
X152616095Y-108765476D01*
X152758952Y-108813095D01*
X153330380Y-109384523D01*
X153330380Y-108765476D01*
X143440380Y-110336904D02*
X144249904Y-110336904D01*
X144345142Y-110289285D01*
X144392761Y-110241666D01*
X144440380Y-110146428D01*
X144440380Y-109955952D01*
X144392761Y-109860714D01*
X144345142Y-109813095D01*
X144249904Y-109765476D01*
X143440380Y-109765476D01*
X143440380Y-109384523D02*
X143440380Y-108765476D01*
X143821333Y-109098809D01*
X143821333Y-108955952D01*
X143868952Y-108860714D01*
X143916571Y-108813095D01*
X144011809Y-108765476D01*
X144249904Y-108765476D01*
X144345142Y-108813095D01*
X144392761Y-108860714D01*
X144440380Y-108955952D01*
X144440380Y-109241666D01*
X144392761Y-109336904D01*
X144345142Y-109384523D01*
X134550380Y-110336904D02*
X135359904Y-110336904D01*
X135455142Y-110289285D01*
X135502761Y-110241666D01*
X135550380Y-110146428D01*
X135550380Y-109955952D01*
X135502761Y-109860714D01*
X135455142Y-109813095D01*
X135359904Y-109765476D01*
X134550380Y-109765476D01*
X134883714Y-108860714D02*
X135550380Y-108860714D01*
X134502761Y-109098809D02*
X135217047Y-109336904D01*
X135217047Y-108717857D01*
X125660380Y-110336904D02*
X126469904Y-110336904D01*
X126565142Y-110289285D01*
X126612761Y-110241666D01*
X126660380Y-110146428D01*
X126660380Y-109955952D01*
X126612761Y-109860714D01*
X126565142Y-109813095D01*
X126469904Y-109765476D01*
X125660380Y-109765476D01*
X125660380Y-108813095D02*
X125660380Y-109289285D01*
X126136571Y-109336904D01*
X126088952Y-109289285D01*
X126041333Y-109194047D01*
X126041333Y-108955952D01*
X126088952Y-108860714D01*
X126136571Y-108813095D01*
X126231809Y-108765476D01*
X126469904Y-108765476D01*
X126565142Y-108813095D01*
X126612761Y-108860714D01*
X126660380Y-108955952D01*
X126660380Y-109194047D01*
X126612761Y-109289285D01*
X126565142Y-109336904D01*
X174498095Y-122007380D02*
X174498095Y-122816904D01*
X174545714Y-122912142D01*
X174593333Y-122959761D01*
X174688571Y-123007380D01*
X174879047Y-123007380D01*
X174974285Y-122959761D01*
X175021904Y-122912142D01*
X175069523Y-122816904D01*
X175069523Y-122007380D01*
X175974285Y-122007380D02*
X175783809Y-122007380D01*
X175688571Y-122055000D01*
X175640952Y-122102619D01*
X175545714Y-122245476D01*
X175498095Y-122435952D01*
X175498095Y-122816904D01*
X175545714Y-122912142D01*
X175593333Y-122959761D01*
X175688571Y-123007380D01*
X175879047Y-123007380D01*
X175974285Y-122959761D01*
X176021904Y-122912142D01*
X176069523Y-122816904D01*
X176069523Y-122578809D01*
X176021904Y-122483571D01*
X175974285Y-122435952D01*
X175879047Y-122388333D01*
X175688571Y-122388333D01*
X175593333Y-122435952D01*
X175545714Y-122483571D01*
X175498095Y-122578809D01*
X171386666Y-119467380D02*
X171720000Y-120467380D01*
X172053333Y-119467380D01*
X172958095Y-120372142D02*
X172910476Y-120419761D01*
X172767619Y-120467380D01*
X172672380Y-120467380D01*
X172529523Y-120419761D01*
X172434285Y-120324523D01*
X172386666Y-120229285D01*
X172339047Y-120038809D01*
X172339047Y-119895952D01*
X172386666Y-119705476D01*
X172434285Y-119610238D01*
X172529523Y-119515000D01*
X172672380Y-119467380D01*
X172767619Y-119467380D01*
X172910476Y-119515000D01*
X172958095Y-119562619D01*
X173958095Y-120372142D02*
X173910476Y-120419761D01*
X173767619Y-120467380D01*
X173672380Y-120467380D01*
X173529523Y-120419761D01*
X173434285Y-120324523D01*
X173386666Y-120229285D01*
X173339047Y-120038809D01*
X173339047Y-119895952D01*
X173386666Y-119705476D01*
X173434285Y-119610238D01*
X173529523Y-119515000D01*
X173672380Y-119467380D01*
X173767619Y-119467380D01*
X173910476Y-119515000D01*
X173958095Y-119562619D01*
X171958095Y-116975000D02*
X171862857Y-116927380D01*
X171720000Y-116927380D01*
X171577142Y-116975000D01*
X171481904Y-117070238D01*
X171434285Y-117165476D01*
X171386666Y-117355952D01*
X171386666Y-117498809D01*
X171434285Y-117689285D01*
X171481904Y-117784523D01*
X171577142Y-117879761D01*
X171720000Y-117927380D01*
X171815238Y-117927380D01*
X171958095Y-117879761D01*
X172005714Y-117832142D01*
X172005714Y-117498809D01*
X171815238Y-117498809D01*
X172434285Y-117927380D02*
X172434285Y-116927380D01*
X173005714Y-117927380D01*
X173005714Y-116927380D01*
X173481904Y-117927380D02*
X173481904Y-116927380D01*
X173720000Y-116927380D01*
X173862857Y-116975000D01*
X173958095Y-117070238D01*
X174005714Y-117165476D01*
X174053333Y-117355952D01*
X174053333Y-117498809D01*
X174005714Y-117689285D01*
X173958095Y-117784523D01*
X173862857Y-117879761D01*
X173720000Y-117927380D01*
X173481904Y-117927380D01*
X171529523Y-115339761D02*
X171672380Y-115387380D01*
X171910476Y-115387380D01*
X172005714Y-115339761D01*
X172053333Y-115292142D01*
X172100952Y-115196904D01*
X172100952Y-115101666D01*
X172053333Y-115006428D01*
X172005714Y-114958809D01*
X171910476Y-114911190D01*
X171720000Y-114863571D01*
X171624761Y-114815952D01*
X171577142Y-114768333D01*
X171529523Y-114673095D01*
X171529523Y-114577857D01*
X171577142Y-114482619D01*
X171624761Y-114435000D01*
X171720000Y-114387380D01*
X171958095Y-114387380D01*
X172100952Y-114435000D01*
X173100952Y-115292142D02*
X173053333Y-115339761D01*
X172910476Y-115387380D01*
X172815238Y-115387380D01*
X172672380Y-115339761D01*
X172577142Y-115244523D01*
X172529523Y-115149285D01*
X172481904Y-114958809D01*
X172481904Y-114815952D01*
X172529523Y-114625476D01*
X172577142Y-114530238D01*
X172672380Y-114435000D01*
X172815238Y-114387380D01*
X172910476Y-114387380D01*
X173053333Y-114435000D01*
X173100952Y-114482619D01*
X174005714Y-115387380D02*
X173529523Y-115387380D01*
X173529523Y-114387380D01*
X171505714Y-112799761D02*
X171648571Y-112847380D01*
X171886666Y-112847380D01*
X171981904Y-112799761D01*
X172029523Y-112752142D01*
X172077142Y-112656904D01*
X172077142Y-112561666D01*
X172029523Y-112466428D01*
X171981904Y-112418809D01*
X171886666Y-112371190D01*
X171696190Y-112323571D01*
X171600952Y-112275952D01*
X171553333Y-112228333D01*
X171505714Y-112133095D01*
X171505714Y-112037857D01*
X171553333Y-111942619D01*
X171600952Y-111895000D01*
X171696190Y-111847380D01*
X171934285Y-111847380D01*
X172077142Y-111895000D01*
X172505714Y-112847380D02*
X172505714Y-111847380D01*
X172743809Y-111847380D01*
X172886666Y-111895000D01*
X172981904Y-111990238D01*
X173029523Y-112085476D01*
X173077142Y-112275952D01*
X173077142Y-112418809D01*
X173029523Y-112609285D01*
X172981904Y-112704523D01*
X172886666Y-112799761D01*
X172743809Y-112847380D01*
X172505714Y-112847380D01*
X173458095Y-112561666D02*
X173934285Y-112561666D01*
X173362857Y-112847380D02*
X173696190Y-111847380D01*
X174029523Y-112847380D01*
X171458095Y-109307380D02*
X172124761Y-110307380D01*
X172124761Y-109307380D02*
X171458095Y-110307380D01*
X172505714Y-110307380D02*
X172505714Y-109307380D01*
X172743809Y-109307380D01*
X172886666Y-109355000D01*
X172981904Y-109450238D01*
X173029523Y-109545476D01*
X173077142Y-109735952D01*
X173077142Y-109878809D01*
X173029523Y-110069285D01*
X172981904Y-110164523D01*
X172886666Y-110259761D01*
X172743809Y-110307380D01*
X172505714Y-110307380D01*
X173458095Y-110021666D02*
X173934285Y-110021666D01*
X173362857Y-110307380D02*
X173696190Y-109307380D01*
X174029523Y-110307380D01*
X171481904Y-106767380D02*
X172148571Y-107767380D01*
X172148571Y-106767380D02*
X171481904Y-107767380D01*
X173100952Y-107672142D02*
X173053333Y-107719761D01*
X172910476Y-107767380D01*
X172815238Y-107767380D01*
X172672380Y-107719761D01*
X172577142Y-107624523D01*
X172529523Y-107529285D01*
X172481904Y-107338809D01*
X172481904Y-107195952D01*
X172529523Y-107005476D01*
X172577142Y-106910238D01*
X172672380Y-106815000D01*
X172815238Y-106767380D01*
X172910476Y-106767380D01*
X173053333Y-106815000D01*
X173100952Y-106862619D01*
X174005714Y-107767380D02*
X173529523Y-107767380D01*
X173529523Y-106767380D01*
X171481904Y-104941666D02*
X171958095Y-104941666D01*
X171386666Y-105227380D02*
X171720000Y-104227380D01*
X172053333Y-105227380D01*
X172386666Y-105227380D02*
X172386666Y-104227380D01*
X172624761Y-104227380D01*
X172767619Y-104275000D01*
X172862857Y-104370238D01*
X172910476Y-104465476D01*
X172958095Y-104655952D01*
X172958095Y-104798809D01*
X172910476Y-104989285D01*
X172862857Y-105084523D01*
X172767619Y-105179761D01*
X172624761Y-105227380D01*
X172386666Y-105227380D01*
X173386666Y-105227380D02*
X173386666Y-104227380D01*
X173624761Y-104227380D01*
X173767619Y-104275000D01*
X173862857Y-104370238D01*
X173910476Y-104465476D01*
X173958095Y-104655952D01*
X173958095Y-104798809D01*
X173910476Y-104989285D01*
X173862857Y-105084523D01*
X173767619Y-105179761D01*
X173624761Y-105227380D01*
X173386666Y-105227380D01*
X171815238Y-102687380D02*
X171815238Y-101687380D01*
X172291428Y-102687380D02*
X172291428Y-101687380D01*
X172862857Y-102687380D01*
X172862857Y-101687380D01*
X173196190Y-101687380D02*
X173767619Y-101687380D01*
X173481904Y-102687380D02*
X173481904Y-101687380D01*
X115500380Y-110336904D02*
X116309904Y-110336904D01*
X116405142Y-110289285D01*
X116452761Y-110241666D01*
X116500380Y-110146428D01*
X116500380Y-109955952D01*
X116452761Y-109860714D01*
X116405142Y-109813095D01*
X116309904Y-109765476D01*
X115500380Y-109765476D01*
X115500380Y-109384523D02*
X115500380Y-108717857D01*
X116500380Y-109146428D01*
X133280380Y-84936904D02*
X134089904Y-84936904D01*
X134185142Y-84889285D01*
X134232761Y-84841666D01*
X134280380Y-84746428D01*
X134280380Y-84555952D01*
X134232761Y-84460714D01*
X134185142Y-84413095D01*
X134089904Y-84365476D01*
X133280380Y-84365476D01*
X133708952Y-83746428D02*
X133661333Y-83841666D01*
X133613714Y-83889285D01*
X133518476Y-83936904D01*
X133470857Y-83936904D01*
X133375619Y-83889285D01*
X133328000Y-83841666D01*
X133280380Y-83746428D01*
X133280380Y-83555952D01*
X133328000Y-83460714D01*
X133375619Y-83413095D01*
X133470857Y-83365476D01*
X133518476Y-83365476D01*
X133613714Y-83413095D01*
X133661333Y-83460714D01*
X133708952Y-83555952D01*
X133708952Y-83746428D01*
X133756571Y-83841666D01*
X133804190Y-83889285D01*
X133899428Y-83936904D01*
X134089904Y-83936904D01*
X134185142Y-83889285D01*
X134232761Y-83841666D01*
X134280380Y-83746428D01*
X134280380Y-83555952D01*
X134232761Y-83460714D01*
X134185142Y-83413095D01*
X134089904Y-83365476D01*
X133899428Y-83365476D01*
X133804190Y-83413095D01*
X133756571Y-83460714D01*
X133708952Y-83555952D01*
X124390380Y-84936904D02*
X125199904Y-84936904D01*
X125295142Y-84889285D01*
X125342761Y-84841666D01*
X125390380Y-84746428D01*
X125390380Y-84555952D01*
X125342761Y-84460714D01*
X125295142Y-84413095D01*
X125199904Y-84365476D01*
X124390380Y-84365476D01*
X125390380Y-83841666D02*
X125390380Y-83651190D01*
X125342761Y-83555952D01*
X125295142Y-83508333D01*
X125152285Y-83413095D01*
X124961809Y-83365476D01*
X124580857Y-83365476D01*
X124485619Y-83413095D01*
X124438000Y-83460714D01*
X124390380Y-83555952D01*
X124390380Y-83746428D01*
X124438000Y-83841666D01*
X124485619Y-83889285D01*
X124580857Y-83936904D01*
X124818952Y-83936904D01*
X124914190Y-83889285D01*
X124961809Y-83841666D01*
X125009428Y-83746428D01*
X125009428Y-83555952D01*
X124961809Y-83460714D01*
X124914190Y-83413095D01*
X124818952Y-83365476D01*
X115500380Y-85413095D02*
X116309904Y-85413095D01*
X116405142Y-85365476D01*
X116452761Y-85317857D01*
X116500380Y-85222619D01*
X116500380Y-85032142D01*
X116452761Y-84936904D01*
X116405142Y-84889285D01*
X116309904Y-84841666D01*
X115500380Y-84841666D01*
X116500380Y-83841666D02*
X116500380Y-84413095D01*
X116500380Y-84127380D02*
X115500380Y-84127380D01*
X115643238Y-84222619D01*
X115738476Y-84317857D01*
X115786095Y-84413095D01*
X115500380Y-83222619D02*
X115500380Y-83127380D01*
X115548000Y-83032142D01*
X115595619Y-82984523D01*
X115690857Y-82936904D01*
X115881333Y-82889285D01*
X116119428Y-82889285D01*
X116309904Y-82936904D01*
X116405142Y-82984523D01*
X116452761Y-83032142D01*
X116500380Y-83127380D01*
X116500380Y-83222619D01*
X116452761Y-83317857D01*
X116405142Y-83365476D01*
X116309904Y-83413095D01*
X116119428Y-83460714D01*
X115881333Y-83460714D01*
X115690857Y-83413095D01*
X115595619Y-83365476D01*
X115548000Y-83317857D01*
X115500380Y-83222619D01*
X212893353Y-89101767D02*
X214221055Y-89101767D01*
X214377255Y-89023667D01*
X214455355Y-88945567D01*
X214533455Y-88789367D01*
X214533455Y-88476966D01*
X214455355Y-88320766D01*
X214377255Y-88242666D01*
X214221055Y-88164566D01*
X212893353Y-88164566D01*
X214533455Y-86524464D02*
X214533455Y-87461665D01*
X214533455Y-86993064D02*
X212893353Y-86993064D01*
X213127654Y-87149265D01*
X213283854Y-87305465D01*
X213361954Y-87461665D01*
X214533455Y-84962462D02*
X214533455Y-85899663D01*
X214533455Y-85431063D02*
X212893353Y-85431063D01*
X213127654Y-85587263D01*
X213283854Y-85743463D01*
X213361954Y-85899663D01*
M02*
