G04 #@! TF.GenerationSoftware,KiCad,Pcbnew,(5.1.10-1-10_14)*
G04 #@! TF.CreationDate,2021-11-10T20:03:13-05:00*
G04 #@! TF.ProjectId,ISAAC_V2,49534141-435f-4563-922e-6b696361645f,rev?*
G04 #@! TF.SameCoordinates,Original*
G04 #@! TF.FileFunction,Copper,L2,Bot*
G04 #@! TF.FilePolarity,Positive*
%FSLAX46Y46*%
G04 Gerber Fmt 4.6, Leading zero omitted, Abs format (unit mm)*
G04 Created by KiCad (PCBNEW (5.1.10-1-10_14)) date 2021-11-10 20:03:13*
%MOMM*%
%LPD*%
G01*
G04 APERTURE LIST*
G04 #@! TA.AperFunction,ComponentPad*
%ADD10C,1.200000*%
G04 #@! TD*
G04 #@! TA.AperFunction,ComponentPad*
%ADD11R,1.200000X1.200000*%
G04 #@! TD*
G04 #@! TA.AperFunction,ComponentPad*
%ADD12O,2.700000X3.700000*%
G04 #@! TD*
G04 #@! TA.AperFunction,ComponentPad*
%ADD13R,1.650000X1.650000*%
G04 #@! TD*
G04 #@! TA.AperFunction,ComponentPad*
%ADD14C,1.650000*%
G04 #@! TD*
G04 #@! TA.AperFunction,ComponentPad*
%ADD15R,3.716000X3.716000*%
G04 #@! TD*
G04 #@! TA.AperFunction,ComponentPad*
%ADD16C,3.716000*%
G04 #@! TD*
G04 #@! TA.AperFunction,ComponentPad*
%ADD17O,1.200000X2.400000*%
G04 #@! TD*
G04 #@! TA.AperFunction,ComponentPad*
%ADD18C,1.524000*%
G04 #@! TD*
G04 #@! TA.AperFunction,ComponentPad*
%ADD19O,1.700000X1.700000*%
G04 #@! TD*
G04 #@! TA.AperFunction,ComponentPad*
%ADD20R,1.700000X1.700000*%
G04 #@! TD*
G04 #@! TA.AperFunction,ViaPad*
%ADD21C,0.800000*%
G04 #@! TD*
G04 #@! TA.AperFunction,Conductor*
%ADD22C,0.600000*%
G04 #@! TD*
G04 #@! TA.AperFunction,Conductor*
%ADD23C,0.250000*%
G04 #@! TD*
G04 #@! TA.AperFunction,Conductor*
%ADD24C,0.254000*%
G04 #@! TD*
G04 #@! TA.AperFunction,Conductor*
%ADD25C,0.100000*%
G04 #@! TD*
G04 APERTURE END LIST*
D10*
X214400000Y-95250000D03*
D11*
X215900000Y-95250000D03*
X220980000Y-95250000D03*
D10*
X222480000Y-95250000D03*
D12*
X206275000Y-93130000D03*
X202075000Y-93130000D03*
X197875000Y-93130000D03*
X193675000Y-93130000D03*
X206275000Y-87630000D03*
X202075000Y-87630000D03*
X197875000Y-87630000D03*
G04 #@! TA.AperFunction,ComponentPad*
G36*
G01*
X192325000Y-89229999D02*
X192325000Y-86030001D01*
G75*
G02*
X192575001Y-85780000I250001J0D01*
G01*
X194774999Y-85780000D01*
G75*
G02*
X195025000Y-86030001I0J-250001D01*
G01*
X195025000Y-89229999D01*
G75*
G02*
X194774999Y-89480000I-250001J0D01*
G01*
X192575001Y-89480000D01*
G75*
G02*
X192325000Y-89229999I0J250001D01*
G01*
G37*
G04 #@! TD.AperFunction*
G04 #@! TA.AperFunction,ComponentPad*
G36*
G01*
X168195000Y-89229999D02*
X168195000Y-86030001D01*
G75*
G02*
X168445001Y-85780000I250001J0D01*
G01*
X170644999Y-85780000D01*
G75*
G02*
X170895000Y-86030001I0J-250001D01*
G01*
X170895000Y-89229999D01*
G75*
G02*
X170644999Y-89480000I-250001J0D01*
G01*
X168445001Y-89480000D01*
G75*
G02*
X168195000Y-89229999I0J250001D01*
G01*
G37*
G04 #@! TD.AperFunction*
X173745000Y-87630000D03*
X177945000Y-87630000D03*
X182145000Y-87630000D03*
X169545000Y-93130000D03*
X173745000Y-93130000D03*
X177945000Y-93130000D03*
X182145000Y-93130000D03*
D13*
X215900000Y-77470000D03*
D14*
X220980000Y-77470000D03*
D15*
X150070000Y-89820000D03*
D16*
X157270000Y-89820000D03*
D17*
X146920000Y-83820000D03*
X160420000Y-83820000D03*
D18*
X176530000Y-120015000D03*
X176530000Y-117475000D03*
X176530000Y-114935000D03*
X176530000Y-112395000D03*
X176530000Y-109855000D03*
X176530000Y-107315000D03*
X176530000Y-104775000D03*
X176530000Y-102235000D03*
D19*
X229870000Y-102235000D03*
X227330000Y-102235000D03*
D20*
X224790000Y-102235000D03*
D19*
X222250000Y-102235000D03*
X219710000Y-102235000D03*
X217170000Y-102235000D03*
X214630000Y-102235000D03*
D20*
X212090000Y-102235000D03*
D19*
X209550000Y-102235000D03*
X207010000Y-102235000D03*
X204470000Y-102235000D03*
X201930000Y-102235000D03*
D20*
X199390000Y-102235000D03*
D19*
X196850000Y-102235000D03*
X194310000Y-102235000D03*
X191770000Y-102235000D03*
X189230000Y-102235000D03*
D20*
X186690000Y-102235000D03*
D19*
X184150000Y-102235000D03*
X181610000Y-102235000D03*
X181610000Y-120015000D03*
X184150000Y-120015000D03*
D20*
X186690000Y-120015000D03*
D19*
X189230000Y-120015000D03*
X191770000Y-120015000D03*
X194310000Y-120015000D03*
X196850000Y-120015000D03*
D20*
X199390000Y-120015000D03*
D19*
X201930000Y-120015000D03*
X204470000Y-120015000D03*
X207010000Y-120015000D03*
X209550000Y-120015000D03*
D20*
X212090000Y-120015000D03*
D19*
X214630000Y-120015000D03*
X217170000Y-120015000D03*
X219710000Y-120015000D03*
X222250000Y-120015000D03*
D20*
X224790000Y-120015000D03*
D19*
X227330000Y-120015000D03*
X229870000Y-120015000D03*
X181840000Y-108585000D03*
D20*
X181840000Y-111125000D03*
D19*
X181840000Y-113665000D03*
D21*
X117475000Y-87630000D03*
X120015000Y-87630000D03*
X126365000Y-87630000D03*
X154305000Y-113030000D03*
X145415000Y-113030000D03*
X136525000Y-113030000D03*
X127635000Y-113030000D03*
X117475000Y-113030000D03*
X135255000Y-87630000D03*
X121920000Y-93980000D03*
X125730000Y-93980000D03*
X130810000Y-93980000D03*
X139700000Y-93980000D03*
X134620000Y-93980000D03*
X117475000Y-93980000D03*
X158750000Y-119380000D03*
X153670000Y-119380000D03*
X149860000Y-119380000D03*
X144780000Y-119380000D03*
X140970000Y-119380000D03*
X135890000Y-119380000D03*
X132080000Y-119380000D03*
X127000000Y-119380000D03*
X121920000Y-119380000D03*
X116840000Y-119380000D03*
X214400000Y-92559000D03*
X139065000Y-113030000D03*
X147955000Y-101600000D03*
X139700000Y-101600000D03*
X157480000Y-101600000D03*
X137795000Y-76200000D03*
X128905000Y-76200000D03*
X120015000Y-76200000D03*
X152400000Y-97790000D03*
X128905000Y-91440000D03*
X120650000Y-91440000D03*
X142240000Y-90805000D03*
X144462500Y-93027500D03*
X137885010Y-91440000D03*
X130175000Y-101600000D03*
X120015000Y-101600000D03*
X121920000Y-113665000D03*
X133350000Y-112395000D03*
X151130000Y-117475000D03*
X156845000Y-116840000D03*
X142240000Y-116840000D03*
X133350000Y-116840000D03*
X165735000Y-88900000D03*
X157480000Y-93345000D03*
X156210000Y-94615000D03*
X154305000Y-92075000D03*
X144145000Y-95885000D03*
X196215000Y-75565000D03*
X198120000Y-77470000D03*
X131360000Y-81195000D03*
X159384295Y-110490705D03*
X162560000Y-110490000D03*
X157540000Y-113725000D03*
X166945000Y-113725000D03*
X151130000Y-110490000D03*
X163952340Y-110612340D03*
X148590000Y-113665000D03*
X166370000Y-109220000D03*
X142240000Y-110490000D03*
X181610000Y-105410000D03*
X165100000Y-109220000D03*
X139382500Y-113982500D03*
X133985000Y-110490000D03*
X130810000Y-113665000D03*
X123190000Y-116205000D03*
X120650000Y-113665000D03*
X193040000Y-96879998D03*
X140335000Y-85725000D03*
X191135000Y-96520000D03*
X138430000Y-88265000D03*
X132080000Y-93980000D03*
X189865000Y-96520000D03*
X129540000Y-88265000D03*
X187960000Y-95885000D03*
X172720000Y-99060000D03*
X123190000Y-93980000D03*
X172720000Y-100330000D03*
X118745000Y-96520000D03*
D22*
X134620000Y-93980000D02*
X139700000Y-93980000D01*
X116840000Y-119380000D02*
X121920000Y-119380000D01*
X127000000Y-119380000D02*
X121920000Y-119380000D01*
X127000000Y-119380000D02*
X132080000Y-119380000D01*
X132080000Y-119380000D02*
X135890000Y-119380000D01*
X135890000Y-119380000D02*
X140970000Y-119380000D01*
X140970000Y-119380000D02*
X144780000Y-119380000D01*
X144780000Y-119380000D02*
X149860000Y-119380000D01*
X149860000Y-119380000D02*
X153670000Y-119380000D01*
X153670000Y-119380000D02*
X158750000Y-119380000D01*
X157270000Y-89820000D02*
X154445000Y-86995000D01*
X141293998Y-93980000D02*
X139700000Y-93980000D01*
X148278998Y-86995000D02*
X141293998Y-93980000D01*
X154445000Y-86995000D02*
X148278998Y-86995000D01*
D23*
X232410000Y-99060000D02*
X232410000Y-114935000D01*
X231140000Y-97790000D02*
X232410000Y-99060000D01*
X220345000Y-97790000D02*
X231140000Y-97790000D01*
X232410000Y-114935000D02*
X227330000Y-120015000D01*
X217805000Y-95250000D02*
X220345000Y-97790000D01*
X215900000Y-95250000D02*
X217805000Y-95250000D01*
D22*
X147955000Y-101600000D02*
X139700000Y-101600000D01*
X157480000Y-101600000D02*
X147955000Y-101600000D01*
X137795000Y-76200000D02*
X128905000Y-76200000D01*
X128905000Y-76200000D02*
X120015000Y-76200000D01*
X150070000Y-89820000D02*
X147670000Y-89820000D01*
X147670000Y-89820000D02*
X144462500Y-93027500D01*
X143244999Y-94245001D02*
X143244999Y-96889999D01*
X143244999Y-96889999D02*
X144145000Y-97790000D01*
X144145000Y-97790000D02*
X152400000Y-97790000D01*
X152400000Y-97790000D02*
X152400000Y-97790000D01*
X128905000Y-91440000D02*
X120650000Y-91440000D01*
X142240000Y-90805000D02*
X142240000Y-90805000D01*
X144462500Y-93027500D02*
X143244999Y-94245001D01*
X128905000Y-91440000D02*
X137885010Y-91440000D01*
X142240000Y-90805000D02*
X141605000Y-91440000D01*
X141605000Y-91440000D02*
X137885010Y-91440000D01*
X139700000Y-101600000D02*
X130175000Y-101600000D01*
X139690010Y-74304990D02*
X137795000Y-76200000D01*
X196859990Y-74304990D02*
X139690010Y-74304990D01*
X197485000Y-74930000D02*
X196859990Y-74304990D01*
X218440000Y-74930000D02*
X197485000Y-74930000D01*
X220980000Y-77470000D02*
X218440000Y-74930000D01*
X123190000Y-112395000D02*
X121920000Y-113665000D01*
X130175000Y-101600000D02*
X123190000Y-101600000D01*
X123190000Y-101600000D02*
X123190000Y-112395000D01*
X123190000Y-101600000D02*
X120015000Y-101600000D01*
X133084999Y-110224999D02*
X133084999Y-112129999D01*
X133084999Y-112129999D02*
X133350000Y-112395000D01*
X132080000Y-109220000D02*
X133084999Y-110224999D01*
X132080000Y-101600000D02*
X132080000Y-109220000D01*
X151765000Y-116840000D02*
X151130000Y-117475000D01*
X156845000Y-116840000D02*
X151765000Y-116840000D01*
X142875000Y-117475000D02*
X142240000Y-116840000D01*
X151130000Y-117475000D02*
X142875000Y-117475000D01*
X142240000Y-116840000D02*
X133350000Y-116840000D01*
D23*
X179969990Y-89805010D02*
X182145000Y-87630000D01*
X166640010Y-89805010D02*
X179969990Y-89805010D01*
X165735000Y-88900000D02*
X166640010Y-89805010D01*
X169330000Y-93345000D02*
X169545000Y-93130000D01*
X157480000Y-93345000D02*
X169330000Y-93345000D01*
X171569990Y-95305010D02*
X173745000Y-93130000D01*
X156900010Y-95305010D02*
X171569990Y-95305010D01*
X156210000Y-94615000D02*
X156900010Y-95305010D01*
X154305000Y-92075000D02*
X166455020Y-92075000D01*
X175769990Y-90954990D02*
X177945000Y-93130000D01*
X167575030Y-90954990D02*
X175769990Y-90954990D01*
X166455020Y-92075000D02*
X167575030Y-90954990D01*
X179390000Y-95885000D02*
X182145000Y-93130000D01*
X144145000Y-95885000D02*
X179390000Y-95885000D01*
X196215000Y-75565000D02*
X196850000Y-76200000D01*
X196850000Y-82405000D02*
X202075000Y-87630000D01*
X196850000Y-76200000D02*
X196850000Y-82405000D01*
X206275000Y-85625000D02*
X198120000Y-77470000D01*
X206275000Y-87630000D02*
X206275000Y-85625000D01*
X193871998Y-74930000D02*
X195580000Y-76638002D01*
X195580000Y-91225000D02*
X193675000Y-93130000D01*
X143510000Y-74930000D02*
X193871998Y-74930000D01*
X137245000Y-81195000D02*
X143510000Y-74930000D01*
X195580000Y-76638002D02*
X195580000Y-91225000D01*
X131360000Y-81195000D02*
X137245000Y-81195000D01*
X162559295Y-110490705D02*
X162560000Y-110490000D01*
X159384295Y-110490705D02*
X162559295Y-110490705D01*
X162560000Y-110490000D02*
X162560000Y-110490000D01*
X157540000Y-113725000D02*
X166945000Y-113725000D01*
X166945000Y-113725000D02*
X166945000Y-113725000D01*
X151969839Y-111329839D02*
X163234841Y-111329839D01*
X163234841Y-111329839D02*
X163952340Y-110612340D01*
X151130000Y-110490000D02*
X151969839Y-111329839D01*
X164465000Y-111125000D02*
X164465000Y-111125000D01*
X149950001Y-112304999D02*
X163285001Y-112304999D01*
X148590000Y-113665000D02*
X149950001Y-112304999D01*
X163285001Y-112304999D02*
X166370000Y-109220000D01*
X217170000Y-102870000D02*
X217170000Y-102235000D01*
X176008239Y-105862001D02*
X177051761Y-105862001D01*
X177503762Y-105410000D02*
X181610000Y-105410000D01*
X175556238Y-105410000D02*
X176008239Y-105862001D01*
X177051761Y-105862001D02*
X177503762Y-105410000D01*
X167836998Y-105410000D02*
X175556238Y-105410000D01*
X144145000Y-108585000D02*
X164661998Y-108585000D01*
X164661998Y-108585000D02*
X167836998Y-105410000D01*
X142240000Y-110490000D02*
X144145000Y-108585000D01*
X181610000Y-105410000D02*
X181610000Y-105410000D01*
X165100000Y-109220000D02*
X165100000Y-109220000D01*
X148241999Y-112304999D02*
X151326998Y-109220000D01*
X139382500Y-113982500D02*
X141060001Y-112304999D01*
X151326998Y-109220000D02*
X165100000Y-109220000D01*
X141060001Y-112304999D02*
X148241999Y-112304999D01*
X172720000Y-102235000D02*
X168910000Y-102235000D01*
X164465000Y-106680000D02*
X137795000Y-106680000D01*
X206307081Y-97790000D02*
X177165000Y-97790000D01*
X168910000Y-102235000D02*
X164465000Y-106680000D01*
X177165000Y-97790000D02*
X172720000Y-102235000D01*
X209550000Y-102235000D02*
X209550000Y-101032919D01*
X137795000Y-106680000D02*
X133985000Y-110490000D01*
X209550000Y-101032919D02*
X206307081Y-97790000D01*
X205105000Y-98425000D02*
X207010000Y-100330000D01*
X168727001Y-103687999D02*
X172537001Y-103687999D01*
X207010000Y-100330000D02*
X207010000Y-102235000D01*
X177800000Y-98425000D02*
X205105000Y-98425000D01*
X164465000Y-107950000D02*
X168727001Y-103687999D01*
X172537001Y-103687999D02*
X177800000Y-98425000D01*
X139065000Y-107950000D02*
X164465000Y-107950000D01*
X133350000Y-113665000D02*
X139065000Y-107950000D01*
X130810000Y-113665000D02*
X133350000Y-113665000D01*
X191135000Y-115570000D02*
X204470000Y-102235000D01*
X177503762Y-115570000D02*
X191135000Y-115570000D01*
X177051761Y-116022001D02*
X177503762Y-115570000D01*
X176008239Y-116022001D02*
X177051761Y-116022001D01*
X175556238Y-115570000D02*
X176008239Y-116022001D01*
X123825000Y-115570000D02*
X175556238Y-115570000D01*
X123190000Y-116205000D02*
X123825000Y-115570000D01*
X180283997Y-113847999D02*
X181370998Y-114935000D01*
X176008239Y-113847999D02*
X180283997Y-113847999D01*
X175148737Y-114707501D02*
X176008239Y-113847999D01*
X121692501Y-114707501D02*
X175148737Y-114707501D01*
X120650000Y-113665000D02*
X121692501Y-114707501D01*
X189230000Y-114935000D02*
X201930000Y-102235000D01*
X181370998Y-114935000D02*
X189230000Y-114935000D01*
X149225000Y-76835000D02*
X140335000Y-85725000D01*
X188595000Y-82550000D02*
X182880000Y-76835000D01*
X188595000Y-92434998D02*
X188595000Y-82550000D01*
X182880000Y-76835000D02*
X149225000Y-76835000D01*
X193040000Y-96879998D02*
X188595000Y-92434998D01*
X139065000Y-88265000D02*
X138430000Y-88265000D01*
X150044990Y-77285010D02*
X139065000Y-88265000D01*
X182060010Y-77285010D02*
X150044990Y-77285010D01*
X187325000Y-82550000D02*
X182060010Y-77285010D01*
X187325000Y-92075000D02*
X187325000Y-82550000D01*
X191135000Y-95885000D02*
X187325000Y-92075000D01*
X191135000Y-96520000D02*
X191135000Y-95885000D01*
X189865000Y-96520000D02*
X189865000Y-96520000D01*
X186780001Y-96610001D02*
X189774999Y-96610001D01*
X189774999Y-96610001D02*
X189865000Y-96520000D01*
X184334990Y-86951169D02*
X184334990Y-94164990D01*
X164915009Y-85090000D02*
X182473821Y-85090000D01*
X184334990Y-94164990D02*
X186780001Y-96610001D01*
X182473821Y-85090000D02*
X184334990Y-86951169D01*
X148139991Y-86175009D02*
X163830000Y-86175009D01*
X141060001Y-93254999D02*
X148139991Y-86175009D01*
X163830000Y-86175009D02*
X164915009Y-85090000D01*
X132805001Y-93254999D02*
X141060001Y-93254999D01*
X132080000Y-93980000D02*
X132805001Y-93254999D01*
X184785000Y-92710000D02*
X187960000Y-95885000D01*
X184785000Y-84455000D02*
X184785000Y-92710000D01*
X159385000Y-85725000D02*
X161290000Y-85725000D01*
X184150000Y-83820000D02*
X184785000Y-84455000D01*
X163195000Y-83820000D02*
X184150000Y-83820000D01*
X158750000Y-85090000D02*
X159385000Y-85725000D01*
X146050000Y-85725000D02*
X147955000Y-85725000D01*
X147955000Y-85725000D02*
X148590000Y-85090000D01*
X148590000Y-85090000D02*
X158750000Y-85090000D01*
X161290000Y-85725000D02*
X163195000Y-83820000D01*
X129540000Y-88265000D02*
X130265001Y-88990001D01*
X130265001Y-88990001D02*
X142784999Y-88990001D01*
X142784999Y-88990001D02*
X146050000Y-85725000D01*
X123190000Y-93980000D02*
X123190000Y-96520000D01*
X172175001Y-99604999D02*
X172720000Y-99060000D01*
X126274999Y-99604999D02*
X172175001Y-99604999D01*
X123190000Y-96520000D02*
X126274999Y-99604999D01*
X122555000Y-100330000D02*
X118745000Y-96520000D01*
X172720000Y-100330000D02*
X122555000Y-100330000D01*
D24*
X236703006Y-73125644D02*
X237167614Y-73265918D01*
X237596127Y-73493762D01*
X237972224Y-73800499D01*
X238281580Y-74174447D01*
X238512411Y-74601359D01*
X238655925Y-75064979D01*
X238710000Y-75579463D01*
X238710001Y-122521486D01*
X238659356Y-123038006D01*
X238519082Y-123502614D01*
X238291238Y-123931127D01*
X237984501Y-124307224D01*
X237610554Y-124616579D01*
X237183641Y-124847411D01*
X236720021Y-124990925D01*
X236205537Y-125045000D01*
X110523504Y-125045000D01*
X110006994Y-124994356D01*
X109542386Y-124854082D01*
X109113873Y-124626238D01*
X108737776Y-124319501D01*
X108428421Y-123945554D01*
X108197589Y-123518641D01*
X108054075Y-123055021D01*
X108000000Y-122540537D01*
X108000000Y-121064872D01*
X109525000Y-121064872D01*
X109525000Y-121505128D01*
X109610890Y-121936925D01*
X109779369Y-122343669D01*
X110023962Y-122709729D01*
X110335271Y-123021038D01*
X110701331Y-123265631D01*
X111108075Y-123434110D01*
X111539872Y-123520000D01*
X111980128Y-123520000D01*
X112411925Y-123434110D01*
X112818669Y-123265631D01*
X113184729Y-123021038D01*
X113496038Y-122709729D01*
X113740631Y-122343669D01*
X113909110Y-121936925D01*
X113995000Y-121505128D01*
X113995000Y-121064872D01*
X113909110Y-120633075D01*
X113740631Y-120226331D01*
X113507489Y-119877408D01*
X175133000Y-119877408D01*
X175133000Y-120152592D01*
X175186686Y-120422490D01*
X175291995Y-120676727D01*
X175444880Y-120905535D01*
X175639465Y-121100120D01*
X175868273Y-121253005D01*
X176122510Y-121358314D01*
X176392408Y-121412000D01*
X176667592Y-121412000D01*
X176937490Y-121358314D01*
X177191727Y-121253005D01*
X177420535Y-121100120D01*
X177615120Y-120905535D01*
X177768005Y-120676727D01*
X177873314Y-120422490D01*
X177927000Y-120152592D01*
X177927000Y-119877408D01*
X177925276Y-119868740D01*
X180125000Y-119868740D01*
X180125000Y-120161260D01*
X180182068Y-120448158D01*
X180294010Y-120718411D01*
X180456525Y-120961632D01*
X180663368Y-121168475D01*
X180906589Y-121330990D01*
X181176842Y-121442932D01*
X181463740Y-121500000D01*
X181756260Y-121500000D01*
X182043158Y-121442932D01*
X182313411Y-121330990D01*
X182556632Y-121168475D01*
X182763475Y-120961632D01*
X182880000Y-120787240D01*
X182996525Y-120961632D01*
X183203368Y-121168475D01*
X183446589Y-121330990D01*
X183716842Y-121442932D01*
X184003740Y-121500000D01*
X184296260Y-121500000D01*
X184583158Y-121442932D01*
X184853411Y-121330990D01*
X185096632Y-121168475D01*
X185228487Y-121036620D01*
X185250498Y-121109180D01*
X185309463Y-121219494D01*
X185388815Y-121316185D01*
X185485506Y-121395537D01*
X185595820Y-121454502D01*
X185715518Y-121490812D01*
X185840000Y-121503072D01*
X187540000Y-121503072D01*
X187664482Y-121490812D01*
X187784180Y-121454502D01*
X187894494Y-121395537D01*
X187991185Y-121316185D01*
X188070537Y-121219494D01*
X188129502Y-121109180D01*
X188151513Y-121036620D01*
X188283368Y-121168475D01*
X188526589Y-121330990D01*
X188796842Y-121442932D01*
X189083740Y-121500000D01*
X189376260Y-121500000D01*
X189663158Y-121442932D01*
X189933411Y-121330990D01*
X190176632Y-121168475D01*
X190383475Y-120961632D01*
X190500000Y-120787240D01*
X190616525Y-120961632D01*
X190823368Y-121168475D01*
X191066589Y-121330990D01*
X191336842Y-121442932D01*
X191623740Y-121500000D01*
X191916260Y-121500000D01*
X192203158Y-121442932D01*
X192473411Y-121330990D01*
X192716632Y-121168475D01*
X192923475Y-120961632D01*
X193040000Y-120787240D01*
X193156525Y-120961632D01*
X193363368Y-121168475D01*
X193606589Y-121330990D01*
X193876842Y-121442932D01*
X194163740Y-121500000D01*
X194456260Y-121500000D01*
X194743158Y-121442932D01*
X195013411Y-121330990D01*
X195256632Y-121168475D01*
X195463475Y-120961632D01*
X195580000Y-120787240D01*
X195696525Y-120961632D01*
X195903368Y-121168475D01*
X196146589Y-121330990D01*
X196416842Y-121442932D01*
X196703740Y-121500000D01*
X196996260Y-121500000D01*
X197283158Y-121442932D01*
X197553411Y-121330990D01*
X197796632Y-121168475D01*
X197928487Y-121036620D01*
X197950498Y-121109180D01*
X198009463Y-121219494D01*
X198088815Y-121316185D01*
X198185506Y-121395537D01*
X198295820Y-121454502D01*
X198415518Y-121490812D01*
X198540000Y-121503072D01*
X200240000Y-121503072D01*
X200364482Y-121490812D01*
X200484180Y-121454502D01*
X200594494Y-121395537D01*
X200691185Y-121316185D01*
X200770537Y-121219494D01*
X200829502Y-121109180D01*
X200851513Y-121036620D01*
X200983368Y-121168475D01*
X201226589Y-121330990D01*
X201496842Y-121442932D01*
X201783740Y-121500000D01*
X202076260Y-121500000D01*
X202363158Y-121442932D01*
X202633411Y-121330990D01*
X202876632Y-121168475D01*
X203083475Y-120961632D01*
X203200000Y-120787240D01*
X203316525Y-120961632D01*
X203523368Y-121168475D01*
X203766589Y-121330990D01*
X204036842Y-121442932D01*
X204323740Y-121500000D01*
X204616260Y-121500000D01*
X204903158Y-121442932D01*
X205173411Y-121330990D01*
X205416632Y-121168475D01*
X205623475Y-120961632D01*
X205740000Y-120787240D01*
X205856525Y-120961632D01*
X206063368Y-121168475D01*
X206306589Y-121330990D01*
X206576842Y-121442932D01*
X206863740Y-121500000D01*
X207156260Y-121500000D01*
X207443158Y-121442932D01*
X207713411Y-121330990D01*
X207956632Y-121168475D01*
X208163475Y-120961632D01*
X208280000Y-120787240D01*
X208396525Y-120961632D01*
X208603368Y-121168475D01*
X208846589Y-121330990D01*
X209116842Y-121442932D01*
X209403740Y-121500000D01*
X209696260Y-121500000D01*
X209983158Y-121442932D01*
X210253411Y-121330990D01*
X210496632Y-121168475D01*
X210628487Y-121036620D01*
X210650498Y-121109180D01*
X210709463Y-121219494D01*
X210788815Y-121316185D01*
X210885506Y-121395537D01*
X210995820Y-121454502D01*
X211115518Y-121490812D01*
X211240000Y-121503072D01*
X212940000Y-121503072D01*
X213064482Y-121490812D01*
X213184180Y-121454502D01*
X213294494Y-121395537D01*
X213391185Y-121316185D01*
X213470537Y-121219494D01*
X213529502Y-121109180D01*
X213551513Y-121036620D01*
X213683368Y-121168475D01*
X213926589Y-121330990D01*
X214196842Y-121442932D01*
X214483740Y-121500000D01*
X214776260Y-121500000D01*
X215063158Y-121442932D01*
X215333411Y-121330990D01*
X215576632Y-121168475D01*
X215783475Y-120961632D01*
X215900000Y-120787240D01*
X216016525Y-120961632D01*
X216223368Y-121168475D01*
X216466589Y-121330990D01*
X216736842Y-121442932D01*
X217023740Y-121500000D01*
X217316260Y-121500000D01*
X217603158Y-121442932D01*
X217873411Y-121330990D01*
X218116632Y-121168475D01*
X218323475Y-120961632D01*
X218440000Y-120787240D01*
X218556525Y-120961632D01*
X218763368Y-121168475D01*
X219006589Y-121330990D01*
X219276842Y-121442932D01*
X219563740Y-121500000D01*
X219856260Y-121500000D01*
X220143158Y-121442932D01*
X220413411Y-121330990D01*
X220656632Y-121168475D01*
X220863475Y-120961632D01*
X220980000Y-120787240D01*
X221096525Y-120961632D01*
X221303368Y-121168475D01*
X221546589Y-121330990D01*
X221816842Y-121442932D01*
X222103740Y-121500000D01*
X222396260Y-121500000D01*
X222683158Y-121442932D01*
X222953411Y-121330990D01*
X223196632Y-121168475D01*
X223328487Y-121036620D01*
X223350498Y-121109180D01*
X223409463Y-121219494D01*
X223488815Y-121316185D01*
X223585506Y-121395537D01*
X223695820Y-121454502D01*
X223815518Y-121490812D01*
X223940000Y-121503072D01*
X224504250Y-121500000D01*
X224663000Y-121341250D01*
X224663000Y-120142000D01*
X224643000Y-120142000D01*
X224643000Y-119888000D01*
X224663000Y-119888000D01*
X224663000Y-118688750D01*
X224504250Y-118530000D01*
X223940000Y-118526928D01*
X223815518Y-118539188D01*
X223695820Y-118575498D01*
X223585506Y-118634463D01*
X223488815Y-118713815D01*
X223409463Y-118810506D01*
X223350498Y-118920820D01*
X223328487Y-118993380D01*
X223196632Y-118861525D01*
X222953411Y-118699010D01*
X222683158Y-118587068D01*
X222396260Y-118530000D01*
X222103740Y-118530000D01*
X221816842Y-118587068D01*
X221546589Y-118699010D01*
X221303368Y-118861525D01*
X221096525Y-119068368D01*
X220980000Y-119242760D01*
X220863475Y-119068368D01*
X220656632Y-118861525D01*
X220413411Y-118699010D01*
X220143158Y-118587068D01*
X219856260Y-118530000D01*
X219563740Y-118530000D01*
X219276842Y-118587068D01*
X219006589Y-118699010D01*
X218763368Y-118861525D01*
X218556525Y-119068368D01*
X218440000Y-119242760D01*
X218323475Y-119068368D01*
X218116632Y-118861525D01*
X217873411Y-118699010D01*
X217603158Y-118587068D01*
X217316260Y-118530000D01*
X217023740Y-118530000D01*
X216736842Y-118587068D01*
X216466589Y-118699010D01*
X216223368Y-118861525D01*
X216016525Y-119068368D01*
X215900000Y-119242760D01*
X215783475Y-119068368D01*
X215576632Y-118861525D01*
X215333411Y-118699010D01*
X215063158Y-118587068D01*
X214776260Y-118530000D01*
X214483740Y-118530000D01*
X214196842Y-118587068D01*
X213926589Y-118699010D01*
X213683368Y-118861525D01*
X213551513Y-118993380D01*
X213529502Y-118920820D01*
X213470537Y-118810506D01*
X213391185Y-118713815D01*
X213294494Y-118634463D01*
X213184180Y-118575498D01*
X213064482Y-118539188D01*
X212940000Y-118526928D01*
X211240000Y-118526928D01*
X211115518Y-118539188D01*
X210995820Y-118575498D01*
X210885506Y-118634463D01*
X210788815Y-118713815D01*
X210709463Y-118810506D01*
X210650498Y-118920820D01*
X210628487Y-118993380D01*
X210496632Y-118861525D01*
X210253411Y-118699010D01*
X209983158Y-118587068D01*
X209696260Y-118530000D01*
X209403740Y-118530000D01*
X209116842Y-118587068D01*
X208846589Y-118699010D01*
X208603368Y-118861525D01*
X208396525Y-119068368D01*
X208280000Y-119242760D01*
X208163475Y-119068368D01*
X207956632Y-118861525D01*
X207713411Y-118699010D01*
X207443158Y-118587068D01*
X207156260Y-118530000D01*
X206863740Y-118530000D01*
X206576842Y-118587068D01*
X206306589Y-118699010D01*
X206063368Y-118861525D01*
X205856525Y-119068368D01*
X205740000Y-119242760D01*
X205623475Y-119068368D01*
X205416632Y-118861525D01*
X205173411Y-118699010D01*
X204903158Y-118587068D01*
X204616260Y-118530000D01*
X204323740Y-118530000D01*
X204036842Y-118587068D01*
X203766589Y-118699010D01*
X203523368Y-118861525D01*
X203316525Y-119068368D01*
X203200000Y-119242760D01*
X203083475Y-119068368D01*
X202876632Y-118861525D01*
X202633411Y-118699010D01*
X202363158Y-118587068D01*
X202076260Y-118530000D01*
X201783740Y-118530000D01*
X201496842Y-118587068D01*
X201226589Y-118699010D01*
X200983368Y-118861525D01*
X200851513Y-118993380D01*
X200829502Y-118920820D01*
X200770537Y-118810506D01*
X200691185Y-118713815D01*
X200594494Y-118634463D01*
X200484180Y-118575498D01*
X200364482Y-118539188D01*
X200240000Y-118526928D01*
X198540000Y-118526928D01*
X198415518Y-118539188D01*
X198295820Y-118575498D01*
X198185506Y-118634463D01*
X198088815Y-118713815D01*
X198009463Y-118810506D01*
X197950498Y-118920820D01*
X197928487Y-118993380D01*
X197796632Y-118861525D01*
X197553411Y-118699010D01*
X197283158Y-118587068D01*
X196996260Y-118530000D01*
X196703740Y-118530000D01*
X196416842Y-118587068D01*
X196146589Y-118699010D01*
X195903368Y-118861525D01*
X195696525Y-119068368D01*
X195580000Y-119242760D01*
X195463475Y-119068368D01*
X195256632Y-118861525D01*
X195013411Y-118699010D01*
X194743158Y-118587068D01*
X194456260Y-118530000D01*
X194163740Y-118530000D01*
X193876842Y-118587068D01*
X193606589Y-118699010D01*
X193363368Y-118861525D01*
X193156525Y-119068368D01*
X193040000Y-119242760D01*
X192923475Y-119068368D01*
X192716632Y-118861525D01*
X192473411Y-118699010D01*
X192203158Y-118587068D01*
X191916260Y-118530000D01*
X191623740Y-118530000D01*
X191336842Y-118587068D01*
X191066589Y-118699010D01*
X190823368Y-118861525D01*
X190616525Y-119068368D01*
X190500000Y-119242760D01*
X190383475Y-119068368D01*
X190176632Y-118861525D01*
X189933411Y-118699010D01*
X189663158Y-118587068D01*
X189376260Y-118530000D01*
X189083740Y-118530000D01*
X188796842Y-118587068D01*
X188526589Y-118699010D01*
X188283368Y-118861525D01*
X188151513Y-118993380D01*
X188129502Y-118920820D01*
X188070537Y-118810506D01*
X187991185Y-118713815D01*
X187894494Y-118634463D01*
X187784180Y-118575498D01*
X187664482Y-118539188D01*
X187540000Y-118526928D01*
X185840000Y-118526928D01*
X185715518Y-118539188D01*
X185595820Y-118575498D01*
X185485506Y-118634463D01*
X185388815Y-118713815D01*
X185309463Y-118810506D01*
X185250498Y-118920820D01*
X185228487Y-118993380D01*
X185096632Y-118861525D01*
X184853411Y-118699010D01*
X184583158Y-118587068D01*
X184296260Y-118530000D01*
X184003740Y-118530000D01*
X183716842Y-118587068D01*
X183446589Y-118699010D01*
X183203368Y-118861525D01*
X182996525Y-119068368D01*
X182880000Y-119242760D01*
X182763475Y-119068368D01*
X182556632Y-118861525D01*
X182313411Y-118699010D01*
X182043158Y-118587068D01*
X181756260Y-118530000D01*
X181463740Y-118530000D01*
X181176842Y-118587068D01*
X180906589Y-118699010D01*
X180663368Y-118861525D01*
X180456525Y-119068368D01*
X180294010Y-119311589D01*
X180182068Y-119581842D01*
X180125000Y-119868740D01*
X177925276Y-119868740D01*
X177873314Y-119607510D01*
X177768005Y-119353273D01*
X177615120Y-119124465D01*
X177420535Y-118929880D01*
X177191727Y-118776995D01*
X177120057Y-118747308D01*
X177133023Y-118742636D01*
X177248980Y-118680656D01*
X177315960Y-118440565D01*
X176530000Y-117654605D01*
X175744040Y-118440565D01*
X175811020Y-118680656D01*
X175946760Y-118744485D01*
X175868273Y-118776995D01*
X175639465Y-118929880D01*
X175444880Y-119124465D01*
X175291995Y-119353273D01*
X175186686Y-119607510D01*
X175133000Y-119877408D01*
X113507489Y-119877408D01*
X113496038Y-119860271D01*
X113184729Y-119548962D01*
X112818669Y-119304369D01*
X112411925Y-119135890D01*
X111980128Y-119050000D01*
X111539872Y-119050000D01*
X111108075Y-119135890D01*
X110701331Y-119304369D01*
X110335271Y-119548962D01*
X110023962Y-119860271D01*
X109779369Y-120226331D01*
X109610890Y-120633075D01*
X109525000Y-121064872D01*
X108000000Y-121064872D01*
X108000000Y-96418061D01*
X117710000Y-96418061D01*
X117710000Y-96621939D01*
X117749774Y-96821898D01*
X117827795Y-97010256D01*
X117941063Y-97179774D01*
X118085226Y-97323937D01*
X118254744Y-97437205D01*
X118443102Y-97515226D01*
X118643061Y-97555000D01*
X118705199Y-97555000D01*
X121815198Y-100665000D01*
X120462295Y-100665000D01*
X120316898Y-100604774D01*
X120116939Y-100565000D01*
X119913061Y-100565000D01*
X119713102Y-100604774D01*
X119524744Y-100682795D01*
X119355226Y-100796063D01*
X119211063Y-100940226D01*
X119097795Y-101109744D01*
X119019774Y-101298102D01*
X118980000Y-101498061D01*
X118980000Y-101701939D01*
X119019774Y-101901898D01*
X119097795Y-102090256D01*
X119211063Y-102259774D01*
X119355226Y-102403937D01*
X119524744Y-102517205D01*
X119713102Y-102595226D01*
X119913061Y-102635000D01*
X120116939Y-102635000D01*
X120316898Y-102595226D01*
X120462295Y-102535000D01*
X122255000Y-102535000D01*
X122255001Y-112007709D01*
X121575142Y-112687569D01*
X121429744Y-112747795D01*
X121285000Y-112844510D01*
X121140256Y-112747795D01*
X120951898Y-112669774D01*
X120751939Y-112630000D01*
X120548061Y-112630000D01*
X120348102Y-112669774D01*
X120159744Y-112747795D01*
X119990226Y-112861063D01*
X119846063Y-113005226D01*
X119732795Y-113174744D01*
X119654774Y-113363102D01*
X119615000Y-113563061D01*
X119615000Y-113766939D01*
X119654774Y-113966898D01*
X119732795Y-114155256D01*
X119846063Y-114324774D01*
X119990226Y-114468937D01*
X120159744Y-114582205D01*
X120348102Y-114660226D01*
X120548061Y-114700000D01*
X120610199Y-114700000D01*
X121128702Y-115218504D01*
X121152500Y-115247502D01*
X121181498Y-115271300D01*
X121268224Y-115342475D01*
X121377834Y-115401063D01*
X121400254Y-115413047D01*
X121543515Y-115456504D01*
X121655168Y-115467501D01*
X121655177Y-115467501D01*
X121692500Y-115471177D01*
X121729823Y-115467501D01*
X122463788Y-115467501D01*
X122386063Y-115545226D01*
X122272795Y-115714744D01*
X122194774Y-115903102D01*
X122155000Y-116103061D01*
X122155000Y-116306939D01*
X122194774Y-116506898D01*
X122272795Y-116695256D01*
X122386063Y-116864774D01*
X122530226Y-117008937D01*
X122699744Y-117122205D01*
X122888102Y-117200226D01*
X123088061Y-117240000D01*
X123291939Y-117240000D01*
X123491898Y-117200226D01*
X123680256Y-117122205D01*
X123849774Y-117008937D01*
X123993937Y-116864774D01*
X124107205Y-116695256D01*
X124185226Y-116506898D01*
X124220413Y-116330000D01*
X132445987Y-116330000D01*
X132432795Y-116349744D01*
X132354774Y-116538102D01*
X132315000Y-116738061D01*
X132315000Y-116941939D01*
X132354774Y-117141898D01*
X132432795Y-117330256D01*
X132546063Y-117499774D01*
X132690226Y-117643937D01*
X132859744Y-117757205D01*
X133048102Y-117835226D01*
X133248061Y-117875000D01*
X133451939Y-117875000D01*
X133651898Y-117835226D01*
X133797295Y-117775000D01*
X141792705Y-117775000D01*
X141895142Y-117817431D01*
X142181370Y-118103659D01*
X142210656Y-118139344D01*
X142353028Y-118256186D01*
X142458880Y-118312765D01*
X142515459Y-118343007D01*
X142691708Y-118396472D01*
X142875000Y-118414524D01*
X142920935Y-118410000D01*
X150682705Y-118410000D01*
X150828102Y-118470226D01*
X151028061Y-118510000D01*
X151231939Y-118510000D01*
X151431898Y-118470226D01*
X151620256Y-118392205D01*
X151789774Y-118278937D01*
X151933937Y-118134774D01*
X152047205Y-117965256D01*
X152107431Y-117819858D01*
X152152289Y-117775000D01*
X156397705Y-117775000D01*
X156543102Y-117835226D01*
X156743061Y-117875000D01*
X156946939Y-117875000D01*
X157146898Y-117835226D01*
X157335256Y-117757205D01*
X157504774Y-117643937D01*
X157648937Y-117499774D01*
X157762205Y-117330256D01*
X157840226Y-117141898D01*
X157880000Y-116941939D01*
X157880000Y-116738061D01*
X157840226Y-116538102D01*
X157762205Y-116349744D01*
X157749013Y-116330000D01*
X175241437Y-116330000D01*
X175444435Y-116532998D01*
X175463917Y-116556737D01*
X175448023Y-116572631D01*
X175564433Y-116689041D01*
X175324344Y-116756020D01*
X175207244Y-117005048D01*
X175140977Y-117272135D01*
X175128090Y-117547017D01*
X175169078Y-117819133D01*
X175262364Y-118078023D01*
X175324344Y-118193980D01*
X175564435Y-118260960D01*
X176350395Y-117475000D01*
X176336253Y-117460858D01*
X176515858Y-117281253D01*
X176530000Y-117295395D01*
X176544143Y-117281253D01*
X176723748Y-117460858D01*
X176709605Y-117475000D01*
X177495565Y-118260960D01*
X177735656Y-118193980D01*
X177852756Y-117944952D01*
X177919023Y-117677865D01*
X177931910Y-117402983D01*
X177890922Y-117130867D01*
X177797636Y-116871977D01*
X177735656Y-116756020D01*
X177495567Y-116689041D01*
X177611977Y-116572631D01*
X177596083Y-116556737D01*
X177615565Y-116532998D01*
X177818563Y-116330000D01*
X191097678Y-116330000D01*
X191135000Y-116333676D01*
X191172322Y-116330000D01*
X191172333Y-116330000D01*
X191283986Y-116319003D01*
X191427247Y-116275546D01*
X191559276Y-116204974D01*
X191675001Y-116110001D01*
X191698804Y-116080997D01*
X194366212Y-113413589D01*
X225325000Y-113413589D01*
X225325000Y-113686411D01*
X225378225Y-113953989D01*
X225482629Y-114206043D01*
X225634201Y-114432886D01*
X225827114Y-114625799D01*
X226053957Y-114777371D01*
X226306011Y-114881775D01*
X226573589Y-114935000D01*
X226846411Y-114935000D01*
X227113989Y-114881775D01*
X227366043Y-114777371D01*
X227592886Y-114625799D01*
X227785799Y-114432886D01*
X227937371Y-114206043D01*
X228041775Y-113953989D01*
X228092532Y-113698816D01*
X228205000Y-113698816D01*
X228205000Y-114001184D01*
X228263989Y-114297743D01*
X228379701Y-114577095D01*
X228547688Y-114828505D01*
X228761495Y-115042312D01*
X229012905Y-115210299D01*
X229292257Y-115326011D01*
X229588816Y-115385000D01*
X229891184Y-115385000D01*
X230187743Y-115326011D01*
X230467095Y-115210299D01*
X230718505Y-115042312D01*
X230932312Y-114828505D01*
X231100299Y-114577095D01*
X231216011Y-114297743D01*
X231275000Y-114001184D01*
X231275000Y-113698816D01*
X231216011Y-113402257D01*
X231100299Y-113122905D01*
X230932312Y-112871495D01*
X230718505Y-112657688D01*
X230467095Y-112489701D01*
X230187743Y-112373989D01*
X229891184Y-112315000D01*
X229588816Y-112315000D01*
X229292257Y-112373989D01*
X229012905Y-112489701D01*
X228761495Y-112657688D01*
X228547688Y-112871495D01*
X228379701Y-113122905D01*
X228263989Y-113402257D01*
X228205000Y-113698816D01*
X228092532Y-113698816D01*
X228095000Y-113686411D01*
X228095000Y-113413589D01*
X228041775Y-113146011D01*
X227937371Y-112893957D01*
X227785799Y-112667114D01*
X227592886Y-112474201D01*
X227366043Y-112322629D01*
X227113989Y-112218225D01*
X226846411Y-112165000D01*
X226573589Y-112165000D01*
X226306011Y-112218225D01*
X226053957Y-112322629D01*
X225827114Y-112474201D01*
X225634201Y-112667114D01*
X225482629Y-112893957D01*
X225378225Y-113146011D01*
X225325000Y-113413589D01*
X194366212Y-113413589D01*
X199216212Y-108563589D01*
X225325000Y-108563589D01*
X225325000Y-108836411D01*
X225378225Y-109103989D01*
X225482629Y-109356043D01*
X225634201Y-109582886D01*
X225827114Y-109775799D01*
X226053957Y-109927371D01*
X226306011Y-110031775D01*
X226573589Y-110085000D01*
X226846411Y-110085000D01*
X227113989Y-110031775D01*
X227366043Y-109927371D01*
X227592886Y-109775799D01*
X227785799Y-109582886D01*
X227937371Y-109356043D01*
X228041775Y-109103989D01*
X228095000Y-108836411D01*
X228095000Y-108563589D01*
X228041775Y-108296011D01*
X228022227Y-108248816D01*
X228205000Y-108248816D01*
X228205000Y-108551184D01*
X228263989Y-108847743D01*
X228379701Y-109127095D01*
X228547688Y-109378505D01*
X228761495Y-109592312D01*
X229012905Y-109760299D01*
X229292257Y-109876011D01*
X229588816Y-109935000D01*
X229891184Y-109935000D01*
X230187743Y-109876011D01*
X230467095Y-109760299D01*
X230718505Y-109592312D01*
X230932312Y-109378505D01*
X231100299Y-109127095D01*
X231216011Y-108847743D01*
X231275000Y-108551184D01*
X231275000Y-108248816D01*
X231216011Y-107952257D01*
X231100299Y-107672905D01*
X230932312Y-107421495D01*
X230718505Y-107207688D01*
X230467095Y-107039701D01*
X230187743Y-106923989D01*
X229891184Y-106865000D01*
X229588816Y-106865000D01*
X229292257Y-106923989D01*
X229012905Y-107039701D01*
X228761495Y-107207688D01*
X228547688Y-107421495D01*
X228379701Y-107672905D01*
X228263989Y-107952257D01*
X228205000Y-108248816D01*
X228022227Y-108248816D01*
X227937371Y-108043957D01*
X227785799Y-107817114D01*
X227592886Y-107624201D01*
X227366043Y-107472629D01*
X227113989Y-107368225D01*
X226846411Y-107315000D01*
X226573589Y-107315000D01*
X226306011Y-107368225D01*
X226053957Y-107472629D01*
X225827114Y-107624201D01*
X225634201Y-107817114D01*
X225482629Y-108043957D01*
X225378225Y-108296011D01*
X225325000Y-108563589D01*
X199216212Y-108563589D01*
X204103592Y-103676210D01*
X204323740Y-103720000D01*
X204616260Y-103720000D01*
X204903158Y-103662932D01*
X205173411Y-103550990D01*
X205416632Y-103388475D01*
X205623475Y-103181632D01*
X205740000Y-103007240D01*
X205856525Y-103181632D01*
X206063368Y-103388475D01*
X206306589Y-103550990D01*
X206576842Y-103662932D01*
X206863740Y-103720000D01*
X207156260Y-103720000D01*
X207443158Y-103662932D01*
X207713411Y-103550990D01*
X207956632Y-103388475D01*
X208163475Y-103181632D01*
X208280000Y-103007240D01*
X208396525Y-103181632D01*
X208603368Y-103388475D01*
X208846589Y-103550990D01*
X209116842Y-103662932D01*
X209403740Y-103720000D01*
X209696260Y-103720000D01*
X209983158Y-103662932D01*
X210253411Y-103550990D01*
X210496632Y-103388475D01*
X210628487Y-103256620D01*
X210650498Y-103329180D01*
X210709463Y-103439494D01*
X210788815Y-103536185D01*
X210885506Y-103615537D01*
X210995820Y-103674502D01*
X211115518Y-103710812D01*
X211240000Y-103723072D01*
X212940000Y-103723072D01*
X213064482Y-103710812D01*
X213184180Y-103674502D01*
X213294494Y-103615537D01*
X213391185Y-103536185D01*
X213470537Y-103439494D01*
X213529502Y-103329180D01*
X213551513Y-103256620D01*
X213683368Y-103388475D01*
X213926589Y-103550990D01*
X214196842Y-103662932D01*
X214483740Y-103720000D01*
X214776260Y-103720000D01*
X215063158Y-103662932D01*
X215333411Y-103550990D01*
X215576632Y-103388475D01*
X215783475Y-103181632D01*
X215900000Y-103007240D01*
X216016525Y-103181632D01*
X216223368Y-103388475D01*
X216466589Y-103550990D01*
X216736842Y-103662932D01*
X217023740Y-103720000D01*
X217316260Y-103720000D01*
X217603158Y-103662932D01*
X217873411Y-103550990D01*
X218116632Y-103388475D01*
X218323475Y-103181632D01*
X218440000Y-103007240D01*
X218556525Y-103181632D01*
X218763368Y-103388475D01*
X219006589Y-103550990D01*
X219276842Y-103662932D01*
X219563740Y-103720000D01*
X219856260Y-103720000D01*
X220143158Y-103662932D01*
X220413411Y-103550990D01*
X220656632Y-103388475D01*
X220863475Y-103181632D01*
X220980000Y-103007240D01*
X221096525Y-103181632D01*
X221303368Y-103388475D01*
X221546589Y-103550990D01*
X221816842Y-103662932D01*
X222103740Y-103720000D01*
X222396260Y-103720000D01*
X222683158Y-103662932D01*
X222953411Y-103550990D01*
X223196632Y-103388475D01*
X223328487Y-103256620D01*
X223350498Y-103329180D01*
X223409463Y-103439494D01*
X223488815Y-103536185D01*
X223585506Y-103615537D01*
X223695820Y-103674502D01*
X223815518Y-103710812D01*
X223940000Y-103723072D01*
X225640000Y-103723072D01*
X225764482Y-103710812D01*
X225884180Y-103674502D01*
X225994494Y-103615537D01*
X226091185Y-103536185D01*
X226170537Y-103439494D01*
X226229502Y-103329180D01*
X226251513Y-103256620D01*
X226383368Y-103388475D01*
X226626589Y-103550990D01*
X226896842Y-103662932D01*
X227183740Y-103720000D01*
X227476260Y-103720000D01*
X227763158Y-103662932D01*
X228033411Y-103550990D01*
X228276632Y-103388475D01*
X228483475Y-103181632D01*
X228600000Y-103007240D01*
X228716525Y-103181632D01*
X228923368Y-103388475D01*
X229166589Y-103550990D01*
X229436842Y-103662932D01*
X229723740Y-103720000D01*
X230016260Y-103720000D01*
X230303158Y-103662932D01*
X230573411Y-103550990D01*
X230816632Y-103388475D01*
X231023475Y-103181632D01*
X231185990Y-102938411D01*
X231297932Y-102668158D01*
X231355000Y-102381260D01*
X231355000Y-102088740D01*
X231297932Y-101801842D01*
X231185990Y-101531589D01*
X231023475Y-101288368D01*
X230816632Y-101081525D01*
X230573411Y-100919010D01*
X230303158Y-100807068D01*
X230016260Y-100750000D01*
X229723740Y-100750000D01*
X229436842Y-100807068D01*
X229166589Y-100919010D01*
X228923368Y-101081525D01*
X228716525Y-101288368D01*
X228600000Y-101462760D01*
X228483475Y-101288368D01*
X228276632Y-101081525D01*
X228033411Y-100919010D01*
X227763158Y-100807068D01*
X227476260Y-100750000D01*
X227183740Y-100750000D01*
X226896842Y-100807068D01*
X226626589Y-100919010D01*
X226383368Y-101081525D01*
X226251513Y-101213380D01*
X226229502Y-101140820D01*
X226170537Y-101030506D01*
X226091185Y-100933815D01*
X225994494Y-100854463D01*
X225884180Y-100795498D01*
X225764482Y-100759188D01*
X225640000Y-100746928D01*
X223940000Y-100746928D01*
X223815518Y-100759188D01*
X223695820Y-100795498D01*
X223585506Y-100854463D01*
X223488815Y-100933815D01*
X223409463Y-101030506D01*
X223350498Y-101140820D01*
X223328487Y-101213380D01*
X223196632Y-101081525D01*
X222953411Y-100919010D01*
X222683158Y-100807068D01*
X222396260Y-100750000D01*
X222103740Y-100750000D01*
X221816842Y-100807068D01*
X221546589Y-100919010D01*
X221303368Y-101081525D01*
X221096525Y-101288368D01*
X220980000Y-101462760D01*
X220863475Y-101288368D01*
X220656632Y-101081525D01*
X220413411Y-100919010D01*
X220143158Y-100807068D01*
X219856260Y-100750000D01*
X219563740Y-100750000D01*
X219276842Y-100807068D01*
X219006589Y-100919010D01*
X218763368Y-101081525D01*
X218556525Y-101288368D01*
X218440000Y-101462760D01*
X218323475Y-101288368D01*
X218116632Y-101081525D01*
X217873411Y-100919010D01*
X217603158Y-100807068D01*
X217316260Y-100750000D01*
X217023740Y-100750000D01*
X216736842Y-100807068D01*
X216466589Y-100919010D01*
X216223368Y-101081525D01*
X216016525Y-101288368D01*
X215900000Y-101462760D01*
X215783475Y-101288368D01*
X215576632Y-101081525D01*
X215333411Y-100919010D01*
X215063158Y-100807068D01*
X214776260Y-100750000D01*
X214483740Y-100750000D01*
X214196842Y-100807068D01*
X213926589Y-100919010D01*
X213683368Y-101081525D01*
X213551513Y-101213380D01*
X213529502Y-101140820D01*
X213470537Y-101030506D01*
X213391185Y-100933815D01*
X213294494Y-100854463D01*
X213184180Y-100795498D01*
X213064482Y-100759188D01*
X212940000Y-100746928D01*
X211240000Y-100746928D01*
X211115518Y-100759188D01*
X210995820Y-100795498D01*
X210885506Y-100854463D01*
X210788815Y-100933815D01*
X210709463Y-101030506D01*
X210650498Y-101140820D01*
X210628487Y-101213380D01*
X210496632Y-101081525D01*
X210305913Y-100954091D01*
X210299003Y-100883933D01*
X210255546Y-100740672D01*
X210224610Y-100682795D01*
X210184974Y-100608642D01*
X210113799Y-100521916D01*
X210090001Y-100492918D01*
X210061003Y-100469120D01*
X206870885Y-97279003D01*
X206847082Y-97249999D01*
X206731357Y-97155026D01*
X206599328Y-97084454D01*
X206456067Y-97040997D01*
X206344414Y-97030000D01*
X206344403Y-97030000D01*
X206307081Y-97026324D01*
X206269759Y-97030000D01*
X194065440Y-97030000D01*
X194075000Y-96981937D01*
X194075000Y-96778059D01*
X194035226Y-96578100D01*
X193957205Y-96389742D01*
X193843937Y-96220224D01*
X193699774Y-96076061D01*
X193530256Y-95962793D01*
X193341898Y-95884772D01*
X193141939Y-95844998D01*
X193079802Y-95844998D01*
X192323708Y-95088905D01*
X192566858Y-95288453D01*
X192911699Y-95472774D01*
X193285873Y-95586278D01*
X193675000Y-95624604D01*
X194064128Y-95586278D01*
X194438302Y-95472774D01*
X194783143Y-95288453D01*
X195085398Y-95040398D01*
X195333453Y-94738143D01*
X195517774Y-94393302D01*
X195631278Y-94019127D01*
X195660000Y-93727509D01*
X195660000Y-92532490D01*
X195631964Y-92247838D01*
X196054184Y-91825618D01*
X196032226Y-91866699D01*
X195918722Y-92240873D01*
X195890000Y-92532491D01*
X195890000Y-93727510D01*
X195918722Y-94019128D01*
X196032226Y-94393302D01*
X196216548Y-94738143D01*
X196464603Y-95040398D01*
X196766858Y-95288453D01*
X197111699Y-95472774D01*
X197485873Y-95586278D01*
X197875000Y-95624604D01*
X198264128Y-95586278D01*
X198638302Y-95472774D01*
X198983143Y-95288453D01*
X199285398Y-95040398D01*
X199533453Y-94738143D01*
X199717774Y-94393302D01*
X199831278Y-94019127D01*
X199860000Y-93727509D01*
X199860000Y-92532491D01*
X200090000Y-92532491D01*
X200090000Y-93727510D01*
X200118722Y-94019128D01*
X200232226Y-94393302D01*
X200416548Y-94738143D01*
X200664603Y-95040398D01*
X200966858Y-95288453D01*
X201311699Y-95472774D01*
X201685873Y-95586278D01*
X202075000Y-95624604D01*
X202464128Y-95586278D01*
X202838302Y-95472774D01*
X203183143Y-95288453D01*
X203485398Y-95040398D01*
X203733453Y-94738143D01*
X203917774Y-94393302D01*
X204031278Y-94019127D01*
X204060000Y-93727509D01*
X204060000Y-92532491D01*
X204290000Y-92532491D01*
X204290000Y-93727510D01*
X204318722Y-94019128D01*
X204432226Y-94393302D01*
X204616548Y-94738143D01*
X204864603Y-95040398D01*
X205166858Y-95288453D01*
X205511699Y-95472774D01*
X205885873Y-95586278D01*
X206275000Y-95624604D01*
X206664128Y-95586278D01*
X207038302Y-95472774D01*
X207308336Y-95328438D01*
X213161505Y-95328438D01*
X213200605Y-95568549D01*
X213285798Y-95796418D01*
X213326652Y-95872852D01*
X213550236Y-95920159D01*
X214220395Y-95250000D01*
X213550236Y-94579841D01*
X213326652Y-94627148D01*
X213225763Y-94848516D01*
X213170000Y-95085313D01*
X213161505Y-95328438D01*
X207308336Y-95328438D01*
X207383143Y-95288453D01*
X207685398Y-95040398D01*
X207933453Y-94738143D01*
X208114067Y-94400236D01*
X213729841Y-94400236D01*
X214400000Y-95070395D01*
X214414143Y-95056253D01*
X214593748Y-95235858D01*
X214579605Y-95250000D01*
X214593748Y-95264143D01*
X214414143Y-95443748D01*
X214400000Y-95429605D01*
X213729841Y-96099764D01*
X213777148Y-96323348D01*
X213998516Y-96424237D01*
X214235313Y-96480000D01*
X214478438Y-96488495D01*
X214718549Y-96449395D01*
X214932117Y-96369549D01*
X214945506Y-96380537D01*
X215055820Y-96439502D01*
X215175518Y-96475812D01*
X215300000Y-96488072D01*
X216500000Y-96488072D01*
X216624482Y-96475812D01*
X216744180Y-96439502D01*
X216854494Y-96380537D01*
X216951185Y-96301185D01*
X217030537Y-96204494D01*
X217089502Y-96094180D01*
X217115038Y-96010000D01*
X217490199Y-96010000D01*
X219781205Y-98301008D01*
X219804999Y-98330001D01*
X219833992Y-98353795D01*
X219833996Y-98353799D01*
X219890568Y-98400226D01*
X219920724Y-98424974D01*
X220052753Y-98495546D01*
X220196014Y-98539003D01*
X220307667Y-98550000D01*
X220307676Y-98550000D01*
X220344999Y-98553676D01*
X220382322Y-98550000D01*
X230825199Y-98550000D01*
X231650000Y-99374802D01*
X231650001Y-114620197D01*
X227696408Y-118573791D01*
X227476260Y-118530000D01*
X227183740Y-118530000D01*
X226896842Y-118587068D01*
X226626589Y-118699010D01*
X226383368Y-118861525D01*
X226251513Y-118993380D01*
X226229502Y-118920820D01*
X226170537Y-118810506D01*
X226091185Y-118713815D01*
X225994494Y-118634463D01*
X225884180Y-118575498D01*
X225764482Y-118539188D01*
X225640000Y-118526928D01*
X225075750Y-118530000D01*
X224917000Y-118688750D01*
X224917000Y-119888000D01*
X224937000Y-119888000D01*
X224937000Y-120142000D01*
X224917000Y-120142000D01*
X224917000Y-121341250D01*
X225075750Y-121500000D01*
X225640000Y-121503072D01*
X225764482Y-121490812D01*
X225884180Y-121454502D01*
X225994494Y-121395537D01*
X226091185Y-121316185D01*
X226170537Y-121219494D01*
X226229502Y-121109180D01*
X226251513Y-121036620D01*
X226383368Y-121168475D01*
X226626589Y-121330990D01*
X226896842Y-121442932D01*
X227183740Y-121500000D01*
X227476260Y-121500000D01*
X227763158Y-121442932D01*
X228033411Y-121330990D01*
X228276632Y-121168475D01*
X228483475Y-120961632D01*
X228600000Y-120787240D01*
X228716525Y-120961632D01*
X228923368Y-121168475D01*
X229166589Y-121330990D01*
X229436842Y-121442932D01*
X229723740Y-121500000D01*
X230016260Y-121500000D01*
X230303158Y-121442932D01*
X230573411Y-121330990D01*
X230816632Y-121168475D01*
X230920235Y-121064872D01*
X233350000Y-121064872D01*
X233350000Y-121505128D01*
X233435890Y-121936925D01*
X233604369Y-122343669D01*
X233848962Y-122709729D01*
X234160271Y-123021038D01*
X234526331Y-123265631D01*
X234933075Y-123434110D01*
X235364872Y-123520000D01*
X235805128Y-123520000D01*
X236236925Y-123434110D01*
X236643669Y-123265631D01*
X237009729Y-123021038D01*
X237321038Y-122709729D01*
X237565631Y-122343669D01*
X237734110Y-121936925D01*
X237820000Y-121505128D01*
X237820000Y-121064872D01*
X237734110Y-120633075D01*
X237565631Y-120226331D01*
X237321038Y-119860271D01*
X237009729Y-119548962D01*
X236643669Y-119304369D01*
X236236925Y-119135890D01*
X235805128Y-119050000D01*
X235364872Y-119050000D01*
X234933075Y-119135890D01*
X234526331Y-119304369D01*
X234160271Y-119548962D01*
X233848962Y-119860271D01*
X233604369Y-120226331D01*
X233435890Y-120633075D01*
X233350000Y-121064872D01*
X230920235Y-121064872D01*
X231023475Y-120961632D01*
X231185990Y-120718411D01*
X231297932Y-120448158D01*
X231355000Y-120161260D01*
X231355000Y-119868740D01*
X231297932Y-119581842D01*
X231185990Y-119311589D01*
X231023475Y-119068368D01*
X230816632Y-118861525D01*
X230573411Y-118699010D01*
X230303158Y-118587068D01*
X230016260Y-118530000D01*
X229889801Y-118530000D01*
X232921003Y-115498799D01*
X232950001Y-115475001D01*
X232994307Y-115421014D01*
X233044974Y-115359277D01*
X233115546Y-115227247D01*
X233140275Y-115145724D01*
X233159003Y-115083986D01*
X233170000Y-114972333D01*
X233170000Y-114972323D01*
X233173676Y-114935000D01*
X233170000Y-114897677D01*
X233170000Y-99097322D01*
X233173676Y-99059999D01*
X233170000Y-99022676D01*
X233170000Y-99022667D01*
X233159003Y-98911014D01*
X233115546Y-98767753D01*
X233044974Y-98635724D01*
X232950001Y-98519999D01*
X232921003Y-98496201D01*
X231703804Y-97279003D01*
X231680001Y-97249999D01*
X231564276Y-97155026D01*
X231432247Y-97084454D01*
X231288986Y-97040997D01*
X231177333Y-97030000D01*
X231177322Y-97030000D01*
X231140000Y-97026324D01*
X231102678Y-97030000D01*
X220659803Y-97030000D01*
X219940929Y-96311126D01*
X220025506Y-96380537D01*
X220135820Y-96439502D01*
X220255518Y-96475812D01*
X220380000Y-96488072D01*
X221580000Y-96488072D01*
X221704482Y-96475812D01*
X221824180Y-96439502D01*
X221934494Y-96380537D01*
X221951681Y-96366432D01*
X222078516Y-96424237D01*
X222315313Y-96480000D01*
X222558438Y-96488495D01*
X222798549Y-96449395D01*
X223026418Y-96364202D01*
X223102852Y-96323348D01*
X223150159Y-96099764D01*
X222480000Y-95429605D01*
X222465858Y-95443748D01*
X222286253Y-95264143D01*
X222300395Y-95250000D01*
X222659605Y-95250000D01*
X223329764Y-95920159D01*
X223553348Y-95872852D01*
X223654237Y-95651484D01*
X223710000Y-95414687D01*
X223718495Y-95171562D01*
X223679395Y-94931451D01*
X223594202Y-94703582D01*
X223553348Y-94627148D01*
X223329764Y-94579841D01*
X222659605Y-95250000D01*
X222300395Y-95250000D01*
X222286253Y-95235858D01*
X222465858Y-95056253D01*
X222480000Y-95070395D01*
X223150159Y-94400236D01*
X223102852Y-94176652D01*
X222881484Y-94075763D01*
X222644687Y-94020000D01*
X222401562Y-94011505D01*
X222161451Y-94050605D01*
X221947883Y-94130451D01*
X221934494Y-94119463D01*
X221824180Y-94060498D01*
X221704482Y-94024188D01*
X221580000Y-94011928D01*
X220380000Y-94011928D01*
X220255518Y-94024188D01*
X220135820Y-94060498D01*
X220025506Y-94119463D01*
X219928815Y-94198815D01*
X219849463Y-94295506D01*
X219790498Y-94405820D01*
X219754188Y-94525518D01*
X219741928Y-94650000D01*
X219741928Y-95850000D01*
X219754188Y-95974482D01*
X219790498Y-96094180D01*
X219849463Y-96204494D01*
X219918874Y-96289072D01*
X218368804Y-94739003D01*
X218345001Y-94709999D01*
X218229276Y-94615026D01*
X218097247Y-94544454D01*
X217953986Y-94500997D01*
X217842333Y-94490000D01*
X217842322Y-94490000D01*
X217805000Y-94486324D01*
X217767678Y-94490000D01*
X217115038Y-94490000D01*
X217089502Y-94405820D01*
X217030537Y-94295506D01*
X216951185Y-94198815D01*
X216854494Y-94119463D01*
X216744180Y-94060498D01*
X216624482Y-94024188D01*
X216500000Y-94011928D01*
X215300000Y-94011928D01*
X215175518Y-94024188D01*
X215055820Y-94060498D01*
X214945506Y-94119463D01*
X214928319Y-94133568D01*
X214801484Y-94075763D01*
X214564687Y-94020000D01*
X214321562Y-94011505D01*
X214081451Y-94050605D01*
X213853582Y-94135798D01*
X213777148Y-94176652D01*
X213729841Y-94400236D01*
X208114067Y-94400236D01*
X208117774Y-94393302D01*
X208231278Y-94019127D01*
X208260000Y-93727509D01*
X208260000Y-92532490D01*
X208231278Y-92240872D01*
X208117774Y-91866698D01*
X207933453Y-91521857D01*
X207685398Y-91219602D01*
X207383143Y-90971547D01*
X207038301Y-90787226D01*
X206664127Y-90673722D01*
X206275000Y-90635396D01*
X205885872Y-90673722D01*
X205511698Y-90787226D01*
X205166857Y-90971547D01*
X204864602Y-91219602D01*
X204616547Y-91521857D01*
X204432226Y-91866699D01*
X204318722Y-92240873D01*
X204290000Y-92532491D01*
X204060000Y-92532491D01*
X204060000Y-92532490D01*
X204031278Y-92240872D01*
X203917774Y-91866698D01*
X203733453Y-91521857D01*
X203485398Y-91219602D01*
X203183143Y-90971547D01*
X202838301Y-90787226D01*
X202464127Y-90673722D01*
X202075000Y-90635396D01*
X201685872Y-90673722D01*
X201311698Y-90787226D01*
X200966857Y-90971547D01*
X200664602Y-91219602D01*
X200416547Y-91521857D01*
X200232226Y-91866699D01*
X200118722Y-92240873D01*
X200090000Y-92532491D01*
X199860000Y-92532491D01*
X199860000Y-92532490D01*
X199831278Y-92240872D01*
X199717774Y-91866698D01*
X199533453Y-91521857D01*
X199285398Y-91219602D01*
X198983143Y-90971547D01*
X198638301Y-90787226D01*
X198264127Y-90673722D01*
X197875000Y-90635396D01*
X197485872Y-90673722D01*
X197111698Y-90787226D01*
X196766857Y-90971547D01*
X196464602Y-91219602D01*
X196323785Y-91391187D01*
X196329003Y-91373986D01*
X196340000Y-91262333D01*
X196340000Y-91262323D01*
X196343676Y-91225000D01*
X196340000Y-91187677D01*
X196340000Y-89388569D01*
X196464603Y-89540398D01*
X196766858Y-89788453D01*
X197111699Y-89972774D01*
X197485873Y-90086278D01*
X197875000Y-90124604D01*
X198264128Y-90086278D01*
X198638302Y-89972774D01*
X198983143Y-89788453D01*
X199285398Y-89540398D01*
X199533453Y-89238143D01*
X199717774Y-88893302D01*
X199831278Y-88519127D01*
X199860000Y-88227509D01*
X199860000Y-87032490D01*
X199831278Y-86740872D01*
X199717774Y-86366698D01*
X199695816Y-86325618D01*
X200118036Y-86747838D01*
X200090000Y-87032491D01*
X200090000Y-88227510D01*
X200118722Y-88519128D01*
X200232226Y-88893302D01*
X200416548Y-89238143D01*
X200664603Y-89540398D01*
X200966858Y-89788453D01*
X201311699Y-89972774D01*
X201685873Y-90086278D01*
X202075000Y-90124604D01*
X202464128Y-90086278D01*
X202838302Y-89972774D01*
X203183143Y-89788453D01*
X203485398Y-89540398D01*
X203733453Y-89238143D01*
X203917774Y-88893302D01*
X204031278Y-88519127D01*
X204060000Y-88227509D01*
X204060000Y-87032490D01*
X204031278Y-86740872D01*
X203917774Y-86366698D01*
X203733453Y-86021857D01*
X203485398Y-85719602D01*
X203183143Y-85471547D01*
X202838301Y-85287226D01*
X202464127Y-85173722D01*
X202075000Y-85135396D01*
X201685872Y-85173722D01*
X201311698Y-85287226D01*
X200982818Y-85463016D01*
X197610000Y-82090199D01*
X197610000Y-78374013D01*
X197629744Y-78387205D01*
X197818102Y-78465226D01*
X198018061Y-78505000D01*
X198080199Y-78505000D01*
X205100886Y-85525688D01*
X204864602Y-85719602D01*
X204616547Y-86021857D01*
X204432226Y-86366699D01*
X204318722Y-86740873D01*
X204290000Y-87032491D01*
X204290000Y-88227510D01*
X204318722Y-88519128D01*
X204432226Y-88893302D01*
X204616548Y-89238143D01*
X204864603Y-89540398D01*
X205166858Y-89788453D01*
X205511699Y-89972774D01*
X205885873Y-90086278D01*
X206275000Y-90124604D01*
X206664128Y-90086278D01*
X207038302Y-89972774D01*
X207383143Y-89788453D01*
X207685398Y-89540398D01*
X207933453Y-89238143D01*
X208117774Y-88893302D01*
X208231278Y-88519127D01*
X208260000Y-88227509D01*
X208260000Y-87032490D01*
X208231278Y-86740872D01*
X208117774Y-86366698D01*
X207933453Y-86021857D01*
X207685398Y-85719602D01*
X207383143Y-85471547D01*
X207038301Y-85287226D01*
X206940325Y-85257505D01*
X206909974Y-85200724D01*
X206838799Y-85113997D01*
X206815001Y-85084999D01*
X206786003Y-85061201D01*
X201844523Y-80119721D01*
X204140000Y-80119721D01*
X204140000Y-80540279D01*
X204222047Y-80952756D01*
X204382988Y-81341302D01*
X204616637Y-81690983D01*
X204914017Y-81988363D01*
X205263698Y-82222012D01*
X205652244Y-82382953D01*
X206064721Y-82465000D01*
X206485279Y-82465000D01*
X206897756Y-82382953D01*
X207286302Y-82222012D01*
X207635983Y-81988363D01*
X207933363Y-81690983D01*
X208167012Y-81341302D01*
X208327953Y-80952756D01*
X208410000Y-80540279D01*
X208410000Y-80119721D01*
X208327953Y-79707244D01*
X208167012Y-79318698D01*
X207933363Y-78969017D01*
X207635983Y-78671637D01*
X207286302Y-78437988D01*
X206941099Y-78295000D01*
X214436928Y-78295000D01*
X214449188Y-78419482D01*
X214485498Y-78539180D01*
X214544463Y-78649494D01*
X214623815Y-78746185D01*
X214720506Y-78825537D01*
X214830820Y-78884502D01*
X214950518Y-78920812D01*
X215075000Y-78933072D01*
X215614250Y-78930000D01*
X215773000Y-78771250D01*
X215773000Y-77597000D01*
X216027000Y-77597000D01*
X216027000Y-78771250D01*
X216185750Y-78930000D01*
X216725000Y-78933072D01*
X216849482Y-78920812D01*
X216969180Y-78884502D01*
X217079494Y-78825537D01*
X217176185Y-78746185D01*
X217255537Y-78649494D01*
X217314502Y-78539180D01*
X217350812Y-78419482D01*
X217363072Y-78295000D01*
X217360000Y-77755750D01*
X217201250Y-77597000D01*
X216027000Y-77597000D01*
X215773000Y-77597000D01*
X214598750Y-77597000D01*
X214440000Y-77755750D01*
X214436928Y-78295000D01*
X206941099Y-78295000D01*
X206897756Y-78277047D01*
X206485279Y-78195000D01*
X206064721Y-78195000D01*
X205652244Y-78277047D01*
X205263698Y-78437988D01*
X204914017Y-78671637D01*
X204616637Y-78969017D01*
X204382988Y-79318698D01*
X204222047Y-79707244D01*
X204140000Y-80119721D01*
X201844523Y-80119721D01*
X199155000Y-77430199D01*
X199155000Y-77368061D01*
X199115226Y-77168102D01*
X199037205Y-76979744D01*
X198923937Y-76810226D01*
X198779774Y-76666063D01*
X198748251Y-76645000D01*
X214436928Y-76645000D01*
X214440000Y-77184250D01*
X214598750Y-77343000D01*
X215773000Y-77343000D01*
X215773000Y-76168750D01*
X216027000Y-76168750D01*
X216027000Y-77343000D01*
X217201250Y-77343000D01*
X217360000Y-77184250D01*
X217363072Y-76645000D01*
X217350812Y-76520518D01*
X217314502Y-76400820D01*
X217255537Y-76290506D01*
X217176185Y-76193815D01*
X217079494Y-76114463D01*
X216969180Y-76055498D01*
X216849482Y-76019188D01*
X216725000Y-76006928D01*
X216185750Y-76010000D01*
X216027000Y-76168750D01*
X215773000Y-76168750D01*
X215614250Y-76010000D01*
X215075000Y-76006928D01*
X214950518Y-76019188D01*
X214830820Y-76055498D01*
X214720506Y-76114463D01*
X214623815Y-76193815D01*
X214544463Y-76290506D01*
X214485498Y-76400820D01*
X214449188Y-76520518D01*
X214436928Y-76645000D01*
X198748251Y-76645000D01*
X198610256Y-76552795D01*
X198421898Y-76474774D01*
X198221939Y-76435000D01*
X198018061Y-76435000D01*
X197818102Y-76474774D01*
X197629744Y-76552795D01*
X197610000Y-76565987D01*
X197610000Y-76237333D01*
X197613677Y-76200000D01*
X197599003Y-76051014D01*
X197555546Y-75907753D01*
X197532694Y-75865000D01*
X218052711Y-75865000D01*
X219520000Y-77332290D01*
X219520000Y-77613797D01*
X219576107Y-77895866D01*
X219686165Y-78161569D01*
X219845944Y-78400696D01*
X220049304Y-78604056D01*
X220288431Y-78763835D01*
X220554134Y-78873893D01*
X220836203Y-78930000D01*
X221123797Y-78930000D01*
X221405866Y-78873893D01*
X221671569Y-78763835D01*
X221910696Y-78604056D01*
X222114056Y-78400696D01*
X222273835Y-78161569D01*
X222383893Y-77895866D01*
X222440000Y-77613797D01*
X222440000Y-77326203D01*
X222383893Y-77044134D01*
X222273835Y-76778431D01*
X222114056Y-76539304D01*
X221910696Y-76335944D01*
X221671569Y-76176165D01*
X221405866Y-76066107D01*
X221123797Y-76010000D01*
X220842290Y-76010000D01*
X220812162Y-75979872D01*
X233350000Y-75979872D01*
X233350000Y-76420128D01*
X233435890Y-76851925D01*
X233604369Y-77258669D01*
X233848962Y-77624729D01*
X234160271Y-77936038D01*
X234526331Y-78180631D01*
X234933075Y-78349110D01*
X235364872Y-78435000D01*
X235805128Y-78435000D01*
X236236925Y-78349110D01*
X236643669Y-78180631D01*
X237009729Y-77936038D01*
X237321038Y-77624729D01*
X237565631Y-77258669D01*
X237734110Y-76851925D01*
X237820000Y-76420128D01*
X237820000Y-75979872D01*
X237734110Y-75548075D01*
X237565631Y-75141331D01*
X237321038Y-74775271D01*
X237009729Y-74463962D01*
X236643669Y-74219369D01*
X236236925Y-74050890D01*
X235805128Y-73965000D01*
X235364872Y-73965000D01*
X234933075Y-74050890D01*
X234526331Y-74219369D01*
X234160271Y-74463962D01*
X233848962Y-74775271D01*
X233604369Y-75141331D01*
X233435890Y-75548075D01*
X233350000Y-75979872D01*
X220812162Y-75979872D01*
X219133630Y-74301341D01*
X219104344Y-74265656D01*
X218961972Y-74148814D01*
X218799540Y-74061993D01*
X218623292Y-74008529D01*
X218485932Y-73995000D01*
X218440000Y-73990476D01*
X218394068Y-73995000D01*
X197872288Y-73995000D01*
X197553620Y-73676332D01*
X197524334Y-73640646D01*
X197381962Y-73523804D01*
X197219530Y-73436983D01*
X197043282Y-73383519D01*
X196905922Y-73369990D01*
X196859990Y-73365466D01*
X196814058Y-73369990D01*
X139735942Y-73369990D01*
X139690010Y-73365466D01*
X139644078Y-73369990D01*
X139506718Y-73383519D01*
X139330470Y-73436983D01*
X139168038Y-73523804D01*
X139025666Y-73640646D01*
X138996380Y-73676331D01*
X137450142Y-75222569D01*
X137347705Y-75265000D01*
X129352295Y-75265000D01*
X129206898Y-75204774D01*
X129006939Y-75165000D01*
X128803061Y-75165000D01*
X128603102Y-75204774D01*
X128457705Y-75265000D01*
X120462295Y-75265000D01*
X120316898Y-75204774D01*
X120116939Y-75165000D01*
X119913061Y-75165000D01*
X119713102Y-75204774D01*
X119524744Y-75282795D01*
X119355226Y-75396063D01*
X119211063Y-75540226D01*
X119097795Y-75709744D01*
X119019774Y-75898102D01*
X118980000Y-76098061D01*
X118980000Y-76301939D01*
X119019774Y-76501898D01*
X119097795Y-76690256D01*
X119211063Y-76859774D01*
X119355226Y-77003937D01*
X119524744Y-77117205D01*
X119713102Y-77195226D01*
X119913061Y-77235000D01*
X120116939Y-77235000D01*
X120316898Y-77195226D01*
X120462295Y-77135000D01*
X128457705Y-77135000D01*
X128603102Y-77195226D01*
X128803061Y-77235000D01*
X129006939Y-77235000D01*
X129206898Y-77195226D01*
X129352295Y-77135000D01*
X137347705Y-77135000D01*
X137493102Y-77195226D01*
X137693061Y-77235000D01*
X137896939Y-77235000D01*
X138096898Y-77195226D01*
X138285256Y-77117205D01*
X138454774Y-77003937D01*
X138598937Y-76859774D01*
X138712205Y-76690256D01*
X138772431Y-76544858D01*
X140077299Y-75239990D01*
X142125208Y-75239990D01*
X136930199Y-80435000D01*
X132063711Y-80435000D01*
X132019774Y-80391063D01*
X131850256Y-80277795D01*
X131661898Y-80199774D01*
X131461939Y-80160000D01*
X131258061Y-80160000D01*
X131058102Y-80199774D01*
X130869744Y-80277795D01*
X130700226Y-80391063D01*
X130556063Y-80535226D01*
X130442795Y-80704744D01*
X130364774Y-80893102D01*
X130325000Y-81093061D01*
X130325000Y-81296939D01*
X130364774Y-81496898D01*
X130442795Y-81685256D01*
X130556063Y-81854774D01*
X130700226Y-81998937D01*
X130869744Y-82112205D01*
X131058102Y-82190226D01*
X131258061Y-82230000D01*
X131461939Y-82230000D01*
X131661898Y-82190226D01*
X131850256Y-82112205D01*
X132019774Y-81998937D01*
X132063711Y-81955000D01*
X137207678Y-81955000D01*
X137245000Y-81958676D01*
X137282322Y-81955000D01*
X137282333Y-81955000D01*
X137393986Y-81944003D01*
X137537247Y-81900546D01*
X137669276Y-81829974D01*
X137785001Y-81735001D01*
X137808804Y-81705997D01*
X143824802Y-75690000D01*
X193557197Y-75690000D01*
X194820000Y-76952804D01*
X194820000Y-78527322D01*
X194686302Y-78437988D01*
X194297756Y-78277047D01*
X193885279Y-78195000D01*
X193464721Y-78195000D01*
X193052244Y-78277047D01*
X192663698Y-78437988D01*
X192314017Y-78671637D01*
X192016637Y-78969017D01*
X191782988Y-79318698D01*
X191622047Y-79707244D01*
X191540000Y-80119721D01*
X191540000Y-80540279D01*
X191622047Y-80952756D01*
X191782988Y-81341302D01*
X192016637Y-81690983D01*
X192314017Y-81988363D01*
X192663698Y-82222012D01*
X193052244Y-82382953D01*
X193464721Y-82465000D01*
X193885279Y-82465000D01*
X194297756Y-82382953D01*
X194686302Y-82222012D01*
X194820000Y-82132678D01*
X194820001Y-85146360D01*
X194774999Y-85141928D01*
X192575001Y-85141928D01*
X192401747Y-85158992D01*
X192235150Y-85209529D01*
X192081614Y-85291595D01*
X191947039Y-85402039D01*
X191836595Y-85536614D01*
X191754529Y-85690150D01*
X191703992Y-85856747D01*
X191686928Y-86030001D01*
X191686928Y-89229999D01*
X191703992Y-89403253D01*
X191754529Y-89569850D01*
X191836595Y-89723386D01*
X191947039Y-89857961D01*
X192081614Y-89968405D01*
X192235150Y-90050471D01*
X192401747Y-90101008D01*
X192575001Y-90118072D01*
X194774999Y-90118072D01*
X194820001Y-90113640D01*
X194820001Y-90910197D01*
X194767182Y-90963016D01*
X194438301Y-90787226D01*
X194064127Y-90673722D01*
X193675000Y-90635396D01*
X193285872Y-90673722D01*
X192911698Y-90787226D01*
X192566857Y-90971547D01*
X192264602Y-91219602D01*
X192016547Y-91521857D01*
X191832226Y-91866699D01*
X191718722Y-92240873D01*
X191690000Y-92532491D01*
X191690000Y-93727510D01*
X191718722Y-94019128D01*
X191832226Y-94393302D01*
X192016548Y-94738143D01*
X192216096Y-94981293D01*
X189355000Y-92120197D01*
X189355000Y-82587333D01*
X189358677Y-82550000D01*
X189344003Y-82401014D01*
X189300546Y-82257753D01*
X189229974Y-82125724D01*
X189158799Y-82038997D01*
X189135001Y-82009999D01*
X189106003Y-81986201D01*
X183443804Y-76324003D01*
X183420001Y-76294999D01*
X183304276Y-76200026D01*
X183172247Y-76129454D01*
X183028986Y-76085997D01*
X182917333Y-76075000D01*
X182917322Y-76075000D01*
X182880000Y-76071324D01*
X182842678Y-76075000D01*
X149262333Y-76075000D01*
X149225000Y-76071323D01*
X149187667Y-76075000D01*
X149076014Y-76085997D01*
X148932753Y-76129454D01*
X148800724Y-76200026D01*
X148684999Y-76294999D01*
X148661201Y-76323997D01*
X140295199Y-84690000D01*
X140233061Y-84690000D01*
X140033102Y-84729774D01*
X139844744Y-84807795D01*
X139675226Y-84921063D01*
X139531063Y-85065226D01*
X139417795Y-85234744D01*
X139339774Y-85423102D01*
X139300000Y-85623061D01*
X139300000Y-85826939D01*
X139339774Y-86026898D01*
X139417795Y-86215256D01*
X139531063Y-86384774D01*
X139675226Y-86528937D01*
X139705820Y-86549379D01*
X138911168Y-87344031D01*
X138731898Y-87269774D01*
X138531939Y-87230000D01*
X138328061Y-87230000D01*
X138128102Y-87269774D01*
X137939744Y-87347795D01*
X137770226Y-87461063D01*
X137626063Y-87605226D01*
X137512795Y-87774744D01*
X137434774Y-87963102D01*
X137395000Y-88163061D01*
X137395000Y-88230001D01*
X130579803Y-88230001D01*
X130575000Y-88225198D01*
X130575000Y-88163061D01*
X130535226Y-87963102D01*
X130457205Y-87774744D01*
X130343937Y-87605226D01*
X130199774Y-87461063D01*
X130030256Y-87347795D01*
X129841898Y-87269774D01*
X129641939Y-87230000D01*
X129438061Y-87230000D01*
X129238102Y-87269774D01*
X129049744Y-87347795D01*
X128880226Y-87461063D01*
X128736063Y-87605226D01*
X128622795Y-87774744D01*
X128544774Y-87963102D01*
X128505000Y-88163061D01*
X128505000Y-88366939D01*
X128544774Y-88566898D01*
X128622795Y-88755256D01*
X128736063Y-88924774D01*
X128880226Y-89068937D01*
X129049744Y-89182205D01*
X129238102Y-89260226D01*
X129438061Y-89300000D01*
X129500198Y-89300000D01*
X129701202Y-89501003D01*
X129725000Y-89530002D01*
X129840725Y-89624975D01*
X129972754Y-89695547D01*
X130116015Y-89739004D01*
X130227668Y-89750001D01*
X130227677Y-89750001D01*
X130265000Y-89753677D01*
X130302323Y-89750001D01*
X142747677Y-89750001D01*
X142784999Y-89753677D01*
X142822321Y-89750001D01*
X142822332Y-89750001D01*
X142933985Y-89739004D01*
X143077246Y-89695547D01*
X143209275Y-89624975D01*
X143325000Y-89530002D01*
X143348803Y-89500998D01*
X146364802Y-86485000D01*
X146755198Y-86485000D01*
X143064379Y-90175820D01*
X143043937Y-90145226D01*
X142899774Y-90001063D01*
X142730256Y-89887795D01*
X142541898Y-89809774D01*
X142341939Y-89770000D01*
X142138061Y-89770000D01*
X141938102Y-89809774D01*
X141749744Y-89887795D01*
X141580226Y-90001063D01*
X141436063Y-90145226D01*
X141322795Y-90314744D01*
X141262569Y-90460142D01*
X141217711Y-90505000D01*
X138332305Y-90505000D01*
X138186908Y-90444774D01*
X137986949Y-90405000D01*
X137783071Y-90405000D01*
X137583112Y-90444774D01*
X137437715Y-90505000D01*
X129352295Y-90505000D01*
X129206898Y-90444774D01*
X129006939Y-90405000D01*
X128803061Y-90405000D01*
X128603102Y-90444774D01*
X128457705Y-90505000D01*
X121097295Y-90505000D01*
X120951898Y-90444774D01*
X120751939Y-90405000D01*
X120548061Y-90405000D01*
X120348102Y-90444774D01*
X120159744Y-90522795D01*
X119990226Y-90636063D01*
X119846063Y-90780226D01*
X119732795Y-90949744D01*
X119654774Y-91138102D01*
X119615000Y-91338061D01*
X119615000Y-91541939D01*
X119654774Y-91741898D01*
X119732795Y-91930256D01*
X119846063Y-92099774D01*
X119990226Y-92243937D01*
X120159744Y-92357205D01*
X120348102Y-92435226D01*
X120548061Y-92475000D01*
X120751939Y-92475000D01*
X120951898Y-92435226D01*
X121097295Y-92375000D01*
X128457705Y-92375000D01*
X128603102Y-92435226D01*
X128803061Y-92475000D01*
X129006939Y-92475000D01*
X129206898Y-92435226D01*
X129352295Y-92375000D01*
X137437715Y-92375000D01*
X137583112Y-92435226D01*
X137783071Y-92475000D01*
X137986949Y-92475000D01*
X138186908Y-92435226D01*
X138332305Y-92375000D01*
X140865199Y-92375000D01*
X140745200Y-92494999D01*
X132842323Y-92494999D01*
X132805000Y-92491323D01*
X132767677Y-92494999D01*
X132767668Y-92494999D01*
X132656015Y-92505996D01*
X132512754Y-92549453D01*
X132380725Y-92620025D01*
X132265000Y-92714998D01*
X132241202Y-92743997D01*
X132040198Y-92945000D01*
X131978061Y-92945000D01*
X131778102Y-92984774D01*
X131589744Y-93062795D01*
X131420226Y-93176063D01*
X131276063Y-93320226D01*
X131162795Y-93489744D01*
X131084774Y-93678102D01*
X131045000Y-93878061D01*
X131045000Y-94081939D01*
X131084774Y-94281898D01*
X131162795Y-94470256D01*
X131276063Y-94639774D01*
X131420226Y-94783937D01*
X131589744Y-94897205D01*
X131778102Y-94975226D01*
X131978061Y-95015000D01*
X132181939Y-95015000D01*
X132381898Y-94975226D01*
X132570256Y-94897205D01*
X132739774Y-94783937D01*
X132883937Y-94639774D01*
X132997205Y-94470256D01*
X133075226Y-94281898D01*
X133115000Y-94081939D01*
X133115000Y-94019802D01*
X133119803Y-94014999D01*
X141022679Y-94014999D01*
X141060001Y-94018675D01*
X141097323Y-94014999D01*
X141097334Y-94014999D01*
X141208987Y-94004002D01*
X141352248Y-93960545D01*
X141484277Y-93889973D01*
X141600002Y-93795000D01*
X141623805Y-93765996D01*
X147600951Y-87788851D01*
X147586188Y-87837518D01*
X147573928Y-87962000D01*
X147573928Y-88889938D01*
X147486708Y-88898529D01*
X147310460Y-88951993D01*
X147148028Y-89038814D01*
X147005656Y-89155656D01*
X146976374Y-89191336D01*
X144117642Y-92050069D01*
X143972244Y-92110295D01*
X143802726Y-92223563D01*
X143658563Y-92367726D01*
X143545295Y-92537244D01*
X143485069Y-92682641D01*
X142616340Y-93551371D01*
X142580655Y-93580657D01*
X142463813Y-93723030D01*
X142376992Y-93885462D01*
X142336445Y-94019128D01*
X142323528Y-94061710D01*
X142305475Y-94245001D01*
X142309999Y-94290933D01*
X142310000Y-96844057D01*
X142305475Y-96889999D01*
X142323528Y-97073290D01*
X142375609Y-97244975D01*
X142376993Y-97249539D01*
X142463814Y-97411971D01*
X142580656Y-97554343D01*
X142616335Y-97583624D01*
X143451370Y-98418659D01*
X143480656Y-98454344D01*
X143623028Y-98571186D01*
X143728880Y-98627765D01*
X143785459Y-98658007D01*
X143961708Y-98711472D01*
X144145000Y-98729524D01*
X144190935Y-98725000D01*
X151952705Y-98725000D01*
X152098102Y-98785226D01*
X152298061Y-98825000D01*
X152501939Y-98825000D01*
X152701898Y-98785226D01*
X152890256Y-98707205D01*
X153059774Y-98593937D01*
X153203937Y-98449774D01*
X153317205Y-98280256D01*
X153395226Y-98091898D01*
X153435000Y-97891939D01*
X153435000Y-97688061D01*
X153395226Y-97488102D01*
X153317205Y-97299744D01*
X153203937Y-97130226D01*
X153059774Y-96986063D01*
X152890256Y-96872795D01*
X152701898Y-96794774D01*
X152501939Y-96755000D01*
X152298061Y-96755000D01*
X152098102Y-96794774D01*
X151952705Y-96855000D01*
X144532289Y-96855000D01*
X144525116Y-96847827D01*
X144635256Y-96802205D01*
X144804774Y-96688937D01*
X144848711Y-96645000D01*
X179352678Y-96645000D01*
X179390000Y-96648676D01*
X179427322Y-96645000D01*
X179427333Y-96645000D01*
X179538986Y-96634003D01*
X179682247Y-96590546D01*
X179814276Y-96519974D01*
X179930001Y-96425001D01*
X179953804Y-96395997D01*
X181052818Y-95296984D01*
X181381699Y-95472774D01*
X181755873Y-95586278D01*
X182145000Y-95624604D01*
X182534128Y-95586278D01*
X182908302Y-95472774D01*
X183253143Y-95288453D01*
X183555398Y-95040398D01*
X183803453Y-94738143D01*
X183813190Y-94719927D01*
X183823988Y-94728789D01*
X186125198Y-97030000D01*
X177202322Y-97030000D01*
X177164999Y-97026324D01*
X177127676Y-97030000D01*
X177127667Y-97030000D01*
X177016014Y-97040997D01*
X176872753Y-97084454D01*
X176740724Y-97155026D01*
X176624999Y-97249999D01*
X176601202Y-97278996D01*
X173737934Y-100142264D01*
X173715226Y-100028102D01*
X173637205Y-99839744D01*
X173540490Y-99695000D01*
X173637205Y-99550256D01*
X173715226Y-99361898D01*
X173755000Y-99161939D01*
X173755000Y-98958061D01*
X173715226Y-98758102D01*
X173637205Y-98569744D01*
X173523937Y-98400226D01*
X173379774Y-98256063D01*
X173210256Y-98142795D01*
X173021898Y-98064774D01*
X172821939Y-98025000D01*
X172618061Y-98025000D01*
X172418102Y-98064774D01*
X172229744Y-98142795D01*
X172060226Y-98256063D01*
X171916063Y-98400226D01*
X171802795Y-98569744D01*
X171724774Y-98758102D01*
X171707489Y-98844999D01*
X126589802Y-98844999D01*
X123950000Y-96205199D01*
X123950000Y-94683711D01*
X123993937Y-94639774D01*
X124107205Y-94470256D01*
X124185226Y-94281898D01*
X124225000Y-94081939D01*
X124225000Y-93878061D01*
X124185226Y-93678102D01*
X124107205Y-93489744D01*
X123993937Y-93320226D01*
X123849774Y-93176063D01*
X123680256Y-93062795D01*
X123491898Y-92984774D01*
X123291939Y-92945000D01*
X123088061Y-92945000D01*
X122888102Y-92984774D01*
X122699744Y-93062795D01*
X122530226Y-93176063D01*
X122386063Y-93320226D01*
X122272795Y-93489744D01*
X122194774Y-93678102D01*
X122155000Y-93878061D01*
X122155000Y-94081939D01*
X122194774Y-94281898D01*
X122272795Y-94470256D01*
X122386063Y-94639774D01*
X122430000Y-94683711D01*
X122430001Y-96482668D01*
X122426324Y-96520000D01*
X122430001Y-96557332D01*
X122430001Y-96557333D01*
X122437553Y-96634003D01*
X122440998Y-96668985D01*
X122484454Y-96812246D01*
X122555026Y-96944276D01*
X122607992Y-97008814D01*
X122650000Y-97060001D01*
X122678998Y-97083799D01*
X125165197Y-99570000D01*
X122869802Y-99570000D01*
X119780000Y-96480199D01*
X119780000Y-96418061D01*
X119740226Y-96218102D01*
X119662205Y-96029744D01*
X119548937Y-95860226D01*
X119404774Y-95716063D01*
X119235256Y-95602795D01*
X119046898Y-95524774D01*
X118846939Y-95485000D01*
X118643061Y-95485000D01*
X118443102Y-95524774D01*
X118254744Y-95602795D01*
X118085226Y-95716063D01*
X117941063Y-95860226D01*
X117827795Y-96029744D01*
X117749774Y-96218102D01*
X117710000Y-96418061D01*
X108000000Y-96418061D01*
X108000000Y-76614872D01*
X109525000Y-76614872D01*
X109525000Y-77055128D01*
X109610890Y-77486925D01*
X109779369Y-77893669D01*
X110023962Y-78259729D01*
X110335271Y-78571038D01*
X110701331Y-78815631D01*
X111108075Y-78984110D01*
X111539872Y-79070000D01*
X111980128Y-79070000D01*
X112411925Y-78984110D01*
X112818669Y-78815631D01*
X113184729Y-78571038D01*
X113496038Y-78259729D01*
X113740631Y-77893669D01*
X113909110Y-77486925D01*
X113995000Y-77055128D01*
X113995000Y-76614872D01*
X113909110Y-76183075D01*
X113740631Y-75776331D01*
X113496038Y-75410271D01*
X113184729Y-75098962D01*
X112818669Y-74854369D01*
X112411925Y-74685890D01*
X111980128Y-74600000D01*
X111539872Y-74600000D01*
X111108075Y-74685890D01*
X110701331Y-74854369D01*
X110335271Y-75098962D01*
X110023962Y-75410271D01*
X109779369Y-75776331D01*
X109610890Y-76183075D01*
X109525000Y-76614872D01*
X108000000Y-76614872D01*
X108000000Y-75598504D01*
X108050644Y-75081994D01*
X108190918Y-74617386D01*
X108418762Y-74188873D01*
X108725499Y-73812776D01*
X109099447Y-73503420D01*
X109526359Y-73272589D01*
X109989979Y-73129075D01*
X110504463Y-73075000D01*
X236186496Y-73075000D01*
X236703006Y-73125644D01*
G04 #@! TA.AperFunction,Conductor*
D25*
G36*
X236703006Y-73125644D02*
G01*
X237167614Y-73265918D01*
X237596127Y-73493762D01*
X237972224Y-73800499D01*
X238281580Y-74174447D01*
X238512411Y-74601359D01*
X238655925Y-75064979D01*
X238710000Y-75579463D01*
X238710001Y-122521486D01*
X238659356Y-123038006D01*
X238519082Y-123502614D01*
X238291238Y-123931127D01*
X237984501Y-124307224D01*
X237610554Y-124616579D01*
X237183641Y-124847411D01*
X236720021Y-124990925D01*
X236205537Y-125045000D01*
X110523504Y-125045000D01*
X110006994Y-124994356D01*
X109542386Y-124854082D01*
X109113873Y-124626238D01*
X108737776Y-124319501D01*
X108428421Y-123945554D01*
X108197589Y-123518641D01*
X108054075Y-123055021D01*
X108000000Y-122540537D01*
X108000000Y-121064872D01*
X109525000Y-121064872D01*
X109525000Y-121505128D01*
X109610890Y-121936925D01*
X109779369Y-122343669D01*
X110023962Y-122709729D01*
X110335271Y-123021038D01*
X110701331Y-123265631D01*
X111108075Y-123434110D01*
X111539872Y-123520000D01*
X111980128Y-123520000D01*
X112411925Y-123434110D01*
X112818669Y-123265631D01*
X113184729Y-123021038D01*
X113496038Y-122709729D01*
X113740631Y-122343669D01*
X113909110Y-121936925D01*
X113995000Y-121505128D01*
X113995000Y-121064872D01*
X113909110Y-120633075D01*
X113740631Y-120226331D01*
X113507489Y-119877408D01*
X175133000Y-119877408D01*
X175133000Y-120152592D01*
X175186686Y-120422490D01*
X175291995Y-120676727D01*
X175444880Y-120905535D01*
X175639465Y-121100120D01*
X175868273Y-121253005D01*
X176122510Y-121358314D01*
X176392408Y-121412000D01*
X176667592Y-121412000D01*
X176937490Y-121358314D01*
X177191727Y-121253005D01*
X177420535Y-121100120D01*
X177615120Y-120905535D01*
X177768005Y-120676727D01*
X177873314Y-120422490D01*
X177927000Y-120152592D01*
X177927000Y-119877408D01*
X177925276Y-119868740D01*
X180125000Y-119868740D01*
X180125000Y-120161260D01*
X180182068Y-120448158D01*
X180294010Y-120718411D01*
X180456525Y-120961632D01*
X180663368Y-121168475D01*
X180906589Y-121330990D01*
X181176842Y-121442932D01*
X181463740Y-121500000D01*
X181756260Y-121500000D01*
X182043158Y-121442932D01*
X182313411Y-121330990D01*
X182556632Y-121168475D01*
X182763475Y-120961632D01*
X182880000Y-120787240D01*
X182996525Y-120961632D01*
X183203368Y-121168475D01*
X183446589Y-121330990D01*
X183716842Y-121442932D01*
X184003740Y-121500000D01*
X184296260Y-121500000D01*
X184583158Y-121442932D01*
X184853411Y-121330990D01*
X185096632Y-121168475D01*
X185228487Y-121036620D01*
X185250498Y-121109180D01*
X185309463Y-121219494D01*
X185388815Y-121316185D01*
X185485506Y-121395537D01*
X185595820Y-121454502D01*
X185715518Y-121490812D01*
X185840000Y-121503072D01*
X187540000Y-121503072D01*
X187664482Y-121490812D01*
X187784180Y-121454502D01*
X187894494Y-121395537D01*
X187991185Y-121316185D01*
X188070537Y-121219494D01*
X188129502Y-121109180D01*
X188151513Y-121036620D01*
X188283368Y-121168475D01*
X188526589Y-121330990D01*
X188796842Y-121442932D01*
X189083740Y-121500000D01*
X189376260Y-121500000D01*
X189663158Y-121442932D01*
X189933411Y-121330990D01*
X190176632Y-121168475D01*
X190383475Y-120961632D01*
X190500000Y-120787240D01*
X190616525Y-120961632D01*
X190823368Y-121168475D01*
X191066589Y-121330990D01*
X191336842Y-121442932D01*
X191623740Y-121500000D01*
X191916260Y-121500000D01*
X192203158Y-121442932D01*
X192473411Y-121330990D01*
X192716632Y-121168475D01*
X192923475Y-120961632D01*
X193040000Y-120787240D01*
X193156525Y-120961632D01*
X193363368Y-121168475D01*
X193606589Y-121330990D01*
X193876842Y-121442932D01*
X194163740Y-121500000D01*
X194456260Y-121500000D01*
X194743158Y-121442932D01*
X195013411Y-121330990D01*
X195256632Y-121168475D01*
X195463475Y-120961632D01*
X195580000Y-120787240D01*
X195696525Y-120961632D01*
X195903368Y-121168475D01*
X196146589Y-121330990D01*
X196416842Y-121442932D01*
X196703740Y-121500000D01*
X196996260Y-121500000D01*
X197283158Y-121442932D01*
X197553411Y-121330990D01*
X197796632Y-121168475D01*
X197928487Y-121036620D01*
X197950498Y-121109180D01*
X198009463Y-121219494D01*
X198088815Y-121316185D01*
X198185506Y-121395537D01*
X198295820Y-121454502D01*
X198415518Y-121490812D01*
X198540000Y-121503072D01*
X200240000Y-121503072D01*
X200364482Y-121490812D01*
X200484180Y-121454502D01*
X200594494Y-121395537D01*
X200691185Y-121316185D01*
X200770537Y-121219494D01*
X200829502Y-121109180D01*
X200851513Y-121036620D01*
X200983368Y-121168475D01*
X201226589Y-121330990D01*
X201496842Y-121442932D01*
X201783740Y-121500000D01*
X202076260Y-121500000D01*
X202363158Y-121442932D01*
X202633411Y-121330990D01*
X202876632Y-121168475D01*
X203083475Y-120961632D01*
X203200000Y-120787240D01*
X203316525Y-120961632D01*
X203523368Y-121168475D01*
X203766589Y-121330990D01*
X204036842Y-121442932D01*
X204323740Y-121500000D01*
X204616260Y-121500000D01*
X204903158Y-121442932D01*
X205173411Y-121330990D01*
X205416632Y-121168475D01*
X205623475Y-120961632D01*
X205740000Y-120787240D01*
X205856525Y-120961632D01*
X206063368Y-121168475D01*
X206306589Y-121330990D01*
X206576842Y-121442932D01*
X206863740Y-121500000D01*
X207156260Y-121500000D01*
X207443158Y-121442932D01*
X207713411Y-121330990D01*
X207956632Y-121168475D01*
X208163475Y-120961632D01*
X208280000Y-120787240D01*
X208396525Y-120961632D01*
X208603368Y-121168475D01*
X208846589Y-121330990D01*
X209116842Y-121442932D01*
X209403740Y-121500000D01*
X209696260Y-121500000D01*
X209983158Y-121442932D01*
X210253411Y-121330990D01*
X210496632Y-121168475D01*
X210628487Y-121036620D01*
X210650498Y-121109180D01*
X210709463Y-121219494D01*
X210788815Y-121316185D01*
X210885506Y-121395537D01*
X210995820Y-121454502D01*
X211115518Y-121490812D01*
X211240000Y-121503072D01*
X212940000Y-121503072D01*
X213064482Y-121490812D01*
X213184180Y-121454502D01*
X213294494Y-121395537D01*
X213391185Y-121316185D01*
X213470537Y-121219494D01*
X213529502Y-121109180D01*
X213551513Y-121036620D01*
X213683368Y-121168475D01*
X213926589Y-121330990D01*
X214196842Y-121442932D01*
X214483740Y-121500000D01*
X214776260Y-121500000D01*
X215063158Y-121442932D01*
X215333411Y-121330990D01*
X215576632Y-121168475D01*
X215783475Y-120961632D01*
X215900000Y-120787240D01*
X216016525Y-120961632D01*
X216223368Y-121168475D01*
X216466589Y-121330990D01*
X216736842Y-121442932D01*
X217023740Y-121500000D01*
X217316260Y-121500000D01*
X217603158Y-121442932D01*
X217873411Y-121330990D01*
X218116632Y-121168475D01*
X218323475Y-120961632D01*
X218440000Y-120787240D01*
X218556525Y-120961632D01*
X218763368Y-121168475D01*
X219006589Y-121330990D01*
X219276842Y-121442932D01*
X219563740Y-121500000D01*
X219856260Y-121500000D01*
X220143158Y-121442932D01*
X220413411Y-121330990D01*
X220656632Y-121168475D01*
X220863475Y-120961632D01*
X220980000Y-120787240D01*
X221096525Y-120961632D01*
X221303368Y-121168475D01*
X221546589Y-121330990D01*
X221816842Y-121442932D01*
X222103740Y-121500000D01*
X222396260Y-121500000D01*
X222683158Y-121442932D01*
X222953411Y-121330990D01*
X223196632Y-121168475D01*
X223328487Y-121036620D01*
X223350498Y-121109180D01*
X223409463Y-121219494D01*
X223488815Y-121316185D01*
X223585506Y-121395537D01*
X223695820Y-121454502D01*
X223815518Y-121490812D01*
X223940000Y-121503072D01*
X224504250Y-121500000D01*
X224663000Y-121341250D01*
X224663000Y-120142000D01*
X224643000Y-120142000D01*
X224643000Y-119888000D01*
X224663000Y-119888000D01*
X224663000Y-118688750D01*
X224504250Y-118530000D01*
X223940000Y-118526928D01*
X223815518Y-118539188D01*
X223695820Y-118575498D01*
X223585506Y-118634463D01*
X223488815Y-118713815D01*
X223409463Y-118810506D01*
X223350498Y-118920820D01*
X223328487Y-118993380D01*
X223196632Y-118861525D01*
X222953411Y-118699010D01*
X222683158Y-118587068D01*
X222396260Y-118530000D01*
X222103740Y-118530000D01*
X221816842Y-118587068D01*
X221546589Y-118699010D01*
X221303368Y-118861525D01*
X221096525Y-119068368D01*
X220980000Y-119242760D01*
X220863475Y-119068368D01*
X220656632Y-118861525D01*
X220413411Y-118699010D01*
X220143158Y-118587068D01*
X219856260Y-118530000D01*
X219563740Y-118530000D01*
X219276842Y-118587068D01*
X219006589Y-118699010D01*
X218763368Y-118861525D01*
X218556525Y-119068368D01*
X218440000Y-119242760D01*
X218323475Y-119068368D01*
X218116632Y-118861525D01*
X217873411Y-118699010D01*
X217603158Y-118587068D01*
X217316260Y-118530000D01*
X217023740Y-118530000D01*
X216736842Y-118587068D01*
X216466589Y-118699010D01*
X216223368Y-118861525D01*
X216016525Y-119068368D01*
X215900000Y-119242760D01*
X215783475Y-119068368D01*
X215576632Y-118861525D01*
X215333411Y-118699010D01*
X215063158Y-118587068D01*
X214776260Y-118530000D01*
X214483740Y-118530000D01*
X214196842Y-118587068D01*
X213926589Y-118699010D01*
X213683368Y-118861525D01*
X213551513Y-118993380D01*
X213529502Y-118920820D01*
X213470537Y-118810506D01*
X213391185Y-118713815D01*
X213294494Y-118634463D01*
X213184180Y-118575498D01*
X213064482Y-118539188D01*
X212940000Y-118526928D01*
X211240000Y-118526928D01*
X211115518Y-118539188D01*
X210995820Y-118575498D01*
X210885506Y-118634463D01*
X210788815Y-118713815D01*
X210709463Y-118810506D01*
X210650498Y-118920820D01*
X210628487Y-118993380D01*
X210496632Y-118861525D01*
X210253411Y-118699010D01*
X209983158Y-118587068D01*
X209696260Y-118530000D01*
X209403740Y-118530000D01*
X209116842Y-118587068D01*
X208846589Y-118699010D01*
X208603368Y-118861525D01*
X208396525Y-119068368D01*
X208280000Y-119242760D01*
X208163475Y-119068368D01*
X207956632Y-118861525D01*
X207713411Y-118699010D01*
X207443158Y-118587068D01*
X207156260Y-118530000D01*
X206863740Y-118530000D01*
X206576842Y-118587068D01*
X206306589Y-118699010D01*
X206063368Y-118861525D01*
X205856525Y-119068368D01*
X205740000Y-119242760D01*
X205623475Y-119068368D01*
X205416632Y-118861525D01*
X205173411Y-118699010D01*
X204903158Y-118587068D01*
X204616260Y-118530000D01*
X204323740Y-118530000D01*
X204036842Y-118587068D01*
X203766589Y-118699010D01*
X203523368Y-118861525D01*
X203316525Y-119068368D01*
X203200000Y-119242760D01*
X203083475Y-119068368D01*
X202876632Y-118861525D01*
X202633411Y-118699010D01*
X202363158Y-118587068D01*
X202076260Y-118530000D01*
X201783740Y-118530000D01*
X201496842Y-118587068D01*
X201226589Y-118699010D01*
X200983368Y-118861525D01*
X200851513Y-118993380D01*
X200829502Y-118920820D01*
X200770537Y-118810506D01*
X200691185Y-118713815D01*
X200594494Y-118634463D01*
X200484180Y-118575498D01*
X200364482Y-118539188D01*
X200240000Y-118526928D01*
X198540000Y-118526928D01*
X198415518Y-118539188D01*
X198295820Y-118575498D01*
X198185506Y-118634463D01*
X198088815Y-118713815D01*
X198009463Y-118810506D01*
X197950498Y-118920820D01*
X197928487Y-118993380D01*
X197796632Y-118861525D01*
X197553411Y-118699010D01*
X197283158Y-118587068D01*
X196996260Y-118530000D01*
X196703740Y-118530000D01*
X196416842Y-118587068D01*
X196146589Y-118699010D01*
X195903368Y-118861525D01*
X195696525Y-119068368D01*
X195580000Y-119242760D01*
X195463475Y-119068368D01*
X195256632Y-118861525D01*
X195013411Y-118699010D01*
X194743158Y-118587068D01*
X194456260Y-118530000D01*
X194163740Y-118530000D01*
X193876842Y-118587068D01*
X193606589Y-118699010D01*
X193363368Y-118861525D01*
X193156525Y-119068368D01*
X193040000Y-119242760D01*
X192923475Y-119068368D01*
X192716632Y-118861525D01*
X192473411Y-118699010D01*
X192203158Y-118587068D01*
X191916260Y-118530000D01*
X191623740Y-118530000D01*
X191336842Y-118587068D01*
X191066589Y-118699010D01*
X190823368Y-118861525D01*
X190616525Y-119068368D01*
X190500000Y-119242760D01*
X190383475Y-119068368D01*
X190176632Y-118861525D01*
X189933411Y-118699010D01*
X189663158Y-118587068D01*
X189376260Y-118530000D01*
X189083740Y-118530000D01*
X188796842Y-118587068D01*
X188526589Y-118699010D01*
X188283368Y-118861525D01*
X188151513Y-118993380D01*
X188129502Y-118920820D01*
X188070537Y-118810506D01*
X187991185Y-118713815D01*
X187894494Y-118634463D01*
X187784180Y-118575498D01*
X187664482Y-118539188D01*
X187540000Y-118526928D01*
X185840000Y-118526928D01*
X185715518Y-118539188D01*
X185595820Y-118575498D01*
X185485506Y-118634463D01*
X185388815Y-118713815D01*
X185309463Y-118810506D01*
X185250498Y-118920820D01*
X185228487Y-118993380D01*
X185096632Y-118861525D01*
X184853411Y-118699010D01*
X184583158Y-118587068D01*
X184296260Y-118530000D01*
X184003740Y-118530000D01*
X183716842Y-118587068D01*
X183446589Y-118699010D01*
X183203368Y-118861525D01*
X182996525Y-119068368D01*
X182880000Y-119242760D01*
X182763475Y-119068368D01*
X182556632Y-118861525D01*
X182313411Y-118699010D01*
X182043158Y-118587068D01*
X181756260Y-118530000D01*
X181463740Y-118530000D01*
X181176842Y-118587068D01*
X180906589Y-118699010D01*
X180663368Y-118861525D01*
X180456525Y-119068368D01*
X180294010Y-119311589D01*
X180182068Y-119581842D01*
X180125000Y-119868740D01*
X177925276Y-119868740D01*
X177873314Y-119607510D01*
X177768005Y-119353273D01*
X177615120Y-119124465D01*
X177420535Y-118929880D01*
X177191727Y-118776995D01*
X177120057Y-118747308D01*
X177133023Y-118742636D01*
X177248980Y-118680656D01*
X177315960Y-118440565D01*
X176530000Y-117654605D01*
X175744040Y-118440565D01*
X175811020Y-118680656D01*
X175946760Y-118744485D01*
X175868273Y-118776995D01*
X175639465Y-118929880D01*
X175444880Y-119124465D01*
X175291995Y-119353273D01*
X175186686Y-119607510D01*
X175133000Y-119877408D01*
X113507489Y-119877408D01*
X113496038Y-119860271D01*
X113184729Y-119548962D01*
X112818669Y-119304369D01*
X112411925Y-119135890D01*
X111980128Y-119050000D01*
X111539872Y-119050000D01*
X111108075Y-119135890D01*
X110701331Y-119304369D01*
X110335271Y-119548962D01*
X110023962Y-119860271D01*
X109779369Y-120226331D01*
X109610890Y-120633075D01*
X109525000Y-121064872D01*
X108000000Y-121064872D01*
X108000000Y-96418061D01*
X117710000Y-96418061D01*
X117710000Y-96621939D01*
X117749774Y-96821898D01*
X117827795Y-97010256D01*
X117941063Y-97179774D01*
X118085226Y-97323937D01*
X118254744Y-97437205D01*
X118443102Y-97515226D01*
X118643061Y-97555000D01*
X118705199Y-97555000D01*
X121815198Y-100665000D01*
X120462295Y-100665000D01*
X120316898Y-100604774D01*
X120116939Y-100565000D01*
X119913061Y-100565000D01*
X119713102Y-100604774D01*
X119524744Y-100682795D01*
X119355226Y-100796063D01*
X119211063Y-100940226D01*
X119097795Y-101109744D01*
X119019774Y-101298102D01*
X118980000Y-101498061D01*
X118980000Y-101701939D01*
X119019774Y-101901898D01*
X119097795Y-102090256D01*
X119211063Y-102259774D01*
X119355226Y-102403937D01*
X119524744Y-102517205D01*
X119713102Y-102595226D01*
X119913061Y-102635000D01*
X120116939Y-102635000D01*
X120316898Y-102595226D01*
X120462295Y-102535000D01*
X122255000Y-102535000D01*
X122255001Y-112007709D01*
X121575142Y-112687569D01*
X121429744Y-112747795D01*
X121285000Y-112844510D01*
X121140256Y-112747795D01*
X120951898Y-112669774D01*
X120751939Y-112630000D01*
X120548061Y-112630000D01*
X120348102Y-112669774D01*
X120159744Y-112747795D01*
X119990226Y-112861063D01*
X119846063Y-113005226D01*
X119732795Y-113174744D01*
X119654774Y-113363102D01*
X119615000Y-113563061D01*
X119615000Y-113766939D01*
X119654774Y-113966898D01*
X119732795Y-114155256D01*
X119846063Y-114324774D01*
X119990226Y-114468937D01*
X120159744Y-114582205D01*
X120348102Y-114660226D01*
X120548061Y-114700000D01*
X120610199Y-114700000D01*
X121128702Y-115218504D01*
X121152500Y-115247502D01*
X121181498Y-115271300D01*
X121268224Y-115342475D01*
X121377834Y-115401063D01*
X121400254Y-115413047D01*
X121543515Y-115456504D01*
X121655168Y-115467501D01*
X121655177Y-115467501D01*
X121692500Y-115471177D01*
X121729823Y-115467501D01*
X122463788Y-115467501D01*
X122386063Y-115545226D01*
X122272795Y-115714744D01*
X122194774Y-115903102D01*
X122155000Y-116103061D01*
X122155000Y-116306939D01*
X122194774Y-116506898D01*
X122272795Y-116695256D01*
X122386063Y-116864774D01*
X122530226Y-117008937D01*
X122699744Y-117122205D01*
X122888102Y-117200226D01*
X123088061Y-117240000D01*
X123291939Y-117240000D01*
X123491898Y-117200226D01*
X123680256Y-117122205D01*
X123849774Y-117008937D01*
X123993937Y-116864774D01*
X124107205Y-116695256D01*
X124185226Y-116506898D01*
X124220413Y-116330000D01*
X132445987Y-116330000D01*
X132432795Y-116349744D01*
X132354774Y-116538102D01*
X132315000Y-116738061D01*
X132315000Y-116941939D01*
X132354774Y-117141898D01*
X132432795Y-117330256D01*
X132546063Y-117499774D01*
X132690226Y-117643937D01*
X132859744Y-117757205D01*
X133048102Y-117835226D01*
X133248061Y-117875000D01*
X133451939Y-117875000D01*
X133651898Y-117835226D01*
X133797295Y-117775000D01*
X141792705Y-117775000D01*
X141895142Y-117817431D01*
X142181370Y-118103659D01*
X142210656Y-118139344D01*
X142353028Y-118256186D01*
X142458880Y-118312765D01*
X142515459Y-118343007D01*
X142691708Y-118396472D01*
X142875000Y-118414524D01*
X142920935Y-118410000D01*
X150682705Y-118410000D01*
X150828102Y-118470226D01*
X151028061Y-118510000D01*
X151231939Y-118510000D01*
X151431898Y-118470226D01*
X151620256Y-118392205D01*
X151789774Y-118278937D01*
X151933937Y-118134774D01*
X152047205Y-117965256D01*
X152107431Y-117819858D01*
X152152289Y-117775000D01*
X156397705Y-117775000D01*
X156543102Y-117835226D01*
X156743061Y-117875000D01*
X156946939Y-117875000D01*
X157146898Y-117835226D01*
X157335256Y-117757205D01*
X157504774Y-117643937D01*
X157648937Y-117499774D01*
X157762205Y-117330256D01*
X157840226Y-117141898D01*
X157880000Y-116941939D01*
X157880000Y-116738061D01*
X157840226Y-116538102D01*
X157762205Y-116349744D01*
X157749013Y-116330000D01*
X175241437Y-116330000D01*
X175444435Y-116532998D01*
X175463917Y-116556737D01*
X175448023Y-116572631D01*
X175564433Y-116689041D01*
X175324344Y-116756020D01*
X175207244Y-117005048D01*
X175140977Y-117272135D01*
X175128090Y-117547017D01*
X175169078Y-117819133D01*
X175262364Y-118078023D01*
X175324344Y-118193980D01*
X175564435Y-118260960D01*
X176350395Y-117475000D01*
X176336253Y-117460858D01*
X176515858Y-117281253D01*
X176530000Y-117295395D01*
X176544143Y-117281253D01*
X176723748Y-117460858D01*
X176709605Y-117475000D01*
X177495565Y-118260960D01*
X177735656Y-118193980D01*
X177852756Y-117944952D01*
X177919023Y-117677865D01*
X177931910Y-117402983D01*
X177890922Y-117130867D01*
X177797636Y-116871977D01*
X177735656Y-116756020D01*
X177495567Y-116689041D01*
X177611977Y-116572631D01*
X177596083Y-116556737D01*
X177615565Y-116532998D01*
X177818563Y-116330000D01*
X191097678Y-116330000D01*
X191135000Y-116333676D01*
X191172322Y-116330000D01*
X191172333Y-116330000D01*
X191283986Y-116319003D01*
X191427247Y-116275546D01*
X191559276Y-116204974D01*
X191675001Y-116110001D01*
X191698804Y-116080997D01*
X194366212Y-113413589D01*
X225325000Y-113413589D01*
X225325000Y-113686411D01*
X225378225Y-113953989D01*
X225482629Y-114206043D01*
X225634201Y-114432886D01*
X225827114Y-114625799D01*
X226053957Y-114777371D01*
X226306011Y-114881775D01*
X226573589Y-114935000D01*
X226846411Y-114935000D01*
X227113989Y-114881775D01*
X227366043Y-114777371D01*
X227592886Y-114625799D01*
X227785799Y-114432886D01*
X227937371Y-114206043D01*
X228041775Y-113953989D01*
X228092532Y-113698816D01*
X228205000Y-113698816D01*
X228205000Y-114001184D01*
X228263989Y-114297743D01*
X228379701Y-114577095D01*
X228547688Y-114828505D01*
X228761495Y-115042312D01*
X229012905Y-115210299D01*
X229292257Y-115326011D01*
X229588816Y-115385000D01*
X229891184Y-115385000D01*
X230187743Y-115326011D01*
X230467095Y-115210299D01*
X230718505Y-115042312D01*
X230932312Y-114828505D01*
X231100299Y-114577095D01*
X231216011Y-114297743D01*
X231275000Y-114001184D01*
X231275000Y-113698816D01*
X231216011Y-113402257D01*
X231100299Y-113122905D01*
X230932312Y-112871495D01*
X230718505Y-112657688D01*
X230467095Y-112489701D01*
X230187743Y-112373989D01*
X229891184Y-112315000D01*
X229588816Y-112315000D01*
X229292257Y-112373989D01*
X229012905Y-112489701D01*
X228761495Y-112657688D01*
X228547688Y-112871495D01*
X228379701Y-113122905D01*
X228263989Y-113402257D01*
X228205000Y-113698816D01*
X228092532Y-113698816D01*
X228095000Y-113686411D01*
X228095000Y-113413589D01*
X228041775Y-113146011D01*
X227937371Y-112893957D01*
X227785799Y-112667114D01*
X227592886Y-112474201D01*
X227366043Y-112322629D01*
X227113989Y-112218225D01*
X226846411Y-112165000D01*
X226573589Y-112165000D01*
X226306011Y-112218225D01*
X226053957Y-112322629D01*
X225827114Y-112474201D01*
X225634201Y-112667114D01*
X225482629Y-112893957D01*
X225378225Y-113146011D01*
X225325000Y-113413589D01*
X194366212Y-113413589D01*
X199216212Y-108563589D01*
X225325000Y-108563589D01*
X225325000Y-108836411D01*
X225378225Y-109103989D01*
X225482629Y-109356043D01*
X225634201Y-109582886D01*
X225827114Y-109775799D01*
X226053957Y-109927371D01*
X226306011Y-110031775D01*
X226573589Y-110085000D01*
X226846411Y-110085000D01*
X227113989Y-110031775D01*
X227366043Y-109927371D01*
X227592886Y-109775799D01*
X227785799Y-109582886D01*
X227937371Y-109356043D01*
X228041775Y-109103989D01*
X228095000Y-108836411D01*
X228095000Y-108563589D01*
X228041775Y-108296011D01*
X228022227Y-108248816D01*
X228205000Y-108248816D01*
X228205000Y-108551184D01*
X228263989Y-108847743D01*
X228379701Y-109127095D01*
X228547688Y-109378505D01*
X228761495Y-109592312D01*
X229012905Y-109760299D01*
X229292257Y-109876011D01*
X229588816Y-109935000D01*
X229891184Y-109935000D01*
X230187743Y-109876011D01*
X230467095Y-109760299D01*
X230718505Y-109592312D01*
X230932312Y-109378505D01*
X231100299Y-109127095D01*
X231216011Y-108847743D01*
X231275000Y-108551184D01*
X231275000Y-108248816D01*
X231216011Y-107952257D01*
X231100299Y-107672905D01*
X230932312Y-107421495D01*
X230718505Y-107207688D01*
X230467095Y-107039701D01*
X230187743Y-106923989D01*
X229891184Y-106865000D01*
X229588816Y-106865000D01*
X229292257Y-106923989D01*
X229012905Y-107039701D01*
X228761495Y-107207688D01*
X228547688Y-107421495D01*
X228379701Y-107672905D01*
X228263989Y-107952257D01*
X228205000Y-108248816D01*
X228022227Y-108248816D01*
X227937371Y-108043957D01*
X227785799Y-107817114D01*
X227592886Y-107624201D01*
X227366043Y-107472629D01*
X227113989Y-107368225D01*
X226846411Y-107315000D01*
X226573589Y-107315000D01*
X226306011Y-107368225D01*
X226053957Y-107472629D01*
X225827114Y-107624201D01*
X225634201Y-107817114D01*
X225482629Y-108043957D01*
X225378225Y-108296011D01*
X225325000Y-108563589D01*
X199216212Y-108563589D01*
X204103592Y-103676210D01*
X204323740Y-103720000D01*
X204616260Y-103720000D01*
X204903158Y-103662932D01*
X205173411Y-103550990D01*
X205416632Y-103388475D01*
X205623475Y-103181632D01*
X205740000Y-103007240D01*
X205856525Y-103181632D01*
X206063368Y-103388475D01*
X206306589Y-103550990D01*
X206576842Y-103662932D01*
X206863740Y-103720000D01*
X207156260Y-103720000D01*
X207443158Y-103662932D01*
X207713411Y-103550990D01*
X207956632Y-103388475D01*
X208163475Y-103181632D01*
X208280000Y-103007240D01*
X208396525Y-103181632D01*
X208603368Y-103388475D01*
X208846589Y-103550990D01*
X209116842Y-103662932D01*
X209403740Y-103720000D01*
X209696260Y-103720000D01*
X209983158Y-103662932D01*
X210253411Y-103550990D01*
X210496632Y-103388475D01*
X210628487Y-103256620D01*
X210650498Y-103329180D01*
X210709463Y-103439494D01*
X210788815Y-103536185D01*
X210885506Y-103615537D01*
X210995820Y-103674502D01*
X211115518Y-103710812D01*
X211240000Y-103723072D01*
X212940000Y-103723072D01*
X213064482Y-103710812D01*
X213184180Y-103674502D01*
X213294494Y-103615537D01*
X213391185Y-103536185D01*
X213470537Y-103439494D01*
X213529502Y-103329180D01*
X213551513Y-103256620D01*
X213683368Y-103388475D01*
X213926589Y-103550990D01*
X214196842Y-103662932D01*
X214483740Y-103720000D01*
X214776260Y-103720000D01*
X215063158Y-103662932D01*
X215333411Y-103550990D01*
X215576632Y-103388475D01*
X215783475Y-103181632D01*
X215900000Y-103007240D01*
X216016525Y-103181632D01*
X216223368Y-103388475D01*
X216466589Y-103550990D01*
X216736842Y-103662932D01*
X217023740Y-103720000D01*
X217316260Y-103720000D01*
X217603158Y-103662932D01*
X217873411Y-103550990D01*
X218116632Y-103388475D01*
X218323475Y-103181632D01*
X218440000Y-103007240D01*
X218556525Y-103181632D01*
X218763368Y-103388475D01*
X219006589Y-103550990D01*
X219276842Y-103662932D01*
X219563740Y-103720000D01*
X219856260Y-103720000D01*
X220143158Y-103662932D01*
X220413411Y-103550990D01*
X220656632Y-103388475D01*
X220863475Y-103181632D01*
X220980000Y-103007240D01*
X221096525Y-103181632D01*
X221303368Y-103388475D01*
X221546589Y-103550990D01*
X221816842Y-103662932D01*
X222103740Y-103720000D01*
X222396260Y-103720000D01*
X222683158Y-103662932D01*
X222953411Y-103550990D01*
X223196632Y-103388475D01*
X223328487Y-103256620D01*
X223350498Y-103329180D01*
X223409463Y-103439494D01*
X223488815Y-103536185D01*
X223585506Y-103615537D01*
X223695820Y-103674502D01*
X223815518Y-103710812D01*
X223940000Y-103723072D01*
X225640000Y-103723072D01*
X225764482Y-103710812D01*
X225884180Y-103674502D01*
X225994494Y-103615537D01*
X226091185Y-103536185D01*
X226170537Y-103439494D01*
X226229502Y-103329180D01*
X226251513Y-103256620D01*
X226383368Y-103388475D01*
X226626589Y-103550990D01*
X226896842Y-103662932D01*
X227183740Y-103720000D01*
X227476260Y-103720000D01*
X227763158Y-103662932D01*
X228033411Y-103550990D01*
X228276632Y-103388475D01*
X228483475Y-103181632D01*
X228600000Y-103007240D01*
X228716525Y-103181632D01*
X228923368Y-103388475D01*
X229166589Y-103550990D01*
X229436842Y-103662932D01*
X229723740Y-103720000D01*
X230016260Y-103720000D01*
X230303158Y-103662932D01*
X230573411Y-103550990D01*
X230816632Y-103388475D01*
X231023475Y-103181632D01*
X231185990Y-102938411D01*
X231297932Y-102668158D01*
X231355000Y-102381260D01*
X231355000Y-102088740D01*
X231297932Y-101801842D01*
X231185990Y-101531589D01*
X231023475Y-101288368D01*
X230816632Y-101081525D01*
X230573411Y-100919010D01*
X230303158Y-100807068D01*
X230016260Y-100750000D01*
X229723740Y-100750000D01*
X229436842Y-100807068D01*
X229166589Y-100919010D01*
X228923368Y-101081525D01*
X228716525Y-101288368D01*
X228600000Y-101462760D01*
X228483475Y-101288368D01*
X228276632Y-101081525D01*
X228033411Y-100919010D01*
X227763158Y-100807068D01*
X227476260Y-100750000D01*
X227183740Y-100750000D01*
X226896842Y-100807068D01*
X226626589Y-100919010D01*
X226383368Y-101081525D01*
X226251513Y-101213380D01*
X226229502Y-101140820D01*
X226170537Y-101030506D01*
X226091185Y-100933815D01*
X225994494Y-100854463D01*
X225884180Y-100795498D01*
X225764482Y-100759188D01*
X225640000Y-100746928D01*
X223940000Y-100746928D01*
X223815518Y-100759188D01*
X223695820Y-100795498D01*
X223585506Y-100854463D01*
X223488815Y-100933815D01*
X223409463Y-101030506D01*
X223350498Y-101140820D01*
X223328487Y-101213380D01*
X223196632Y-101081525D01*
X222953411Y-100919010D01*
X222683158Y-100807068D01*
X222396260Y-100750000D01*
X222103740Y-100750000D01*
X221816842Y-100807068D01*
X221546589Y-100919010D01*
X221303368Y-101081525D01*
X221096525Y-101288368D01*
X220980000Y-101462760D01*
X220863475Y-101288368D01*
X220656632Y-101081525D01*
X220413411Y-100919010D01*
X220143158Y-100807068D01*
X219856260Y-100750000D01*
X219563740Y-100750000D01*
X219276842Y-100807068D01*
X219006589Y-100919010D01*
X218763368Y-101081525D01*
X218556525Y-101288368D01*
X218440000Y-101462760D01*
X218323475Y-101288368D01*
X218116632Y-101081525D01*
X217873411Y-100919010D01*
X217603158Y-100807068D01*
X217316260Y-100750000D01*
X217023740Y-100750000D01*
X216736842Y-100807068D01*
X216466589Y-100919010D01*
X216223368Y-101081525D01*
X216016525Y-101288368D01*
X215900000Y-101462760D01*
X215783475Y-101288368D01*
X215576632Y-101081525D01*
X215333411Y-100919010D01*
X215063158Y-100807068D01*
X214776260Y-100750000D01*
X214483740Y-100750000D01*
X214196842Y-100807068D01*
X213926589Y-100919010D01*
X213683368Y-101081525D01*
X213551513Y-101213380D01*
X213529502Y-101140820D01*
X213470537Y-101030506D01*
X213391185Y-100933815D01*
X213294494Y-100854463D01*
X213184180Y-100795498D01*
X213064482Y-100759188D01*
X212940000Y-100746928D01*
X211240000Y-100746928D01*
X211115518Y-100759188D01*
X210995820Y-100795498D01*
X210885506Y-100854463D01*
X210788815Y-100933815D01*
X210709463Y-101030506D01*
X210650498Y-101140820D01*
X210628487Y-101213380D01*
X210496632Y-101081525D01*
X210305913Y-100954091D01*
X210299003Y-100883933D01*
X210255546Y-100740672D01*
X210224610Y-100682795D01*
X210184974Y-100608642D01*
X210113799Y-100521916D01*
X210090001Y-100492918D01*
X210061003Y-100469120D01*
X206870885Y-97279003D01*
X206847082Y-97249999D01*
X206731357Y-97155026D01*
X206599328Y-97084454D01*
X206456067Y-97040997D01*
X206344414Y-97030000D01*
X206344403Y-97030000D01*
X206307081Y-97026324D01*
X206269759Y-97030000D01*
X194065440Y-97030000D01*
X194075000Y-96981937D01*
X194075000Y-96778059D01*
X194035226Y-96578100D01*
X193957205Y-96389742D01*
X193843937Y-96220224D01*
X193699774Y-96076061D01*
X193530256Y-95962793D01*
X193341898Y-95884772D01*
X193141939Y-95844998D01*
X193079802Y-95844998D01*
X192323708Y-95088905D01*
X192566858Y-95288453D01*
X192911699Y-95472774D01*
X193285873Y-95586278D01*
X193675000Y-95624604D01*
X194064128Y-95586278D01*
X194438302Y-95472774D01*
X194783143Y-95288453D01*
X195085398Y-95040398D01*
X195333453Y-94738143D01*
X195517774Y-94393302D01*
X195631278Y-94019127D01*
X195660000Y-93727509D01*
X195660000Y-92532490D01*
X195631964Y-92247838D01*
X196054184Y-91825618D01*
X196032226Y-91866699D01*
X195918722Y-92240873D01*
X195890000Y-92532491D01*
X195890000Y-93727510D01*
X195918722Y-94019128D01*
X196032226Y-94393302D01*
X196216548Y-94738143D01*
X196464603Y-95040398D01*
X196766858Y-95288453D01*
X197111699Y-95472774D01*
X197485873Y-95586278D01*
X197875000Y-95624604D01*
X198264128Y-95586278D01*
X198638302Y-95472774D01*
X198983143Y-95288453D01*
X199285398Y-95040398D01*
X199533453Y-94738143D01*
X199717774Y-94393302D01*
X199831278Y-94019127D01*
X199860000Y-93727509D01*
X199860000Y-92532491D01*
X200090000Y-92532491D01*
X200090000Y-93727510D01*
X200118722Y-94019128D01*
X200232226Y-94393302D01*
X200416548Y-94738143D01*
X200664603Y-95040398D01*
X200966858Y-95288453D01*
X201311699Y-95472774D01*
X201685873Y-95586278D01*
X202075000Y-95624604D01*
X202464128Y-95586278D01*
X202838302Y-95472774D01*
X203183143Y-95288453D01*
X203485398Y-95040398D01*
X203733453Y-94738143D01*
X203917774Y-94393302D01*
X204031278Y-94019127D01*
X204060000Y-93727509D01*
X204060000Y-92532491D01*
X204290000Y-92532491D01*
X204290000Y-93727510D01*
X204318722Y-94019128D01*
X204432226Y-94393302D01*
X204616548Y-94738143D01*
X204864603Y-95040398D01*
X205166858Y-95288453D01*
X205511699Y-95472774D01*
X205885873Y-95586278D01*
X206275000Y-95624604D01*
X206664128Y-95586278D01*
X207038302Y-95472774D01*
X207308336Y-95328438D01*
X213161505Y-95328438D01*
X213200605Y-95568549D01*
X213285798Y-95796418D01*
X213326652Y-95872852D01*
X213550236Y-95920159D01*
X214220395Y-95250000D01*
X213550236Y-94579841D01*
X213326652Y-94627148D01*
X213225763Y-94848516D01*
X213170000Y-95085313D01*
X213161505Y-95328438D01*
X207308336Y-95328438D01*
X207383143Y-95288453D01*
X207685398Y-95040398D01*
X207933453Y-94738143D01*
X208114067Y-94400236D01*
X213729841Y-94400236D01*
X214400000Y-95070395D01*
X214414143Y-95056253D01*
X214593748Y-95235858D01*
X214579605Y-95250000D01*
X214593748Y-95264143D01*
X214414143Y-95443748D01*
X214400000Y-95429605D01*
X213729841Y-96099764D01*
X213777148Y-96323348D01*
X213998516Y-96424237D01*
X214235313Y-96480000D01*
X214478438Y-96488495D01*
X214718549Y-96449395D01*
X214932117Y-96369549D01*
X214945506Y-96380537D01*
X215055820Y-96439502D01*
X215175518Y-96475812D01*
X215300000Y-96488072D01*
X216500000Y-96488072D01*
X216624482Y-96475812D01*
X216744180Y-96439502D01*
X216854494Y-96380537D01*
X216951185Y-96301185D01*
X217030537Y-96204494D01*
X217089502Y-96094180D01*
X217115038Y-96010000D01*
X217490199Y-96010000D01*
X219781205Y-98301008D01*
X219804999Y-98330001D01*
X219833992Y-98353795D01*
X219833996Y-98353799D01*
X219890568Y-98400226D01*
X219920724Y-98424974D01*
X220052753Y-98495546D01*
X220196014Y-98539003D01*
X220307667Y-98550000D01*
X220307676Y-98550000D01*
X220344999Y-98553676D01*
X220382322Y-98550000D01*
X230825199Y-98550000D01*
X231650000Y-99374802D01*
X231650001Y-114620197D01*
X227696408Y-118573791D01*
X227476260Y-118530000D01*
X227183740Y-118530000D01*
X226896842Y-118587068D01*
X226626589Y-118699010D01*
X226383368Y-118861525D01*
X226251513Y-118993380D01*
X226229502Y-118920820D01*
X226170537Y-118810506D01*
X226091185Y-118713815D01*
X225994494Y-118634463D01*
X225884180Y-118575498D01*
X225764482Y-118539188D01*
X225640000Y-118526928D01*
X225075750Y-118530000D01*
X224917000Y-118688750D01*
X224917000Y-119888000D01*
X224937000Y-119888000D01*
X224937000Y-120142000D01*
X224917000Y-120142000D01*
X224917000Y-121341250D01*
X225075750Y-121500000D01*
X225640000Y-121503072D01*
X225764482Y-121490812D01*
X225884180Y-121454502D01*
X225994494Y-121395537D01*
X226091185Y-121316185D01*
X226170537Y-121219494D01*
X226229502Y-121109180D01*
X226251513Y-121036620D01*
X226383368Y-121168475D01*
X226626589Y-121330990D01*
X226896842Y-121442932D01*
X227183740Y-121500000D01*
X227476260Y-121500000D01*
X227763158Y-121442932D01*
X228033411Y-121330990D01*
X228276632Y-121168475D01*
X228483475Y-120961632D01*
X228600000Y-120787240D01*
X228716525Y-120961632D01*
X228923368Y-121168475D01*
X229166589Y-121330990D01*
X229436842Y-121442932D01*
X229723740Y-121500000D01*
X230016260Y-121500000D01*
X230303158Y-121442932D01*
X230573411Y-121330990D01*
X230816632Y-121168475D01*
X230920235Y-121064872D01*
X233350000Y-121064872D01*
X233350000Y-121505128D01*
X233435890Y-121936925D01*
X233604369Y-122343669D01*
X233848962Y-122709729D01*
X234160271Y-123021038D01*
X234526331Y-123265631D01*
X234933075Y-123434110D01*
X235364872Y-123520000D01*
X235805128Y-123520000D01*
X236236925Y-123434110D01*
X236643669Y-123265631D01*
X237009729Y-123021038D01*
X237321038Y-122709729D01*
X237565631Y-122343669D01*
X237734110Y-121936925D01*
X237820000Y-121505128D01*
X237820000Y-121064872D01*
X237734110Y-120633075D01*
X237565631Y-120226331D01*
X237321038Y-119860271D01*
X237009729Y-119548962D01*
X236643669Y-119304369D01*
X236236925Y-119135890D01*
X235805128Y-119050000D01*
X235364872Y-119050000D01*
X234933075Y-119135890D01*
X234526331Y-119304369D01*
X234160271Y-119548962D01*
X233848962Y-119860271D01*
X233604369Y-120226331D01*
X233435890Y-120633075D01*
X233350000Y-121064872D01*
X230920235Y-121064872D01*
X231023475Y-120961632D01*
X231185990Y-120718411D01*
X231297932Y-120448158D01*
X231355000Y-120161260D01*
X231355000Y-119868740D01*
X231297932Y-119581842D01*
X231185990Y-119311589D01*
X231023475Y-119068368D01*
X230816632Y-118861525D01*
X230573411Y-118699010D01*
X230303158Y-118587068D01*
X230016260Y-118530000D01*
X229889801Y-118530000D01*
X232921003Y-115498799D01*
X232950001Y-115475001D01*
X232994307Y-115421014D01*
X233044974Y-115359277D01*
X233115546Y-115227247D01*
X233140275Y-115145724D01*
X233159003Y-115083986D01*
X233170000Y-114972333D01*
X233170000Y-114972323D01*
X233173676Y-114935000D01*
X233170000Y-114897677D01*
X233170000Y-99097322D01*
X233173676Y-99059999D01*
X233170000Y-99022676D01*
X233170000Y-99022667D01*
X233159003Y-98911014D01*
X233115546Y-98767753D01*
X233044974Y-98635724D01*
X232950001Y-98519999D01*
X232921003Y-98496201D01*
X231703804Y-97279003D01*
X231680001Y-97249999D01*
X231564276Y-97155026D01*
X231432247Y-97084454D01*
X231288986Y-97040997D01*
X231177333Y-97030000D01*
X231177322Y-97030000D01*
X231140000Y-97026324D01*
X231102678Y-97030000D01*
X220659803Y-97030000D01*
X219940929Y-96311126D01*
X220025506Y-96380537D01*
X220135820Y-96439502D01*
X220255518Y-96475812D01*
X220380000Y-96488072D01*
X221580000Y-96488072D01*
X221704482Y-96475812D01*
X221824180Y-96439502D01*
X221934494Y-96380537D01*
X221951681Y-96366432D01*
X222078516Y-96424237D01*
X222315313Y-96480000D01*
X222558438Y-96488495D01*
X222798549Y-96449395D01*
X223026418Y-96364202D01*
X223102852Y-96323348D01*
X223150159Y-96099764D01*
X222480000Y-95429605D01*
X222465858Y-95443748D01*
X222286253Y-95264143D01*
X222300395Y-95250000D01*
X222659605Y-95250000D01*
X223329764Y-95920159D01*
X223553348Y-95872852D01*
X223654237Y-95651484D01*
X223710000Y-95414687D01*
X223718495Y-95171562D01*
X223679395Y-94931451D01*
X223594202Y-94703582D01*
X223553348Y-94627148D01*
X223329764Y-94579841D01*
X222659605Y-95250000D01*
X222300395Y-95250000D01*
X222286253Y-95235858D01*
X222465858Y-95056253D01*
X222480000Y-95070395D01*
X223150159Y-94400236D01*
X223102852Y-94176652D01*
X222881484Y-94075763D01*
X222644687Y-94020000D01*
X222401562Y-94011505D01*
X222161451Y-94050605D01*
X221947883Y-94130451D01*
X221934494Y-94119463D01*
X221824180Y-94060498D01*
X221704482Y-94024188D01*
X221580000Y-94011928D01*
X220380000Y-94011928D01*
X220255518Y-94024188D01*
X220135820Y-94060498D01*
X220025506Y-94119463D01*
X219928815Y-94198815D01*
X219849463Y-94295506D01*
X219790498Y-94405820D01*
X219754188Y-94525518D01*
X219741928Y-94650000D01*
X219741928Y-95850000D01*
X219754188Y-95974482D01*
X219790498Y-96094180D01*
X219849463Y-96204494D01*
X219918874Y-96289072D01*
X218368804Y-94739003D01*
X218345001Y-94709999D01*
X218229276Y-94615026D01*
X218097247Y-94544454D01*
X217953986Y-94500997D01*
X217842333Y-94490000D01*
X217842322Y-94490000D01*
X217805000Y-94486324D01*
X217767678Y-94490000D01*
X217115038Y-94490000D01*
X217089502Y-94405820D01*
X217030537Y-94295506D01*
X216951185Y-94198815D01*
X216854494Y-94119463D01*
X216744180Y-94060498D01*
X216624482Y-94024188D01*
X216500000Y-94011928D01*
X215300000Y-94011928D01*
X215175518Y-94024188D01*
X215055820Y-94060498D01*
X214945506Y-94119463D01*
X214928319Y-94133568D01*
X214801484Y-94075763D01*
X214564687Y-94020000D01*
X214321562Y-94011505D01*
X214081451Y-94050605D01*
X213853582Y-94135798D01*
X213777148Y-94176652D01*
X213729841Y-94400236D01*
X208114067Y-94400236D01*
X208117774Y-94393302D01*
X208231278Y-94019127D01*
X208260000Y-93727509D01*
X208260000Y-92532490D01*
X208231278Y-92240872D01*
X208117774Y-91866698D01*
X207933453Y-91521857D01*
X207685398Y-91219602D01*
X207383143Y-90971547D01*
X207038301Y-90787226D01*
X206664127Y-90673722D01*
X206275000Y-90635396D01*
X205885872Y-90673722D01*
X205511698Y-90787226D01*
X205166857Y-90971547D01*
X204864602Y-91219602D01*
X204616547Y-91521857D01*
X204432226Y-91866699D01*
X204318722Y-92240873D01*
X204290000Y-92532491D01*
X204060000Y-92532491D01*
X204060000Y-92532490D01*
X204031278Y-92240872D01*
X203917774Y-91866698D01*
X203733453Y-91521857D01*
X203485398Y-91219602D01*
X203183143Y-90971547D01*
X202838301Y-90787226D01*
X202464127Y-90673722D01*
X202075000Y-90635396D01*
X201685872Y-90673722D01*
X201311698Y-90787226D01*
X200966857Y-90971547D01*
X200664602Y-91219602D01*
X200416547Y-91521857D01*
X200232226Y-91866699D01*
X200118722Y-92240873D01*
X200090000Y-92532491D01*
X199860000Y-92532491D01*
X199860000Y-92532490D01*
X199831278Y-92240872D01*
X199717774Y-91866698D01*
X199533453Y-91521857D01*
X199285398Y-91219602D01*
X198983143Y-90971547D01*
X198638301Y-90787226D01*
X198264127Y-90673722D01*
X197875000Y-90635396D01*
X197485872Y-90673722D01*
X197111698Y-90787226D01*
X196766857Y-90971547D01*
X196464602Y-91219602D01*
X196323785Y-91391187D01*
X196329003Y-91373986D01*
X196340000Y-91262333D01*
X196340000Y-91262323D01*
X196343676Y-91225000D01*
X196340000Y-91187677D01*
X196340000Y-89388569D01*
X196464603Y-89540398D01*
X196766858Y-89788453D01*
X197111699Y-89972774D01*
X197485873Y-90086278D01*
X197875000Y-90124604D01*
X198264128Y-90086278D01*
X198638302Y-89972774D01*
X198983143Y-89788453D01*
X199285398Y-89540398D01*
X199533453Y-89238143D01*
X199717774Y-88893302D01*
X199831278Y-88519127D01*
X199860000Y-88227509D01*
X199860000Y-87032490D01*
X199831278Y-86740872D01*
X199717774Y-86366698D01*
X199695816Y-86325618D01*
X200118036Y-86747838D01*
X200090000Y-87032491D01*
X200090000Y-88227510D01*
X200118722Y-88519128D01*
X200232226Y-88893302D01*
X200416548Y-89238143D01*
X200664603Y-89540398D01*
X200966858Y-89788453D01*
X201311699Y-89972774D01*
X201685873Y-90086278D01*
X202075000Y-90124604D01*
X202464128Y-90086278D01*
X202838302Y-89972774D01*
X203183143Y-89788453D01*
X203485398Y-89540398D01*
X203733453Y-89238143D01*
X203917774Y-88893302D01*
X204031278Y-88519127D01*
X204060000Y-88227509D01*
X204060000Y-87032490D01*
X204031278Y-86740872D01*
X203917774Y-86366698D01*
X203733453Y-86021857D01*
X203485398Y-85719602D01*
X203183143Y-85471547D01*
X202838301Y-85287226D01*
X202464127Y-85173722D01*
X202075000Y-85135396D01*
X201685872Y-85173722D01*
X201311698Y-85287226D01*
X200982818Y-85463016D01*
X197610000Y-82090199D01*
X197610000Y-78374013D01*
X197629744Y-78387205D01*
X197818102Y-78465226D01*
X198018061Y-78505000D01*
X198080199Y-78505000D01*
X205100886Y-85525688D01*
X204864602Y-85719602D01*
X204616547Y-86021857D01*
X204432226Y-86366699D01*
X204318722Y-86740873D01*
X204290000Y-87032491D01*
X204290000Y-88227510D01*
X204318722Y-88519128D01*
X204432226Y-88893302D01*
X204616548Y-89238143D01*
X204864603Y-89540398D01*
X205166858Y-89788453D01*
X205511699Y-89972774D01*
X205885873Y-90086278D01*
X206275000Y-90124604D01*
X206664128Y-90086278D01*
X207038302Y-89972774D01*
X207383143Y-89788453D01*
X207685398Y-89540398D01*
X207933453Y-89238143D01*
X208117774Y-88893302D01*
X208231278Y-88519127D01*
X208260000Y-88227509D01*
X208260000Y-87032490D01*
X208231278Y-86740872D01*
X208117774Y-86366698D01*
X207933453Y-86021857D01*
X207685398Y-85719602D01*
X207383143Y-85471547D01*
X207038301Y-85287226D01*
X206940325Y-85257505D01*
X206909974Y-85200724D01*
X206838799Y-85113997D01*
X206815001Y-85084999D01*
X206786003Y-85061201D01*
X201844523Y-80119721D01*
X204140000Y-80119721D01*
X204140000Y-80540279D01*
X204222047Y-80952756D01*
X204382988Y-81341302D01*
X204616637Y-81690983D01*
X204914017Y-81988363D01*
X205263698Y-82222012D01*
X205652244Y-82382953D01*
X206064721Y-82465000D01*
X206485279Y-82465000D01*
X206897756Y-82382953D01*
X207286302Y-82222012D01*
X207635983Y-81988363D01*
X207933363Y-81690983D01*
X208167012Y-81341302D01*
X208327953Y-80952756D01*
X208410000Y-80540279D01*
X208410000Y-80119721D01*
X208327953Y-79707244D01*
X208167012Y-79318698D01*
X207933363Y-78969017D01*
X207635983Y-78671637D01*
X207286302Y-78437988D01*
X206941099Y-78295000D01*
X214436928Y-78295000D01*
X214449188Y-78419482D01*
X214485498Y-78539180D01*
X214544463Y-78649494D01*
X214623815Y-78746185D01*
X214720506Y-78825537D01*
X214830820Y-78884502D01*
X214950518Y-78920812D01*
X215075000Y-78933072D01*
X215614250Y-78930000D01*
X215773000Y-78771250D01*
X215773000Y-77597000D01*
X216027000Y-77597000D01*
X216027000Y-78771250D01*
X216185750Y-78930000D01*
X216725000Y-78933072D01*
X216849482Y-78920812D01*
X216969180Y-78884502D01*
X217079494Y-78825537D01*
X217176185Y-78746185D01*
X217255537Y-78649494D01*
X217314502Y-78539180D01*
X217350812Y-78419482D01*
X217363072Y-78295000D01*
X217360000Y-77755750D01*
X217201250Y-77597000D01*
X216027000Y-77597000D01*
X215773000Y-77597000D01*
X214598750Y-77597000D01*
X214440000Y-77755750D01*
X214436928Y-78295000D01*
X206941099Y-78295000D01*
X206897756Y-78277047D01*
X206485279Y-78195000D01*
X206064721Y-78195000D01*
X205652244Y-78277047D01*
X205263698Y-78437988D01*
X204914017Y-78671637D01*
X204616637Y-78969017D01*
X204382988Y-79318698D01*
X204222047Y-79707244D01*
X204140000Y-80119721D01*
X201844523Y-80119721D01*
X199155000Y-77430199D01*
X199155000Y-77368061D01*
X199115226Y-77168102D01*
X199037205Y-76979744D01*
X198923937Y-76810226D01*
X198779774Y-76666063D01*
X198748251Y-76645000D01*
X214436928Y-76645000D01*
X214440000Y-77184250D01*
X214598750Y-77343000D01*
X215773000Y-77343000D01*
X215773000Y-76168750D01*
X216027000Y-76168750D01*
X216027000Y-77343000D01*
X217201250Y-77343000D01*
X217360000Y-77184250D01*
X217363072Y-76645000D01*
X217350812Y-76520518D01*
X217314502Y-76400820D01*
X217255537Y-76290506D01*
X217176185Y-76193815D01*
X217079494Y-76114463D01*
X216969180Y-76055498D01*
X216849482Y-76019188D01*
X216725000Y-76006928D01*
X216185750Y-76010000D01*
X216027000Y-76168750D01*
X215773000Y-76168750D01*
X215614250Y-76010000D01*
X215075000Y-76006928D01*
X214950518Y-76019188D01*
X214830820Y-76055498D01*
X214720506Y-76114463D01*
X214623815Y-76193815D01*
X214544463Y-76290506D01*
X214485498Y-76400820D01*
X214449188Y-76520518D01*
X214436928Y-76645000D01*
X198748251Y-76645000D01*
X198610256Y-76552795D01*
X198421898Y-76474774D01*
X198221939Y-76435000D01*
X198018061Y-76435000D01*
X197818102Y-76474774D01*
X197629744Y-76552795D01*
X197610000Y-76565987D01*
X197610000Y-76237333D01*
X197613677Y-76200000D01*
X197599003Y-76051014D01*
X197555546Y-75907753D01*
X197532694Y-75865000D01*
X218052711Y-75865000D01*
X219520000Y-77332290D01*
X219520000Y-77613797D01*
X219576107Y-77895866D01*
X219686165Y-78161569D01*
X219845944Y-78400696D01*
X220049304Y-78604056D01*
X220288431Y-78763835D01*
X220554134Y-78873893D01*
X220836203Y-78930000D01*
X221123797Y-78930000D01*
X221405866Y-78873893D01*
X221671569Y-78763835D01*
X221910696Y-78604056D01*
X222114056Y-78400696D01*
X222273835Y-78161569D01*
X222383893Y-77895866D01*
X222440000Y-77613797D01*
X222440000Y-77326203D01*
X222383893Y-77044134D01*
X222273835Y-76778431D01*
X222114056Y-76539304D01*
X221910696Y-76335944D01*
X221671569Y-76176165D01*
X221405866Y-76066107D01*
X221123797Y-76010000D01*
X220842290Y-76010000D01*
X220812162Y-75979872D01*
X233350000Y-75979872D01*
X233350000Y-76420128D01*
X233435890Y-76851925D01*
X233604369Y-77258669D01*
X233848962Y-77624729D01*
X234160271Y-77936038D01*
X234526331Y-78180631D01*
X234933075Y-78349110D01*
X235364872Y-78435000D01*
X235805128Y-78435000D01*
X236236925Y-78349110D01*
X236643669Y-78180631D01*
X237009729Y-77936038D01*
X237321038Y-77624729D01*
X237565631Y-77258669D01*
X237734110Y-76851925D01*
X237820000Y-76420128D01*
X237820000Y-75979872D01*
X237734110Y-75548075D01*
X237565631Y-75141331D01*
X237321038Y-74775271D01*
X237009729Y-74463962D01*
X236643669Y-74219369D01*
X236236925Y-74050890D01*
X235805128Y-73965000D01*
X235364872Y-73965000D01*
X234933075Y-74050890D01*
X234526331Y-74219369D01*
X234160271Y-74463962D01*
X233848962Y-74775271D01*
X233604369Y-75141331D01*
X233435890Y-75548075D01*
X233350000Y-75979872D01*
X220812162Y-75979872D01*
X219133630Y-74301341D01*
X219104344Y-74265656D01*
X218961972Y-74148814D01*
X218799540Y-74061993D01*
X218623292Y-74008529D01*
X218485932Y-73995000D01*
X218440000Y-73990476D01*
X218394068Y-73995000D01*
X197872288Y-73995000D01*
X197553620Y-73676332D01*
X197524334Y-73640646D01*
X197381962Y-73523804D01*
X197219530Y-73436983D01*
X197043282Y-73383519D01*
X196905922Y-73369990D01*
X196859990Y-73365466D01*
X196814058Y-73369990D01*
X139735942Y-73369990D01*
X139690010Y-73365466D01*
X139644078Y-73369990D01*
X139506718Y-73383519D01*
X139330470Y-73436983D01*
X139168038Y-73523804D01*
X139025666Y-73640646D01*
X138996380Y-73676331D01*
X137450142Y-75222569D01*
X137347705Y-75265000D01*
X129352295Y-75265000D01*
X129206898Y-75204774D01*
X129006939Y-75165000D01*
X128803061Y-75165000D01*
X128603102Y-75204774D01*
X128457705Y-75265000D01*
X120462295Y-75265000D01*
X120316898Y-75204774D01*
X120116939Y-75165000D01*
X119913061Y-75165000D01*
X119713102Y-75204774D01*
X119524744Y-75282795D01*
X119355226Y-75396063D01*
X119211063Y-75540226D01*
X119097795Y-75709744D01*
X119019774Y-75898102D01*
X118980000Y-76098061D01*
X118980000Y-76301939D01*
X119019774Y-76501898D01*
X119097795Y-76690256D01*
X119211063Y-76859774D01*
X119355226Y-77003937D01*
X119524744Y-77117205D01*
X119713102Y-77195226D01*
X119913061Y-77235000D01*
X120116939Y-77235000D01*
X120316898Y-77195226D01*
X120462295Y-77135000D01*
X128457705Y-77135000D01*
X128603102Y-77195226D01*
X128803061Y-77235000D01*
X129006939Y-77235000D01*
X129206898Y-77195226D01*
X129352295Y-77135000D01*
X137347705Y-77135000D01*
X137493102Y-77195226D01*
X137693061Y-77235000D01*
X137896939Y-77235000D01*
X138096898Y-77195226D01*
X138285256Y-77117205D01*
X138454774Y-77003937D01*
X138598937Y-76859774D01*
X138712205Y-76690256D01*
X138772431Y-76544858D01*
X140077299Y-75239990D01*
X142125208Y-75239990D01*
X136930199Y-80435000D01*
X132063711Y-80435000D01*
X132019774Y-80391063D01*
X131850256Y-80277795D01*
X131661898Y-80199774D01*
X131461939Y-80160000D01*
X131258061Y-80160000D01*
X131058102Y-80199774D01*
X130869744Y-80277795D01*
X130700226Y-80391063D01*
X130556063Y-80535226D01*
X130442795Y-80704744D01*
X130364774Y-80893102D01*
X130325000Y-81093061D01*
X130325000Y-81296939D01*
X130364774Y-81496898D01*
X130442795Y-81685256D01*
X130556063Y-81854774D01*
X130700226Y-81998937D01*
X130869744Y-82112205D01*
X131058102Y-82190226D01*
X131258061Y-82230000D01*
X131461939Y-82230000D01*
X131661898Y-82190226D01*
X131850256Y-82112205D01*
X132019774Y-81998937D01*
X132063711Y-81955000D01*
X137207678Y-81955000D01*
X137245000Y-81958676D01*
X137282322Y-81955000D01*
X137282333Y-81955000D01*
X137393986Y-81944003D01*
X137537247Y-81900546D01*
X137669276Y-81829974D01*
X137785001Y-81735001D01*
X137808804Y-81705997D01*
X143824802Y-75690000D01*
X193557197Y-75690000D01*
X194820000Y-76952804D01*
X194820000Y-78527322D01*
X194686302Y-78437988D01*
X194297756Y-78277047D01*
X193885279Y-78195000D01*
X193464721Y-78195000D01*
X193052244Y-78277047D01*
X192663698Y-78437988D01*
X192314017Y-78671637D01*
X192016637Y-78969017D01*
X191782988Y-79318698D01*
X191622047Y-79707244D01*
X191540000Y-80119721D01*
X191540000Y-80540279D01*
X191622047Y-80952756D01*
X191782988Y-81341302D01*
X192016637Y-81690983D01*
X192314017Y-81988363D01*
X192663698Y-82222012D01*
X193052244Y-82382953D01*
X193464721Y-82465000D01*
X193885279Y-82465000D01*
X194297756Y-82382953D01*
X194686302Y-82222012D01*
X194820000Y-82132678D01*
X194820001Y-85146360D01*
X194774999Y-85141928D01*
X192575001Y-85141928D01*
X192401747Y-85158992D01*
X192235150Y-85209529D01*
X192081614Y-85291595D01*
X191947039Y-85402039D01*
X191836595Y-85536614D01*
X191754529Y-85690150D01*
X191703992Y-85856747D01*
X191686928Y-86030001D01*
X191686928Y-89229999D01*
X191703992Y-89403253D01*
X191754529Y-89569850D01*
X191836595Y-89723386D01*
X191947039Y-89857961D01*
X192081614Y-89968405D01*
X192235150Y-90050471D01*
X192401747Y-90101008D01*
X192575001Y-90118072D01*
X194774999Y-90118072D01*
X194820001Y-90113640D01*
X194820001Y-90910197D01*
X194767182Y-90963016D01*
X194438301Y-90787226D01*
X194064127Y-90673722D01*
X193675000Y-90635396D01*
X193285872Y-90673722D01*
X192911698Y-90787226D01*
X192566857Y-90971547D01*
X192264602Y-91219602D01*
X192016547Y-91521857D01*
X191832226Y-91866699D01*
X191718722Y-92240873D01*
X191690000Y-92532491D01*
X191690000Y-93727510D01*
X191718722Y-94019128D01*
X191832226Y-94393302D01*
X192016548Y-94738143D01*
X192216096Y-94981293D01*
X189355000Y-92120197D01*
X189355000Y-82587333D01*
X189358677Y-82550000D01*
X189344003Y-82401014D01*
X189300546Y-82257753D01*
X189229974Y-82125724D01*
X189158799Y-82038997D01*
X189135001Y-82009999D01*
X189106003Y-81986201D01*
X183443804Y-76324003D01*
X183420001Y-76294999D01*
X183304276Y-76200026D01*
X183172247Y-76129454D01*
X183028986Y-76085997D01*
X182917333Y-76075000D01*
X182917322Y-76075000D01*
X182880000Y-76071324D01*
X182842678Y-76075000D01*
X149262333Y-76075000D01*
X149225000Y-76071323D01*
X149187667Y-76075000D01*
X149076014Y-76085997D01*
X148932753Y-76129454D01*
X148800724Y-76200026D01*
X148684999Y-76294999D01*
X148661201Y-76323997D01*
X140295199Y-84690000D01*
X140233061Y-84690000D01*
X140033102Y-84729774D01*
X139844744Y-84807795D01*
X139675226Y-84921063D01*
X139531063Y-85065226D01*
X139417795Y-85234744D01*
X139339774Y-85423102D01*
X139300000Y-85623061D01*
X139300000Y-85826939D01*
X139339774Y-86026898D01*
X139417795Y-86215256D01*
X139531063Y-86384774D01*
X139675226Y-86528937D01*
X139705820Y-86549379D01*
X138911168Y-87344031D01*
X138731898Y-87269774D01*
X138531939Y-87230000D01*
X138328061Y-87230000D01*
X138128102Y-87269774D01*
X137939744Y-87347795D01*
X137770226Y-87461063D01*
X137626063Y-87605226D01*
X137512795Y-87774744D01*
X137434774Y-87963102D01*
X137395000Y-88163061D01*
X137395000Y-88230001D01*
X130579803Y-88230001D01*
X130575000Y-88225198D01*
X130575000Y-88163061D01*
X130535226Y-87963102D01*
X130457205Y-87774744D01*
X130343937Y-87605226D01*
X130199774Y-87461063D01*
X130030256Y-87347795D01*
X129841898Y-87269774D01*
X129641939Y-87230000D01*
X129438061Y-87230000D01*
X129238102Y-87269774D01*
X129049744Y-87347795D01*
X128880226Y-87461063D01*
X128736063Y-87605226D01*
X128622795Y-87774744D01*
X128544774Y-87963102D01*
X128505000Y-88163061D01*
X128505000Y-88366939D01*
X128544774Y-88566898D01*
X128622795Y-88755256D01*
X128736063Y-88924774D01*
X128880226Y-89068937D01*
X129049744Y-89182205D01*
X129238102Y-89260226D01*
X129438061Y-89300000D01*
X129500198Y-89300000D01*
X129701202Y-89501003D01*
X129725000Y-89530002D01*
X129840725Y-89624975D01*
X129972754Y-89695547D01*
X130116015Y-89739004D01*
X130227668Y-89750001D01*
X130227677Y-89750001D01*
X130265000Y-89753677D01*
X130302323Y-89750001D01*
X142747677Y-89750001D01*
X142784999Y-89753677D01*
X142822321Y-89750001D01*
X142822332Y-89750001D01*
X142933985Y-89739004D01*
X143077246Y-89695547D01*
X143209275Y-89624975D01*
X143325000Y-89530002D01*
X143348803Y-89500998D01*
X146364802Y-86485000D01*
X146755198Y-86485000D01*
X143064379Y-90175820D01*
X143043937Y-90145226D01*
X142899774Y-90001063D01*
X142730256Y-89887795D01*
X142541898Y-89809774D01*
X142341939Y-89770000D01*
X142138061Y-89770000D01*
X141938102Y-89809774D01*
X141749744Y-89887795D01*
X141580226Y-90001063D01*
X141436063Y-90145226D01*
X141322795Y-90314744D01*
X141262569Y-90460142D01*
X141217711Y-90505000D01*
X138332305Y-90505000D01*
X138186908Y-90444774D01*
X137986949Y-90405000D01*
X137783071Y-90405000D01*
X137583112Y-90444774D01*
X137437715Y-90505000D01*
X129352295Y-90505000D01*
X129206898Y-90444774D01*
X129006939Y-90405000D01*
X128803061Y-90405000D01*
X128603102Y-90444774D01*
X128457705Y-90505000D01*
X121097295Y-90505000D01*
X120951898Y-90444774D01*
X120751939Y-90405000D01*
X120548061Y-90405000D01*
X120348102Y-90444774D01*
X120159744Y-90522795D01*
X119990226Y-90636063D01*
X119846063Y-90780226D01*
X119732795Y-90949744D01*
X119654774Y-91138102D01*
X119615000Y-91338061D01*
X119615000Y-91541939D01*
X119654774Y-91741898D01*
X119732795Y-91930256D01*
X119846063Y-92099774D01*
X119990226Y-92243937D01*
X120159744Y-92357205D01*
X120348102Y-92435226D01*
X120548061Y-92475000D01*
X120751939Y-92475000D01*
X120951898Y-92435226D01*
X121097295Y-92375000D01*
X128457705Y-92375000D01*
X128603102Y-92435226D01*
X128803061Y-92475000D01*
X129006939Y-92475000D01*
X129206898Y-92435226D01*
X129352295Y-92375000D01*
X137437715Y-92375000D01*
X137583112Y-92435226D01*
X137783071Y-92475000D01*
X137986949Y-92475000D01*
X138186908Y-92435226D01*
X138332305Y-92375000D01*
X140865199Y-92375000D01*
X140745200Y-92494999D01*
X132842323Y-92494999D01*
X132805000Y-92491323D01*
X132767677Y-92494999D01*
X132767668Y-92494999D01*
X132656015Y-92505996D01*
X132512754Y-92549453D01*
X132380725Y-92620025D01*
X132265000Y-92714998D01*
X132241202Y-92743997D01*
X132040198Y-92945000D01*
X131978061Y-92945000D01*
X131778102Y-92984774D01*
X131589744Y-93062795D01*
X131420226Y-93176063D01*
X131276063Y-93320226D01*
X131162795Y-93489744D01*
X131084774Y-93678102D01*
X131045000Y-93878061D01*
X131045000Y-94081939D01*
X131084774Y-94281898D01*
X131162795Y-94470256D01*
X131276063Y-94639774D01*
X131420226Y-94783937D01*
X131589744Y-94897205D01*
X131778102Y-94975226D01*
X131978061Y-95015000D01*
X132181939Y-95015000D01*
X132381898Y-94975226D01*
X132570256Y-94897205D01*
X132739774Y-94783937D01*
X132883937Y-94639774D01*
X132997205Y-94470256D01*
X133075226Y-94281898D01*
X133115000Y-94081939D01*
X133115000Y-94019802D01*
X133119803Y-94014999D01*
X141022679Y-94014999D01*
X141060001Y-94018675D01*
X141097323Y-94014999D01*
X141097334Y-94014999D01*
X141208987Y-94004002D01*
X141352248Y-93960545D01*
X141484277Y-93889973D01*
X141600002Y-93795000D01*
X141623805Y-93765996D01*
X147600951Y-87788851D01*
X147586188Y-87837518D01*
X147573928Y-87962000D01*
X147573928Y-88889938D01*
X147486708Y-88898529D01*
X147310460Y-88951993D01*
X147148028Y-89038814D01*
X147005656Y-89155656D01*
X146976374Y-89191336D01*
X144117642Y-92050069D01*
X143972244Y-92110295D01*
X143802726Y-92223563D01*
X143658563Y-92367726D01*
X143545295Y-92537244D01*
X143485069Y-92682641D01*
X142616340Y-93551371D01*
X142580655Y-93580657D01*
X142463813Y-93723030D01*
X142376992Y-93885462D01*
X142336445Y-94019128D01*
X142323528Y-94061710D01*
X142305475Y-94245001D01*
X142309999Y-94290933D01*
X142310000Y-96844057D01*
X142305475Y-96889999D01*
X142323528Y-97073290D01*
X142375609Y-97244975D01*
X142376993Y-97249539D01*
X142463814Y-97411971D01*
X142580656Y-97554343D01*
X142616335Y-97583624D01*
X143451370Y-98418659D01*
X143480656Y-98454344D01*
X143623028Y-98571186D01*
X143728880Y-98627765D01*
X143785459Y-98658007D01*
X143961708Y-98711472D01*
X144145000Y-98729524D01*
X144190935Y-98725000D01*
X151952705Y-98725000D01*
X152098102Y-98785226D01*
X152298061Y-98825000D01*
X152501939Y-98825000D01*
X152701898Y-98785226D01*
X152890256Y-98707205D01*
X153059774Y-98593937D01*
X153203937Y-98449774D01*
X153317205Y-98280256D01*
X153395226Y-98091898D01*
X153435000Y-97891939D01*
X153435000Y-97688061D01*
X153395226Y-97488102D01*
X153317205Y-97299744D01*
X153203937Y-97130226D01*
X153059774Y-96986063D01*
X152890256Y-96872795D01*
X152701898Y-96794774D01*
X152501939Y-96755000D01*
X152298061Y-96755000D01*
X152098102Y-96794774D01*
X151952705Y-96855000D01*
X144532289Y-96855000D01*
X144525116Y-96847827D01*
X144635256Y-96802205D01*
X144804774Y-96688937D01*
X144848711Y-96645000D01*
X179352678Y-96645000D01*
X179390000Y-96648676D01*
X179427322Y-96645000D01*
X179427333Y-96645000D01*
X179538986Y-96634003D01*
X179682247Y-96590546D01*
X179814276Y-96519974D01*
X179930001Y-96425001D01*
X179953804Y-96395997D01*
X181052818Y-95296984D01*
X181381699Y-95472774D01*
X181755873Y-95586278D01*
X182145000Y-95624604D01*
X182534128Y-95586278D01*
X182908302Y-95472774D01*
X183253143Y-95288453D01*
X183555398Y-95040398D01*
X183803453Y-94738143D01*
X183813190Y-94719927D01*
X183823988Y-94728789D01*
X186125198Y-97030000D01*
X177202322Y-97030000D01*
X177164999Y-97026324D01*
X177127676Y-97030000D01*
X177127667Y-97030000D01*
X177016014Y-97040997D01*
X176872753Y-97084454D01*
X176740724Y-97155026D01*
X176624999Y-97249999D01*
X176601202Y-97278996D01*
X173737934Y-100142264D01*
X173715226Y-100028102D01*
X173637205Y-99839744D01*
X173540490Y-99695000D01*
X173637205Y-99550256D01*
X173715226Y-99361898D01*
X173755000Y-99161939D01*
X173755000Y-98958061D01*
X173715226Y-98758102D01*
X173637205Y-98569744D01*
X173523937Y-98400226D01*
X173379774Y-98256063D01*
X173210256Y-98142795D01*
X173021898Y-98064774D01*
X172821939Y-98025000D01*
X172618061Y-98025000D01*
X172418102Y-98064774D01*
X172229744Y-98142795D01*
X172060226Y-98256063D01*
X171916063Y-98400226D01*
X171802795Y-98569744D01*
X171724774Y-98758102D01*
X171707489Y-98844999D01*
X126589802Y-98844999D01*
X123950000Y-96205199D01*
X123950000Y-94683711D01*
X123993937Y-94639774D01*
X124107205Y-94470256D01*
X124185226Y-94281898D01*
X124225000Y-94081939D01*
X124225000Y-93878061D01*
X124185226Y-93678102D01*
X124107205Y-93489744D01*
X123993937Y-93320226D01*
X123849774Y-93176063D01*
X123680256Y-93062795D01*
X123491898Y-92984774D01*
X123291939Y-92945000D01*
X123088061Y-92945000D01*
X122888102Y-92984774D01*
X122699744Y-93062795D01*
X122530226Y-93176063D01*
X122386063Y-93320226D01*
X122272795Y-93489744D01*
X122194774Y-93678102D01*
X122155000Y-93878061D01*
X122155000Y-94081939D01*
X122194774Y-94281898D01*
X122272795Y-94470256D01*
X122386063Y-94639774D01*
X122430000Y-94683711D01*
X122430001Y-96482668D01*
X122426324Y-96520000D01*
X122430001Y-96557332D01*
X122430001Y-96557333D01*
X122437553Y-96634003D01*
X122440998Y-96668985D01*
X122484454Y-96812246D01*
X122555026Y-96944276D01*
X122607992Y-97008814D01*
X122650000Y-97060001D01*
X122678998Y-97083799D01*
X125165197Y-99570000D01*
X122869802Y-99570000D01*
X119780000Y-96480199D01*
X119780000Y-96418061D01*
X119740226Y-96218102D01*
X119662205Y-96029744D01*
X119548937Y-95860226D01*
X119404774Y-95716063D01*
X119235256Y-95602795D01*
X119046898Y-95524774D01*
X118846939Y-95485000D01*
X118643061Y-95485000D01*
X118443102Y-95524774D01*
X118254744Y-95602795D01*
X118085226Y-95716063D01*
X117941063Y-95860226D01*
X117827795Y-96029744D01*
X117749774Y-96218102D01*
X117710000Y-96418061D01*
X108000000Y-96418061D01*
X108000000Y-76614872D01*
X109525000Y-76614872D01*
X109525000Y-77055128D01*
X109610890Y-77486925D01*
X109779369Y-77893669D01*
X110023962Y-78259729D01*
X110335271Y-78571038D01*
X110701331Y-78815631D01*
X111108075Y-78984110D01*
X111539872Y-79070000D01*
X111980128Y-79070000D01*
X112411925Y-78984110D01*
X112818669Y-78815631D01*
X113184729Y-78571038D01*
X113496038Y-78259729D01*
X113740631Y-77893669D01*
X113909110Y-77486925D01*
X113995000Y-77055128D01*
X113995000Y-76614872D01*
X113909110Y-76183075D01*
X113740631Y-75776331D01*
X113496038Y-75410271D01*
X113184729Y-75098962D01*
X112818669Y-74854369D01*
X112411925Y-74685890D01*
X111980128Y-74600000D01*
X111539872Y-74600000D01*
X111108075Y-74685890D01*
X110701331Y-74854369D01*
X110335271Y-75098962D01*
X110023962Y-75410271D01*
X109779369Y-75776331D01*
X109610890Y-76183075D01*
X109525000Y-76614872D01*
X108000000Y-76614872D01*
X108000000Y-75598504D01*
X108050644Y-75081994D01*
X108190918Y-74617386D01*
X108418762Y-74188873D01*
X108725499Y-73812776D01*
X109099447Y-73503420D01*
X109526359Y-73272589D01*
X109989979Y-73129075D01*
X110504463Y-73075000D01*
X236186496Y-73075000D01*
X236703006Y-73125644D01*
G37*
G04 #@! TD.AperFunction*
D24*
X129873102Y-102595226D02*
X130073061Y-102635000D01*
X130276939Y-102635000D01*
X130476898Y-102595226D01*
X130622295Y-102535000D01*
X131145000Y-102535000D01*
X131145001Y-109174058D01*
X131140476Y-109220000D01*
X131158529Y-109403291D01*
X131197461Y-109531632D01*
X131211994Y-109579540D01*
X131298815Y-109741972D01*
X131415657Y-109884344D01*
X131451336Y-109913625D01*
X132149999Y-110612289D01*
X132150000Y-112084057D01*
X132145475Y-112129999D01*
X132163528Y-112313290D01*
X132206208Y-112453985D01*
X132216993Y-112489539D01*
X132303814Y-112651971D01*
X132369132Y-112731561D01*
X132432795Y-112885256D01*
X132445987Y-112905000D01*
X131513711Y-112905000D01*
X131469774Y-112861063D01*
X131300256Y-112747795D01*
X131111898Y-112669774D01*
X130911939Y-112630000D01*
X130708061Y-112630000D01*
X130508102Y-112669774D01*
X130319744Y-112747795D01*
X130150226Y-112861063D01*
X130006063Y-113005226D01*
X129892795Y-113174744D01*
X129814774Y-113363102D01*
X129775000Y-113563061D01*
X129775000Y-113766939D01*
X129810916Y-113947501D01*
X122959788Y-113947501D01*
X123818664Y-113088626D01*
X123854344Y-113059344D01*
X123971186Y-112916972D01*
X124058007Y-112754540D01*
X124104640Y-112600812D01*
X124111471Y-112578293D01*
X124129524Y-112395001D01*
X124125000Y-112349069D01*
X124125000Y-102535000D01*
X129727705Y-102535000D01*
X129873102Y-102595226D01*
G04 #@! TA.AperFunction,Conductor*
D25*
G36*
X129873102Y-102595226D02*
G01*
X130073061Y-102635000D01*
X130276939Y-102635000D01*
X130476898Y-102595226D01*
X130622295Y-102535000D01*
X131145000Y-102535000D01*
X131145001Y-109174058D01*
X131140476Y-109220000D01*
X131158529Y-109403291D01*
X131197461Y-109531632D01*
X131211994Y-109579540D01*
X131298815Y-109741972D01*
X131415657Y-109884344D01*
X131451336Y-109913625D01*
X132149999Y-110612289D01*
X132150000Y-112084057D01*
X132145475Y-112129999D01*
X132163528Y-112313290D01*
X132206208Y-112453985D01*
X132216993Y-112489539D01*
X132303814Y-112651971D01*
X132369132Y-112731561D01*
X132432795Y-112885256D01*
X132445987Y-112905000D01*
X131513711Y-112905000D01*
X131469774Y-112861063D01*
X131300256Y-112747795D01*
X131111898Y-112669774D01*
X130911939Y-112630000D01*
X130708061Y-112630000D01*
X130508102Y-112669774D01*
X130319744Y-112747795D01*
X130150226Y-112861063D01*
X130006063Y-113005226D01*
X129892795Y-113174744D01*
X129814774Y-113363102D01*
X129775000Y-113563061D01*
X129775000Y-113766939D01*
X129810916Y-113947501D01*
X122959788Y-113947501D01*
X123818664Y-113088626D01*
X123854344Y-113059344D01*
X123971186Y-112916972D01*
X124058007Y-112754540D01*
X124104640Y-112600812D01*
X124111471Y-112578293D01*
X124129524Y-112395001D01*
X124125000Y-112349069D01*
X124125000Y-102535000D01*
X129727705Y-102535000D01*
X129873102Y-102595226D01*
G37*
G04 #@! TD.AperFunction*
D24*
X142200199Y-109455000D02*
X142138061Y-109455000D01*
X141938102Y-109494774D01*
X141749744Y-109572795D01*
X141580226Y-109686063D01*
X141436063Y-109830226D01*
X141322795Y-109999744D01*
X141244774Y-110188102D01*
X141205000Y-110388061D01*
X141205000Y-110591939D01*
X141244774Y-110791898D01*
X141322795Y-110980256D01*
X141436063Y-111149774D01*
X141580226Y-111293937D01*
X141749744Y-111407205D01*
X141938102Y-111485226D01*
X142138061Y-111525000D01*
X142341939Y-111525000D01*
X142541898Y-111485226D01*
X142730256Y-111407205D01*
X142899774Y-111293937D01*
X143043937Y-111149774D01*
X143157205Y-110980256D01*
X143235226Y-110791898D01*
X143275000Y-110591939D01*
X143275000Y-110529801D01*
X144459802Y-109345000D01*
X150127195Y-109345000D01*
X147927198Y-111544999D01*
X141097326Y-111544999D01*
X141060001Y-111541323D01*
X141022676Y-111544999D01*
X141022668Y-111544999D01*
X140911015Y-111555996D01*
X140767754Y-111599453D01*
X140635725Y-111670025D01*
X140520000Y-111764998D01*
X140496202Y-111793996D01*
X139342699Y-112947500D01*
X139280561Y-112947500D01*
X139080602Y-112987274D01*
X138892244Y-113065295D01*
X138722726Y-113178563D01*
X138578563Y-113322726D01*
X138465295Y-113492244D01*
X138387274Y-113680602D01*
X138347500Y-113880561D01*
X138347500Y-113947501D01*
X134142300Y-113947501D01*
X139379802Y-108710000D01*
X142945198Y-108710000D01*
X142200199Y-109455000D01*
G04 #@! TA.AperFunction,Conductor*
D25*
G36*
X142200199Y-109455000D02*
G01*
X142138061Y-109455000D01*
X141938102Y-109494774D01*
X141749744Y-109572795D01*
X141580226Y-109686063D01*
X141436063Y-109830226D01*
X141322795Y-109999744D01*
X141244774Y-110188102D01*
X141205000Y-110388061D01*
X141205000Y-110591939D01*
X141244774Y-110791898D01*
X141322795Y-110980256D01*
X141436063Y-111149774D01*
X141580226Y-111293937D01*
X141749744Y-111407205D01*
X141938102Y-111485226D01*
X142138061Y-111525000D01*
X142341939Y-111525000D01*
X142541898Y-111485226D01*
X142730256Y-111407205D01*
X142899774Y-111293937D01*
X143043937Y-111149774D01*
X143157205Y-110980256D01*
X143235226Y-110791898D01*
X143275000Y-110591939D01*
X143275000Y-110529801D01*
X144459802Y-109345000D01*
X150127195Y-109345000D01*
X147927198Y-111544999D01*
X141097326Y-111544999D01*
X141060001Y-111541323D01*
X141022676Y-111544999D01*
X141022668Y-111544999D01*
X140911015Y-111555996D01*
X140767754Y-111599453D01*
X140635725Y-111670025D01*
X140520000Y-111764998D01*
X140496202Y-111793996D01*
X139342699Y-112947500D01*
X139280561Y-112947500D01*
X139080602Y-112987274D01*
X138892244Y-113065295D01*
X138722726Y-113178563D01*
X138578563Y-113322726D01*
X138465295Y-113492244D01*
X138387274Y-113680602D01*
X138347500Y-113880561D01*
X138347500Y-113947501D01*
X134142300Y-113947501D01*
X139379802Y-108710000D01*
X142945198Y-108710000D01*
X142200199Y-109455000D01*
G37*
G04 #@! TD.AperFunction*
D24*
X167573992Y-85856747D02*
X167556928Y-86030001D01*
X167556928Y-89045010D01*
X166954812Y-89045010D01*
X166770000Y-88860198D01*
X166770000Y-88798061D01*
X166730226Y-88598102D01*
X166652205Y-88409744D01*
X166538937Y-88240226D01*
X166394774Y-88096063D01*
X166225256Y-87982795D01*
X166036898Y-87904774D01*
X165836939Y-87865000D01*
X165633061Y-87865000D01*
X165433102Y-87904774D01*
X165244744Y-87982795D01*
X165075226Y-88096063D01*
X164931063Y-88240226D01*
X164817795Y-88409744D01*
X164739774Y-88598102D01*
X164700000Y-88798061D01*
X164700000Y-89001939D01*
X164739774Y-89201898D01*
X164817795Y-89390256D01*
X164931063Y-89559774D01*
X165075226Y-89703937D01*
X165244744Y-89817205D01*
X165433102Y-89895226D01*
X165633061Y-89935000D01*
X165695198Y-89935000D01*
X166076215Y-90316018D01*
X166100009Y-90345011D01*
X166129002Y-90368805D01*
X166129006Y-90368809D01*
X166185277Y-90414989D01*
X166215734Y-90439984D01*
X166347763Y-90510556D01*
X166491024Y-90554013D01*
X166602677Y-90565010D01*
X166602686Y-90565010D01*
X166640009Y-90568686D01*
X166677332Y-90565010D01*
X166890208Y-90565010D01*
X166140219Y-91315000D01*
X159143612Y-91315000D01*
X159368682Y-91187800D01*
X159595201Y-90752086D01*
X159732364Y-90280552D01*
X159774900Y-89791319D01*
X159721173Y-89303188D01*
X159573250Y-88834919D01*
X159368682Y-88452200D01*
X159016464Y-88253141D01*
X157449605Y-89820000D01*
X157463748Y-89834143D01*
X157284143Y-90013748D01*
X157270000Y-89999605D01*
X157255858Y-90013748D01*
X157076253Y-89834143D01*
X157090395Y-89820000D01*
X155523536Y-88253141D01*
X155171318Y-88452200D01*
X154944799Y-88887914D01*
X154807636Y-89359448D01*
X154765100Y-89848681D01*
X154818827Y-90336812D01*
X154966750Y-90805081D01*
X155171318Y-91187800D01*
X155396388Y-91315000D01*
X155008711Y-91315000D01*
X154964774Y-91271063D01*
X154795256Y-91157795D01*
X154606898Y-91079774D01*
X154406939Y-91040000D01*
X154203061Y-91040000D01*
X154003102Y-91079774D01*
X153814744Y-91157795D01*
X153645226Y-91271063D01*
X153501063Y-91415226D01*
X153387795Y-91584744D01*
X153309774Y-91773102D01*
X153270000Y-91973061D01*
X153270000Y-92176939D01*
X153309774Y-92376898D01*
X153387795Y-92565256D01*
X153501063Y-92734774D01*
X153645226Y-92878937D01*
X153814744Y-92992205D01*
X154003102Y-93070226D01*
X154203061Y-93110000D01*
X154406939Y-93110000D01*
X154606898Y-93070226D01*
X154795256Y-92992205D01*
X154964774Y-92878937D01*
X155008711Y-92835000D01*
X156575987Y-92835000D01*
X156562795Y-92854744D01*
X156484774Y-93043102D01*
X156445000Y-93243061D01*
X156445000Y-93446939D01*
X156478039Y-93613039D01*
X156311939Y-93580000D01*
X156108061Y-93580000D01*
X155908102Y-93619774D01*
X155719744Y-93697795D01*
X155550226Y-93811063D01*
X155406063Y-93955226D01*
X155292795Y-94124744D01*
X155214774Y-94313102D01*
X155175000Y-94513061D01*
X155175000Y-94716939D01*
X155214774Y-94916898D01*
X155292795Y-95105256D01*
X155305987Y-95125000D01*
X144848711Y-95125000D01*
X144804774Y-95081063D01*
X144635256Y-94967795D01*
X144446898Y-94889774D01*
X144246939Y-94850000D01*
X144179999Y-94850000D01*
X144179999Y-94632290D01*
X144807359Y-94004931D01*
X144952756Y-93944705D01*
X145122274Y-93831437D01*
X145266437Y-93687274D01*
X145379705Y-93517756D01*
X145439931Y-93372358D01*
X147573928Y-91238362D01*
X147573928Y-91678000D01*
X147586188Y-91802482D01*
X147622498Y-91922180D01*
X147681463Y-92032494D01*
X147760815Y-92129185D01*
X147857506Y-92208537D01*
X147967820Y-92267502D01*
X148087518Y-92303812D01*
X148212000Y-92316072D01*
X151928000Y-92316072D01*
X152052482Y-92303812D01*
X152172180Y-92267502D01*
X152282494Y-92208537D01*
X152379185Y-92129185D01*
X152458537Y-92032494D01*
X152517502Y-91922180D01*
X152553812Y-91802482D01*
X152566072Y-91678000D01*
X152566072Y-88073536D01*
X155703141Y-88073536D01*
X157270000Y-89640395D01*
X158836859Y-88073536D01*
X158637800Y-87721318D01*
X158202086Y-87494799D01*
X157730552Y-87357636D01*
X157241319Y-87315100D01*
X156753188Y-87368827D01*
X156284919Y-87516750D01*
X155902200Y-87721318D01*
X155703141Y-88073536D01*
X152566072Y-88073536D01*
X152566072Y-87962000D01*
X152553812Y-87837518D01*
X152517502Y-87717820D01*
X152458537Y-87607506D01*
X152379185Y-87510815D01*
X152282494Y-87431463D01*
X152172180Y-87372498D01*
X152052482Y-87336188D01*
X151928000Y-87323928D01*
X148212000Y-87323928D01*
X148087518Y-87336188D01*
X148038851Y-87350951D01*
X148454793Y-86935009D01*
X163792678Y-86935009D01*
X163830000Y-86938685D01*
X163867322Y-86935009D01*
X163867333Y-86935009D01*
X163978986Y-86924012D01*
X164122247Y-86880555D01*
X164254276Y-86809983D01*
X164370001Y-86715010D01*
X164393803Y-86686007D01*
X165229812Y-85850000D01*
X167576039Y-85850000D01*
X167573992Y-85856747D01*
G04 #@! TA.AperFunction,Conductor*
D25*
G36*
X167573992Y-85856747D02*
G01*
X167556928Y-86030001D01*
X167556928Y-89045010D01*
X166954812Y-89045010D01*
X166770000Y-88860198D01*
X166770000Y-88798061D01*
X166730226Y-88598102D01*
X166652205Y-88409744D01*
X166538937Y-88240226D01*
X166394774Y-88096063D01*
X166225256Y-87982795D01*
X166036898Y-87904774D01*
X165836939Y-87865000D01*
X165633061Y-87865000D01*
X165433102Y-87904774D01*
X165244744Y-87982795D01*
X165075226Y-88096063D01*
X164931063Y-88240226D01*
X164817795Y-88409744D01*
X164739774Y-88598102D01*
X164700000Y-88798061D01*
X164700000Y-89001939D01*
X164739774Y-89201898D01*
X164817795Y-89390256D01*
X164931063Y-89559774D01*
X165075226Y-89703937D01*
X165244744Y-89817205D01*
X165433102Y-89895226D01*
X165633061Y-89935000D01*
X165695198Y-89935000D01*
X166076215Y-90316018D01*
X166100009Y-90345011D01*
X166129002Y-90368805D01*
X166129006Y-90368809D01*
X166185277Y-90414989D01*
X166215734Y-90439984D01*
X166347763Y-90510556D01*
X166491024Y-90554013D01*
X166602677Y-90565010D01*
X166602686Y-90565010D01*
X166640009Y-90568686D01*
X166677332Y-90565010D01*
X166890208Y-90565010D01*
X166140219Y-91315000D01*
X159143612Y-91315000D01*
X159368682Y-91187800D01*
X159595201Y-90752086D01*
X159732364Y-90280552D01*
X159774900Y-89791319D01*
X159721173Y-89303188D01*
X159573250Y-88834919D01*
X159368682Y-88452200D01*
X159016464Y-88253141D01*
X157449605Y-89820000D01*
X157463748Y-89834143D01*
X157284143Y-90013748D01*
X157270000Y-89999605D01*
X157255858Y-90013748D01*
X157076253Y-89834143D01*
X157090395Y-89820000D01*
X155523536Y-88253141D01*
X155171318Y-88452200D01*
X154944799Y-88887914D01*
X154807636Y-89359448D01*
X154765100Y-89848681D01*
X154818827Y-90336812D01*
X154966750Y-90805081D01*
X155171318Y-91187800D01*
X155396388Y-91315000D01*
X155008711Y-91315000D01*
X154964774Y-91271063D01*
X154795256Y-91157795D01*
X154606898Y-91079774D01*
X154406939Y-91040000D01*
X154203061Y-91040000D01*
X154003102Y-91079774D01*
X153814744Y-91157795D01*
X153645226Y-91271063D01*
X153501063Y-91415226D01*
X153387795Y-91584744D01*
X153309774Y-91773102D01*
X153270000Y-91973061D01*
X153270000Y-92176939D01*
X153309774Y-92376898D01*
X153387795Y-92565256D01*
X153501063Y-92734774D01*
X153645226Y-92878937D01*
X153814744Y-92992205D01*
X154003102Y-93070226D01*
X154203061Y-93110000D01*
X154406939Y-93110000D01*
X154606898Y-93070226D01*
X154795256Y-92992205D01*
X154964774Y-92878937D01*
X155008711Y-92835000D01*
X156575987Y-92835000D01*
X156562795Y-92854744D01*
X156484774Y-93043102D01*
X156445000Y-93243061D01*
X156445000Y-93446939D01*
X156478039Y-93613039D01*
X156311939Y-93580000D01*
X156108061Y-93580000D01*
X155908102Y-93619774D01*
X155719744Y-93697795D01*
X155550226Y-93811063D01*
X155406063Y-93955226D01*
X155292795Y-94124744D01*
X155214774Y-94313102D01*
X155175000Y-94513061D01*
X155175000Y-94716939D01*
X155214774Y-94916898D01*
X155292795Y-95105256D01*
X155305987Y-95125000D01*
X144848711Y-95125000D01*
X144804774Y-95081063D01*
X144635256Y-94967795D01*
X144446898Y-94889774D01*
X144246939Y-94850000D01*
X144179999Y-94850000D01*
X144179999Y-94632290D01*
X144807359Y-94004931D01*
X144952756Y-93944705D01*
X145122274Y-93831437D01*
X145266437Y-93687274D01*
X145379705Y-93517756D01*
X145439931Y-93372358D01*
X147573928Y-91238362D01*
X147573928Y-91678000D01*
X147586188Y-91802482D01*
X147622498Y-91922180D01*
X147681463Y-92032494D01*
X147760815Y-92129185D01*
X147857506Y-92208537D01*
X147967820Y-92267502D01*
X148087518Y-92303812D01*
X148212000Y-92316072D01*
X151928000Y-92316072D01*
X152052482Y-92303812D01*
X152172180Y-92267502D01*
X152282494Y-92208537D01*
X152379185Y-92129185D01*
X152458537Y-92032494D01*
X152517502Y-91922180D01*
X152553812Y-91802482D01*
X152566072Y-91678000D01*
X152566072Y-88073536D01*
X155703141Y-88073536D01*
X157270000Y-89640395D01*
X158836859Y-88073536D01*
X158637800Y-87721318D01*
X158202086Y-87494799D01*
X157730552Y-87357636D01*
X157241319Y-87315100D01*
X156753188Y-87368827D01*
X156284919Y-87516750D01*
X155902200Y-87721318D01*
X155703141Y-88073536D01*
X152566072Y-88073536D01*
X152566072Y-87962000D01*
X152553812Y-87837518D01*
X152517502Y-87717820D01*
X152458537Y-87607506D01*
X152379185Y-87510815D01*
X152282494Y-87431463D01*
X152172180Y-87372498D01*
X152052482Y-87336188D01*
X151928000Y-87323928D01*
X148212000Y-87323928D01*
X148087518Y-87336188D01*
X148038851Y-87350951D01*
X148454793Y-86935009D01*
X163792678Y-86935009D01*
X163830000Y-86938685D01*
X163867322Y-86935009D01*
X163867333Y-86935009D01*
X163978986Y-86924012D01*
X164122247Y-86880555D01*
X164254276Y-86809983D01*
X164370001Y-86715010D01*
X164393803Y-86686007D01*
X165229812Y-85850000D01*
X167576039Y-85850000D01*
X167573992Y-85856747D01*
G37*
G04 #@! TD.AperFunction*
M02*
