M48
; DRILL file {KiCad (5.1.10-1-10_14)} date Wednesday, November 10, 2021 at 08:03:21 PM
; FORMAT={-:-/ absolute / metric / decimal}
; #@! TF.CreationDate,2021-11-10T20:03:21-05:00
; #@! TF.GenerationSoftware,Kicad,Pcbnew,(5.1.10-1-10_14)
; #@! TF.FileFunction,Plated,1,2,PTH
FMAT,2
METRIC
T1C0.400
T2C0.600
T3C0.762
T4C1.020
T5C1.100
T6C1.800
T7C2.700
%
G90
G05
T1
X116.84Y-119.38
X117.475Y-87.63
X117.475Y-93.98
X117.475Y-113.03
X118.745Y-96.52
X120.015Y-76.2
X120.015Y-87.63
X120.015Y-101.6
X120.65Y-91.44
X120.65Y-113.665
X121.92Y-93.98
X121.92Y-113.665
X121.92Y-119.38
X123.19Y-93.98
X123.19Y-116.205
X125.73Y-93.98
X126.365Y-87.63
X127.0Y-119.38
X127.635Y-113.03
X128.905Y-76.2
X128.905Y-91.44
X129.54Y-88.265
X130.175Y-101.6
X130.81Y-93.98
X130.81Y-113.665
X131.36Y-81.195
X132.08Y-93.98
X132.08Y-119.38
X133.35Y-112.395
X133.35Y-116.84
X133.985Y-110.49
X134.62Y-93.98
X135.255Y-87.63
X135.89Y-119.38
X136.525Y-113.03
X137.795Y-76.2
X137.885Y-91.44
X138.43Y-88.265
X139.065Y-113.03
X139.382Y-113.983
X139.7Y-93.98
X139.7Y-101.6
X140.335Y-85.725
X140.97Y-119.38
X142.24Y-90.805
X142.24Y-110.49
X142.24Y-116.84
X144.145Y-95.885
X144.463Y-93.027
X144.78Y-119.38
X145.415Y-113.03
X147.955Y-101.6
X148.59Y-113.665
X149.86Y-119.38
X151.13Y-110.49
X151.13Y-117.475
X152.4Y-97.79
X153.67Y-119.38
X154.305Y-92.075
X154.305Y-113.03
X156.21Y-94.615
X156.845Y-116.84
X157.48Y-93.345
X157.48Y-101.6
X157.54Y-113.725
X158.75Y-119.38
X159.384Y-110.491
X162.56Y-110.49
X163.952Y-110.612
X165.1Y-109.22
X165.735Y-88.9
X166.37Y-109.22
X166.945Y-113.725
X172.72Y-99.06
X172.72Y-100.33
X181.61Y-105.41
X187.96Y-95.885
X189.865Y-96.52
X191.135Y-96.52
X193.04Y-96.88
X196.215Y-75.565
X198.12Y-77.47
X214.4Y-92.559
T2
X214.4Y-95.25
X215.9Y-95.25
X220.98Y-95.25
X222.48Y-95.25
T3
X176.53Y-102.235
X176.53Y-104.775
X176.53Y-107.315
X176.53Y-109.855
X176.53Y-112.395
X176.53Y-114.935
X176.53Y-117.475
X176.53Y-120.015
T4
X181.61Y-102.235
X181.61Y-120.015
X181.84Y-108.585
X181.84Y-111.125
X181.84Y-113.665
X184.15Y-102.235
X184.15Y-120.015
X186.69Y-102.235
X186.69Y-120.015
X189.23Y-102.235
X189.23Y-120.015
X191.77Y-102.235
X191.77Y-120.015
X194.31Y-102.235
X194.31Y-120.015
X196.85Y-102.235
X196.85Y-120.015
X199.39Y-102.235
X199.39Y-120.015
X201.93Y-102.235
X201.93Y-120.015
X204.47Y-102.235
X204.47Y-120.015
X207.01Y-102.235
X207.01Y-120.015
X209.55Y-102.235
X209.55Y-120.015
X212.09Y-102.235
X212.09Y-120.015
X214.63Y-102.235
X214.63Y-120.015
X217.17Y-102.235
X217.17Y-120.015
X219.71Y-102.235
X219.71Y-120.015
X222.25Y-102.235
X222.25Y-120.015
X224.79Y-102.235
X224.79Y-120.015
X227.33Y-102.235
X227.33Y-120.015
X229.87Y-102.235
X229.87Y-120.015
T5
X215.9Y-77.47
X220.98Y-77.47
T6
X169.545Y-87.63
X169.545Y-93.13
X173.745Y-87.63
X173.745Y-93.13
X177.945Y-87.63
X177.945Y-93.13
X182.145Y-87.63
X182.145Y-93.13
X193.675Y-87.63
X193.675Y-93.13
X197.875Y-87.63
X197.875Y-93.13
X202.075Y-87.63
X202.075Y-93.13
X206.275Y-87.63
X206.275Y-93.13
T7
X150.07Y-89.82
X157.27Y-89.82
T2
X146.92Y-83.27G85X146.92Y-84.37
G05
X160.42Y-83.27G85X160.42Y-84.37
G05
T0
M30
